<svg width="78" height="80" viewBox="0 0 78 80" fill="none" xmlns="http://www.w3.org/2000/svg">
<rect x="0.5" y="0.5" width="77" height="78.3514" rx="38.5" stroke="white"/>
<path d="M39 60.4286C38.5993 60.4276 38.1991 60.4014 37.8018 60.35C34.1319 54.4694 32.0999 47.7151 31.9161 40.7857H63.9107C63.9536 40.1929 64 39.6018 64 39C64 34.0555 62.5338 29.222 59.7867 25.1108C57.0397 20.9995 53.1352 17.7952 48.5671 15.903C43.9989 14.0108 38.9723 13.5157 34.1228 14.4804C29.2732 15.445 24.8187 17.826 21.3223 21.3223C17.826 24.8187 15.445 29.2732 14.4804 34.1228C13.5157 38.9723 14.0108 43.9989 15.903 48.5671C17.7952 53.1352 20.9995 57.0397 25.1108 59.7867C29.222 62.5338 34.0555 64 39 64V60.4286ZM60.3393 37.2143H49.6482C49.4562 30.6434 47.7753 24.2019 44.7321 18.375C48.9436 19.5502 52.6954 21.9844 55.4848 25.3515C58.2742 28.7186 59.968 32.8577 60.3393 37.2143ZM40.1964 17.65C43.867 23.5304 45.8996 30.2848 46.0839 37.2143H31.9161C32.1004 30.2848 34.133 23.5304 37.8036 17.65C38.599 17.5457 39.4046 17.5457 40.2 17.65H40.1964ZM33.2661 18.3732C30.2235 24.2009 28.5432 30.643 28.3518 37.2143H17.6607C18.0322 32.8578 19.7261 28.7188 22.5155 25.3518C25.3049 21.9847 29.0565 19.5505 33.2679 18.375L33.2661 18.3732ZM17.6607 40.7857H28.3518C28.544 47.3565 30.2249 53.7981 33.2679 59.625C29.0565 58.4495 25.3049 56.0153 22.5155 52.6483C19.7261 49.2812 18.0322 45.1423 17.6607 40.7857Z" fill="white"/>
<path fill-rule="evenodd" clip-rule="evenodd" d="M54.9905 55.2162L63.9995 58.5946V55.2162L54.9905 50.9932V46.7702C54.9905 46.3222 54.8007 45.8926 54.4628 45.5758C54.1249 45.259 53.6666 45.0811 53.1887 45.0811C52.7109 45.0811 52.2526 45.259 51.9147 45.5758C51.5768 45.8926 51.3869 46.3222 51.3869 46.7702V50.9932L42.3779 55.2162V58.5946L51.3869 55.2162V61.1284L47.7833 63.6621V65.3513L53.1887 63.6621L58.5941 65.3513V63.6621L54.9905 61.1284V55.2162Z" fill="white"/>
</svg>
