<svg width="78" height="73" viewBox="0 0 78 73" fill="none" xmlns="http://www.w3.org/2000/svg">
<rect x="0.5" y="0.5" width="77" height="72" rx="36" stroke="white"/>
<path d="M64 59H14V54H16.5V16.5C16.5 15.837 16.7634 15.2011 17.2322 14.7322C17.7011 14.2634 18.337 14 19 14H54C54.663 14 55.2989 14.2634 55.7678 14.7322C56.2366 15.2011 56.5 15.837 56.5 16.5V29H61.5V54H64V59ZM51.5 54H56.5V34H41.5V54H46.5V39H51.5V54ZM51.5 29V19H21.5V54H36.5V29H51.5ZM26.5 34H31.5V39H26.5V34ZM26.5 44H31.5V49H26.5V44ZM26.5 24H31.5V29H26.5V24Z" fill="white"/>
</svg>
