<svg width="78" height="78" viewBox="0 0 78 78" fill="none" xmlns="http://www.w3.org/2000/svg">
<rect x="0.5" y="0.5" width="77" height="77" rx="38.5" stroke="white"/>
<path d="M60.9008 39L63.6641 34.2242C63.9962 33.6496 64.0865 32.9667 63.9152 32.3255C63.7438 31.6844 63.3249 31.1375 62.7505 30.8051L57.9699 28.0418V22.5352C57.9699 21.8713 57.7062 21.2347 57.2368 20.7653C56.7674 20.2959 56.1308 20.0322 55.467 20.0322H49.963L47.2023 15.2539C46.8689 14.6805 46.3231 14.2615 45.683 14.0875C45.3656 14.0015 45.0342 13.9793 44.7081 14.0222C44.382 14.0652 44.0676 14.1725 43.7833 14.3378L39.0027 17.1012L34.2221 14.3353C33.6473 14.0034 32.9641 13.9135 32.3229 14.0853C31.6817 14.2571 31.135 14.6766 30.8031 15.2514L28.0399 20.0322H22.536C21.8721 20.0322 21.2355 20.2959 20.7661 20.7653C20.2967 21.2347 20.033 21.8713 20.033 22.5352V28.0393L15.2524 30.8026C14.9672 30.9667 14.7172 31.1855 14.5167 31.4465C14.3163 31.7076 14.1694 32.0056 14.0845 32.3235C13.9997 32.6415 13.9784 32.9731 14.0221 33.2993C14.0657 33.6254 14.1734 33.9398 14.3389 34.2242L17.1021 39L14.3389 43.7757C14.0085 44.3508 13.9188 45.0333 14.0895 45.6742C14.2601 46.3152 14.6773 46.8627 15.2499 47.1973L20.0305 49.9606V55.4647C20.0305 56.1286 20.2942 56.7652 20.7636 57.2346C21.233 57.704 21.8696 57.9677 22.5335 57.9677H28.0399L30.8031 62.7485C31.0247 63.1273 31.3411 63.4419 31.7211 63.6613C32.1012 63.8808 32.5318 63.9975 32.9707 64C33.4062 64 33.8392 63.8849 34.2246 63.6621L39.0002 60.8988L43.7808 63.6621C44.3555 63.9935 45.0382 64.0835 45.6792 63.9122C46.3201 63.7409 46.867 63.3224 47.1998 62.7485L49.9605 57.9677H55.4645C56.1283 57.9677 56.7649 57.704 57.2343 57.2346C57.7037 56.7652 57.9674 56.1286 57.9674 55.4647V49.9606L62.748 47.1973C63.0327 47.0327 63.2823 46.8137 63.4823 46.5526C63.6824 46.2915 63.829 45.9936 63.9139 45.6758C63.9987 45.3581 64.0201 45.0267 63.9768 44.7007C63.9335 44.3746 63.8264 44.0603 63.6615 43.7757L60.9008 39ZM32.7429 26.4599C33.739 26.4602 34.6941 26.8562 35.3982 27.5608C36.1023 28.2654 36.4976 29.2208 36.4973 30.2169C36.497 31.213 36.101 32.1682 35.3964 32.8723C34.6918 33.5764 33.7364 33.9718 32.7404 33.9714C31.7443 33.9711 30.7892 33.5751 30.0851 32.8705C29.381 32.1659 28.9857 31.2105 28.986 30.2144C28.9863 29.2183 29.3823 28.2632 30.0869 27.5591C30.7914 26.8549 31.7468 26.4596 32.7429 26.4599ZM33.4938 50.4888L29.4891 47.4877L44.5067 27.4636L48.5113 30.4647L33.4938 50.4888ZM45.2575 51.49C44.7643 51.4898 44.276 51.3925 43.8204 51.2036C43.3648 51.0147 42.9509 50.7379 42.6023 50.389C42.2536 50.0402 41.9771 49.6261 41.7885 49.1703C41.6 48.7146 41.503 48.2262 41.5031 47.733C41.5033 47.2397 41.6006 46.7514 41.7895 46.2958C41.9784 45.8402 42.2552 45.4262 42.604 45.0776C42.9529 44.729 43.367 44.4524 43.8227 44.2639C44.2784 44.0753 44.7668 43.9783 45.26 43.9784C46.2561 43.9788 47.2112 44.3748 47.9153 45.0794C48.6194 45.7839 49.0148 46.7394 49.0144 47.7355C49.0141 48.7315 48.6181 49.6867 47.9135 50.3908C47.209 51.0949 46.2536 51.4903 45.2575 51.49Z" fill="white"/>
</svg>
