<svg width="78" height="78" viewBox="0 0 78 78" fill="none" xmlns="http://www.w3.org/2000/svg">
<rect x="0.5" y="0.5" width="77" height="77" rx="38.5" stroke="#FFFEFE"/>
<path d="M43.775 17.439L38.575 22.5366H44C49.3043 22.5366 54.3914 24.5923 58.1421 28.2516C61.8929 31.9108 64 36.8738 64 42.0488H59C59 38.1676 57.4196 34.4453 54.6066 31.7009C51.7936 28.9564 47.9782 27.4146 44 27.4146H38.575L43.8 32.5122L40.25 35.9512L29 24.9756L32.525 21.5366L40.25 14L43.775 17.439ZM14 39.6098V64H54V39.6098H14ZM19 55.6098V48.0244C20.5028 47.1729 21.7522 45.9539 22.625 44.4878H45.375C46.2478 45.9539 47.4972 47.1729 49 48.0244V55.6098C47.5184 56.4608 46.287 57.6706 45.425 59.122H22.625C21.7491 57.6645 20.4999 56.4542 19 55.6098ZM34 56.6829C36.07 56.6829 37.75 54.5 37.75 51.8049C37.75 49.1098 36.07 46.9268 34 46.9268C31.93 46.9268 30.25 49.1098 30.25 51.8049C30.25 54.5 31.93 56.6829 34 56.6829Z" fill="white"/>
</svg>
