<svg width="126" height="45" viewBox="0 0 126 45" fill="none" xmlns="http://www.w3.org/2000/svg">
<path d="M126 0H0V45H126V0Z" fill="#901918"/>
<path d="M24.7995 11.7034C19.5407 12.353 8.55827 14.6258 7.00016 22C7.00016 22 6.74456 9.45645 26.8311 9H26.9578L27 9.10853L24.7995 11.7034Z" fill="white"/>
<path d="M36.0553 23.1018C35.4152 28.0535 33.1354 38.3905 25 40C25 40 38.9011 39.9887 38.9932 21.1478L39 21.0266L38.8741 21L36.0553 23.1018Z" fill="white"/>
<path d="M40.7889 6.04644L40.9382 6.0502L40.9404 6.2029C42.0812 28.6396 26.4609 32 26.4609 32C35.4994 28.1187 37.3769 15.2726 37.7558 9.2465C31.7127 9.65104 18.8351 11.5975 15 20.6442C15 20.6442 18.2836 5.04269 40.7889 6.04644Z" fill="white"/>
<path d="M49.8872 26.5961C49.9818 29.1279 50.3793 29.9604 50.9638 30.2127C51.4664 30.424 52.0005 30.4521 52.4589 30.4521C52.7701 30.4521 52.9404 30.5146 52.9404 30.726C52.9467 30.9718 52.6965 31.0214 52.278 31.0214C50.4234 31.0214 49.269 30.9201 48.7328 30.9481C48.4595 30.9201 47.1221 31.0214 45.646 31.0214C45.2339 31.0214 45.0005 31.0214 45.0005 30.6958C44.99 30.5017 45.154 30.4607 45.4631 30.4499C45.8268 30.4499 46.3525 30.4219 46.7331 30.2903C47.4733 30.0056 47.5553 29.0977 47.5553 26.2575L47.488 7.08312C47.4712 6.42752 47.5553 6.00052 47.8434 6.00052C48.1356 5.98332 48.43 6.39302 48.9137 6.99252C49.2816 7.38722 53.7331 12.6774 58.008 17.3486C59.9908 19.5957 63.9376 24.226 64.4486 24.763L64.5643 24.7522L64.0365 10.2382C64.0028 8.23042 63.7337 7.63312 63.023 7.30742C62.5793 7.12412 61.9022 7.12412 61.4922 7.11332C61.1641 7.12412 61.0548 6.99252 61.0485 6.81142C61.0485 6.53752 61.3618 6.49872 61.7739 6.49872C63.2711 6.49872 64.6421 6.58932 65.254 6.58932C65.5736 6.60222 66.6523 6.49872 68.0506 6.49872C68.4249 6.49872 68.7171 6.53972 68.7171 6.81142C68.7277 6.99252 68.5742 7.09612 68.2083 7.11332C67.9223 7.11332 67.7036 7.11332 67.363 7.18662C66.5555 7.46702 66.3306 8.12262 66.3306 9.94712L66.3537 30.4089C66.3663 31.1271 66.2696 31.4118 66.0278 31.4118C65.6997 31.4118 65.3591 31.0193 65.029 30.6936C63.1807 28.7311 59.4273 24.5171 56.3889 21.1701C53.1948 17.6634 49.9461 13.637 49.4183 13.0202H49.3237L49.8872 26.5961Z" fill="white"/>
<path d="M76.0663 15.9351C75.9834 11.1522 75.9579 10.2841 75.8771 9.28931C75.7899 8.25721 75.5453 7.74211 74.5754 7.50951C74.3564 7.48881 73.8778 7.43892 73.478 7.43892C73.1632 7.43892 72.9548 7.38282 72.9548 7.14822C72.9314 6.94462 73.1547 6.84702 73.6077 6.84702C75.1348 6.84702 76.9788 6.92392 77.5339 6.94672C78.9567 6.93432 80.0967 6.84702 81.0878 6.84702C86.3389 6.84702 87.3279 9.87712 87.3577 11.553C87.4087 14.0847 86.0646 15.6443 84.4843 17.0005C86.8962 17.8686 89.8269 20.0928 89.8929 23.7438C89.9609 27.0667 87.6235 30.564 82.2831 30.564C81.9087 30.5744 81.0878 30.4602 80.2413 30.4269C79.3693 30.4103 78.4888 30.3605 78.0592 30.3605C77.7274 30.3605 77.1212 30.4103 76.4024 30.4103C75.7154 30.427 74.9965 30.4602 74.4117 30.4602C74.0267 30.4602 73.8076 30.3605 73.8076 30.1466C73.8076 30.0095 73.9204 29.9098 74.2883 29.9098C74.7179 29.8932 75.0412 29.8164 75.3028 29.7665C75.8877 29.6398 76.0238 28.9524 76.1238 28.0303C76.2578 26.751 76.2216 24.2838 76.1578 21.422L76.0663 15.9351ZM79.5586 16.4626C79.5586 16.6993 79.6373 16.7866 79.7564 16.7969C80.0286 16.8904 80.4327 16.8904 81.1282 16.8904C82.0683 16.8904 82.6978 16.7866 83.1912 16.2819C83.9271 15.6464 84.3546 14.5021 84.3333 12.9528C84.2908 10.8885 83.1019 8.15332 80.6241 8.15332C80.203 8.15332 79.9372 8.15331 79.6692 8.20731C79.4629 8.25721 79.4076 8.39421 79.4246 8.73901L79.5586 16.4626ZM83.4252 18.9444C82.7807 18.4667 82.1257 18.2299 80.9878 18.1822C80.454 18.1157 80.1732 18.1157 79.7351 18.1053C79.6373 18.1157 79.5862 18.232 79.5862 18.3815L79.7266 25.7625C79.7543 27.8559 79.8372 28.3875 80.7858 28.7842C81.5684 29.102 82.249 29.1248 82.8998 29.1373C84.2078 29.1373 86.3921 28.3896 86.3347 25.1498C86.2985 23.1893 85.6605 20.5975 83.4252 18.9444Z" fill="white"/>
<path d="M99.9295 17.3166H100.059C101.031 16.1693 105.166 11.5071 105.997 10.46C106.755 9.41281 107.386 8.63471 107.379 8.08401C107.369 7.74191 107.248 7.52502 106.954 7.50412C106.695 7.39982 106.598 7.31011 106.598 7.13491C106.587 6.92001 106.712 6.84702 107.038 6.84702C107.655 6.85952 109.234 6.93462 110.024 6.94722C110.924 6.92002 112.502 6.84702 113.391 6.85952C113.669 6.84702 113.906 6.93671 113.906 7.13491C113.906 7.39981 113.745 7.43742 113.508 7.43742C113.063 7.43742 112.347 7.58132 111.784 7.76902C110.905 8.17162 109.944 8.79951 108.711 10.1345C107.85 11.067 103.563 15.7709 102.6 16.9182C103.661 18.37 109.459 24.9951 110.596 26.1299C111.901 27.4482 113.226 28.8771 114.798 29.5217C115.681 29.9201 116.25 29.9848 116.587 29.9973C116.805 29.9973 116.994 30.0474 117 30.2351C117 30.4666 116.82 30.5438 116.278 30.5438L113.777 30.5647C112.906 30.5438 112.381 30.5647 111.767 30.5042C110.202 30.2998 109.423 29.626 108.157 28.4787C106.869 27.2438 101.031 20.0221 100.425 19.1022L100.082 18.6162H99.9486L99.9846 21.4906C100.037 24.3464 100.082 26.8412 100.201 28.1867C100.264 29.0649 100.531 29.7428 101.272 29.868C101.655 29.918 102.308 30.0223 102.691 30.0077C102.926 30.0077 103.068 30.1225 103.068 30.2497C103.076 30.4771 102.85 30.5417 102.547 30.5647C100.897 30.5543 99.0888 30.4771 98.3646 30.4771C97.7208 30.4771 95.8446 30.5647 94.7074 30.5647C94.3305 30.5543 94.1272 30.4771 94.1187 30.233C94.1187 30.0953 94.2394 30.0223 94.5973 30.0077C95.0399 30.0077 95.3829 29.9201 95.6074 29.868C96.1834 29.7407 96.3316 29.0628 96.4291 28.1366C96.5625 26.8391 96.5053 24.3464 96.4587 21.4906L96.3698 15.9628C96.2766 11.1796 96.2575 10.3077 96.1982 9.31062C96.1093 8.27382 95.8679 7.73781 94.9001 7.52291C94.682 7.50201 94.1992 7.43531 93.8053 7.43531C93.4622 7.43531 93.2971 7.39562 93.2822 7.13282C93.2822 6.93262 93.494 6.85751 93.9091 6.85751C95.4295 6.85751 97.2909 6.93462 97.9601 6.93462C98.6568 6.92002 100.474 6.85751 101.473 6.85751C101.882 6.85751 102.062 6.93462 102.062 7.13282C102.081 7.39772 101.891 7.45411 101.666 7.43531C101.387 7.43531 101.209 7.50202 100.861 7.51252C100.086 7.67732 99.8681 8.22382 99.8025 9.31062C99.7771 10.3098 99.8025 11.1796 99.8914 15.9732L99.9295 17.3166Z" fill="white"/>
<path d="M46.7742 36.1033L45.8358 36.1245C45.4652 36.1399 45.3202 36.1784 45.2316 36.317C45.1712 36.421 45.137 36.5018 45.1289 36.5577C45.1168 36.6058 45.0987 36.6327 45.0564 36.6327C45.0141 36.6327 45.0041 36.5981 45 36.5249C44.998 36.4152 45.1027 35.8184 45.1148 35.7703C45.135 35.674 45.1551 35.6471 45.1913 35.6471C45.2477 35.6471 45.3061 35.7048 45.4592 35.7125C45.6384 35.7337 45.8821 35.7414 46.0895 35.7433H48.5786C48.778 35.7433 48.9149 35.7241 49.0075 35.7125C49.1022 35.6933 49.1505 35.6837 49.1767 35.6837C49.225 35.6837 49.2331 35.726 49.2351 35.8261C49.2371 35.959 49.223 36.4152 49.2291 36.5885C49.223 36.652 49.2129 36.6924 49.1707 36.6905C49.1243 36.6905 49.1082 36.6674 49.1022 36.5634L49.0982 36.4999C49.08 36.319 48.9048 36.1341 48.347 36.1207L47.5495 36.1053L47.5979 38.812C47.6099 39.4203 47.62 39.9478 47.6643 40.2327C47.6784 40.4137 47.7207 40.5581 47.912 40.5812C48.0006 40.5927 48.1436 40.612 48.2383 40.6139C48.3047 40.612 48.3369 40.6351 48.3389 40.664C48.3389 40.7121 48.2866 40.7294 48.2181 40.7294C47.8053 40.7294 47.4106 40.7121 47.2293 40.7121C47.0863 40.7121 46.6896 40.7294 46.4379 40.7294C46.3573 40.7294 46.311 40.7121 46.311 40.6621C46.311 40.6351 46.3352 40.6158 46.4097 40.6139C46.5084 40.612 46.5809 40.5985 46.6332 40.585C46.7601 40.5581 46.7943 40.4137 46.8064 40.2212C46.8366 39.9478 46.8306 39.4203 46.8165 38.812L46.7742 36.1033Z" fill="white"/>
<path d="M50.7533 37.6006C50.733 36.5759 50.731 36.3863 50.7128 36.1751C50.6965 35.9541 50.6418 35.8348 50.4349 35.7898C50.3842 35.784 50.2767 35.7761 50.1915 35.7742C50.1185 35.7742 50.0841 35.7585 50.082 35.7097C50.082 35.6666 50.1246 35.6471 50.224 35.651C50.5525 35.6471 50.9541 35.6666 51.0839 35.6666C51.305 35.6666 51.7816 35.651 51.9763 35.6471C52.3758 35.6471 52.8017 35.6842 53.1444 35.9385C53.327 36.0695 53.5865 36.4058 53.5947 36.8654C53.6048 37.3581 53.4182 37.8157 52.7855 38.3633C53.3635 39.1181 53.8096 39.7106 54.195 40.1232C54.5539 40.5163 54.8135 40.5652 54.9088 40.5886C54.9778 40.6004 55.0346 40.6043 55.0853 40.6082C55.14 40.6043 55.1644 40.6297 55.1644 40.659C55.1644 40.7138 55.1198 40.7275 55.0508 40.7275H54.4404C54.0875 40.7236 53.9313 40.6864 53.765 40.6004C53.4892 40.442 53.2438 40.1232 52.8727 39.6109C52.6131 39.2374 52.319 38.7915 52.2298 38.6898C52.1993 38.6488 52.1628 38.641 52.1202 38.641L51.5666 38.6273C51.5382 38.6312 51.524 38.641 51.524 38.6722L51.526 38.77C51.5362 39.3958 51.5463 39.9296 51.5788 40.2073C51.599 40.4068 51.6396 40.5515 51.8302 40.5828C51.9296 40.5906 52.0635 40.6062 52.1405 40.6101C52.1933 40.6101 52.2237 40.6317 52.2277 40.6629C52.2277 40.7118 52.175 40.7294 52.0939 40.7294C51.7268 40.7294 51.2563 40.7118 51.163 40.7118C51.0454 40.706 50.6438 40.7294 50.3944 40.7294C50.3173 40.7294 50.2666 40.7118 50.2605 40.661C50.2605 40.6336 50.2909 40.6121 50.3619 40.6101C50.4593 40.6121 50.5383 40.5906 50.5931 40.5789C50.7209 40.5515 50.7493 40.4068 50.7675 40.2132C50.7939 39.9335 50.7837 39.3997 50.7736 38.7818L50.7533 37.6006ZM51.5159 38.1286C51.5159 38.201 51.528 38.2264 51.5686 38.2479C51.7045 38.2909 51.8951 38.3124 52.0533 38.3124C52.3068 38.3124 52.39 38.2811 52.5015 38.199C52.6861 38.0543 52.8686 37.7395 52.8585 37.188C52.8382 36.2474 52.2399 35.96 51.8688 35.96C51.7045 35.96 51.5909 35.9678 51.5301 35.9952C51.4875 36.0069 51.4794 36.0245 51.4794 36.0812L51.5159 38.1286Z" fill="white"/>
<path d="M56.2108 39.0258C56.1739 39.0258 56.1646 39.0334 56.1508 39.079L55.7721 40.0058C55.7052 40.1692 55.6728 40.3344 55.6775 40.4028C55.6821 40.5243 55.7513 40.6136 55.9707 40.6098H56.0769C56.1669 40.6098 56.1854 40.625 56.1854 40.663C56.1854 40.7161 56.1415 40.7256 56.0653 40.7294C55.8345 40.7294 55.5181 40.7085 55.3011 40.7142C55.2249 40.7066 54.8255 40.7294 54.4561 40.7294C54.3545 40.7294 54.3175 40.7161 54.3175 40.6649C54.3152 40.6269 54.3429 40.6136 54.4006 40.6098C54.4653 40.6136 54.5646 40.606 54.62 40.5946C54.9502 40.5566 55.0818 40.3363 55.2226 40.0115L56.945 35.9187C57.0282 35.7212 57.0651 35.6471 57.1367 35.6471C57.2059 35.6471 57.2521 35.7079 57.3237 35.8579C57.5084 36.2169 58.709 38.8739 59.1985 39.871C59.4802 40.4502 59.6926 40.5566 59.8473 40.5832C59.9627 40.606 60.062 40.6079 60.1544 40.6079C60.2121 40.6079 60.2467 40.6155 60.2467 40.663C60.249 40.7161 60.1798 40.7256 59.9189 40.7256C59.6603 40.7256 59.1315 40.7256 58.5566 40.7161C58.4296 40.7066 58.335 40.7085 58.335 40.663C58.3327 40.625 58.3627 40.6098 58.4366 40.606C58.4943 40.5946 58.5382 40.5319 58.5012 40.4483L57.8963 39.0676C57.8801 39.0334 57.8524 39.0277 57.8178 39.0277H56.2108V39.0258ZM57.6769 38.6973C57.7139 38.6973 57.7162 38.6821 57.7093 38.6517L57.0282 37.043C57.0212 37.024 57.0051 36.986 56.9912 36.986C56.9704 36.986 56.9566 37.024 56.9473 37.043L56.317 38.6517C56.3124 38.6821 56.3216 38.6992 56.347 38.6992L57.6769 38.6973Z" fill="white"/>
<path d="M59.4674 36.3018C59.29 35.9408 59.1739 35.8679 58.9123 35.8045C58.8076 35.7738 58.6939 35.7796 58.6392 35.7738C58.5778 35.7738 58.5528 35.7508 58.5528 35.7124C58.5505 35.6586 58.6256 35.6548 58.7303 35.649C59.108 35.649 59.5107 35.6682 59.7632 35.6682C59.9475 35.6701 60.282 35.6528 60.6347 35.649C60.7211 35.649 60.8053 35.6682 60.8053 35.7124C60.8053 35.7604 60.7575 35.7738 60.6961 35.7738C60.5846 35.7738 60.4731 35.7872 60.4185 35.8199C60.373 35.8506 60.348 35.9044 60.3503 35.96C60.3503 36.0503 60.4185 36.2346 60.5277 36.4708L61.8042 39.4584H61.8337C62.125 38.7403 63.0055 36.6148 63.167 36.1789C63.2012 36.0887 63.2285 35.9888 63.2262 35.9274C63.2239 35.8852 63.1943 35.8256 63.1306 35.8064C63.0465 35.7872 62.935 35.7757 62.8462 35.7757C62.7802 35.7757 62.7211 35.7719 62.7211 35.72C62.7188 35.6701 62.7825 35.6509 62.9213 35.6471C63.2717 35.6471 63.5743 35.6701 63.6699 35.6701C63.7859 35.6701 64.1227 35.6471 64.332 35.6471C64.4253 35.6471 64.4799 35.6701 64.4821 35.7104C64.4821 35.7623 64.4412 35.7738 64.3707 35.7738C64.3047 35.7738 64.15 35.7738 64.0248 35.8487C63.9338 35.9082 63.8246 36.0215 63.6494 36.4439C63.3832 37.066 63.2012 37.4193 62.8326 38.2276C62.398 39.1972 62.0795 39.9115 61.9316 40.2437C61.7564 40.6296 61.7177 40.7294 61.6176 40.7294C61.522 40.7294 61.4788 40.6392 61.3377 40.3205L59.4674 36.3018Z" fill="white"/>
<path d="M65.1809 37.6257C65.1642 36.6142 65.1579 36.4274 65.1432 36.2212C65.1222 35.9996 65.0698 35.8879 64.8495 35.8397C64.8013 35.8397 64.688 35.8263 64.5936 35.8263C64.5244 35.8263 64.4845 35.807 64.4824 35.7627C64.4824 35.7203 64.5286 35.703 64.6293 35.6991C64.8097 35.6991 64.9921 35.7107 65.1537 35.7107C65.3278 35.7203 65.4788 35.7203 65.569 35.7145C65.7809 35.7203 67.0772 35.7203 67.2051 35.7203C67.3289 35.6991 67.4296 35.6856 67.4862 35.6779C67.5177 35.6702 67.5576 35.6471 67.589 35.6471C67.6226 35.649 67.6268 35.676 67.6268 35.7107C67.6268 35.755 67.5995 35.8397 67.5848 36.1384C67.5785 36.2058 67.5743 36.4986 67.5638 36.5776C67.5576 36.6065 67.5429 36.6528 67.4946 36.6528C67.4485 36.6528 67.4359 36.6123 67.4359 36.5564C67.4359 36.5083 67.4212 36.3985 67.3918 36.3252C67.3436 36.2 67.2765 36.1268 66.9513 36.0786C66.836 36.0671 66.1521 36.0574 66.02 36.0574C65.9927 36.0536 65.9717 36.0786 65.9717 36.1287L66.0053 37.7933C66.0074 37.8376 66.0137 37.8742 66.0515 37.8742C66.1983 37.8742 66.9555 37.8742 67.1024 37.8588C67.2597 37.8415 67.3562 37.8261 67.4107 37.7567C67.459 37.7047 67.4799 37.6719 67.5156 37.6719C67.5387 37.6719 67.5638 37.6854 67.5638 37.722C67.5638 37.7567 67.5261 37.8742 67.5177 38.2095C67.5093 38.3443 67.4967 38.6063 67.4967 38.6545C67.4988 38.7046 67.4988 38.7778 67.4422 38.772C67.3981 38.772 67.3813 38.745 67.3813 38.7161C67.3772 38.6526 67.3751 38.5697 67.3583 38.4869C67.3205 38.3501 67.2282 38.2441 66.9807 38.2229C66.8548 38.2095 66.2151 38.1979 66.0515 38.2017C66.0242 38.196 66.0179 38.2306 66.0179 38.2672L66.0284 38.7874C66.0326 39.0167 66.0389 39.6274 66.0452 39.8124C66.0745 40.2709 66.1752 40.3711 66.8381 40.3711C67.0122 40.3692 67.2891 40.3711 67.459 40.2921C67.6289 40.2093 67.7044 40.0744 67.7379 39.8027C67.7547 39.7315 67.7652 39.7045 67.8114 39.7045C67.8701 39.7045 67.8701 39.7527 67.8701 39.8239C67.8764 39.9761 67.8281 40.4193 67.803 40.556C67.7547 40.7275 67.6918 40.7294 67.4422 40.7294C66.9555 40.7294 66.5947 40.7063 66.3199 40.7102C66.0347 40.6986 65.827 40.689 65.6361 40.689C65.5669 40.689 65.418 40.6967 65.2606 40.7005C65.1138 40.7063 64.9418 40.7102 64.8076 40.7102C64.7278 40.7063 64.6775 40.689 64.6775 40.6427C64.6733 40.6138 64.6985 40.5869 64.7824 40.5869C64.8768 40.5869 64.9607 40.5734 65.0194 40.5618C65.1432 40.5368 65.1767 40.3884 65.1956 40.1977C65.2292 39.9203 65.2208 39.3962 65.2061 38.7874L65.1809 37.6257Z" fill="white"/>
<path d="M70.1607 38.7679C70.1769 39.6269 70.187 40.0807 70.3167 40.2034C70.4261 40.3086 70.5923 40.3534 71.0867 40.3534C71.4272 40.3534 71.6724 40.3476 71.8264 40.1664C71.9034 40.0826 71.9702 39.8996 71.9865 39.7671C71.9865 39.7028 71.9946 39.6697 72.0472 39.6697C72.0939 39.6678 72.104 39.695 72.106 39.7807C72.106 39.847 72.0716 40.3534 72.0229 40.5482C71.9865 40.6943 71.9601 40.7293 71.6278 40.7293C71.1718 40.7313 70.8395 40.7079 70.5619 40.7079C70.2741 40.7001 70.0492 40.6884 69.7858 40.6884C69.7189 40.6904 69.5791 40.6982 69.4291 40.6923C69.2812 40.7059 69.1211 40.7059 68.9955 40.7118C68.9104 40.7079 68.8678 40.6904 68.8637 40.6417C68.8637 40.6144 68.8901 40.5871 68.963 40.5871C69.0583 40.5871 69.1292 40.5735 69.19 40.5618C69.3217 40.5326 69.3521 40.3826 69.3643 40.1898C69.3926 39.9151 69.3845 39.3795 69.3744 38.7659L69.3521 37.5933C69.3318 36.5688 69.3319 36.3818 69.3116 36.1695C69.2994 35.9513 69.2427 35.8384 69.034 35.7897C68.9813 35.7877 68.9023 35.776 68.8232 35.776C68.7523 35.776 68.7178 35.7566 68.7178 35.7118C68.7158 35.6631 68.7563 35.6475 68.8516 35.6475C69.1474 35.6475 69.5487 35.6631 69.7229 35.6689C69.8709 35.6689 70.3309 35.6436 70.5781 35.6475C70.6652 35.6475 70.7139 35.6631 70.7159 35.7118C70.7159 35.7585 70.6754 35.776 70.5984 35.776C70.5315 35.776 70.4281 35.7877 70.3532 35.7877C70.1789 35.8267 70.1363 35.9416 70.1262 36.1695C70.114 36.3818 70.1181 36.5688 70.1363 37.5933L70.1607 38.7679Z" fill="white"/>
<path d="M75.7269 37.7518C75.4378 37.3891 75.3782 37.1208 75.365 36.8317C75.3407 36.3235 75.8129 35.6452 77.0111 35.6471C77.3509 35.6452 77.6598 35.7019 77.8473 35.7794C77.9643 35.8191 77.9665 35.8663 77.9665 35.9419C77.9709 36.1554 77.929 36.6749 77.9113 36.7713C77.9025 36.8676 77.8738 36.8884 77.8297 36.8884C77.7856 36.8884 77.7789 36.862 77.7789 36.7694C77.7723 36.5937 77.726 36.3783 77.5605 36.2177C77.4303 36.0609 77.181 35.9192 76.7926 35.9192C76.5036 35.9192 76.0667 36.11 76.0777 36.6617C76.0887 37.2757 76.6889 37.7972 77.2516 38.364C77.4921 38.6209 78.3548 39.3408 78.4916 39.456C78.6262 39.269 78.8094 38.8495 78.7983 38.4528C78.7983 38.3564 78.7652 38.2355 78.6682 38.1486C78.5689 38.0693 78.4232 38.0541 78.3217 38.056C78.2798 38.0617 78.2401 38.0409 78.2401 38.0031C78.2379 37.9559 78.2886 37.9408 78.3482 37.9427C78.5115 37.9427 78.7873 37.9483 79.1757 37.988C79.3014 37.9975 79.4073 38.0371 79.4096 38.1165C79.4162 38.6134 79.1492 39.2255 78.7697 39.6506C79.2374 40.0134 79.553 40.191 79.7405 40.2892C79.959 40.4158 80.3451 40.5178 80.4797 40.5216C80.5437 40.5178 80.5768 40.5235 80.5768 40.5764C80.579 40.6161 80.5305 40.6369 80.3738 40.6312H79.8442C79.0609 40.6369 78.8116 40.5632 78.2092 40.1362C77.9908 40.3289 77.5384 40.7257 76.5874 40.7294C75.1157 40.7294 74.6589 39.8528 74.6479 39.2898C74.628 38.5359 75.3231 37.9464 75.7269 37.7518ZM77.929 39.9246C77.5296 39.6053 76.8566 38.995 76.6735 38.808C76.4903 38.6323 76.0358 38.1637 75.9188 37.9975C75.6938 38.1675 75.4555 38.4679 75.4665 38.9856C75.4842 39.798 76.0976 40.3157 76.8125 40.3157C77.342 40.3157 77.7922 40.053 77.929 39.9246Z" fill="white"/>
<path d="M83.5471 36.1084L82.4215 36.1296C81.9867 36.1449 81.8056 36.1815 81.7017 36.3218C81.622 36.4198 81.5882 36.5063 81.5713 36.5601C81.5592 36.6101 81.5327 36.6351 81.4964 36.6351C81.4385 36.6351 81.4264 36.6043 81.424 36.5313C81.4191 36.4198 81.5496 35.822 81.5641 35.7759C81.5834 35.6798 81.6051 35.6471 81.6486 35.6471C81.709 35.6471 81.7935 35.7067 81.9771 35.7182C82.1896 35.7336 82.4819 35.747 82.7331 35.747H85.7137C85.9577 35.7451 86.1243 35.7259 86.2354 35.7144C86.3489 35.699 86.4093 35.6855 86.4456 35.6836C86.4915 35.6855 86.5011 35.7278 86.5059 35.8297C86.5084 35.9642 86.4915 36.4179 86.4939 36.5832C86.489 36.6562 86.4697 36.6947 86.4311 36.6928C86.3683 36.6947 86.3489 36.6639 86.3465 36.5659L86.332 36.5044C86.3103 36.3179 86.1098 36.1353 85.4359 36.1219L84.4891 36.1065L84.5495 38.8091C84.564 39.4127 84.5736 39.9375 84.6099 40.2239C84.6388 40.4065 84.692 40.5507 84.9118 40.5776C85.0277 40.5853 85.1823 40.6045 85.3007 40.6103C85.3852 40.6064 85.4238 40.6295 85.4238 40.6564C85.4238 40.7044 85.3562 40.7294 85.2813 40.7294C84.7862 40.7237 84.3007 40.7044 84.0978 40.7064C83.9215 40.7064 83.4505 40.7237 83.1437 40.7237C83.0447 40.7237 82.994 40.7044 82.9915 40.6622C82.9915 40.6333 83.0181 40.6083 83.1172 40.6064C83.2258 40.6064 83.32 40.5891 83.3804 40.5795C83.5302 40.5526 83.5761 40.4065 83.5906 40.22C83.6268 39.9452 83.6147 39.4166 83.6026 38.813L83.5471 36.1084Z" fill="white"/>
<path d="M86.5061 38.1854C86.4902 37.0779 87.1623 35.6471 89.029 35.6471C90.5786 35.6433 91.5618 36.5808 91.5877 38.0607C91.6136 39.5519 90.6444 40.7238 89.0609 40.7294C87.272 40.7257 86.5281 39.3384 86.5061 38.1854ZM90.7182 38.3064C90.6942 36.8605 89.8786 35.9514 88.8555 35.9514C88.1415 35.9514 87.3318 36.3672 87.3617 37.9832C87.3856 39.3384 88.1255 40.4025 89.3182 40.4025C89.7529 40.4043 90.7561 40.1794 90.7182 38.3064Z" fill="white"/>
<path d="M93.1146 37.5723C93.0943 36.5655 93.0943 36.381 93.076 36.1678C93.0617 35.9526 93.0048 35.8373 92.7954 35.7931C92.7385 35.7873 92.6369 35.7739 92.5474 35.7739C92.4783 35.7739 92.4356 35.7624 92.4356 35.7163C92.4336 35.6701 92.4763 35.649 92.5759 35.649C92.9113 35.6528 93.3118 35.6721 93.5069 35.6721C93.6574 35.6721 94.0558 35.649 94.2855 35.6528C94.377 35.649 94.4217 35.6721 94.4217 35.7124C94.4217 35.7604 94.3851 35.7739 94.3242 35.7739C94.253 35.7739 94.2164 35.7873 94.1371 35.7931C93.9623 35.8258 93.9196 35.9391 93.9156 36.1678C93.9013 36.381 93.9054 36.5655 93.9257 37.5723L93.944 38.4926C93.9582 39.4475 94.1514 39.8471 94.4644 40.1142C94.7572 40.3525 95.0479 40.387 95.2634 40.3851C95.5398 40.3851 95.8854 40.291 96.1314 40.0258C96.4709 39.6665 96.479 39.0767 96.4668 38.3908L96.4526 37.5665C96.4363 36.5578 96.4302 36.3753 96.418 36.1658C96.3997 35.9507 96.3489 35.8354 96.1375 35.7912C96.0867 35.7854 95.9749 35.772 95.9057 35.772C95.8387 35.772 95.8 35.7604 95.8 35.7105C95.8 35.6682 95.8366 35.6471 95.9342 35.6471C96.2513 35.6471 96.6599 35.6701 96.6599 35.6701C96.7413 35.6701 97.1336 35.6471 97.3816 35.6471C97.469 35.6471 97.5178 35.6663 97.5178 35.7105C97.5199 35.7566 97.4812 35.772 97.404 35.772C97.3288 35.772 97.2942 35.7854 97.219 35.7912C97.0482 35.8238 96.9954 35.9372 96.9893 36.1658C96.9832 36.3733 96.9893 36.5578 97.0076 37.5665L97.0198 38.2736C97.034 39.0056 96.9811 39.7857 96.4546 40.2545C96.0155 40.6618 95.5581 40.729 95.1454 40.729C94.81 40.7329 94.1981 40.7175 93.7306 40.2794C93.3972 39.972 93.1532 39.4917 93.1309 38.531L93.1146 37.5723Z" fill="white"/>
<path d="M99.0376 37.603C99.0194 36.5772 99.0174 36.3916 98.9991 36.1766C98.9829 35.9558 98.9261 35.8425 98.7192 35.7975C98.6645 35.7917 98.559 35.778 98.4718 35.778C98.3988 35.778 98.3643 35.7624 98.3643 35.7155C98.3623 35.6686 98.4089 35.651 98.4982 35.651C98.8369 35.651 99.2364 35.6725 99.3723 35.6725C99.5812 35.6686 100.066 35.651 100.26 35.6471C100.658 35.649 101.086 35.6901 101.431 35.9421C101.611 36.0691 101.871 36.413 101.881 36.8664C101.889 37.3588 101.696 37.8141 101.07 38.369C101.65 39.1174 102.094 39.7094 102.477 40.1276C102.836 40.5164 103.1 40.5692 103.195 40.5927C103.26 40.6024 103.321 40.6083 103.369 40.6083C103.42 40.6083 103.447 40.6317 103.447 40.6571C103.447 40.7138 103.406 40.7314 103.325 40.7236H102.727C102.372 40.7294 102.211 40.6923 102.045 40.6024C101.775 40.4442 101.526 40.1237 101.159 39.6098C100.897 39.2366 100.605 38.7891 100.52 38.6895C100.492 38.6465 100.447 38.6406 100.402 38.6406L99.859 38.6328C99.8265 38.6308 99.8103 38.6406 99.8103 38.6758V38.7715C99.8205 39.3968 99.8306 39.9283 99.8671 40.2097C99.8914 40.4012 99.932 40.5516 100.125 40.5751C100.218 40.5887 100.354 40.6063 100.433 40.6063C100.484 40.6063 100.51 40.6298 100.514 40.6552C100.514 40.704 100.465 40.7294 100.384 40.7294C100.017 40.7294 99.5487 40.704 99.4534 40.704C99.3317 40.7099 98.9322 40.7294 98.6807 40.7294C98.5955 40.7236 98.555 40.7099 98.555 40.661C98.555 40.6356 98.5773 40.6083 98.6482 40.6083C98.7476 40.6083 98.8227 40.5946 98.8815 40.577C99.0113 40.5536 99.0356 40.407 99.0559 40.2077C99.0843 39.9342 99.0721 39.3988 99.064 38.7832L99.0376 37.603ZM99.7961 38.1326C99.7982 38.2068 99.8123 38.2264 99.857 38.2557C99.9847 38.2967 100.173 38.3162 100.334 38.3162C100.587 38.3162 100.67 38.2889 100.782 38.199C100.966 38.0544 101.145 37.7457 101.135 37.1946C101.118 36.2509 100.522 35.9714 100.147 35.9695C99.9928 35.9695 99.8752 35.9753 99.8164 35.9988C99.7698 36.0086 99.7576 36.0359 99.7576 36.0848L99.7961 38.1326Z" fill="white"/>
<path d="M104.156 37.6042C104.132 36.5777 104.132 36.392 104.11 36.175C104.09 35.9579 104.013 35.8309 103.846 35.8054C103.764 35.7859 103.662 35.7781 103.568 35.7722C103.498 35.7722 103.447 35.7585 103.447 35.7018C103.447 35.6686 103.508 35.6451 103.631 35.651C103.916 35.649 104.393 35.6705 104.61 35.6705C104.799 35.6705 105.239 35.6471 105.526 35.6471C105.628 35.649 105.686 35.6705 105.691 35.7038C105.691 35.7605 105.64 35.78 105.572 35.7742C105.493 35.78 105.437 35.7879 105.345 35.7937C105.147 35.8328 105.086 35.9462 105.077 36.1789C105.062 36.39 105.067 36.5777 105.086 37.6062L105.113 38.7851C105.125 39.4323 105.137 39.9582 105.181 40.2574C105.207 40.4353 105.258 40.5545 105.488 40.5819C105.584 40.5956 105.759 40.6132 105.872 40.6132C105.952 40.6132 105.988 40.6367 105.988 40.6621C105.993 40.711 105.93 40.7286 105.85 40.7286C105.35 40.7344 104.878 40.709 104.68 40.709C104.501 40.709 104.025 40.7344 103.723 40.7286C103.624 40.7344 103.571 40.709 103.571 40.6621C103.566 40.6347 103.602 40.6132 103.694 40.6132C103.798 40.6132 103.89 40.5976 103.96 40.5819C104.112 40.5545 104.153 40.4333 104.177 40.2495C104.204 39.9582 104.192 39.4323 104.177 38.7851L104.156 37.6042Z" fill="white"/>
<path d="M106.958 40.5649C106.852 40.5196 106.84 40.4836 106.836 40.3362C106.83 39.9788 106.848 39.595 106.848 39.4929C106.86 39.3908 106.873 39.3208 106.921 39.3208C106.981 39.3208 106.987 39.387 106.987 39.4324C106.989 39.5175 107.017 39.6555 107.046 39.7576C107.195 40.2454 107.552 40.4193 107.94 40.4193C108.485 40.4193 108.748 40.0185 108.739 39.682C108.735 39.3568 108.641 39.0542 108.125 38.6345L107.834 38.4019C107.15 37.8479 106.918 37.3904 106.909 36.8742C106.895 36.1501 107.444 35.6471 108.291 35.6471C108.691 35.6452 108.952 35.702 109.107 35.7435C109.162 35.7662 109.193 35.7795 109.193 35.8249C109.195 35.9099 109.174 36.0952 109.18 36.6057C109.182 36.7475 109.168 36.8043 109.121 36.8043C109.08 36.8043 109.058 36.7646 109.054 36.6814C109.052 36.6227 109.027 36.4223 108.894 36.2578C108.792 36.1349 108.617 35.9383 108.217 35.9421C107.764 35.9421 107.497 36.2181 107.505 36.6076C107.509 36.912 107.656 37.137 108.166 37.5454L108.342 37.6778C109.084 38.2771 109.366 38.7158 109.376 39.336C109.382 39.7141 109.256 40.1565 108.825 40.4666C108.519 40.667 108.18 40.7257 107.852 40.7294C107.499 40.7294 107.226 40.6822 106.958 40.5649Z" fill="white"/>
<path d="M111.349 35.822C111.37 35.7117 111.403 35.649 111.458 35.6471C111.507 35.649 111.546 35.6889 111.639 35.8543L113.503 39.5409L115.21 35.8068C115.259 35.7098 115.299 35.649 115.353 35.649C115.412 35.6433 115.456 35.7136 115.475 35.8505L116.153 39.8851C116.224 40.2996 116.287 40.4859 116.489 40.5486C116.683 40.6076 116.815 40.6133 116.895 40.6133C116.958 40.6133 117 40.6209 117 40.6551C117 40.7083 116.924 40.7293 116.836 40.7293C116.67 40.7293 115.763 40.7083 115.496 40.6893C115.349 40.6665 115.307 40.657 115.307 40.619C115.307 40.5848 115.334 40.5619 115.381 40.541C115.421 40.5334 115.44 40.446 115.41 40.2691L114.958 37.3925H114.933L113.557 40.3585C113.41 40.6646 113.387 40.7236 113.32 40.7274C113.261 40.7274 113.193 40.5962 113.086 40.4003C112.924 40.0961 112.386 39.0979 112.302 38.9173C112.238 38.7766 111.826 37.9496 111.597 37.4666H111.565L111.275 40.0695C111.265 40.1817 111.256 40.2653 111.26 40.3737C111.263 40.4954 111.353 40.5619 111.462 40.581C111.582 40.6114 111.673 40.619 111.736 40.6152C111.788 40.6152 111.835 40.6285 111.839 40.6551C111.839 40.7198 111.78 40.7293 111.681 40.7293C111.406 40.7293 111.111 40.7121 110.991 40.7121C110.869 40.7121 110.554 40.7293 110.346 40.7293C110.274 40.7312 110.224 40.7179 110.224 40.657C110.224 40.6285 110.264 40.619 110.329 40.6152C110.379 40.619 110.43 40.619 110.524 40.5962C110.707 40.5562 110.756 40.2996 110.783 40.0752L111.349 35.822Z" fill="white"/>
</svg>
