<svg width="65" height="68" viewBox="0 0 65 68" fill="none" xmlns="http://www.w3.org/2000/svg">
<path d="M4 4V43.5833H61V4M42 54.6667L32.5 64.1667L23 54.6667M32.5 43.5833V64.1667" stroke="white" stroke-width="6.33333" stroke-linecap="round" stroke-linejoin="round"/>
<path d="M32.4997 29.334C38.9122 29.334 44.7183 26.1673 49.9163 19.834C44.7183 13.5007 38.9122 10.334 32.4997 10.334C26.0872 10.334 20.2811 13.5007 15.083 19.834C20.2811 26.1673 26.0872 29.334 32.4997 29.334Z" stroke="white" stroke-width="6.33333" stroke-linejoin="round"/>
<path d="M32.5 24.584C33.7598 24.584 34.968 24.0835 35.8588 23.1927C36.7496 22.3019 37.25 21.0938 37.25 19.834C37.25 18.5742 36.7496 17.366 35.8588 16.4752C34.968 15.5844 33.7598 15.084 32.5 15.084C31.2402 15.084 30.032 15.5844 29.1412 16.4752C28.2504 17.366 27.75 18.5742 27.75 19.834C27.75 21.0938 28.2504 22.3019 29.1412 23.1927C30.032 24.0835 31.2402 24.584 32.5 24.584Z" fill="white"/>
</svg>
