<svg width="25" height="26" viewBox="0 0 25 26" fill="none" xmlns="http://www.w3.org/2000/svg">
<path d="M14.7693 1.74851L12.19 4.34028H14.881C17.5121 4.34028 20.0354 5.38548 21.8959 7.24596C23.7564 9.10644 24.8016 11.6298 24.8016 14.2609H22.3214C22.3214 12.2876 21.5375 10.3951 20.1422 8.9997C18.7468 7.60434 16.8543 6.82044 14.881 6.82044H12.19L14.7817 9.4122L13.0208 11.1607L7.44048 5.58036L9.18899 3.83185L13.0208 0L14.7693 1.74851ZM0 13.0208V25.4216H19.8413V13.0208H0ZM2.48016 21.1558V17.2991C3.22559 16.8662 3.84533 16.2464 4.27827 15.501H15.563C15.9959 16.2464 16.6157 16.8662 17.3611 17.2991V21.1558C16.6262 21.5885 16.0154 22.2035 15.5878 22.9415H4.27827C3.84381 22.2004 3.22417 21.5851 2.48016 21.1558V21.1558ZM9.92063 21.7014C10.9474 21.7014 11.7808 20.5915 11.7808 19.2212C11.7808 17.8509 10.9474 16.7411 9.92063 16.7411C8.89385 16.7411 8.06052 17.8509 8.06052 19.2212C8.06052 20.5915 8.89385 21.7014 9.92063 21.7014Z" fill="#1CB1BC"/>
</svg>
