<svg width="90" height="90" viewBox="0 0 90 90" fill="none" xmlns="http://www.w3.org/2000/svg">
<g clip-path="url(#clip0_1484_161)">
<path fill-rule="evenodd" clip-rule="evenodd" d="M46.0405 6.08984L42.9017 6.11234L9.66357 28.8205L9.68607 33.478L42.9186 55.7698L46.0123 55.7923L80.2798 33.5005L80.2967 28.798L46.0405 6.08984V6.08984ZM16.2673 31.1211L44.5105 11.8273L73.6254 31.1211L44.5105 50.0661L16.2673 31.1211V31.1211ZM42.9242 69.8323L10.0854 47.8105H20.1823L44.5105 64.123L69.5923 47.8105H79.9029L75.4029 50.7355C70.2899 50.2144 65.1525 51.4587 60.8445 54.2614C56.5365 57.0642 53.3172 61.2568 51.7217 66.1423L46.0236 69.8548L42.9242 69.8323V69.8323ZM50.6473 74.1973L44.5161 78.1911L20.1767 61.873H10.0854L42.9242 83.8948L46.0179 83.9173L51.7555 80.188C51.1154 78.2508 50.7426 76.2353 50.6473 74.1973V74.1973ZM63.7479 59.0942C65.5882 57.799 67.6689 56.885 69.8676 56.4059C72.0663 55.9268 74.3386 55.8923 76.5509 56.3044C78.7631 56.7165 80.8706 57.567 82.7493 58.8057C84.628 60.0443 86.24 61.6463 87.4904 63.5172C88.7408 65.3881 89.6044 67.4903 90.0303 69.6999C90.4563 71.9095 90.436 74.182 89.9706 76.3837C89.5053 78.5854 88.6043 80.6717 87.3206 82.52C86.037 84.3683 84.3966 85.9412 82.4961 87.1461C78.7757 89.5048 74.2805 90.3152 69.9707 89.4042C65.6609 88.4933 61.8781 85.9332 59.4304 82.2708C56.9827 78.6084 56.0641 74.1341 56.8708 69.8035C57.6775 65.473 60.1457 61.6296 63.7479 59.0942V59.0942ZM73.2992 80.5648L83.3679 67.138L78.8679 63.763L70.5429 74.8667L65.6154 70.9292L62.1054 75.3167L69.2942 81.0711L73.2992 80.5648Z" fill="white"/>
</g>
<defs>
<clipPath id="clip0_1484_161">
<rect width="90" height="90" fill="white"/>
</clipPath>
</defs>
</svg>
