<svg width="17" height="13" viewBox="0 0 17 13" fill="none" xmlns="http://www.w3.org/2000/svg">
<path d="M0.271481 11.9341H16.7283V13H0.271481V11.9341ZM15.3462 1.54656C14.5444 1.32954 13.6919 1.34493 12.946 1.58987L12.9154 1.59986L10.6834 2.63049L4.16987 0.114599C3.88553 0.00360218 3.57482 -0.0275765 3.27313 0.0246143C2.97144 0.0768051 2.6909 0.210267 2.46347 0.409799L1.59146 1.16922C1.49947 1.24935 1.42723 1.34857 1.3801 1.45954C1.33298 1.5705 1.31217 1.69035 1.31924 1.81019C1.3263 1.93003 1.36105 2.04679 1.42091 2.1518C1.48077 2.25681 1.56419 2.34737 1.665 2.41677L5.70266 5.19682L4.15389 5.98505L2.92734 4.89622C2.69283 4.68845 2.40155 4.55089 2.08851 4.50007C1.77547 4.44925 1.45399 4.48734 1.16269 4.60975L0.495671 4.89073C0.391418 4.93462 0.297651 4.99902 0.220277 5.07986C0.142903 5.1607 0.0835987 5.25623 0.0461013 5.36043C0.00860391 5.46464 -0.00627443 5.57527 0.00240359 5.68533C0.0110816 5.7954 0.0431279 5.90253 0.0965236 5.99998L2.5932 10.5578L16.1901 4.0464C17.0042 3.67409 17.1035 3.07889 16.9244 2.64538C16.726 2.16478 16.1507 1.76428 15.3462 1.54656V1.54656ZM15.7199 3.08329L15.7148 3.08562L3.06208 9.14485L1.20465 5.75381L1.59893 5.58769C1.69603 5.54688 1.8032 5.53418 1.90755 5.55112C2.0119 5.56806 2.10899 5.61392 2.18716 5.68319L3.98151 7.27608L7.79844 5.33346L2.57962 1.7401L3.19576 1.20353C3.27158 1.13702 3.36509 1.09254 3.46565 1.07515C3.56621 1.05775 3.66977 1.06814 3.76455 1.10513L10.7225 3.79267L13.3264 2.59032C13.8563 2.42347 14.4874 2.41827 15.0634 2.57656C15.5377 2.70694 15.7896 2.89635 15.875 2.99568C15.8267 3.03027 15.7748 3.05967 15.72 3.08339L15.7199 3.08329Z" fill="white"/>
</svg>
