<svg width="18" height="14" viewBox="0 0 18 14" fill="none" xmlns="http://www.w3.org/2000/svg">
<path d="M0.818182 14C0.586364 14 0.392182 13.9104 0.235636 13.7312C0.0785454 13.5526 0 13.3311 0 13.0667V0.933333C0 0.668889 0.0785454 0.447067 0.235636 0.267867C0.392182 0.0892891 0.586364 0 0.818182 0C1.05 0 1.24445 0.0892891 1.40155 0.267867C1.55809 0.447067 1.63636 0.668889 1.63636 0.933333V9.33333H8.18182V3.73333C8.18182 3.22 8.34218 2.7804 8.66291 2.41453C8.98309 2.04929 9.36818 1.86667 9.81818 1.86667H14.7273C15.6273 1.86667 16.3977 2.23222 17.0386 2.96333C17.6795 3.69444 18 4.57333 18 5.6V13.0667C18 13.3311 17.9215 13.5526 17.7644 13.7312C17.6078 13.9104 17.4136 14 17.1818 14C16.95 14 16.7558 13.9104 16.5993 13.7312C16.4422 13.5526 16.3636 13.3311 16.3636 13.0667V11.2H1.63636V13.0667C1.63636 13.3311 1.55809 13.5526 1.40155 13.7312C1.24445 13.9104 1.05 14 0.818182 14ZM4.90909 8.4C4.22727 8.4 3.64773 8.12778 3.17045 7.58333C2.69318 7.03889 2.45455 6.37778 2.45455 5.6C2.45455 4.82222 2.69318 4.16111 3.17045 3.61667C3.64773 3.07222 4.22727 2.8 4.90909 2.8C5.59091 2.8 6.17045 3.07222 6.64773 3.61667C7.125 4.16111 7.36364 4.82222 7.36364 5.6C7.36364 6.37778 7.125 7.03889 6.64773 7.58333C6.17045 8.12778 5.59091 8.4 4.90909 8.4ZM9.81818 9.33333H16.3636V5.6C16.3636 5.08667 16.2035 4.64707 15.8834 4.2812C15.5626 3.91596 15.1773 3.73333 14.7273 3.73333H9.81818V9.33333ZM4.90909 6.53333C5.14091 6.53333 5.33536 6.44373 5.49245 6.26453C5.649 6.08596 5.72727 5.86444 5.72727 5.6C5.72727 5.33556 5.649 5.11373 5.49245 4.93453C5.33536 4.75596 5.14091 4.66667 4.90909 4.66667C4.67727 4.66667 4.48282 4.75596 4.32573 4.93453C4.16918 5.11373 4.09091 5.33556 4.09091 5.6C4.09091 5.86444 4.16918 6.08596 4.32573 6.26453C4.48282 6.44373 4.67727 6.53333 4.90909 6.53333ZM9.81818 3.73333V9.33333V3.73333Z" fill="#00D3E4"/>
</svg>
