<svg width="13" height="13" viewBox="0 0 13 13" fill="none" xmlns="http://www.w3.org/2000/svg">
<g id="ic:round-local-offer">
<path id="Vector" d="M11.5968 6.27266L6.72176 1.39766C6.52676 1.20266 6.25592 1.0835 5.95801 1.0835H2.16634C1.57051 1.0835 1.08301 1.571 1.08301 2.16683V5.9585C1.08301 6.25641 1.20217 6.52725 1.40259 6.72766L6.27759 11.6027C6.47259 11.7977 6.74342 11.9168 7.04134 11.9168C7.33926 11.9168 7.61009 11.7977 7.80509 11.5972L11.5968 7.80558C11.7972 7.61058 11.9163 7.33975 11.9163 7.04183C11.9163 6.74391 11.7918 6.46766 11.5968 6.27266ZM2.97884 3.79183C2.52926 3.79183 2.16634 3.42891 2.16634 2.97933C2.16634 2.52975 2.52926 2.16683 2.97884 2.16683C3.42842 2.16683 3.79134 2.52975 3.79134 2.97933C3.79134 3.42891 3.42842 3.79183 2.97884 3.79183Z" fill="white"/>
</g>
</svg>
