<svg width="18" height="17" viewBox="0 0 18 17" fill="none" xmlns="http://www.w3.org/2000/svg">
<path d="M0 5.0625V15.1875C0 16.0875 0.787852 16.875 1.6875 16.875H2.25V3.375H1.6875C0.787852 3.375 0 4.1625 0 5.0625ZM16.3125 3.375H15.75V16.875H16.3125C17.2121 16.875 18 16.0871 18 15.1875V5.0625C18 4.1625 17.2125 3.375 16.3125 3.375ZM13.5 1.6875C13.5 0.787852 12.7125 0 11.8125 0H6.1875C5.2875 0 4.5 0.787852 4.5 1.6875V3.375H3.375V16.875H14.625V3.375H13.5V1.6875ZM6.1875 1.6875H11.8125V3.375H6.1875V1.6875ZM12.375 10.9688C12.375 11.1234 12.2484 11.25 12.0938 11.25H10.125V13.2188C10.125 13.3726 9.99756 13.5 9.84375 13.5H8.15625C8.00156 13.5 7.875 13.3734 7.875 13.2188V11.25H5.90625C5.75156 11.25 5.625 11.1234 5.625 10.9688V9.28125C5.625 9.12656 5.75156 9 5.90625 9H7.875V7.03125C7.875 6.87656 8.00156 6.75 8.15625 6.75H9.84375C9.99844 6.75 10.125 6.87656 10.125 7.03125V9H12.0938C12.2484 9 12.375 9.12656 12.375 9.28125V10.9688Z" fill="white"/>
</svg>
