<svg width="85" height="88" viewBox="0 0 85 88" fill="none" xmlns="http://www.w3.org/2000/svg">
<path d="M66.1818 51.6367C56.0519 51.6367 48 59.6887 48 69.8185C48 79.9484 56.0519 88.0004 66.1818 88.0004C76.3117 88.0004 84.3636 79.9484 84.3636 69.8185C84.3636 59.6887 76.3117 51.6367 66.1818 51.6367ZM73.1948 78.9094L66.1818 71.8965L59.1688 78.9094L57.0909 76.8315L64.1039 69.8185L57.0909 62.8056L59.1688 60.7276L66.1818 67.7406L73.1948 60.7276L75.2727 62.8056L68.2597 69.8185L75.2727 76.8315L73.1948 78.9094Z" fill="white"/>
<path fill-rule="evenodd" clip-rule="evenodd" d="M39.3534 0L35.9578 0.0243415L0 24.5905L0.0243407 29.6291L35.9761 53.745L39.323 53.7694L76.3944 29.6535L76.4126 24.5662L39.3534 0ZM7.14409 27.0794L37.6982 6.20697L69.1955 27.0794L37.6982 47.5746L7.14409 27.0794ZM35.9821 68.9582L0.456394 45.1344H11.3794L37.6982 62.7816L64.8324 45.1344H75.9866L71.1184 48.2987C65.587 47.735 60.0293 49.0811 55.3687 52.1132C50.7082 55.1453 47.2256 59.6809 45.4995 64.9662L39.3351 68.9825L35.9821 68.9582ZM44.3372 73.6803L37.7043 78.0009L11.3734 60.3475H0.456394L35.9821 84.1713L39.329 84.1957L45.536 80.1611C44.8436 78.0654 44.4402 75.8851 44.3372 73.6803Z" fill="white"/>
</svg>
