<svg width="27" height="15" viewBox="0 0 27 15" fill="none" xmlns="http://www.w3.org/2000/svg">
<mask id="mask0_1902_87" style="mask-type:alpha" maskUnits="userSpaceOnUse" x="0" y="0" width="27" height="15">
<path fill-rule="evenodd" clip-rule="evenodd" d="M6.03947 0C2.70396 0 0 2.70396 0 6.03947C0 9.37498 2.70397 12.0789 6.03947 12.0789H11.859L13.4999 14.921L15.1407 12.0789H20.9605C24.296 12.0789 27 9.37498 27 6.03947C27 2.70396 24.296 0 20.9605 0H6.03947Z" fill="white"/>
</mask>
<g mask="url(#mask0_1902_87)">
<path fill-rule="evenodd" clip-rule="evenodd" d="M6.03947 0C2.70396 0 0 2.70396 0 6.03947C0 9.37498 2.70397 12.0789 6.03947 12.0789H11.859L13.4999 14.921L15.1407 12.0789H20.9605C24.296 12.0789 27 9.37498 27 6.03947C27 2.70396 24.296 0 20.9605 0H6.03947Z" fill="black"/>
<path d="M11.8591 12.0783L12.2189 11.8707L12.0989 11.663H11.8591V12.0783ZM13.5 14.9204L13.1402 15.1281L13.5 15.7512L13.8597 15.1281L13.5 14.9204ZM15.1408 12.0783V11.663H14.901L14.7811 11.8707L15.1408 12.0783ZM0.415487 6.03884C0.415487 2.93274 2.93348 0.414754 6.03957 0.414754V-0.416016C2.47465 -0.416016 -0.415283 2.47392 -0.415283 6.03884H0.415487ZM6.03957 11.663C2.93348 11.663 0.415487 9.14494 0.415487 6.03884H-0.415283C-0.415283 9.60376 2.47465 12.4937 6.03957 12.4937V11.663ZM11.8591 11.663H6.03957V12.4937H11.8591V11.663ZM13.8597 14.7127L12.2189 11.8707L11.4994 12.286L13.1402 15.1281L13.8597 14.7127ZM14.7811 11.8707L13.1402 14.7127L13.8597 15.1281L15.5006 12.286L14.7811 11.8707ZM20.9606 11.663H15.1408V12.4937H20.9606V11.663ZM26.5847 6.03884C26.5847 9.14494 24.0667 11.663 20.9606 11.663V12.4937C24.5255 12.4937 27.4155 9.60376 27.4155 6.03884H26.5847ZM20.9606 0.414754C24.0667 0.414754 26.5847 2.93274 26.5847 6.03884H27.4155C27.4155 2.47392 24.5255 -0.416016 20.9606 -0.416016V0.414754ZM6.03957 0.414754H20.9606V-0.416016H6.03957V0.414754Z" fill="#252525"/>
</g>
</svg>
