<svg width="27" height="15" viewBox="0 0 27 15" fill="none" xmlns="http://www.w3.org/2000/svg">
<mask id="path-1-inside-1_920_4" fill="white">
<path fill-rule="evenodd" clip-rule="evenodd" d="M6.03947 0C2.70396 0 0 2.70396 0 6.03947C0 9.37498 2.70397 12.0789 6.03947 12.0789H11.859L13.4999 14.921L15.1407 12.0789H20.9605C24.296 12.0789 27 9.37498 27 6.03947C27 2.70396 24.296 0 20.9605 0H6.03947Z"/>
</mask>
<path fill-rule="evenodd" clip-rule="evenodd" d="M6.03947 0C2.70396 0 0 2.70396 0 6.03947C0 9.37498 2.70397 12.0789 6.03947 12.0789H11.859L13.4999 14.921L15.1407 12.0789H20.9605C24.296 12.0789 27 9.37498 27 6.03947C27 2.70396 24.296 0 20.9605 0H6.03947Z" fill="white"/>
<path d="M11.859 12.0789L12.2188 11.8713L12.0988 11.6636H11.859V12.0789ZM13.4999 14.921L13.1401 15.1287L13.4999 15.7518L13.8596 15.1287L13.4999 14.921ZM15.1407 12.0789V11.6636H14.9009L14.781 11.8713L15.1407 12.0789ZM0.415385 6.03947C0.415385 2.93337 2.93338 0.415385 6.03947 0.415385V-0.415385C2.47455 -0.415385 -0.415385 2.47455 -0.415385 6.03947H0.415385ZM6.03947 11.6636C2.93338 11.6636 0.415385 9.14557 0.415385 6.03947H-0.415385C-0.415385 9.60439 2.47455 12.4943 6.03947 12.4943V11.6636ZM11.859 11.6636H6.03947V12.4943H11.859V11.6636ZM13.8596 14.7133L12.2188 11.8713L11.4993 12.2866L13.1401 15.1287L13.8596 14.7133ZM14.781 11.8713L13.1401 14.7133L13.8596 15.1287L15.5005 12.2866L14.781 11.8713ZM20.9605 11.6636H15.1407V12.4943H20.9605V11.6636ZM26.5846 6.03947C26.5846 9.14557 24.0666 11.6636 20.9605 11.6636V12.4943C24.5254 12.4943 27.4154 9.60439 27.4154 6.03947H26.5846ZM20.9605 0.415385C24.0666 0.415385 26.5846 2.93337 26.5846 6.03947H27.4154C27.4154 2.47455 24.5254 -0.415385 20.9605 -0.415385V0.415385ZM6.03947 0.415385H20.9605V-0.415385H6.03947V0.415385Z" fill="#252525" mask="url(#path-1-inside-1_920_4)"/>
</svg>
