<svg width="16" height="16" viewBox="0 0 16 16" fill="none" xmlns="http://www.w3.org/2000/svg">
<path d="M13 9.125V12.4026C13 13.768 11.9084 14.875 10.5614 14.875C9.21437 14.875 8.12275 13.768 8.12275 12.4026L8.12725 4.05362C8.12725 2.57425 7.03563 1.375 5.68863 1.375C4.342 1.375 3.25 2.57425 3.25 4.05362V9.77238" stroke="white" stroke-linecap="round" stroke-linejoin="round"/>
<path d="M15.25 10.75L13 8.125L10.75 10.75H15.25ZM15.25 3.14764C15.25 4.81827 13 6.25002 13 6.25002C13 6.25002 10.75 4.81827 10.75 3.14764C10.75 2.57802 10.987 2.03202 11.4089 1.62889C11.839 1.22295 12.4086 0.997804 13 1.00002C13.5914 0.997881 14.161 1.22301 14.5911 1.62889C14.7982 1.82416 14.9633 2.05949 15.0766 2.32057C15.1899 2.58166 15.2489 2.86305 15.25 3.14764ZM5.5 12.1476C5.5 13.8183 3.25 15.25 3.25 15.25C3.25 15.25 1 13.8183 1 12.1476C1 11.578 1.237 11.032 1.65887 10.6289C2.08896 10.2229 2.6586 9.9978 3.25 10C3.84139 9.99788 4.411 10.223 4.84113 10.6289C5.04816 10.8242 5.21333 11.0595 5.3266 11.3206C5.43986 11.5817 5.49886 11.863 5.5 12.1476Z" stroke="white" stroke-linecap="round" stroke-linejoin="round"/>
<path d="M13 4C13.4142 4 13.75 3.66421 13.75 3.25C13.75 2.83579 13.4142 2.5 13 2.5C12.5858 2.5 12.25 2.83579 12.25 3.25C12.25 3.66421 12.5858 4 13 4Z" fill="white"/>
<path d="M3.25 13C3.66421 13 4 12.6642 4 12.25C4 11.8358 3.66421 11.5 3.25 11.5C2.83579 11.5 2.5 11.8358 2.5 12.25C2.5 12.6642 2.83579 13 3.25 13Z" fill="white"/>
</svg>
