<svg width="18" height="18" viewBox="0 0 18 18" fill="none" xmlns="http://www.w3.org/2000/svg">
<path d="M13.875 10V13.2776C13.875 14.643 12.7834 15.75 11.4364 15.75C10.0894 15.75 8.99775 14.643 8.99775 13.2776L9.00225 4.92862C9.00225 3.44925 7.91063 2.25 6.56363 2.25C5.217 2.25 4.125 3.44925 4.125 4.92862V10.6474" stroke="#00D3E4" stroke-linecap="round" stroke-linejoin="round"/>
<path d="M16.125 11.625L13.875 9L11.625 11.625H16.125ZM16.125 4.02264C16.125 5.69327 13.875 7.12502 13.875 7.12502C13.875 7.12502 11.625 5.69327 11.625 4.02264C11.625 3.45302 11.862 2.90702 12.2839 2.50389C12.714 2.09795 13.2836 1.8728 13.875 1.87502C14.4664 1.87288 15.036 2.09801 15.4661 2.50389C15.6732 2.69916 15.8383 2.93449 15.9516 3.19557C16.0649 3.45666 16.1239 3.73805 16.125 4.02264ZM6.375 13.0226C6.375 14.6933 4.125 16.125 4.125 16.125C4.125 16.125 1.875 14.6933 1.875 13.0226C1.875 12.453 2.112 11.907 2.53387 11.5039C2.96396 11.0979 3.5336 10.8728 4.125 10.875C4.71639 10.8729 5.286 11.098 5.71613 11.5039C5.92316 11.6992 6.08833 11.9345 6.2016 12.1956C6.31486 12.4567 6.37386 12.738 6.375 13.0226Z" stroke="#00D3E4" stroke-linecap="round" stroke-linejoin="round"/>
<path d="M13.875 4.875C14.2892 4.875 14.625 4.53921 14.625 4.125C14.625 3.71079 14.2892 3.375 13.875 3.375C13.4608 3.375 13.125 3.71079 13.125 4.125C13.125 4.53921 13.4608 4.875 13.875 4.875Z" fill="#00D3E4"/>
<path d="M4.125 13.875C4.53921 13.875 4.875 13.5392 4.875 13.125C4.875 12.7108 4.53921 12.375 4.125 12.375C3.71079 12.375 3.375 12.7108 3.375 13.125C3.375 13.5392 3.71079 13.875 4.125 13.875Z" fill="#00D3E4"/>
</svg>
