<svg width="32" height="30" viewBox="0 0 32 30" fill="none" xmlns="http://www.w3.org/2000/svg">
<g clip-path="url(#clip0_1195_1290)">
<path d="M12.546 15.378H18.092V18.624H12.546V15.378Z" fill="#007DB5"/>
<path d="M14.635 16.738C14.6746 16.6989 14.7058 16.6522 14.7266 16.6006C14.7474 16.549 14.7574 16.4936 14.756 16.438C14.756 16.319 14.716 16.218 14.635 16.138C14.596 16.0983 14.5493 16.067 14.4976 16.0462C14.446 16.0254 14.3907 16.0154 14.335 16.017C14.216 16.017 14.115 16.057 14.035 16.138C13.9954 16.1771 13.9642 16.2239 13.9434 16.2755C13.9226 16.3271 13.9126 16.3824 13.914 16.438C13.914 16.557 13.954 16.657 14.035 16.738C14.0741 16.7776 14.1209 16.8088 14.1725 16.8296C14.2241 16.8504 14.2794 16.8604 14.335 16.859C14.455 16.859 14.555 16.818 14.635 16.738ZM14.083 16.438C14.0819 16.4045 14.0877 16.3711 14.1 16.3399C14.1123 16.3087 14.1309 16.2804 14.1546 16.2566C14.1784 16.2329 14.2067 16.2143 14.2379 16.202C14.2691 16.1897 14.3025 16.1839 14.336 16.185C14.3694 16.1843 14.4026 16.1904 14.4336 16.2029C14.4646 16.2154 14.4928 16.234 14.5164 16.2576C14.5401 16.2812 14.5587 16.3094 14.5711 16.3404C14.5836 16.3714 14.5897 16.4046 14.589 16.438C14.5901 16.4715 14.5843 16.5048 14.572 16.536C14.5597 16.5671 14.5411 16.5954 14.5173 16.6191C14.4936 16.6427 14.4653 16.6612 14.4341 16.6734C14.4029 16.6856 14.3695 16.6913 14.336 16.69C14.3027 16.6907 14.2696 16.6846 14.2386 16.6722C14.2077 16.6598 14.1796 16.6413 14.156 16.6178C14.1323 16.5943 14.1137 16.5662 14.1012 16.5353C14.0886 16.5044 14.0825 16.4713 14.083 16.438ZM17.342 16.14C17.262 16.06 17.162 16.019 17.043 16.019C16.924 16.019 16.824 16.059 16.744 16.14C16.7045 16.179 16.6734 16.2256 16.6526 16.277C16.6318 16.3284 16.6217 16.3836 16.623 16.439C16.623 16.558 16.663 16.657 16.744 16.738C16.825 16.818 16.924 16.859 17.043 16.859C17.161 16.859 17.261 16.819 17.342 16.738C17.422 16.658 17.463 16.558 17.463 16.439C17.4645 16.3835 17.4546 16.3283 17.4337 16.2769C17.4129 16.2254 17.3817 16.1788 17.342 16.14ZM17.223 16.619C17.1995 16.6427 17.1714 16.6613 17.1405 16.6737C17.1095 16.686 17.0763 16.6919 17.043 16.691C17.0096 16.6921 16.9763 16.6864 16.9453 16.6741C16.9142 16.6618 16.886 16.6433 16.8623 16.6197C16.8387 16.5961 16.8202 16.5678 16.8079 16.5368C16.7957 16.5057 16.7899 16.4724 16.791 16.439C16.7899 16.4055 16.7957 16.3722 16.808 16.341C16.8203 16.3099 16.8389 16.2816 16.8627 16.258C16.8864 16.2343 16.9148 16.2158 16.946 16.2036C16.9772 16.1914 17.0105 16.1858 17.044 16.187C17.0774 16.1859 17.1107 16.1917 17.1417 16.2039C17.1728 16.2162 17.2011 16.2347 17.2247 16.2583C17.2483 16.282 17.2668 16.3102 17.2791 16.3413C17.2914 16.3724 17.2971 16.4056 17.296 16.439C17.2968 16.4724 17.2907 16.5056 17.2781 16.5366C17.2656 16.5675 17.2468 16.5956 17.223 16.619ZM15.657 16.322C15.657 16.3036 15.6606 16.2854 15.6677 16.2684C15.6747 16.2515 15.685 16.236 15.698 16.223C15.711 16.21 15.7264 16.1997 15.7434 16.1927C15.7604 16.1856 15.7786 16.182 15.797 16.182C15.8341 16.182 15.8698 16.1968 15.896 16.223C15.9223 16.2493 15.937 16.2849 15.937 16.322V16.857H16.103V16.322C16.103 16.3036 16.1066 16.2854 16.1137 16.2684C16.1207 16.2515 16.131 16.236 16.144 16.223C16.157 16.21 16.1724 16.1997 16.1894 16.1927C16.2064 16.1856 16.2246 16.182 16.243 16.182C16.2801 16.182 16.3158 16.1968 16.342 16.223C16.3683 16.2493 16.383 16.2849 16.383 16.322V16.857H16.549V16.322C16.5489 16.2607 16.5304 16.2009 16.4959 16.1502C16.4614 16.0996 16.4124 16.0605 16.3554 16.038C16.2984 16.0154 16.236 16.0106 16.1762 16.0239C16.1164 16.0373 16.062 16.0684 16.02 16.113C15.978 16.0684 15.9236 16.0373 15.8638 16.0239C15.804 16.0106 15.7416 16.0154 15.6846 16.038C15.6276 16.0605 15.5786 16.0996 15.5441 16.1502C15.5096 16.2009 15.4911 16.2607 15.491 16.322V16.857H15.657V16.322ZM14.86 16.634C14.86 16.634 14.812 16.694 14.844 16.772C14.879 16.856 14.969 16.858 14.969 16.858L15.415 16.857V16.689H15.031L15.382 16.249C15.382 16.249 15.443 16.182 15.4 16.094C15.361 16.015 15.27 16.017 15.27 16.017H14.832V16.184H15.219L14.86 16.634ZM13.912 16.718L13.793 16.598C13.7699 16.6275 13.7403 16.6512 13.7064 16.6671C13.6726 16.6831 13.6354 16.691 13.598 16.69C13.5646 16.691 13.5313 16.6851 13.5002 16.6728C13.469 16.6605 13.4407 16.642 13.417 16.6185C13.3932 16.5949 13.3745 16.5667 13.362 16.5357C13.3494 16.5047 13.3433 16.4715 13.344 16.438C13.3432 16.4045 13.3492 16.3711 13.3617 16.34C13.3742 16.3089 13.3929 16.2806 13.4166 16.2569C13.4404 16.2332 13.4687 16.2147 13.4999 16.2023C13.5311 16.1899 13.5645 16.1841 13.598 16.185C13.678 16.185 13.743 16.216 13.793 16.278L13.912 16.158C13.8736 16.1124 13.8254 16.076 13.7711 16.0515C13.7168 16.0269 13.6576 16.0148 13.598 16.016C13.478 16.016 13.378 16.056 13.298 16.137C13.2584 16.1761 13.2272 16.2229 13.2064 16.2745C13.1856 16.3261 13.1756 16.3814 13.177 16.437C13.1756 16.4927 13.1856 16.548 13.2063 16.5997C13.2269 16.6514 13.2579 16.6984 13.2973 16.7378C13.3366 16.7771 13.3836 16.8081 13.4353 16.8288C13.487 16.8494 13.5423 16.8594 13.598 16.858C13.6575 16.8595 13.7165 16.8477 13.7708 16.8235C13.8251 16.7993 13.8734 16.7632 13.912 16.718ZM13.872 17.01H13.772V17.142H13.698V17.25H13.772V17.983H13.872V17.25H14.001V17.142H13.872V17.01ZM16.84 17.01H16.94V17.984H16.84V17.01ZM17.477 16.094L17.472 16.091C17.4772 16.0905 17.482 16.0884 17.486 16.085C17.4892 16.0818 17.491 16.0775 17.491 16.073C17.4911 16.0694 17.49 16.066 17.488 16.063C17.4865 16.0602 17.484 16.0581 17.481 16.057C17.4768 16.0557 17.4724 16.055 17.468 16.055H17.439V16.121H17.448V16.092H17.463L17.467 16.094L17.471 16.098C17.4735 16.1007 17.4755 16.1037 17.477 16.107L17.486 16.121H17.497L17.486 16.103C17.4825 16.1005 17.4795 16.0975 17.477 16.094ZM17.465 16.084H17.446V16.062H17.467C17.472 16.062 17.475 16.063 17.478 16.065C17.479 16.0661 17.4798 16.0673 17.4803 16.0687C17.4808 16.0701 17.4811 16.0715 17.481 16.073L17.479 16.079L17.474 16.083L17.465 16.084Z" fill="white"/>
<path d="M17.463 16.019C17.4467 16.0218 17.4319 16.0302 17.4213 16.0429C17.4106 16.0555 17.4048 16.0715 17.4048 16.088C17.4048 16.1045 17.4106 16.1205 17.4213 16.1332C17.4319 16.1458 17.4467 16.1542 17.463 16.157C17.501 16.157 17.532 16.126 17.532 16.088C17.532 16.05 17.5 16.019 17.463 16.019ZM17.463 16.146C17.4476 16.146 17.4329 16.1399 17.422 16.129C17.4111 16.1181 17.4048 16.1034 17.4048 16.088C17.4048 16.0726 17.4111 16.0579 17.422 16.047C17.4329 16.0361 17.4476 16.03 17.463 16.03C17.4784 16.03 17.4931 16.0361 17.504 16.047C17.5149 16.0579 17.521 16.0726 17.521 16.088C17.521 16.1034 17.5149 16.1181 17.504 16.129C17.4931 16.1399 17.4784 16.146 17.463 16.146ZM14.463 17.143C14.4102 17.1411 14.3576 17.1499 14.3083 17.1688C14.259 17.1877 14.214 17.2163 14.176 17.253V17.143H14.076V17.984H14.176V17.532C14.177 17.486 14.175 17.448 14.181 17.42C14.1843 17.4012 14.1918 17.3835 14.203 17.368C14.254 17.301 14.313 17.268 14.401 17.256C14.416 17.254 14.449 17.254 14.463 17.254V17.143ZM15.864 17.142L15.615 17.843L15.364 17.142H15.257L15.54 17.931L15.543 17.938C15.5481 17.9509 15.5568 17.962 15.568 17.97C15.5814 17.9806 15.5979 17.9863 15.615 17.9863C15.632 17.9863 15.6486 17.9806 15.662 17.97C15.6732 17.962 15.6819 17.9509 15.687 17.938L15.69 17.931L15.971 17.142H15.864ZM15.179 17.262C15.1405 17.2221 15.0942 17.1907 15.0428 17.1699C14.9915 17.1491 14.9364 17.1392 14.881 17.141C14.761 17.141 14.664 17.181 14.583 17.262C14.5434 17.3014 14.5123 17.3486 14.4916 17.4006C14.471 17.4525 14.4612 17.5081 14.463 17.564C14.463 17.685 14.502 17.783 14.583 17.865C14.6215 17.9049 14.6679 17.9362 14.7192 17.957C14.7705 17.9779 14.8256 17.9878 14.881 17.986C14.9407 17.9876 15 17.9757 15.0545 17.9513C15.109 17.9269 15.1574 17.8906 15.196 17.845V17.983H15.298V17.561C15.2992 17.5057 15.2893 17.4508 15.2688 17.3994C15.2484 17.3481 15.2178 17.3014 15.179 17.262ZM15.196 17.566C15.1968 17.6076 15.1892 17.649 15.1737 17.6877C15.1582 17.7263 15.135 17.7614 15.1056 17.7909C15.0762 17.8204 15.0412 17.8437 15.0026 17.8593C14.964 17.875 14.9226 17.8827 14.881 17.882C14.8391 17.8824 14.7976 17.8744 14.7589 17.8585C14.7202 17.8426 14.685 17.819 14.6556 17.7893C14.6261 17.7596 14.6029 17.7242 14.5873 17.6853C14.5718 17.6465 14.5642 17.6049 14.565 17.563C14.5638 17.521 14.5711 17.4793 14.5865 17.4402C14.6019 17.4011 14.6251 17.3656 14.6546 17.3358C14.6842 17.306 14.7195 17.2824 14.7584 17.2667C14.7973 17.2509 14.839 17.2432 14.881 17.244C14.9227 17.2436 14.9641 17.2516 15.0027 17.2674C15.0413 17.2833 15.0763 17.3068 15.1057 17.3364C15.1351 17.3661 15.1582 17.4013 15.1737 17.4401C15.1892 17.4788 15.1968 17.5203 15.196 17.562V17.566ZM16.646 17.262C16.6075 17.2221 16.5612 17.1907 16.5098 17.1699C16.4585 17.1491 16.4034 17.1392 16.348 17.141C16.228 17.141 16.131 17.181 16.05 17.262C16.0104 17.3014 15.9793 17.3486 15.9586 17.4006C15.938 17.4525 15.9282 17.5081 15.93 17.564C15.93 17.685 15.969 17.783 16.05 17.865C16.0885 17.9049 16.1349 17.9362 16.1862 17.957C16.2375 17.9779 16.2926 17.9878 16.348 17.986C16.4316 17.9877 16.5138 17.9635 16.5832 17.9168C16.6526 17.8701 16.706 17.8031 16.736 17.725L16.643 17.68C16.6217 17.7407 16.5817 17.793 16.5286 17.8294C16.4755 17.8657 16.4123 17.8841 16.348 17.882C16.3063 17.883 16.2648 17.8754 16.2261 17.8598C16.1874 17.8441 16.1523 17.8207 16.123 17.791C16.0685 17.7371 16.0364 17.6646 16.033 17.588H16.764L16.765 17.563C16.765 17.5376 16.763 17.5121 16.759 17.487C16.7469 17.4017 16.7073 17.3226 16.646 17.262ZM16.041 17.488C16.0561 17.418 16.0951 17.3555 16.1513 17.3111C16.2075 17.2668 16.2774 17.2434 16.349 17.245C16.4204 17.2441 16.49 17.2678 16.546 17.3123C16.6019 17.3568 16.6408 17.4192 16.656 17.489L16.041 17.488Z" fill="white"/>
<path d="M0 0H32V29.962H0V0Z" fill="#007DB5"/>
<path d="M12.059 19.066C12.525 18.601 12.758 18.025 12.758 17.338C12.758 16.649 12.526 16.072 12.061 15.606C11.597 15.141 11.02 14.908 10.331 14.908C9.64301 14.908 9.06501 15.141 8.59901 15.606C8.13401 16.072 7.90101 16.65 7.90101 17.338C7.90101 18.025 8.13401 18.601 8.60101 19.066C9.06901 19.532 9.64501 19.764 10.331 19.764C11.018 19.765 11.594 19.532 12.059 19.066ZM8.87001 17.341C8.87001 16.922 9.00801 16.574 9.28501 16.298C9.56301 16.021 9.91201 15.883 10.331 15.883C10.748 15.883 11.095 16.022 11.372 16.3C11.649 16.578 11.788 16.926 11.788 17.342C11.788 17.758 11.649 18.104 11.372 18.381C11.236 18.5175 11.0734 18.6247 10.8944 18.6961C10.7154 18.7675 10.5237 18.8015 10.331 18.796C10.1382 18.8015 9.94623 18.7677 9.76689 18.6966C9.58755 18.6255 9.42456 18.5186 9.28786 18.3824C9.15117 18.2463 9.04362 18.0838 8.97179 17.9047C8.89995 17.7257 8.86532 17.5339 8.87001 17.341ZM27.676 15.618C27.213 15.154 26.638 14.922 25.951 14.922C25.263 14.922 24.688 15.154 24.224 15.618C23.76 16.082 23.528 16.658 23.528 17.345C23.528 18.029 23.761 18.603 24.226 19.067C24.692 19.531 25.267 19.763 25.951 19.763C26.634 19.763 27.21 19.531 27.674 19.067C28.137 18.603 28.37 18.029 28.37 17.345C28.37 16.658 28.138 16.083 27.676 15.618ZM26.988 18.383C26.8526 18.5191 26.6907 18.6261 26.5123 18.6973C26.334 18.7685 26.143 18.8024 25.951 18.797C25.536 18.797 25.189 18.659 24.912 18.383C24.7749 18.2483 24.6672 18.0868 24.5954 17.9085C24.5237 17.7303 24.4895 17.5391 24.495 17.347C24.495 16.93 24.633 16.583 24.909 16.307C25.186 16.031 25.534 15.893 25.952 15.893C26.367 15.893 26.713 16.032 26.989 16.309C27.266 16.587 27.404 16.933 27.404 17.347C27.403 17.762 27.265 18.107 26.988 18.383ZM17.954 16.671C17.954 16.4572 18.0389 16.2522 18.1901 16.1011C18.3412 15.9499 18.5463 15.865 18.76 15.865C18.9738 15.865 19.1788 15.9499 19.3299 16.1011C19.4811 16.2522 19.566 16.4572 19.566 16.671V19.759H20.525V16.671C20.525 16.4572 20.6099 16.2522 20.7611 16.1011C20.9122 15.9499 21.1173 15.865 21.331 15.865C21.5448 15.865 21.7498 15.9499 21.9009 16.1011C22.0521 16.2522 22.137 16.4572 22.137 16.671V19.759H23.096V16.671C23.0954 16.3176 22.9888 15.9726 22.7899 15.6805C22.591 15.3885 22.309 15.1628 21.9805 15.0328C21.6519 14.9028 21.2919 14.8744 20.947 14.9512C20.6021 15.0281 20.2882 15.2067 20.046 15.464C19.8038 15.2064 19.4899 15.0274 19.1448 14.9504C18.7998 14.8733 18.4395 14.9016 18.1107 15.0317C17.782 15.1617 17.4998 15.3875 17.3009 15.6798C17.102 15.9721 16.9954 16.3174 16.995 16.671V19.759H17.954V16.671ZM13.356 18.471C13.356 18.471 13.078 18.819 13.266 19.266C13.469 19.751 13.989 19.761 13.989 19.761L16.561 19.757V18.79H14.345L16.367 16.251C16.367 16.251 16.719 15.867 16.47 15.357C16.246 14.899 15.721 14.911 15.721 14.911H13.192V15.876L15.422 15.875L13.356 18.471ZM7.88701 18.954L7.19801 18.264C7.06489 18.4346 6.89376 18.5717 6.69826 18.6644C6.50277 18.7571 6.28832 18.8028 6.07201 18.798C5.65501 18.798 5.30701 18.659 5.02901 18.382C4.89149 18.2465 4.78333 18.0842 4.71124 17.9051C4.63916 17.726 4.6047 17.534 4.61001 17.341C4.61001 16.924 4.75001 16.577 5.02901 16.3C5.16542 16.1634 5.32827 16.056 5.50761 15.9844C5.68696 15.9129 5.87901 15.8787 6.07201 15.884C6.53601 15.884 6.91101 16.065 7.19701 16.423L7.88501 15.732C7.66298 15.4688 7.38502 15.2584 7.07138 15.1162C6.75774 14.974 6.41632 14.9035 6.07201 14.91C5.38201 14.91 4.80401 15.143 4.33901 15.608C3.87301 16.074 3.64001 16.652 3.64001 17.341C3.64001 18.031 3.87301 18.608 4.33901 19.072C4.80501 19.536 5.38201 19.768 6.07201 19.768C6.79601 19.768 7.40201 19.497 7.88701 18.954ZM7.65801 20.636H7.08001V21.401H6.65301V22.02H7.08101V26.253H7.65801V22.02H8.40101V21.401H7.65801V20.636ZM24.777 20.637H25.355V26.253H24.777V20.637ZM28.451 15.356C28.4417 15.3487 28.4316 15.3423 28.421 15.337C28.4511 15.3345 28.4796 15.3222 28.502 15.302C28.5193 15.2836 28.5286 15.2592 28.528 15.234C28.5284 15.2138 28.5229 15.194 28.512 15.177C28.5021 15.1609 28.4874 15.1483 28.47 15.141C28.4451 15.1331 28.4191 15.1297 28.393 15.131H28.225V15.51H28.275V15.342H28.333C28.3424 15.3419 28.3518 15.3426 28.361 15.344C28.3692 15.3461 28.3769 15.3494 28.384 15.354C28.3933 15.3613 28.4017 15.3697 28.409 15.379C28.419 15.391 28.431 15.408 28.445 15.431L28.495 15.51H28.558L28.492 15.407C28.4813 15.3878 28.4675 15.3706 28.451 15.356ZM28.382 15.298H28.274V15.172H28.394C28.422 15.172 28.443 15.178 28.456 15.189C28.469 15.2 28.476 15.215 28.476 15.233C28.4762 15.2451 28.4728 15.257 28.466 15.267C28.4592 15.2777 28.449 15.2858 28.437 15.29C28.4193 15.2958 28.4007 15.2985 28.382 15.298Z" fill="white"/>
<path d="M28.37 14.922C28.2652 14.922 28.1648 14.9636 28.0907 15.0377C28.0166 15.1118 27.975 15.2122 27.975 15.317C27.975 15.4218 28.0166 15.5222 28.0907 15.5963C28.1648 15.6704 28.2652 15.712 28.37 15.712C28.4748 15.712 28.5752 15.6704 28.6493 15.5963C28.7234 15.5222 28.765 15.4218 28.765 15.317C28.765 15.2122 28.7234 15.1118 28.6493 15.0377C28.5752 14.9636 28.4748 14.922 28.37 14.922ZM28.37 15.651C28.2859 15.6445 28.2073 15.6065 28.15 15.5445C28.0927 15.4826 28.0609 15.4014 28.0609 15.317C28.0609 15.2326 28.0927 15.1514 28.15 15.0894C28.2073 15.0275 28.2859 14.9895 28.37 14.983C28.4541 14.9895 28.5327 15.0275 28.59 15.0894C28.6473 15.1514 28.6791 15.2326 28.6791 15.317C28.6791 15.4014 28.6473 15.4826 28.59 15.5445C28.5327 15.6065 28.4541 15.6445 28.37 15.651ZM11.067 21.403C10.9574 21.4015 10.8477 21.4079 10.739 21.422C10.203 21.494 9.766 21.698 9.41 22.037V21.403H8.832V26.252H9.41V23.648C9.415 23.385 9.402 23.163 9.439 23C9.45752 22.8913 9.50137 22.7886 9.567 22.7C9.861 22.312 10.201 22.124 10.71 22.055C10.796 22.043 10.985 22.044 11.067 22.044V21.403ZM19.146 21.4L17.709 25.446L16.259 21.4H15.643L17.278 25.95C17.283 25.964 17.287 25.979 17.293 25.992C17.3197 26.0548 17.3602 26.1108 17.4116 26.1557C17.4631 26.2005 17.524 26.2332 17.5898 26.2511C17.6557 26.269 17.7248 26.2717 17.7918 26.259C17.8589 26.2464 17.9222 26.2187 17.977 26.178C18.0541 26.1218 18.1104 26.0416 18.137 25.95L19.759 21.4H19.146ZM15.193 22.09C14.729 21.619 14.168 21.39 13.477 21.39C12.785 21.39 12.223 21.619 11.758 22.09C11.293 22.562 11.067 23.131 11.067 23.831C11.067 24.528 11.294 25.096 11.76 25.567C12.227 26.038 12.789 26.267 13.477 26.267C14.165 26.267 14.726 26.038 15.191 25.567C15.227 25.53 15.26 25.491 15.293 25.453V26.252H15.882L15.881 23.82C15.879 23.126 15.654 22.559 15.193 22.09ZM15.293 23.847C15.29 24.363 15.116 24.8 14.773 25.146C14.427 25.496 13.991 25.673 13.477 25.673C12.962 25.673 12.525 25.496 12.179 25.147C11.832 24.798 11.655 24.356 11.655 23.835C11.655 23.311 11.83 22.868 12.174 22.518C12.519 22.169 12.957 21.992 13.476 21.992C13.99 21.992 14.427 22.17 14.772 22.521C15.115 22.869 15.289 23.307 15.292 23.822V23.847H15.293ZM23.657 22.09C23.193 21.619 22.632 21.39 21.941 21.39C21.249 21.39 20.687 21.619 20.222 22.09C19.757 22.561 19.531 23.131 19.531 23.831C19.531 24.528 19.758 25.096 20.224 25.566C20.691 26.038 21.253 26.266 21.941 26.266C22.63 26.266 23.19 26.037 23.655 25.566C23.893 25.325 24.065 25.057 24.179 24.76L23.644 24.501C23.5572 24.7421 23.4186 24.9612 23.238 25.143C22.892 25.493 22.456 25.67 21.942 25.67C21.427 25.67 20.991 25.493 20.644 25.144C20.3309 24.8314 20.1461 24.413 20.126 23.971H24.341C24.343 23.924 24.347 23.878 24.347 23.829C24.347 23.677 24.335 23.533 24.313 23.393C24.2407 22.8993 24.0106 22.4422 23.657 22.09ZM20.166 23.395C20.238 23.059 20.395 22.764 20.639 22.517C20.985 22.168 21.422 21.991 21.941 21.991C22.456 21.991 22.892 22.169 23.238 22.52C23.481 22.767 23.639 23.061 23.711 23.395H20.166Z" fill="white"/>
</g>
<defs>
<clipPath id="clip0_1195_1290">
<rect width="32" height="29.962" fill="white"/>
</clipPath>
</defs>
</svg>
