<svg width="200" height="60" viewBox="0 0 200 60" fill="none" xmlns="http://www.w3.org/2000/svg">
<g clip-path="url(#clip0_5502_16129)">
<path d="M89.2299 13.3165H101.635V5.62114C101.635 4.26437 101.547 3.37166 101.379 2.94198C101.244 2.61889 100.968 2.33799 100.544 2.10261C99.9782 1.78728 99.3792 1.63296 98.7456 1.63296H97.7958V0.907968H109.271V1.63296H108.321C107.688 1.63296 107.089 1.78066 106.523 2.08265C106.099 2.29028 105.809 2.60668 105.661 3.0297C105.506 3.45272 105.432 4.31875 105.432 5.62222V22.9082C105.432 24.2583 105.52 25.151 105.688 25.5807C105.823 25.9093 106.092 26.1913 106.503 26.4267C107.082 26.742 107.689 26.8975 108.321 26.8975H109.271V27.6225H97.7958V26.8975H98.7456C99.8435 26.8975 100.638 26.5744 101.143 25.9371C101.472 25.5141 101.635 24.507 101.635 22.9082V14.7699H89.2299V22.9082C89.2299 24.2583 89.3179 25.151 89.486 25.5807C89.6141 25.9093 89.8902 26.1913 90.3144 26.4267C90.8801 26.742 91.4723 26.8975 92.1059 26.8975H93.0692V27.6225H81.5938V26.8975H82.5435C83.6547 26.8975 84.4565 26.5744 84.9609 25.9371C85.2771 25.5141 85.433 24.507 85.433 22.9082V5.62222C85.433 4.26546 85.3449 3.3728 85.1768 2.94312C85.0421 2.62003 84.7727 2.33912 84.3619 2.10374C83.7829 1.78842 83.1759 1.6341 82.5435 1.6341H81.5938V0.909052H93.0692V1.6341H92.1059C91.4723 1.6341 90.8801 1.78174 90.3144 2.08374C89.9036 2.29136 89.6207 2.60782 89.466 3.03084C89.3112 3.45386 89.2299 4.31989 89.2299 5.62336V13.3187V13.3165ZM128.601 18.7158H118.223L116.432 22.8993C115.988 23.933 115.758 24.7124 115.758 25.2231C115.758 25.6262 115.953 25.9893 116.344 26.2979C116.728 26.5999 117.57 26.802 118.856 26.8952V27.6202H110.41V26.8952C111.528 26.6998 112.248 26.4456 112.579 26.1292C113.253 25.4974 113.993 24.215 114.808 22.2887L124.231 0.302842H124.897L134.212 22.524C134.959 24.3105 135.639 25.4652 136.253 26.0026C136.865 26.5333 137.713 26.8286 138.811 26.8952V27.6202H128.252V26.8952C129.317 26.8419 130.037 26.6665 130.414 26.3645C130.791 26.0625 130.973 25.6928 130.973 25.2564C130.973 24.6791 130.71 23.7654 130.185 22.5163L128.602 18.7158H128.601ZM127.995 17.2658L123.483 6.48714L118.85 17.2658H127.996H127.995ZM166.598 27.6202H159.426L150.328 15.1296C149.674 15.1562 149.142 15.1696 148.732 15.1696C148.564 15.1696 148.382 15.1629 148.193 15.1562C147.997 15.1496 147.803 15.1429 147.593 15.1296V22.906C147.593 24.5847 147.775 25.6262 148.146 26.0292C148.644 26.6065 149.391 26.8952 150.388 26.8952H151.431V27.6202H139.956V26.8952H140.959C142.091 26.8952 142.899 26.5255 143.384 25.7938C143.66 25.3908 143.795 24.4237 143.795 22.906V5.62C143.795 3.94125 143.614 2.89979 143.243 2.49787C142.731 1.92053 141.97 1.63187 140.96 1.63187H139.957V0.906829H149.709C152.558 0.906829 154.653 1.11446 155.999 1.52415C157.353 1.94051 158.497 2.70664 159.434 3.81471C160.377 4.92277 160.848 6.24509 160.848 7.78283C160.848 9.42826 160.309 10.8517 159.238 12.0608C158.16 13.2699 156.503 14.1226 154.247 14.6266L159.79 22.2754C161.056 24.0352 162.141 25.2098 163.049 25.7872C163.952 26.3712 165.137 26.7342 166.598 26.8952V27.6202ZM147.592 13.8805C147.842 13.8805 148.056 13.8805 148.239 13.8872C148.421 13.8938 148.569 13.9005 148.683 13.9005C151.209 13.9005 153.115 13.3498 154.394 12.2484C155.68 11.1403 156.321 9.73695 156.321 8.03156C156.321 6.36613 155.802 5.00932 154.772 3.96233C153.735 2.92199 152.361 2.39796 150.658 2.39796C149.903 2.39796 148.879 2.51898 147.593 2.76102V13.8816L147.592 13.8805ZM178.707 26.8952V27.6202H167.23V26.8952H168.18C169.291 26.8952 170.093 26.5722 170.597 25.9349C170.914 25.5118 171.068 24.5048 171.068 22.906V5.62C171.068 4.2699 170.982 3.37725 170.812 2.94757C170.678 2.61893 170.408 2.3369 169.998 2.10152C169.419 1.7862 168.813 1.63187 168.18 1.63187H167.23V0.906829H178.707V1.63187H177.744C176.652 1.63187 175.857 1.95384 175.36 2.59226C175.03 3.01527 174.869 4.02233 174.869 5.62114V22.9071C174.869 24.2572 174.957 25.1499 175.125 25.5795C175.253 25.9082 175.529 26.1902 175.953 26.4256C176.519 26.7409 177.112 26.8963 177.745 26.8963H178.708L178.707 26.8952ZM198.224 0.301758V9.5293H197.497C197.261 7.75618 196.836 6.34613 196.224 5.29803C195.611 4.24992 194.735 3.41721 193.597 2.79989C192.466 2.18258 191.293 1.8728 190.082 1.8728C188.708 1.8728 187.577 2.28915 186.68 3.12186C185.785 3.95458 185.334 4.9083 185.334 5.96973C185.334 6.78245 185.617 7.52746 186.183 8.19918C187.004 9.17956 188.944 10.4963 192.015 12.134C194.52 13.4775 196.231 14.5045 197.147 15.2162C198.063 15.9345 198.77 16.7739 199.261 17.7476C199.754 18.7213 200.002 19.735 200.002 20.8031C200.002 22.8238 199.215 24.5636 197.645 26.0281C196.069 27.4926 194.041 28.2242 191.57 28.2242C190.788 28.2242 190.061 28.1632 189.374 28.0433C188.963 27.9755 188.121 27.7346 186.835 27.3183C185.556 26.9019 184.741 26.6931 184.397 26.6931C184.067 26.6931 183.804 26.7942 183.615 26.9885C183.427 27.1894 183.285 27.5991 183.191 28.2242H182.464V19.0777H183.191C183.535 20.9918 183.992 22.4297 184.571 23.3756C185.15 24.3294 186.04 25.121 187.232 25.7461C188.423 26.3778 189.73 26.6931 191.151 26.6931C192.794 26.6931 194.101 26.2568 195.05 25.3908C196.007 24.517 196.486 23.49 196.486 22.3087C196.486 21.6503 196.304 20.9863 195.947 20.3146C195.583 19.6429 195.024 19.0189 194.263 18.4349C193.751 18.0385 192.343 17.2058 190.047 15.9301C187.75 14.661 186.115 13.6407 185.145 12.8812C184.175 12.1229 183.433 11.2758 182.936 10.3631C182.43 9.44272 182.181 8.429 182.181 7.3276C182.181 5.41347 182.921 3.76136 184.397 2.37795C185.872 0.994541 187.757 0.302842 190.034 0.302842C191.462 0.302842 192.97 0.652594 194.566 1.34319C195.306 1.67183 195.825 1.83393 196.128 1.83393C196.472 1.83393 196.755 1.73292 196.97 1.53196C197.185 1.32434 197.361 0.921269 197.495 0.302842H198.223L198.224 0.301758Z" fill="#CEAE75"/>
<path d="M92.106 33.5921L92.2396 36.5655H91.8855C91.8154 36.0437 91.723 35.6695 91.6049 35.4463C91.4101 35.0866 91.1551 34.8201 90.8333 34.6513C90.5115 34.4792 90.0907 34.3938 89.5673 34.3938H87.7813V44.0488C87.7813 44.8282 87.8648 45.3145 88.033 45.5088C88.269 45.7697 88.6331 45.8996 89.1242 45.8996H89.5618V46.2427H84.1659V45.8996H84.6213C85.1636 45.8996 85.5466 45.7375 85.776 45.4133C85.9129 45.2135 85.9831 44.7583 85.9831 44.0488V34.3938H84.4621C83.8686 34.3938 83.4477 34.4381 83.1994 34.5248C82.8743 34.6424 82.6004 34.8679 82.3676 35.2054C82.1383 35.5396 82.0002 35.9948 81.9557 36.5666H81.6016L81.7352 33.5933H92.106V33.5921ZM111.708 46.2427H108.312L104.004 40.3271C103.695 40.3404 103.443 40.346 103.248 40.346C103.169 40.346 103.082 40.3426 102.993 40.3393C102.901 40.336 102.808 40.3326 102.709 40.326V44.0088C102.709 44.8038 102.795 45.2967 102.971 45.4877C103.207 45.7608 103.561 45.8974 104.033 45.8974H104.528V46.2405H99.093V45.8974H99.5685C100.104 45.8974 100.487 45.7231 100.716 45.3755C100.847 45.1846 100.911 44.7272 100.911 44.0088V35.8238C100.911 35.0288 100.824 34.5359 100.649 34.3449C100.407 34.0718 100.047 33.9352 99.5685 33.9352H99.093V33.5921H103.71C105.06 33.5921 106.051 33.6909 106.689 33.8841C107.33 34.0817 107.872 34.4437 108.316 34.9689C108.762 35.4929 108.986 36.1202 108.986 36.8486C108.986 37.628 108.731 38.302 108.223 38.8738C107.713 39.4456 106.928 39.8497 105.86 40.0884L108.485 43.7101C109.085 44.5428 109.598 45.1002 110.028 45.3733C110.456 45.6498 111.017 45.8219 111.708 45.8974V46.2405V46.2427ZM102.708 39.7365C102.826 39.7365 102.929 39.7364 103.014 39.7398C103.101 39.7431 103.171 39.7464 103.225 39.7464C104.421 39.7464 105.324 39.4855 105.929 38.9648C106.539 38.4396 106.841 37.7757 106.841 36.9674C106.841 36.1791 106.596 35.5362 106.108 35.0399C105.617 34.547 104.966 34.2994 104.159 34.2994C103.802 34.2994 103.317 34.3571 102.708 34.4715V39.7365ZM126.348 42.0258H121.433L120.585 44.0077C120.374 44.4973 120.266 44.866 120.266 45.108C120.266 45.299 120.359 45.47 120.544 45.6165C120.725 45.7597 121.125 45.8552 121.734 45.8996V46.2427H117.734V45.8996C118.264 45.8075 118.605 45.6865 118.761 45.5377C119.08 45.239 119.431 44.6317 119.817 43.719L124.278 33.3068H124.593L129.004 43.83C129.358 44.6761 129.68 45.2235 129.97 45.4777C130.261 45.7287 130.663 45.8685 131.183 45.9007V46.2438H126.182V45.9007C126.686 45.8752 127.027 45.793 127.206 45.6498C127.384 45.5066 127.471 45.3312 127.471 45.1246C127.471 44.8515 127.346 44.4185 127.098 43.8267L126.348 42.027V42.0258ZM126.061 41.3386L123.924 36.2346L121.731 41.3386H126.061ZM148.563 33.5921V33.9352C148.116 34.0174 147.776 34.1606 147.545 34.3671C147.217 34.6724 146.923 35.1432 146.668 35.776L142.264 46.5281H141.92L137.178 35.6328C136.935 35.0699 136.764 34.7257 136.665 34.6025C136.508 34.4093 136.317 34.2561 136.087 34.145C135.859 34.0373 135.554 33.9663 135.168 33.9352V33.5921H140.341V33.9352C139.754 33.993 139.375 34.0907 139.199 34.2339C139.026 34.3771 138.937 34.5581 138.937 34.7835C138.937 35.0921 139.081 35.5785 139.368 36.2369L142.593 43.6424L145.587 36.329C145.88 35.6073 146.027 35.1076 146.027 34.8279C146.027 34.6502 145.934 34.4748 145.756 34.3127C145.574 34.1473 145.268 34.0296 144.841 33.963C144.808 33.9563 144.754 33.9474 144.681 33.9341V33.591H148.563V33.5921ZM158.856 34.2794V39.279H161.65C162.373 39.279 162.855 39.1702 163.097 38.9548C163.422 38.6684 163.6 38.1654 163.639 37.447H163.983V41.8548H163.639C163.554 41.2375 163.465 40.8412 163.378 40.6657C163.266 40.4492 163.08 40.2771 162.825 40.1539C162.57 40.0307 162.178 39.9663 161.648 39.9663H158.855V44.1387C158.855 44.6983 158.88 45.0392 158.928 45.1591C158.979 45.2801 159.065 45.3789 159.19 45.4488C159.314 45.5221 159.553 45.5576 159.901 45.5576H162.048C162.763 45.5576 163.283 45.5066 163.608 45.4077C163.93 45.3089 164.243 45.1113 164.539 44.8193C164.924 44.4352 165.321 43.8522 165.725 43.0761H166.108L165.014 46.2438H155.239V45.9007H155.689C155.989 45.9007 156.273 45.8274 156.541 45.6853C156.743 45.5865 156.88 45.4366 156.95 45.2368C157.023 45.0358 157.059 44.6295 157.059 44.0121V35.7883C157.059 34.9867 156.979 34.4937 156.816 34.3094C156.589 34.0607 156.216 33.9374 155.69 33.9374H155.24V33.5943H165.018L165.151 36.38H164.787C164.657 35.7094 164.513 35.2475 164.354 34.9966C164.195 34.7457 163.959 34.5548 163.649 34.4215C163.401 34.3294 162.96 34.2816 162.332 34.2816H158.856V34.2794ZM183.58 42.7509L183.887 42.8175L182.795 46.2427H172.979V45.8996H173.455C173.99 45.8996 174.373 45.7275 174.602 45.3811C174.733 45.1835 174.797 44.7261 174.797 44.0111V35.826C174.797 35.0377 174.711 34.5448 174.536 34.3471C174.293 34.074 173.933 33.9374 173.455 33.9374H172.979V33.5943H178.72V33.9374C178.048 33.9307 177.575 33.9907 177.302 34.1217C177.03 34.2494 176.845 34.4137 176.747 34.608C176.648 34.8057 176.597 35.2765 176.597 36.017V43.9921C176.597 44.5106 176.648 44.8637 176.747 45.0569C176.821 45.1902 176.939 45.2856 177.094 45.35C177.247 45.41 177.736 45.4422 178.555 45.4422H179.48C180.456 45.4422 181.137 45.3722 181.53 45.229C181.922 45.0858 182.283 44.8315 182.608 44.4696C182.93 44.1065 183.255 43.5347 183.581 42.752L183.58 42.7509ZM199.12 33.3057V37.6746H198.776C198.664 36.8353 198.463 36.168 198.174 35.6717C197.883 35.1754 197.469 34.7812 196.93 34.4892C196.394 34.1961 195.839 34.0507 195.265 34.0507C194.615 34.0507 194.079 34.2483 193.655 34.6424C193.231 35.0366 193.017 35.4885 193.017 35.9903C193.017 36.3756 193.151 36.7287 193.419 37.0462C193.808 37.5103 194.726 38.1343 196.18 38.9093C197.366 39.5455 198.177 40.0318 198.61 40.3693C199.044 40.709 199.379 41.1077 199.612 41.5684C199.845 42.0292 199.963 42.5099 199.963 43.0151C199.963 43.9722 199.59 44.796 198.847 45.4888C198.101 46.1816 197.141 46.5291 195.971 46.5291C195.601 46.5291 195.256 46.5003 194.931 46.4426C194.736 46.4115 194.338 46.2971 193.728 46.0994C193.123 45.9018 192.736 45.803 192.574 45.803C192.417 45.803 192.293 45.8508 192.204 45.9429C192.115 46.0384 192.047 46.2327 192.004 46.5281H191.66V42.1968H192.004C192.166 43.1039 192.383 43.7834 192.657 44.232C192.931 44.6839 193.352 45.0591 193.917 45.3544C194.481 45.6531 195.1 45.803 195.773 45.803C196.551 45.803 197.169 45.5965 197.619 45.1857C198.072 44.7727 198.298 44.2853 198.298 43.7257C198.298 43.4148 198.212 43.0995 198.043 42.7819C197.872 42.4633 197.607 42.1679 197.246 41.8915C197.003 41.7038 196.336 41.3097 195.25 40.7046C194.162 40.1039 193.387 39.6199 192.928 39.2612C192.469 38.9015 192.117 38.5018 191.882 38.0688C191.643 37.6336 191.525 37.1528 191.525 36.6321C191.525 35.7261 191.876 34.9433 192.575 34.2883C193.273 33.6332 194.166 33.3057 195.244 33.3057C195.92 33.3057 196.635 33.4711 197.391 33.7986C197.741 33.9541 197.986 34.0307 198.131 34.0307C198.294 34.0307 198.427 33.983 198.53 33.8875C198.632 33.7887 198.715 33.5977 198.779 33.3057H199.123H199.12Z" fill="#252525"/>
<path d="M125.108 59.7971V60.0003C124.582 59.7371 124.141 59.4273 123.789 59.0732C123.287 58.5702 122.898 57.9762 122.627 57.2912C122.354 56.6061 122.219 55.8967 122.219 55.1605C122.219 54.0847 122.486 53.1009 123.019 52.2149C123.552 51.3267 124.249 50.6928 125.108 50.3097V50.534C124.678 50.7705 124.325 51.0925 124.049 51.5011C123.773 51.9108 123.566 52.4281 123.43 53.0555C123.292 53.6839 123.225 54.34 123.225 55.0228C123.225 55.7645 123.282 56.4385 123.398 57.0458C123.489 57.5243 123.599 57.9085 123.727 58.1983C123.858 58.4881 124.032 58.7656 124.249 59.0332C124.469 59.2997 124.755 59.5562 125.107 59.7982L125.108 59.7971ZM127.091 54.41V56.4784C127.091 56.9225 127.139 57.199 127.237 57.3056C127.369 57.4588 127.569 57.5354 127.836 57.5354H128.108V57.7275H125.068V57.5354H125.335C125.635 57.5354 125.851 57.4377 125.979 57.2434C126.048 57.1368 126.083 56.8803 126.083 56.4784V51.9007C126.083 51.4555 126.037 51.1802 125.942 51.0736C125.805 50.9215 125.603 50.8449 125.334 50.8449H125.067V50.6528H127.667C128.301 50.6528 128.801 50.7183 129.169 50.8482C129.534 50.9781 129.844 51.1979 130.094 51.5077C130.346 51.8174 130.47 52.1839 130.47 52.6069C130.47 53.1842 130.28 53.6539 129.898 54.0158C129.516 54.3767 128.978 54.5588 128.28 54.5588C128.109 54.5588 127.925 54.5466 127.727 54.5221C127.527 54.4988 127.315 54.4622 127.089 54.4122L127.091 54.41ZM127.091 54.1113C127.275 54.1468 127.438 54.1735 127.582 54.1891C127.722 54.2068 127.846 54.2157 127.946 54.2157C128.308 54.2157 128.619 54.0758 128.88 53.796C129.142 53.5162 129.275 53.1553 129.275 52.7123C129.275 52.4059 129.212 52.1217 129.087 51.8608C128.963 51.5999 128.785 51.4033 128.555 51.2734C128.325 51.1435 128.064 51.078 127.774 51.078C127.595 51.078 127.368 51.1113 127.091 51.178V54.1102V54.1113ZM130.495 52.9467H132.741V53.1387H132.595C132.459 53.1387 132.355 53.1731 132.284 53.2386C132.211 53.3042 132.175 53.393 132.175 53.504C132.175 53.625 132.213 53.7693 132.286 53.9359L133.404 56.5739L134.522 53.8382C134.602 53.6428 134.641 53.4951 134.641 53.3952C134.641 53.3452 134.629 53.3064 134.6 53.2742C134.561 53.2231 134.513 53.1864 134.454 53.1676C134.395 53.1476 134.274 53.1387 134.094 53.1387V52.9467H135.649V53.1387C135.467 53.1532 135.342 53.1898 135.273 53.2498C135.149 53.3541 135.041 53.5306 134.943 53.776L133.26 57.8663H133.037L131.33 53.8437C131.253 53.6527 131.18 53.5184 131.111 53.4363C131.042 53.3541 130.951 53.2852 130.844 53.2286C130.785 53.1964 130.667 53.1687 130.495 53.1398V52.9467ZM137.04 51.3778V52.9467H138.158V53.2986L137.04 53.3086V56.4052C137.04 56.7149 137.084 56.9247 137.173 57.0313C137.26 57.1401 137.375 57.1935 137.514 57.1935C137.63 57.1935 137.741 57.158 137.849 57.0847C137.956 57.0136 138.041 56.907 138.099 56.766H138.302C138.181 57.1091 138.007 57.3667 137.785 57.541C137.56 57.7142 137.329 57.8008 137.092 57.8008C136.932 57.8008 136.775 57.7564 136.621 57.6676C136.468 57.5788 136.355 57.4499 136.283 57.2856C136.209 57.1202 136.171 56.8659 136.171 56.5206V53.2986H135.412V53.1331C135.605 53.0565 135.801 52.9289 136.002 52.749C136.204 52.568 136.382 52.3526 136.541 52.1017C136.621 51.9696 136.734 51.7286 136.878 51.3778H137.04ZM139.17 56.7138C139.332 56.7138 139.469 56.7704 139.582 56.8826C139.692 56.9947 139.748 57.1302 139.748 57.29C139.748 57.4488 139.691 57.5854 139.579 57.6975C139.466 57.8096 139.331 57.8663 139.17 57.8663C139.011 57.8663 138.874 57.8096 138.761 57.6975C138.649 57.5854 138.592 57.4488 138.592 57.29C138.592 57.1279 138.65 56.9914 138.761 56.8793C138.874 56.7693 139.011 56.7138 139.17 56.7138ZM140.296 50.5351V50.3108C140.826 50.5706 141.268 50.8781 141.621 51.2323C142.118 51.7386 142.505 52.3348 142.776 53.0177C143.049 53.6983 143.185 54.41 143.185 55.1494C143.185 56.2253 142.919 57.209 142.386 58.095C141.853 58.9832 141.156 59.6172 140.294 60.0003V59.7971C140.724 59.5572 141.08 59.2353 141.358 58.8278C141.636 58.4203 141.841 57.9007 141.977 57.2712C142.111 56.6416 142.178 55.9877 142.178 55.3038C142.178 54.5643 142.122 53.8904 142.005 53.2797C141.918 52.8012 141.809 52.4193 141.676 52.1306C141.546 51.843 141.371 51.5655 141.154 51.2979C140.938 51.0314 140.651 50.7749 140.294 50.5329L140.296 50.5351ZM151.995 55.7745L152.166 55.8122L151.556 57.7275H146.066V57.5354H146.332C146.631 57.5354 146.845 57.4388 146.973 57.2456C147.047 57.1357 147.082 56.8793 147.082 56.4796V51.9019C147.082 51.46 147.034 51.1846 146.936 51.0747C146.8 50.9226 146.599 50.846 146.332 50.846H146.066V50.6539H149.276V50.846C148.899 50.8415 148.636 50.876 148.482 50.9492C148.33 51.0203 148.227 51.1125 148.171 51.2213C148.116 51.3312 148.087 51.5954 148.087 52.0095V56.4696C148.087 56.7594 148.116 56.957 148.171 57.0658C148.212 57.1401 148.278 57.1934 148.365 57.2301C148.451 57.2634 148.723 57.2811 149.182 57.2811H149.7C150.246 57.2811 150.627 57.2423 150.847 57.1624C151.066 57.0824 151.268 56.9403 151.449 56.7371C151.63 56.5339 151.811 56.2142 151.994 55.7767L151.995 55.7745ZM153.675 51.3778V52.9467H154.793V53.2986L153.675 53.3086V56.4052C153.675 56.7149 153.72 56.9247 153.809 57.0313C153.895 57.1401 154.01 57.1935 154.149 57.1935C154.265 57.1935 154.376 57.158 154.485 57.0847C154.591 57.0136 154.676 56.907 154.734 56.766H154.938C154.816 57.1091 154.643 57.3667 154.42 57.541C154.195 57.7142 153.965 57.8008 153.727 57.8008C153.567 57.8008 153.41 57.7564 153.256 57.6676C153.103 57.5788 152.99 57.4499 152.918 57.2856C152.844 57.1202 152.807 56.8659 152.807 56.5206V53.2986H152.047V53.1331C152.24 53.0565 152.436 52.9289 152.637 52.749C152.839 52.568 153.017 52.3526 153.176 52.1017C153.256 51.9696 153.369 51.7286 153.514 51.3778H153.674H153.675ZM158.181 57.1757C157.947 57.4222 157.719 57.5987 157.496 57.7053C157.274 57.8119 157.032 57.8652 156.776 57.8652C156.254 57.8652 155.796 57.6487 155.406 57.2123C155.016 56.776 154.822 56.2164 154.822 55.5336C154.822 54.8508 155.038 54.2246 155.469 53.6572C155.902 53.0899 156.456 52.8067 157.137 52.8067C157.558 52.8067 157.907 52.9422 158.182 53.2097V52.326C158.182 51.783 158.17 51.4511 158.143 51.3267C158.117 51.2024 158.075 51.1169 158.02 51.0725C157.963 51.028 157.893 51.0047 157.809 51.0047C157.718 51.0047 157.599 51.0336 157.447 51.088L157.38 50.8959L158.814 50.3086H159.049V55.8256C159.049 56.3829 159.061 56.7216 159.088 56.8448C159.114 56.9659 159.155 57.0525 159.215 57.1013C159.271 57.1491 159.339 57.1746 159.416 57.1746C159.511 57.1746 159.635 57.1435 159.795 57.0858L159.851 57.2778L158.423 57.864H158.181V57.1746V57.1757ZM158.181 56.8115V54.3656C158.16 54.1269 158.098 53.9103 157.992 53.716C157.888 53.5206 157.749 53.3752 157.577 53.2753C157.403 53.1776 157.236 53.1276 157.071 53.1276C156.765 53.1276 156.49 53.2641 156.249 53.5384C155.932 53.8992 155.773 54.4255 155.773 55.1195C155.773 55.82 155.926 56.3574 156.233 56.7305C156.54 57.1024 156.882 57.289 157.258 57.289C157.578 57.289 157.884 57.1291 158.18 56.8104L158.181 56.8115ZM160.71 56.7138C160.872 56.7138 161.009 56.7704 161.122 56.8826C161.232 56.9947 161.288 57.1302 161.288 57.29C161.288 57.4488 161.231 57.5854 161.119 57.6975C161.006 57.8096 160.871 57.8663 160.71 57.8663C160.551 57.8663 160.414 57.8096 160.301 57.6975C160.189 57.5854 160.132 57.4488 160.132 57.29C160.132 57.1279 160.19 56.9914 160.301 56.8793C160.414 56.7693 160.551 56.7138 160.71 56.7138Z" fill="#252525"/>
<path fill-rule="evenodd" clip-rule="evenodd" d="M12.85 14.9989C13.6645 15.3041 13.3232 15.5762 14.9086 15.8152C18.4799 16.3511 16.7845 16.199 22.9498 11.5236C24.5964 10.2749 25.523 10.2396 25.8156 9.07466C22.7973 8.06281 17.1954 11.8205 15.3589 13.1179C14.4666 12.7465 15.3547 12.8262 14.312 12.7062C13.6739 13.3052 12.4557 13.8463 11.6433 14.3864C3.74943 19.6277 -4.64871 29.0209 3.03766 38.7587C3.6602 39.546 4.49857 40.3344 5.26741 40.9293C8.5171 43.4424 6.15974 41.7125 7.32493 43.0699C8.01285 43.8707 9.42187 44.2215 10.4522 44.1656C11.5863 44.1046 12.0874 44.8256 13.3097 45.2622C14.3192 45.6244 15.4637 46.0423 16.5832 46.4303C17.8211 46.8597 17.4465 46.5348 18.3419 46.5359C18.7549 46.5359 19.4324 46.7438 19.9771 46.8183C20.0269 48.5037 21.5356 48.543 24.6328 49.9201C28.2747 51.5403 27.2547 49.5083 29.1514 48.1012L31.8118 48.1892C31.2618 49.6935 29.3828 50.6132 29.1441 51.9831C29.72 53.2536 31.3905 53.6892 32.7373 54.4051C34.6765 55.4335 35.2752 55.3238 37.0318 54.0513C38.2593 53.1615 39.1858 52.4569 40.2535 51.4937C42.7011 49.2848 42.1792 49.2258 42.3587 47.9409L47.5362 47.318C49.0376 48.2761 50.5421 50.8523 52.2167 48.6858C54.461 45.7827 52.4803 46.5203 56.6088 45.3357C58.6497 44.7501 60.4873 44.058 62.662 43.5821C65.0163 43.0668 66.4139 41.8998 66.8559 41.7487C67.4204 41.5542 67.6714 41.8439 68.3199 41.906C69.536 41.2852 68.0554 41.6763 69.4976 41.19C70.0672 40.9976 70.0475 41.1983 70.4906 40.6044C70.9502 39.9899 70.4812 40.261 71.1619 39.6888C71.3766 39.5078 71.883 39.2077 72.133 39.0443C73.1768 38.3625 75.7116 37.2864 75.1067 35.8421C73.9312 35.2183 71.8093 35.8866 71.0155 36.3387L70.0319 36.9574C69.9956 36.9802 69.9448 37.0102 69.9085 37.0329C66.8466 38.8942 67.0344 39.395 64.124 39.3329C62.8903 39.306 60.8473 39.3174 60.5246 40.5589C59.4943 40.3075 59.376 39.8192 58.327 40.4617C57.7751 41.6587 58.5626 41.6173 59.0108 42.3736L55.5069 43.3048C55.8348 41.8894 57.2988 39.6257 56.2083 38.3583C55.9261 38.0293 54.7931 37.3102 54.4859 37.0816C51.754 35.0465 52.2344 37.3785 50.6863 40.3923C50.2806 41.1828 48.9795 43.2965 48.7243 44.1759L55.0493 43.4931C51.5807 44.2277 48.7222 44.9602 44.9579 45.4226C34.6578 46.6869 23.4105 46.1417 14.2425 41.9132C0.615951 35.627 0.542282 25.6905 9.72795 17.6692C10.4968 16.9977 12.4132 15.5927 12.849 15.002L12.85 14.9989ZM37.7083 44.9664C36.9934 43.6514 34.6973 43.0927 34.1214 44.9571L37.7083 44.9664ZM26.4952 8.14043C26.8148 8.40115 26.6208 8.44979 27.3439 8.43945L33.3868 7.38928C32.0307 7.27547 27.2671 7.24653 26.4952 8.14043ZM55.5256 22.0828C55.4747 20.6623 51.0951 15.3868 49.9299 14.3274C50.0959 15.0578 50.7029 15.9683 51.063 16.5611C52.1721 18.3914 52.5737 21.0917 55.5256 22.0828ZM6.5924 31.6851C7.24607 33.3332 7.7628 34.2374 8.83461 35.5648C9.28285 36.1194 9.34509 36.2984 9.96349 36.5022C10.2779 35.479 10.3671 33.4222 9.80162 32.5997C9.22161 31.7554 7.75552 31.6251 6.59344 31.6861L6.5924 31.6851ZM14.4271 52.1124C11.1743 47.8933 11.2822 45.4092 8.61567 45.4692C8.47768 47.6956 14.588 54.0213 16.3021 54.5686C15.8258 53.743 15.0092 52.8677 14.4271 52.1124ZM36.0803 59.1302C36.0409 58.0935 34.6236 57.2772 34.2947 57.1893C32.7954 56.792 29.8891 59.1685 25.0675 59.0236C27.4477 59.5295 34.3362 60.2134 36.0803 59.1302ZM31.0637 9.6344C32.3409 10.2128 33.5175 11.0001 35.1444 11.0136C36.7278 11.027 39.3228 9.25679 39.8758 8.41358C36.3854 7.77212 33.2125 7.09342 29.9545 8.9371L31.0637 9.6344ZM51.4302 19.396C51.3535 18.1658 50.0534 15.7221 49.4724 14.5912C48.882 13.4428 48.8996 13.5328 47.8486 12.8076C47.3194 12.4423 46.3347 11.476 45.8813 11.8681C45.3459 12.3316 45.6011 14.3026 45.7059 15.1271C45.9342 16.916 49.7151 19.3608 51.4313 19.397L51.4302 19.396ZM22.3491 57.362C23.7674 58.6015 25.2294 58.437 27.346 57.9776C28.6648 57.6911 31.1892 57.0579 32.121 56.3657L27.9499 53.5081C27.0078 53.9695 26.1165 54.9327 25.1713 55.5804L22.3491 57.362ZM17.4932 48.8907C16.824 48.123 13.319 46.5038 12.4225 46.6207C12.298 49.1741 16.8074 54.8283 18.3513 55.7708C18.2164 54.5976 17.8397 53.8433 17.7391 52.3835C17.6571 51.1957 17.6955 49.9615 17.4932 48.8907ZM44.5833 15.1582C45.0419 13.9674 45.3905 11.2091 43.3434 10.1372C41.345 9.09225 40.3334 9.76892 38.7552 10.7394C36.0326 12.4144 38.4616 12.9462 39.9941 13.6528C41.2267 14.2198 43.3008 15.5534 44.5833 15.1582ZM19.1917 49.8259C18.952 51.7524 18.4063 56.3316 20.4026 56.9585C22.0917 57.4893 24.8942 54.2913 25.4659 53.3756C24.7873 51.92 20.9659 49.8104 19.1917 49.8259ZM53.6631 27.2694C53.7233 32.6711 52.3724 32.4797 54.874 34.5034C55.5484 35.0486 56.7281 36.2881 57.5769 36.0873C57.857 33.3363 57.8352 28.3257 57.0653 25.736C56.7323 24.6125 54.1663 22.7585 53.4546 22.6416C53.2854 23.9058 53.6455 25.8292 53.6621 27.2683L53.6631 27.2694ZM11.387 37.4334C11.387 38.2931 11.3476 37.9931 11.9546 38.4266C13.5753 39.5864 17.2411 41.5791 18.8856 41.9505C19.1803 40.8621 19.835 37.7076 19.6679 36.6367C19.0008 35.8494 16.4183 34.912 15.4907 34.523C11.0675 32.6659 11.385 33.5287 11.387 37.4334ZM36.4062 56.3647C36.65 57.0868 38.5456 58.5032 39.4898 58.3749C40.4548 58.2446 49.1237 53.6085 48.4804 51.8745C48.2968 51.3799 45.9238 49.8591 45.3179 49.828C44.1029 49.7649 43.0051 51.3799 42.3649 52.0079C41.5774 52.7828 40.4299 53.6643 39.5075 54.3358C38.5581 55.0269 37.0785 55.7615 36.4062 56.3647ZM20.7865 42.415C20.8383 42.4491 20.9047 42.4864 20.9473 42.5081C22.8398 43.4859 30.3622 44.7243 31.7464 44.6312C33.1398 42.7389 32.5453 42.1243 30.7327 41.2531C29.0383 40.4389 23.5589 37.3371 22.4206 38.0966C21.8313 38.4897 20.9846 41.4694 20.7865 42.415ZM6.00722 28.4654C6.61835 28.782 9.70307 29.6634 10.4698 29.38C11.3798 29.0427 11.8145 26.3785 12.1403 25.4732C12.6072 24.1717 13.2713 22.715 13.9104 21.6245C14.5423 20.5444 15.8113 19.3659 15.3993 17.8709C14.4458 17.3536 12.7037 17.2823 11.3621 17.2771C9.46233 18.8714 6.11616 25.1629 6.00722 28.4654ZM19.7572 16.7629C20.47 17.6123 20.4015 17.4664 21.5781 17.8782C28.4832 20.2992 26.8407 20.9551 30.9889 15.9569C32.1635 14.5405 33.3411 13.4594 33.4179 12.2054C32.1521 11.5319 30.8198 11.1274 29.4679 10.6018C26.4921 9.44301 26.0449 10.8904 22.3719 13.747C21.3021 14.5778 19.8091 15.3382 19.7572 16.7629ZM43.1566 26.871C43.389 28.0226 45.4144 28.8885 46.3347 29.441C49.5471 31.3685 52.0922 34.0564 52.2313 29.0727C52.4274 22.0466 53.0894 22.6912 49.5855 20.4502C48.8986 20.0116 46.7622 18.3955 46.0297 18.6127C45.2038 18.8579 43.0165 26.1737 43.1566 26.87V26.871ZM43.6609 18.9004C44.2077 16.7381 42.3203 16.3232 40.8283 15.6103C34.8218 12.7424 35.8967 12.7403 32.9998 16.3728C28.8661 21.5572 29.9182 21.0803 33.9668 23.0523C35.4775 23.7879 36.8523 24.3942 38.3091 25.1153C40.434 26.1675 41.234 25.6522 41.9925 23.5354C42.5434 21.998 43.2811 20.4016 43.6609 18.8993V18.9004ZM25.8011 23.6823C26.3022 22.4925 25.9183 21.9266 24.9399 21.4983C17.2587 18.1327 17.5949 17.6837 14.727 23.4599C11.0789 30.8056 13.2568 30.6515 16.0862 31.7378C22.2069 34.0885 20.7958 33.6053 23.4375 28.1622C24.1949 26.601 25.221 25.0604 25.8011 23.6823ZM46.1687 44.6498C47.0299 42.4729 50.7299 37.1758 50.3367 35.0569C50.0918 33.7409 47.6587 32.7186 46.4136 31.9841C45.4175 31.3964 42.8599 29.44 41.6511 30.5656C41.3533 30.8429 37.1356 39.5853 37.0816 39.8481C36.7776 41.3328 37.6118 41.5583 38.5031 42.0529C42.8588 44.4749 41.7165 44.6922 46.1687 44.6498ZM39.1588 30.458C39.9111 27.8198 37.4147 27.2652 35.7473 26.4437C28.643 22.9437 28.6139 22.2536 26.4008 26.9124C25.5935 28.6133 24.7874 30.4736 24.1793 32.2831C23.1801 35.2576 25.3134 35.541 27.2879 36.4939C34.524 39.9816 33.9917 40.3748 36.5908 35.4966C37.1574 34.434 38.8942 31.3892 39.1599 30.458H39.1588Z" fill="#CEAE75"/>
<path d="M15.6756 4.08358L16.2981 4.96613L16.1902 5.03544C16.0667 4.88956 15.9651 4.79331 15.8862 4.74779C15.7565 4.6764 15.6258 4.64434 15.494 4.65469C15.3622 4.66503 15.217 4.71988 15.0572 4.8223L14.5114 5.16891L16.3988 8.11962C16.5513 8.35758 16.6706 8.48999 16.7609 8.51689C16.8843 8.55104 17.0203 8.51998 17.1707 8.4248L17.3046 8.33998L17.372 8.44551L15.7233 9.49356L15.6559 9.38909L15.7949 9.30008C15.9599 9.19455 16.0449 9.07041 16.0522 8.9266C16.0543 8.83865 15.9879 8.68657 15.8488 8.46931L13.9615 5.51966L13.4967 5.81448C13.3161 5.92932 13.1958 6.02557 13.1366 6.10006C13.0598 6.19938 13.0204 6.32041 13.0152 6.4694C13.0111 6.61631 13.0578 6.78188 13.1553 6.96604L13.0474 7.03535L12.5078 6.10107L15.6766 4.08565L15.6756 4.08358ZM22.6429 5.95416L21.5213 6.4601L19.2116 5.1482C19.111 5.19889 19.029 5.2382 18.9647 5.26717C18.9387 5.27958 18.9097 5.29097 18.8806 5.30339C18.8495 5.3158 18.8184 5.32823 18.7841 5.34168L19.3351 6.55836C19.4544 6.82012 19.5571 6.97017 19.6433 7.00741C19.7626 7.06328 19.8995 7.05498 20.0552 6.98463L20.2181 6.91118L20.2689 7.02393L18.475 7.83303L18.4231 7.72027L18.5797 7.64884C18.7572 7.56918 18.8568 7.45435 18.8817 7.30537C18.8962 7.22364 18.8485 7.06222 18.7406 6.8253L17.5152 4.12187C17.3959 3.85908 17.2942 3.70908 17.207 3.67287C17.0867 3.61907 16.9466 3.62734 16.7889 3.69873L16.6322 3.77011L16.5803 3.65736L18.1056 2.9693C18.5507 2.76859 18.8931 2.65272 19.1328 2.62169C19.3745 2.59168 19.607 2.63099 19.8321 2.73859C20.0583 2.84618 20.2253 3.01899 20.3343 3.25902C20.4515 3.51664 20.4681 3.77633 20.3862 4.04119C20.3032 4.30605 20.105 4.55641 19.7875 4.79437L21.1965 5.59932C21.5192 5.78555 21.7724 5.89314 21.955 5.919C22.1376 5.94694 22.3482 5.92001 22.5889 5.84242L22.6408 5.95522L22.6429 5.95416ZM18.6959 5.14512C18.7354 5.12753 18.7686 5.11302 18.7976 5.10061C18.8267 5.08923 18.8495 5.07994 18.8682 5.07166C19.2625 4.89371 19.5219 4.67332 19.6443 4.41053C19.7667 4.14671 19.7678 3.88185 19.6464 3.61492C19.5281 3.3542 19.3507 3.17831 19.1151 3.08726C18.8796 2.99725 18.6275 3.01276 18.3608 3.13278C18.2425 3.18658 18.0911 3.27764 17.9074 3.40593L18.6959 5.14405V5.14512ZM25.3593 3.79598L23.6234 4.19532L23.4865 4.96406C23.4522 5.15339 23.4439 5.29306 23.4636 5.3779C23.4792 5.44515 23.5259 5.49895 23.6037 5.53517C23.6794 5.57138 23.8278 5.57242 24.0467 5.53931L24.0748 5.66035L22.6626 5.98624L22.6346 5.8652C22.8141 5.78967 22.9251 5.71929 22.9677 5.65307C23.0559 5.52168 23.1295 5.27859 23.1907 4.92476L23.915 0.885633L24.026 0.859767L26.4446 4.21705C26.6386 4.48708 26.7973 4.65369 26.9208 4.7199C27.0443 4.78509 27.1968 4.80267 27.3825 4.77164L27.4106 4.89268L25.6446 5.29925L25.6166 5.1782C25.792 5.12854 25.9061 5.07162 25.9579 5.00644C26.0088 4.94126 26.0254 4.87298 26.0088 4.79952C25.986 4.7033 25.9071 4.56056 25.7712 4.37123L25.3593 3.79699V3.79598ZM25.2016 3.57663L24.0301 1.94818L23.6732 3.92945L25.2016 3.57663ZM31.1666 0.0175803L31.1759 0.141754C31.0161 0.184173 30.8968 0.244158 30.82 0.325892C30.7101 0.444872 30.6167 0.622815 30.542 0.858706L29.246 4.86474L29.1215 4.87404L27.1076 1.06563C27.0049 0.869052 26.9322 0.750076 26.8938 0.707657C26.8316 0.641442 26.7579 0.591761 26.6728 0.557619C26.5878 0.524511 26.4747 0.507959 26.3346 0.507959L26.3253 0.383836L28.195 0.242083L28.2043 0.366256C27.9937 0.402467 27.8588 0.448985 27.7996 0.505888C27.7415 0.561757 27.7146 0.630066 27.7208 0.7118C27.7291 0.822503 27.7945 0.995279 27.9159 1.22496L29.2844 3.81356L30.1653 1.08841C30.2514 0.819413 30.2909 0.635216 30.2826 0.533825C30.2774 0.468644 30.239 0.408639 30.1716 0.354839C30.101 0.300005 29.9869 0.265865 29.8312 0.253449C29.8198 0.252415 29.8001 0.249305 29.7721 0.247236L29.7628 0.123113L31.1666 0.0175803ZM33.3829 0.347615L33.2459 2.15404L34.2554 2.23063C34.5169 2.25028 34.6933 2.22439 34.7877 2.15197C34.9133 2.05782 34.9911 1.88089 35.0243 1.62224L35.1488 1.63158L35.0285 3.22487L34.9039 3.21452C34.8894 2.99001 34.8687 2.84415 34.8427 2.77794C34.8085 2.69724 34.7462 2.62997 34.657 2.57824C34.5688 2.52651 34.4287 2.49235 34.2368 2.47786L33.2272 2.40133L33.1121 3.90874C33.0965 4.11152 33.0965 4.23465 33.11 4.27913C33.1255 4.32466 33.1535 4.36295 33.1961 4.39088C33.2386 4.42088 33.3248 4.43949 33.4503 4.44983L34.2264 4.50884C34.4837 4.5285 34.6736 4.52432 34.7929 4.49742C34.9123 4.47052 35.0316 4.40847 35.1457 4.31121C35.2961 4.18292 35.4549 3.98321 35.622 3.71318L35.7599 3.72354L35.2775 4.83887L31.7445 4.57194L31.7539 4.44776L31.9168 4.46019C32.0247 4.46847 32.1295 4.44987 32.2301 4.40538C32.3059 4.37538 32.3588 4.32468 32.3899 4.25433C32.422 4.18398 32.4459 4.0381 32.4625 3.81462L32.6887 0.842136C32.7105 0.552446 32.6949 0.372425 32.641 0.301037C32.5663 0.204819 32.4345 0.15 32.2446 0.13655L32.0817 0.124123L32.0911 0L35.6251 0.266938L35.596 1.27669L35.4653 1.2674C35.4362 1.02116 35.3968 0.850429 35.3459 0.755245C35.2951 0.660061 35.2152 0.584565 35.1073 0.527661C35.0202 0.487312 34.8624 0.458334 34.6352 0.441781L33.3787 0.346605L33.3829 0.347615ZM40.0119 4.50263L40.1147 4.55229L39.4475 5.67172L35.982 4.86782L36.01 4.74678L36.1781 4.78608C36.368 4.82954 36.5163 4.80058 36.6263 4.69712C36.6886 4.63815 36.7488 4.48192 36.8079 4.22948L37.4823 1.33979C37.5477 1.06148 37.557 0.880423 37.5124 0.79662C37.4491 0.679709 37.3329 0.602137 37.1638 0.562822L36.9967 0.523519L37.0248 0.402427L39.0511 0.872144L39.0231 0.993236C38.7855 0.935298 38.6143 0.91872 38.5064 0.942516C38.4006 0.965277 38.3217 1.00875 38.2709 1.06876C38.219 1.13084 38.163 1.29223 38.1018 1.55399L37.445 4.36916C37.4024 4.55228 37.391 4.68058 37.4107 4.75714C37.4253 4.8099 37.4595 4.85437 37.5093 4.88954C37.5581 4.92369 37.7282 4.97438 38.0167 5.04059L38.3435 5.11612C38.688 5.19578 38.9349 5.2279 39.0854 5.20927C39.2358 5.19065 39.3832 5.13062 39.5284 5.02923C39.6716 4.92783 39.8335 4.75197 40.013 4.50263H40.0119ZM47.9743 4.11359L47.2563 5.52582L47.1453 5.46894C47.247 5.17925 47.2916 4.93094 47.2802 4.72299C47.2677 4.51606 47.1992 4.32051 47.0726 4.13738C46.9481 3.95529 46.7925 3.81769 46.6068 3.72354C46.3961 3.61697 46.1907 3.59321 45.9884 3.65114C45.7871 3.70908 45.6429 3.81976 45.5609 3.98219C45.4976 4.10634 45.482 4.24293 45.5163 4.38881C45.5661 4.60297 45.7601 4.9537 46.1025 5.44307C46.3816 5.84243 46.5632 6.13315 46.6483 6.31213C46.7323 6.49319 46.7759 6.67632 46.7749 6.86359C46.7749 7.04982 46.7344 7.22465 46.6504 7.38812C46.4927 7.69747 46.2374 7.90338 45.8836 8.0058C45.5277 8.10823 45.1614 8.06374 44.7827 7.87233C44.6634 7.81129 44.5576 7.7461 44.4611 7.67471C44.403 7.63229 44.294 7.52986 44.129 7.3664C43.9661 7.20396 43.8572 7.10878 43.8053 7.08188C43.7545 7.05705 43.7068 7.05188 43.6621 7.06637C43.6175 7.08292 43.5646 7.13468 43.5013 7.22262L43.3903 7.16675L44.1021 5.76588L44.2131 5.82276C44.1166 6.14246 44.0751 6.39802 44.0896 6.58736C44.1041 6.77876 44.1778 6.96809 44.3117 7.15639C44.4445 7.34469 44.6209 7.49472 44.8377 7.60439C45.0899 7.73164 45.3243 7.76576 45.536 7.70679C45.7497 7.64678 45.9033 7.52679 45.9956 7.34573C46.0475 7.24538 46.0703 7.12949 46.0683 6.99913C46.0652 6.86877 46.0278 6.72909 45.9572 6.58114C45.9095 6.48078 45.7591 6.24491 45.5059 5.87141C45.2538 5.49895 45.0826 5.21649 44.9934 5.02508C44.9041 4.83368 44.8574 4.64746 44.8512 4.46848C44.845 4.28845 44.8865 4.11357 44.9726 3.94597C45.122 3.65214 45.3637 3.4566 45.6968 3.35935C46.0309 3.2621 46.3733 3.30145 46.7209 3.47837C46.9398 3.58908 47.1432 3.75872 47.3341 3.9884C47.4223 4.096 47.4887 4.1612 47.5354 4.18396C47.5883 4.21086 47.6392 4.21706 47.6869 4.20361C47.7367 4.18809 47.7948 4.14048 47.8633 4.05564L47.9743 4.11258V4.11359ZM51.2634 6.22317C51.748 6.5677 52.0374 7.05083 52.1298 7.67056C52.2232 8.29133 52.0717 8.87697 51.6785 9.42738C51.2728 9.99435 50.7581 10.3378 50.1314 10.4568C49.5068 10.5768 48.9382 10.4558 48.4298 10.0937C47.9162 9.72845 47.6143 9.23802 47.525 8.6245C47.4358 8.00994 47.5987 7.414 48.0127 6.83358C48.436 6.24178 48.9839 5.90245 49.6552 5.81554C50.2383 5.74001 50.7757 5.87554 51.2634 6.22317ZM51.0694 6.3825C50.7363 6.14558 50.3794 6.07834 50.0007 6.18387C49.5296 6.31319 49.0803 6.67531 48.6549 7.27021C48.2192 7.87959 48.0137 8.44033 48.0397 8.95453C48.0625 9.34665 48.2358 9.65913 48.5647 9.89296C48.9154 10.1423 49.3024 10.2106 49.7268 10.0999C50.1511 9.98814 50.5734 9.63843 50.9947 9.0487C51.4523 8.40931 51.667 7.84336 51.6401 7.35089C51.6162 6.95773 51.4274 6.63596 51.0704 6.38144L51.0694 6.3825ZM54.262 13.362L54.3253 13.4561L53.1788 14.08L50.6087 11.6269L50.6948 11.5369L50.8193 11.6559C50.9594 11.7904 51.1036 11.8401 51.2499 11.807C51.334 11.7884 51.4657 11.6839 51.6452 11.4966L53.7028 9.35287C53.901 9.14698 54.0026 8.99591 54.0057 8.90073C54.0109 8.7683 53.9507 8.64209 53.8252 8.52311L53.7007 8.40414L53.7868 8.31411L55.2892 9.74913L55.2031 9.83915C55.0278 9.66948 54.8898 9.56701 54.785 9.53286C54.6822 9.49872 54.592 9.49667 54.5173 9.5215C54.4415 9.5484 54.3108 9.65912 54.124 9.85259L52.1194 11.9415C51.9897 12.077 51.914 12.1825 51.8912 12.2581C51.8766 12.3108 51.8839 12.3657 51.9088 12.4215C51.9337 12.4753 52.0541 12.6057 52.2678 12.8105L52.5096 13.0423C52.7648 13.2865 52.9619 13.4386 53.0999 13.4996C53.2379 13.5606 53.3967 13.5834 53.5731 13.5699C53.7484 13.5554 53.9777 13.4871 54.2589 13.363L54.262 13.362ZM59.1501 14.5476L59.2507 14.4752L60.1918 15.785L60.0901 15.8575L59.9905 15.7178C59.8846 15.5719 59.7425 15.5026 59.564 15.5119C59.479 15.5139 59.3337 15.5895 59.1262 15.7385L57.6124 16.8207C57.2378 17.0887 56.9213 17.2594 56.6609 17.3339C56.4015 17.4073 56.1182 17.3887 55.8153 17.278C55.5123 17.1663 55.227 16.9252 54.9582 16.5527C54.6667 16.1471 54.5162 15.7881 54.5069 15.4767C54.4955 15.1663 54.5795 14.8808 54.7559 14.6222C54.8773 14.4463 55.1626 14.1979 55.6119 13.8772L57.0718 12.8343C57.3 12.6709 57.4277 12.5312 57.4546 12.4174C57.4806 12.3046 57.4422 12.1763 57.3415 12.0356L57.2419 11.8959L57.3436 11.8235L58.4995 13.4313L58.3978 13.5037L58.2951 13.362C58.1851 13.2078 58.0575 13.1333 57.9132 13.1364C57.8147 13.1375 57.6601 13.214 57.4515 13.363L55.8236 14.5269C55.6794 14.6304 55.5216 14.7629 55.3536 14.9222C55.1865 15.0836 55.0744 15.2357 55.0195 15.3795C54.9655 15.5243 54.952 15.6868 54.9759 15.8658C55.0029 16.0458 55.0838 16.2299 55.2207 16.4203C55.3951 16.6634 55.6057 16.8434 55.8495 16.9593C56.0933 17.0762 56.3258 17.1083 56.5416 17.0607C56.7584 17.0111 57.0656 16.8465 57.4619 16.5631L58.9747 15.4819C59.2071 15.3153 59.3347 15.186 59.3565 15.0929C59.3856 14.9646 59.3503 14.8301 59.2486 14.6883L59.149 14.5487L59.1501 14.5476ZM62.407 20.0466L61.4639 20.5742L61.4057 20.4594C61.5635 20.3518 61.6703 20.2608 61.7232 20.1863C61.8083 20.0652 61.854 19.939 61.856 19.8076C61.8592 19.6762 61.8187 19.5262 61.7326 19.3576L61.441 18.7802L58.3065 20.3539C58.0533 20.4811 57.9091 20.5867 57.8738 20.6726C57.8271 20.7915 57.8437 20.9302 57.9236 21.0885L57.9952 21.2292L57.8842 21.285L57.0054 19.5427L57.1164 19.4869L57.1911 19.6348C57.2793 19.8097 57.3945 19.9059 57.5377 19.9276C57.6248 19.939 57.7836 19.8873 58.0139 19.7724L61.1484 18.1998L60.9004 17.7084C60.8039 17.517 60.7209 17.3887 60.6525 17.3224C60.5601 17.2366 60.4429 17.1849 60.2955 17.1642C60.1503 17.1445 59.9801 17.1745 59.7861 17.2531L59.728 17.1393L60.7147 16.6986L62.4039 20.0466H62.407ZM59.2258 24.2813L59.1096 24.3268L58.3957 22.4966L58.5119 22.451L58.5711 22.6021C58.6396 22.78 58.7423 22.8876 58.8751 22.928C58.9622 22.9528 59.1345 22.9146 59.3897 22.8152L62.1621 21.7403C62.378 21.6565 62.517 21.5871 62.5751 21.5333C62.6187 21.4909 62.6477 21.4309 62.6591 21.3513C62.6747 21.2385 62.6612 21.1329 62.6218 21.0315L62.5626 20.8805L62.6789 20.836L63.3927 22.6663L63.2765 22.7118L63.2174 22.5586C63.1489 22.3838 63.0482 22.2772 62.9154 22.2379C62.8272 22.211 62.656 22.2483 62.3987 22.3476L59.6263 23.4236C59.4094 23.5074 59.2714 23.5767 59.2133 23.6305C59.1687 23.6708 59.1407 23.7329 59.1293 23.8157C59.1137 23.9254 59.1251 24.0288 59.1656 24.1312L59.2258 24.2843V24.2813ZM64.3846 25.8746C64.5185 26.4519 64.4137 27.0054 64.0713 27.531C63.7278 28.0566 63.2256 28.3959 62.5658 28.548C61.8851 28.7052 61.2719 28.6215 60.723 28.2966C60.1752 27.9738 59.8317 27.5072 59.6906 26.8999C59.5485 26.2863 59.6481 25.7204 59.9905 25.2021C60.3329 24.6827 60.8496 24.3444 61.5458 24.184C62.2565 24.0205 62.8926 24.1281 63.4539 24.5058C63.9405 24.8348 64.2518 25.2911 64.3867 25.8735L64.3846 25.8746ZM64.1335 25.8663C64.0412 25.469 63.8191 25.1824 63.4653 25.0117C63.0254 24.7975 62.4485 24.7706 61.7347 24.9351C61.0042 25.1038 60.4771 25.3883 60.1544 25.7897C59.9106 26.098 59.8338 26.4467 59.9241 26.8388C60.0206 27.2578 60.2655 27.5651 60.6566 27.7627C61.0488 27.9603 61.5977 27.9769 62.3043 27.8134C63.071 27.6365 63.6085 27.354 63.9156 26.9681C64.1595 26.6577 64.2321 26.2915 64.1335 25.8663ZM64.8858 28.9091L64.9792 30.1372L61.7512 33.1986L64.3991 32.9979C64.6814 32.9761 64.8557 32.9306 64.92 32.8623C65.0082 32.7713 65.0456 32.6347 65.031 32.4526L65.0186 32.2912L65.1431 32.2819L65.2655 33.8886L65.141 33.8979L65.1286 33.7345C65.113 33.5379 65.0445 33.4045 64.921 33.33C64.8443 33.2855 64.6772 33.2731 64.4209 33.2927L60.558 33.5865L60.5487 33.4644L64.0111 30.1754L61.1878 30.3896C60.9056 30.4113 60.7313 30.4558 60.6649 30.522C60.5777 30.6151 60.5404 30.7527 60.5539 30.9317L60.5653 31.0952L60.4408 31.1045L60.3184 29.4968L60.4429 29.4874L60.4553 29.6488C60.4698 29.8464 60.5394 29.982 60.6639 30.0554C60.7406 30.0999 60.9067 30.1123 61.164 30.0927L64.3514 29.8516C64.4967 29.7078 64.5911 29.5981 64.6357 29.5267C64.6793 29.4543 64.7187 29.3509 64.7519 29.2143C64.7665 29.1471 64.7696 29.0477 64.7592 28.9153L64.8837 28.9059L64.8858 28.9091Z" fill="#CEAE75"/>
</g>
<defs>
<clipPath id="clip0_5502_16129">
<rect width="200" height="60" fill="white"/>
</clipPath>
</defs>
</svg>
