<?xml version="1.0" encoding="utf-8"?>
<!-- Generator: Adobe Illustrator 17.0.0, SVG Export Plug-In . SVG Version: 6.00 Build 0)  -->
<!DOCTYPE svg PUBLIC "-//W3C//DTD SVG 1.1//EN" "http://www.w3.org/Graphics/SVG/1.1/DTD/svg11.dtd">
<svg version="1.1" xmlns="http://www.w3.org/2000/svg" xmlns:xlink="http://www.w3.org/1999/xlink" x="0px" y="0px"
	 width="4304.433px" height="1655.669px" viewBox="6031.44 3471.031 4304.433 1655.669"
	 enable-background="new 6031.44 3471.031 4304.433 1655.669" xml:space="preserve">
<g id="Layer_1">
	<title>Untitled-2</title>
</g>
<g id="Layer_1_copy">
	<title>Untitled-2</title>
	<g>
		<g>
			<g>
				<path fill="#FFFFFF" d="M7704.91,3989.51c-19.654,0-39.07-3.365-57.713-10.002c-89.406-31.832-136.246-130.464-104.415-219.87
					c20.846-58.551,71.851-101.436,133.11-111.918c2.887-0.494,5.81-0.742,8.739-0.742h21.262c4.601-1.305,9.363-1.967,14.145-1.967
					c5.904,0,11.839,1.009,17.543,3.063c1.8,0.647,4.781,1.4,7.938,2.197c4.65,1.173,10.438,2.634,16.702,4.803
					c0.144,0.049,0.287,0.1,0.43,0.151c89.405,31.831,136.245,130.464,104.415,219.869
					c-24.363,68.43-89.522,114.412-162.141,114.418C7704.921,3989.51,7704.915,3989.51,7704.91,3989.51z"/>
				<path fill="#FFFFFF" d="M7720.034,3696.818c8.195,2.95,16.718,4.261,25.241,7.211c62.593,22.285,95.27,91.093,72.985,153.687
					c-17.535,49.253-63.887,79.987-113.339,79.987c-13.395,0-27.007-2.252-40.348-7.001c-62.593-22.285-95.27-91.093-72.985-153.687
					c14.59-40.98,50.166-70.893,93.042-78.23h35.403V3696.818 M7720.042,3593.203c-6.754,0-13.489,0.661-20.104,1.968h-15.307
					c-5.857,0-11.704,0.497-17.478,1.484c-79.699,13.639-146.057,69.432-173.177,145.606
					c-10.125,28.436-14.373,58.063-12.627,88.058c1.682,28.916,8.851,56.875,21.306,83.104
					c12.455,26.228,29.594,49.453,50.941,69.029c22.144,20.309,47.789,35.738,76.224,45.862
					c24.236,8.628,49.503,13.003,75.101,13.003c22.825,0,45.46-3.489,67.277-10.372c21.529-6.792,41.851-16.756,60.4-29.617
					c38.669-26.812,67.465-64.455,83.275-108.861c10.124-28.435,14.372-58.061,12.627-88.057
					c-1.683-28.916-8.851-56.875-21.306-83.103c-12.456-26.228-29.594-49.453-50.941-69.03
					c-22.144-20.308-47.789-35.738-76.224-45.862c-0.288-0.103-0.576-0.204-0.864-0.304c-8.369-2.896-15.65-4.733-20.966-6.075
					c-1.305-0.33-3.036-0.766-3.901-1.006C7743.145,3595.125,7731.562,3593.203,7720.042,3593.203L7720.042,3593.203z"/>
			</g>
			<g>
				<path fill="#FFFFFF" d="M6358.566,3984.645c-40.167,0-79.235-14.286-110.006-40.225c-30.934-26.077-51.656-62.422-58.348-102.34
					c-0.575-3.428-0.803-6.902-0.682-10.37c-0.021-0.6-0.032-1.201-0.032-1.802v-27.863c0-0.437,0.006-0.874,0.017-1.31
					c-0.071-2.805,0.086-5.614,0.47-8.398c3.936-28.507,15.185-55.712,32.53-78.674c17.249-22.833,40.182-41.016,66.343-52.604
					c14.713-6.752,30.213-11.803,46.079-15.016c3.385-0.686,6.83-1.031,10.283-1.031h28.847c3.18,0,6.353,0.293,9.479,0.875
					c14.921,2.777,29.656,6.987,43.797,12.514c0.789,0.308,1.569,0.635,2.341,0.981c56.768,25.456,94.821,79.809,99.313,141.86
					c3.363,45.461-11.167,89.518-40.917,124.062c-29.772,34.569-71.225,55.474-116.721,58.866
					C6367.114,3984.484,6362.811,3984.645,6358.566,3984.645z"/>
				<path fill="#FFFFFF" d="M6374.068,3696.818c11.757,2.188,23.281,5.481,34.419,9.834c39.292,17.619,65.733,55.393,68.839,98.342
					c4.885,65.536-44.282,122.624-109.818,127.509c-2.994,0.223-5.983,0.333-8.942,0.333c-57.632,0-107.588-41.635-117.259-99.324
					c0.133-1.198,0.133-2.408,0-3.606v-27.863c0.095-0.872,0.095-1.751,0-2.623c5.56-40.271,31.622-74.772,68.839-91.13
					c11.207-5.173,22.978-9.023,35.075-11.473H6374.068 M6374.068,3593.204h-28.847c-6.906,0-13.795,0.69-20.564,2.061
					c-19.654,3.98-38.858,10.225-57.097,18.566c-34.058,15.15-63.91,38.856-86.382,68.604
					c-22.668,30.008-37.368,65.561-42.512,102.815c-0.709,5.135-1.031,10.312-0.965,15.485c-0.005,0.436-0.008,0.872-0.008,1.308
					v27.863c0,0.6,0.005,1.2,0.016,1.799c-0.11,6.336,0.36,12.675,1.41,18.938c8.722,52.026,35.73,99.397,76.051,133.386
					c40.102,33.805,91.027,52.421,143.397,52.421c5.524,0,11.125-0.208,16.646-0.621c29.922-2.23,58.567-10.282,85.137-23.931
					c25.613-13.158,48.151-30.918,66.988-52.79c18.837-21.872,33.06-46.793,42.275-74.075c9.553-28.282,13.27-57.784,11.048-87.689
					c-5.925-81.024-55.638-151.994-129.776-185.239c-1.543-0.692-3.104-1.346-4.679-1.962c-17.169-6.71-35.061-11.822-53.178-15.193
					C6386.773,3593.789,6380.427,3593.204,6374.068,3593.204L6374.068,3593.204z"/>
			</g>
			<g>
				<path fill="#FFFFFF" d="M7877.052,5062.469c-7.304,0-24.408,0-40.106-13.454c-12.985-11.129-19.569-26.68-19.569-46.221V4023.64
					c0-6.57,0-20.241,8.972-34.289c4.945-7.742,19.66-25.749,49.448-25.749c0.799,0,1.603,0.011,2.433,0.034h136.828
					c6.297,0,23.024,0,38.421,12.546c4.005,3.263,8.337,7.729,11.991,13.679c23.663-15.604,50.022-27.291,78.126-34.306
					c35.504-10.182,72.218-15.343,109.146-15.343c70.939,0,140.7,19.1,201.741,55.234c0.239,0.142,0.478,0.286,0.715,0.431
					c72.246,44.356,126.579,113.099,153.053,193.622c25.831,72.954,36.108,149.063,30.552,226.251
					c-2.763,62.223-16.36,122.896-40.419,180.345c-16.665,42.516-41.115,80.809-72.68,113.825
					c-31.721,33.181-69.089,59.425-111.065,78.002c-0.438,0.193-0.878,0.382-1.32,0.563
					c-42.735,17.513-87.822,26.394-134.007,26.394c-6.754,0-13.591-0.197-20.343-0.586c-52.16-0.894-102.718-12.212-150.299-33.65
					c-9.18-4.056-18.099-8.589-26.725-13.572v235.394c0,7.403,0,24.74-13.595,40.508c-11.152,12.936-26.766,19.494-46.408,19.494
					H7877.052z"/>
				<path fill="#FFFFFF" d="M8252.742,3992.021c61.121,0,121.75,16.279,175.35,48.009c62.039,38.089,108.515,96.997,131.122,166.197
					c23.512,66.161,33.001,136.491,27.863,206.517c-2.419,56.38-14.851,111.879-36.715,163.903
					c-28.527,73.188-84.859,132.112-156.69,163.903c-36.347,14.896-75.197,22.524-114.36,22.524c-6.129,0-12.265-0.187-18.4-0.562
					c-45.245-0.635-89.876-10.565-131.122-29.174c-38.953-17.17-72.252-45.014-96.046-80.313c0.587-2.465-0.935-4.941-3.4-5.528
					c-0.068-0.016-0.137-0.031-0.206-0.044v355.013c0,6.884,0,8.195-8.195,8.195h-144.89c-6.556,0-7.868,0-7.868-7.867
					c0-326.494,0-652.879,0-979.154c0-6.104,0-8.229,6.614-8.229c0.49,0,1.016,0.011,1.581,0.034h137.678
					c5.573,0,7.212,0,7.212,7.212v83.59c-0.514,2.044-0.516,4.184,0,6.228c1.78-0.436,3.17-1.826,3.606-3.606
					c26.739-51.745,74.55-89.396,131.122-103.258C8188.413,3996.512,8220.647,3992.021,8252.742,3992.021 M8252.742,3888.407
					c-41.463,0-82.688,5.754-122.573,17.106c-20.077,5.075-39.411,12.131-57.76,20.978c-12.615-7.316-26.711-12.028-41.507-13.807
					c-7.099-0.854-12.789-0.854-15.845-0.854h-136.203c-1.033-0.022-2.054-0.034-3.056-0.034c-12.445,0-23.932,1.723-35.116,5.266
					c-23.958,7.59-44.553,23.358-57.993,44.4c-17.12,26.802-17.12,52.503-17.12,62.179v979.154c0,5.79,0.248,14.705,2.393,25.234
					c4.86,23.854,17.056,44.714,35.27,60.324c30.249,25.923,63.043,25.923,73.819,25.923h144.89c5.768,0,14.64-0.241,25.058-2.324
					c23.942-4.789,44.895-16.944,60.591-35.152c26.161-30.346,26.161-63.454,26.161-74.333v-156.819
					c12.379,3.949,24.933,7.343,37.595,10.161c28.093,6.25,56.909,9.703,85.689,10.269c7.401,0.407,14.883,0.613,22.275,0.613
					c52.955,0,104.651-10.182,153.652-30.263c0.886-0.363,1.767-0.738,2.642-1.126c48.206-21.334,91.119-51.473,127.547-89.577
					c36.107-37.77,64.111-81.556,83.245-130.156c26.192-62.719,41.035-128.917,44.13-196.815c2.934-41.47,1.604-83.373-3.954-124.57
					c-5.571-41.293-15.426-82.141-29.296-121.436c-30.367-91.907-92.462-170.359-174.973-221.017
					c-0.475-0.291-0.951-0.578-1.43-0.862C8411.849,3910.005,8332.962,3888.407,8252.742,3888.407L8252.742,3888.407z"/>
			</g>
			<g>
				<path fill="#FFFFFF" d="M6920.684,4802.224c-15.388,0-30.977-0.486-46.334-1.444c-33.75-2.162-66.503-10.081-97.434-23.544
					c-0.215-0.094-0.429-0.188-0.643-0.285c-26.718-12.063-49.99-30.942-67.3-54.601c-17.014-23.252-27.886-50.595-31.494-79.169
					c-4.912-28.827-7.408-58.258-7.418-87.495c-0.87-63.565-1.421-127.805-1.639-190.949c0-0.06,0-177.835,0-177.835h-59.504
					c-1.643,0.142-3.293,0.213-4.946,0.213c-25.52,0-48.215-17.146-55.192-41.696c-1.913-6.739-2.57-13.722-1.974-20.625v-103.777
					c0-6.415,0-23.455,13.377-38.944c10.941-12.668,25.967-19.092,44.659-19.092h63.58v-158.643c0-7.104,0-23.739,12.879-39.3
					c11.188-13.52,26.933-20.375,46.795-20.375h145.217c28.462,0,43.235,15.555,49.508,24.827
					c9.839,14.544,9.839,29.232,9.839,35.503v157.987h87.182c6.117,0,22.365,0,37.502,11.774
					c9.816,7.635,21.517,21.972,21.517,46.918v102.502c1.032,10.948-1.112,21.978-6.319,31.919
					c-6.973,13.312-18.677,23.221-32.956,27.902c-5.209,1.708-10.656,2.578-16.138,2.578h-90.132c0,0-0.001,342.204-0.002,342.363
					c-0.104,11.395,0.62,22.894,2.153,34.18c0.216,1.594,0.358,3.196,0.426,4.804c0.066,1.578,1.352,2.814,2.927,2.814
					c0.12-0.001,0.241-0.002,0.361-0.002c1.566,0,3.152,0.071,4.709,0.213c7.392,0.671,14.904,1.012,22.328,1.012
					c15.286,0,30.653-1.435,45.677-4.263c3.161-0.596,6.371-0.896,9.587-0.896c5.416,0,19.802,0,33.931,9.973
					c8.513,6.009,22.793,19.944,22.793,45.769v112.991c1.444,27.557-17.312,52.379-44.995,58.063
					c-0.921,0.189-1.848,0.354-2.779,0.492C6994.22,4799.485,6957.295,4802.224,6920.684,4802.224z"/>
				<path fill="#FFFFFF" d="M6873.314,3796.471c7.54,0,7.54,2.622,7.54,8.523v202.256c0,5.959,0,7.585,5.91,7.585
					c0.592,0,1.242-0.017,1.958-0.046h131.122c5.573,0,7.212,0,7.212,6.884v106.208c0.86,2.893-0.738,5.944-3.606,6.884h-134.4
					c-5.9,0-7.54,0-7.54,7.54v386.154c-0.128,13.922,0.748,27.835,2.623,41.632c1.23,29.333,25.374,52.45,54.688,52.45
					c0.127,0,0.255,0,0.383-0.001c8.99,0.817,18.007,1.225,27.016,1.225c18.523,0,37.021-1.723,55.263-5.158
					c4.261,0,4.917,0,4.917,3.934v115.06c0.403,2.433-1.19,4.75-3.606,5.245c-33.82,5.043-67.956,7.571-102.109,7.571
					c-14.375,0-28.745-0.447-43.108-1.343c-27.58-1.767-54.644-8.311-79.984-19.34c-37.873-17.099-64.002-52.809-68.839-94.08
					c-4.59-26.524-6.893-53.394-6.884-80.313c-0.875-63.813-1.421-127.407-1.639-190.782v-221.269c0-6.104,0-8.229-6.613-8.229
					c-0.49,0-1.017,0.012-1.583,0.034h-106.537c-0.509,0.145-1.022,0.214-1.526,0.214c-2.428,0-4.661-1.599-5.358-4.051
					c-0.283-0.996-0.283-2.051,0-3.047v-107.192c0-5.245,0-6.229,6.229-6.229h108.175c5.9,0,7.212,0,7.212-7.211v-203.239
					c0-6.229,0-7.867,7.867-7.867H6873.314 M6873.314,3692.856h-145.217c-9.821,0-18.807,0.956-27.471,2.921
					c-23.562,5.345-44.046,17.874-59.238,36.231c-24.773,29.935-24.773,61.844-24.773,72.33v106.836h-11.772
					c-5.416,0-13.777,0.23-23.807,2.225c-23.692,4.71-44.46,16.749-60.061,34.813c-13.946,16.148-22.651,36.049-25.173,57.55
					c-0.802,6.844-0.802,12.316-0.802,15.255v101.873c-0.773,12.294,0.539,24.684,3.936,36.654
					c6.538,23.01,20.686,43.519,39.847,57.779c18.715,13.928,41.867,21.599,65.189,21.599c2.278,0,4.554-0.071,6.824-0.213h5.819
					v125.849c0,0.119,0,0.238,0,0.356c0.217,63.192,0.769,127.507,1.639,191.162c0.032,31.66,2.714,63.522,7.975,94.754
					c4.853,36.852,18.971,72.097,40.934,102.113c22.581,30.861,52.939,55.49,87.792,71.225c0.427,0.193,0.855,0.383,1.285,0.57
					c36.447,15.864,75.042,25.196,114.712,27.738c0.057,0.004,0.115,0.007,0.172,0.011c16.426,1.024,33.101,1.544,49.56,1.544
					c39.16,0,78.656-2.928,117.391-8.705c1.858-0.277,3.708-0.604,5.548-0.982c27.541-5.652,51.481-21.523,67.41-44.691
					c13.319-19.372,19.87-42.145,18.98-65.302V4622.54c0-35.922-16.301-68.031-44.725-88.093
					c-27.563-19.455-54.843-19.455-63.807-19.455c-6.434,0-12.853,0.599-19.175,1.79c-5.677,1.069-11.417,1.886-17.183,2.448
					v-280.848h38.325c10.963,0,21.856-1.74,32.274-5.155c27.174-8.907,49.446-27.764,62.714-53.096
					c9.506-18.15,13.647-38.21,12.232-58.206v-100.25c0-48.308-26.012-75.752-41.518-87.812
					c-29.169-22.687-59.381-22.687-69.309-22.687h-35.375v-106.18c0-9.111,0-36.836-18.735-64.531
					C6945.267,3710.208,6911.581,3692.856,6873.314,3692.856L6873.314,3692.856z"/>
			</g>
			<g>
				<path fill="#FFFFFF" d="M7117.856,4792.357c-6.396,0-23.384,0-38.865-12.716c-13.591-11.163-20.482-26.852-20.482-46.631
					v-712.649c0-6.396,0-23.385,12.716-38.866c11.163-13.59,26.852-20.481,46.631-20.481h138.333c6.809,0,22.753,0,37.99,11.972
					c7.131,5.603,15.265,14.808,19.113,29.149c3.029-2.296,6.103-4.533,9.216-6.707c36.237-25.297,78.448-42.407,122.072-49.48
					c0.076-0.012,0.152-0.024,0.229-0.037c16.116-2.539,32.559-3.826,48.874-3.826c15.529,0,31.173,1.166,46.542,3.468
					c12.921,1.262,24.944,6.854,34.325,16.06c10.748,10.549,16.814,24.65,17.081,39.708c0.025,1.419-0.003,2.839-0.084,4.255
					v142.302c0,4.426,0,13.635-4.433,24.078c-8.399,19.785-27.978,32.569-49.881,32.571c-3.476,0-6.438-0.292-9.12-0.607
					c-1.2-0.141-2.395-0.325-3.582-0.549c-17.885-3.386-36.184-5.102-54.388-5.102c-4.668,0-9.396,0.114-14.064,0.338
					c-39.763,3.071-75.872,25.18-96.682,59.225c-0.069,0.112-0.138,0.225-0.208,0.336c-19.188,30.859-30.64,66.277-33.165,102.522
					v371.337c0,7.309,0,24.423-13.179,40.136c-11.239,13.4-27.103,20.194-47.151,20.194H7117.856z"/>
				<path fill="#FFFFFF" d="M7493.685,3993.893c13.646,0,27.291,1.065,40.812,3.195c0.032,0,0.064-0.001,0.096-0.001
					c2.853,0,5.191,2.287,5.242,5.152c0.006,0.361-0.024,0.722-0.092,1.077v144.563c0,3.769,0,4.841-2.51,4.841
					c-0.765,0-1.762-0.1-3.063-0.252c-21.118-3.998-42.554-6.006-64.022-6.006c-5.758,0-11.516,0.145-17.273,0.434
					c-56.742,4.128-108.007,35.376-137.678,83.918c-24.048,38.678-38.127,82.716-40.976,128.172v373.042
					c0,6.883,0,8.523-8.523,8.523h-147.84c-5.9,0-7.54,0-7.54-7.54c0-237.55,0-475.099,0-712.649c0-5.9,0-7.54,7.54-7.54h138.333
					c5.9,0,7.54,0,7.54,7.212v131.122h1.589c-0.444,1.522-0.864,3.052-1.261,4.589l1.639-4.589h-0.378
					c3.326-11.418,7.962-22.418,13.818-32.781c36.445-64.755,100.388-109.395,173.737-121.288
					C7466.394,3994.958,7480.039,3993.893,7493.685,3993.893 M7493.685,3890.278c-19.007,0-38.164,1.5-56.938,4.458
					c-0.152,0.024-0.305,0.048-0.457,0.073c-25.833,4.188-51.215,11.312-75.44,21.17c-11.805,4.804-23.354,10.266-34.571,16.343
					c-0.03-0.024-0.061-0.048-0.091-0.072c-29.327-23.042-59.939-23.042-69.999-23.042h-138.333c-9.901,0-18.984,0.99-27.767,3.027
					c-23.45,5.438-43.817,18.018-58.898,36.379c-24.489,29.815-24.489,61.376-24.489,71.748v712.649
					c0,9.899,0.989,18.981,3.026,27.763c5.437,23.449,18.015,43.816,36.375,58.898c29.816,24.493,61.38,24.493,71.753,24.493h147.84
					c9.838,0,18.416-0.871,26.994-2.741c23.764-5.18,44.461-17.619,59.854-35.971c25.291-30.155,25.291-62.723,25.291-73.426
					v-369.413c2.17-27.261,10.909-53.858,25.354-77.09c0.139-0.224,0.277-0.449,0.415-0.673
					c12.035-19.689,32.832-32.543,55.785-34.534c3.575-0.16,7.188-0.241,10.759-0.241c14.978,0,30.034,1.413,44.751,4.198
					c2.372,0.449,4.759,0.815,7.156,1.098c3.809,0.448,8.977,0.963,15.178,0.963c15.438,0,30.278-3.167,44.106-9.414
					c24.126-10.898,43.115-30.333,53.468-54.722c8.551-20.145,8.551-37.708,8.551-44.32v-141.062c0.088-2.14,0.114-4.282,0.076-6.42
					c-0.509-28.724-12.084-55.633-32.595-75.761c-17.594-17.266-40.062-27.867-64.237-30.51
					C7529.117,3891.571,7511.336,3890.278,7493.685,3890.278L7493.685,3890.278z"/>
			</g>
			<g>
				<path fill="#0BACE0" d="M9979.621,4789.074c-73.99-0.431-143.385-29.649-195.399-82.273s-80.423-122.354-79.992-196.344
					c0.429-73.685,29.443-142.877,81.699-194.83c52.255-51.953,121.614-80.565,195.301-80.567
					c73.991-0.001,143.555,28.812,195.876,81.131c52.321,52.319,81.137,121.881,81.139,195.874c0,0.554-0.003,1.107-0.006,1.66
					c-0.429,73.661-29.455,142.864-81.731,194.819c-52.254,51.933-121.593,80.534-195.243,80.535L9979.621,4789.074z"/>
				<path fill="#FFFFFF" d="M9981.23,4286.868c124.375-0.002,225.203,100.822,225.206,225.198c0,0.438-0.002,0.876-0.005,1.315
					v-0.292c0,0,0,0.073,0,0.292c-0.721,123.926-101.41,223.891-225.17,223.891c-0.447,0-0.891-0.001-1.339-0.004
					c-124.373-0.724-224.611-102.136-223.887-226.509C9756.757,4386.898,9857.368,4286.87,9981.23,4286.868 M9899.771,4530.172
					c-1.651,0-3.303-0.462-4.753-1.385c-9.179-3.934-19.013-6.884-28.52-10.49c-3.284-1.473-6.805-2.208-10.325-2.208
					s-7.041,0.736-10.326,2.208c-3.934,1.967-5.245,4.262,0,7.868s11.801,11.801,18.357,17.374c1.915,2.023,1.915,5.189,0,7.211
					c-6.324,10.435-4.413,14.769,6.614,14.769c0.405,0,0.822-0.006,1.253-0.017c0.5-0.131,1.002-0.193,1.495-0.193
					c2.62,0,5.013,1.757,5.705,4.41l0.012,0.044c1.044,8.037,2.911,15.946,5.572,23.602c0.857,4.116,1.895,5.54,3.252,5.54
					c1.237,0,2.739-1.183,4.615-2.59c5.626-3.589,9.626-9.236,11.146-15.734c1.967-9.506,3.934-19.341,5.245-29.175
					c0.374-4.47,3.319-8.312,7.539-9.834l63.595-28.519c3.242-1.556,5.202-2.497,6.468-2.497c1.933,0,2.246,2.195,3.038,7.742
					l23.274,131.122c-0.61,2.481,0.138,5.1,1.967,6.884c0.252,0.021,0.504,0.031,0.755,0.031c3.137,0,6.079-1.607,7.768-4.292
					c5.092-6.589,7.961-14.623,8.195-22.946c6.557-48.843,13.112-98.342,19.341-146.529c0.445-3.638,2.651-6.825,5.9-8.523
					l50.81-32.78c6.798-4.472,11.792-11.208,14.095-19.013c2.839-7.443-0.895-15.778-8.337-18.616
					c-0.062-0.023-0.124-0.046-0.186-0.069h-2.295c-2.913-0.901-5.917-1.346-8.909-1.346c-4.971,0-9.912,1.229-14.365,3.641
					c-17.373,9.506-34.419,18.685-52.12,28.519c-2.181,1.259-4.614,1.889-7.048,1.889s-4.867-0.629-7.048-1.889l-137.678-57.038
					c-2.062-0.348-4.143-0.521-6.221-0.521c-3.542,0-7.077,0.503-10.497,1.504h-4.917c-2.912,0.297-5.489,2.015-6.884,4.589
					c0.537,2.491,2.247,4.568,4.589,5.573l27.208,22.946l76.051,65.561c4.589,3.934,5.245,6.229,0,9.834l-58.677,41.959
					C9903.074,4529.71,9901.423,4530.172,9899.771,4530.172 M9981.235,4183.253v103.615h-0.003L9981.235,4183.253l-0.003,81.412
					l-0.002-81.412c-44.169,0.001-87.085,8.644-127.558,25.689c-39.05,16.446-74.131,39.979-104.271,69.945
					c-30.14,29.965-53.876,64.91-70.549,103.864c-17.28,40.373-26.172,83.238-26.43,127.405
					c-0.258,44.343,8.199,87.466,25.137,128.17c16.338,39.263,39.828,74.555,69.816,104.895
					c29.988,30.339,65.004,54.238,104.074,71.033c40.505,17.411,83.526,26.369,127.869,26.627c0.666,0.004,1.302,0.005,1.942,0.005
					c44.144,0,87.042-8.639,127.504-25.677c39.042-16.44,74.121-39.964,104.261-69.919c30.149-29.964,53.894-64.908,70.572-103.861
					c17.291-40.383,26.188-83.262,26.446-127.446c0-0.002,0-0.005,0-0.008c0.004-0.637,0.006-1.273,0.006-1.91
					c-0.001-44.345-8.71-87.417-25.886-128.022c-16.568-39.166-40.264-74.319-70.428-104.483
					c-30.164-30.164-65.317-53.858-104.483-70.424C10068.649,4191.961,10025.577,4183.253,9981.235,4183.253L9981.235,4183.253z"/>
			</g>
			<g>
				<path fill="#FFFFFF" d="M6288.511,4793.996c-6.891,0-23.028,0-38.352-11.718c-10.176-7.78-22.307-22.53-22.307-48.612v-710.682
					c0-6.845,0-22.874,11.826-38.149c7.719-9.969,22.286-21.854,47.849-21.854H6433.4c35.329,0,60.002,24.809,60.002,60.33
					c0,0.191-0.001,0.382-0.003,0.573c-1.303,117.723-1.964,237.084-1.964,354.768v354.029c0,8.709,0,29.105-17.03,45.567
					c-16.29,15.746-35.418,15.746-44.611,15.746H6288.511z"/>
				<path fill="#FFFFFF" d="M6433.4,4014.789c6.884,0,8.195,1.967,8.195,8.523c-1.311,118.447-1.967,236.894-1.967,355.341v354.03
					c0,9.506,0,9.506-9.834,9.506h-141.284c-6.556,0-8.851,0-8.851-8.523c0-236.894,0-473.788,0-710.682
					c0-6.228,0-8.195,7.868-8.195H6433.4 M6433.4,3911.174h-145.873c-49.021,0-76.688,26.281-88.815,41.947
					c-22.667,29.279-22.667,59.825-22.667,69.863v710.682c0,49.733,26.717,77.589,42.644,89.767
					c29.256,22.371,59.789,22.371,69.822,22.371h141.284c4.158,0,9.851,0,16.751-0.741c30.949-3.324,51.815-17.913,63.869-29.565
					c12.559-12.14,28.304-33.356,31.997-65.487c0.831-7.233,0.831-13.068,0.831-17.328v-354.03c0-117.502,0.66-236.67,1.961-354.194
					c0.004-0.382,0.006-0.765,0.006-1.147c0-37.2-15.417-62.022-28.349-76.294C6504.73,3933.631,6477.758,3911.174,6433.4,3911.174
					L6433.4,3911.174z"/>
			</g>
			<g>
				<path fill="#FFFFFF" d="M7631.199,4794.324c-7.103,0-23.738,0-39.299-12.878c-13.52-11.188-20.375-26.934-20.375-46.797
					c0.217-118.144,0.217-237.964,0-356.229v-355.108c0-35.521,24.809-60.33,60.33-60.33h143.906c6.117,0,22.365,0,37.503,11.774
					c9.816,7.635,21.517,21.972,21.517,46.917v713.631c0,6.117,0,22.365-11.774,37.503c-7.634,9.815-21.972,21.517-46.917,21.517
					H7631.199z"/>
				<path fill="#FFFFFF" d="M7775.76,4014.789c5.573,0,7.212,0,7.212,6.884c0,237.986,0,475.864,0,713.632
					c0,5.572,0,7.211-6.884,7.211h-144.89c-6.229,0-7.868,0-7.868-7.868c0.219-118.666,0.219-237.44,0-356.324
					c0-118.447,0-236.785,0-355.013c0-7.211,1.967-8.523,8.523-8.523H7775.76 M7775.76,3911.174h-143.906
					c-38.047,0-63.193,16.087-77.587,29.582c-15.135,14.189-25.852,32.459-30.992,52.834c-2.395,9.49-3.558,19.211-3.558,29.721
					v355.013c0,0.063,0,0.127,0,0.191c0.218,118.202,0.218,237.958,0,355.942c0,0.063,0,0.127,0,0.191
					c0,9.822,0.956,18.809,2.921,27.473c5.346,23.561,17.875,44.045,36.233,59.237c29.935,24.771,61.843,24.771,72.329,24.771
					h144.89c48.308,0,75.752-26.012,87.812-41.517c22.687-29.169,22.687-59.381,22.687-69.309v-713.632
					c0-48.307-26.011-75.751-41.515-87.811C7815.902,3911.174,7785.689,3911.174,7775.76,3911.174L7775.76,3911.174z"/>
			</g>
			<g>
				<path fill="#FAA736" d="M9446.102,4789.406L9446.102,4789.406c-73.903-0.215-143.301-29.197-195.406-81.607
					s-80.683-121.975-80.468-195.879c0.216-73.758,29.103-143.059,81.34-195.136c52.228-52.066,121.595-80.74,195.326-80.74
					l0.821,0.001c73.752,0.215,143.047,29.096,195.121,81.322c52.075,52.227,80.754,121.606,80.754,195.358
					c0,73.903-28.779,143.385-81.037,195.644c-52.258,52.258-121.738,81.038-195.643,81.039
					C9446.909,4789.408,9446.102,4789.406,9446.102,4789.406z M9375.761,4601.874v-46.52h-17.018v46.52H9375.761z
					 M9532.779,4600.235v-86.854c0-3.971,0.451-7.855,1.311-11.601v-75.909h-18.983v174.364H9532.779z"/>
				<path fill="#FFFFFF" d="M9446.893,4287.852c0.228,0,0.443,0,0.671,0.001c123.938,0.361,224.219,100.934,224.219,224.872
					c0.001,124.195-100.679,224.875-224.873,224.875c-0.219,0-0.438,0-0.656-0.001c-124.194-0.362-224.58-101.334-224.218-225.529
					C9222.396,4388.104,9323.012,4287.858,9446.893,4287.852 M9481.656,4652.042h80.312c0.844,0.104,1.682,0.155,2.511,0.155
					c10.116,0,18.877-7.544,20.146-17.841c0.216-1.748,0.203-3.516-0.037-5.26v-115.715l1.311-0.328v-116.699
					c1.352-10.951-6.424-20.927-17.373-22.291h-83.263c-0.705-0.073-1.406-0.109-2.1-0.109c-10.111-0.001-18.79,7.643-19.863,17.923
					c-0.144,1.379-0.144,2.77,0,4.149v233.397C9462.152,4640.73,9470.356,4650.838,9481.656,4652.042 M9324.965,4653.682h81.951
					c0.45,0.03,0.9,0.045,1.345,0.045c10.26,0,18.903-7.957,19.604-18.344c0.112-1.665,0.013-3.336-0.297-4.976V4525.51
					c1.148-10.945-6.763-20.76-17.702-21.963h-79.984c-1.068-0.171-2.133-0.254-3.182-0.254c-9.653,0-18.148,7.005-19.721,16.841
					c-0.319,1.997-0.334,4.03-0.044,6.031v50.81v1.639v53.433C9305.987,4642.985,9314.035,4652.643,9324.965,4653.682
					 M9446.893,4184.237c-0.002,0-0.003,0-0.005,0c-44.197,0.002-87.139,8.668-127.63,25.758
					c-39.064,16.487-74.145,40.073-104.267,70.101c-30.127,30.034-53.822,65.047-70.43,104.067
					c-17.217,40.453-26.012,83.386-26.141,127.606c-0.129,44.3,8.444,87.355,25.483,127.97
					c16.437,39.177,40.005,74.365,70.051,104.587c30.047,30.222,65.097,53.995,104.177,70.659
					c40.515,17.276,83.519,26.101,127.819,26.23l0.958,0.001c44.301,0,87.33-8.7,127.895-25.857
					c39.129-16.55,74.248-40.222,104.382-70.356c30.135-30.135,53.806-65.254,70.355-104.383
					c17.157-40.565,25.856-83.595,25.855-127.896c0-44.211-8.666-87.163-25.759-127.661c-16.49-39.07-40.08-74.153-70.114-104.275
					c-30.035-30.123-65.05-53.814-104.071-70.417c-40.448-17.211-83.375-26.002-127.587-26.131L9446.893,4184.237L9446.893,4184.237
					z"/>
			</g>
			<g>
				<path fill="#F68934" d="M8911.856,4790.391c-73.992-0.107-143.513-29.023-195.757-81.42s-80.957-122.001-80.85-195.993
					c0.108-73.919,28.977-143.393,81.286-195.621c52.305-52.224,121.812-80.985,195.717-80.985l0.41,0
					c73.992,0.107,143.513,29.023,195.757,81.419c52.243,52.396,80.956,122.001,80.849,195.993
					c0,73.653-28.712,142.97-80.846,195.104c-50.365,50.365-116.76,78.871-187.683,80.747c-2.9,0.501-5.847,0.755-8.808,0.755
					C8911.906,4790.391,8911.882,4790.391,8911.856,4790.391z M8910.809,4384.897c-70.537,0.257-127.818,57.853-127.689,128.389
					c0,0.063,0,0.127,0,0.19c-0.063,34.145,13.175,66.269,37.273,90.457c23.163,23.247,53.691,36.488,86.346,37.538
					c1.656-0.167,3.326-0.254,5.005-0.261c34.231-0.124,66.365-13.572,90.483-37.866c24.117-24.294,37.33-56.525,37.206-90.758
					c-0.257-70.408-57.741-127.689-128.144-127.689H8910.809z"/>
				<path fill="#FFFFFF" d="M8912.253,4288.179c0.113,0,0.221,0,0.335,0c124.375,0.181,225.054,101.154,224.873,225.529
					c0,123.833-100.386,224.219-224.218,224.219l-1.312,0.655c-124.375-0.181-225.055-101.154-224.874-225.53
					C8687.239,4388.792,8788.033,4288.183,8912.253,4288.179 M8910.947,4693.347c0.219,0,0.438,0,0.656-0.001l0.328-0.328
					c99.391-0.362,179.67-81.229,179.308-180.62c-0.361-99.167-80.867-179.31-179.95-179.31c-0.225,0-0.445,0-0.67,0.001
					c-99.262,0.362-179.488,81.027-179.308,180.291c-0.183,99.211,80.097,179.785,179.308,179.966
					C8910.729,4693.347,8910.838,4693.347,8910.947,4693.347 M8912.253,4184.564c-0.001,0-0.002,0-0.003,0
					c-44.293,0.001-87.321,8.693-127.89,25.833c-39.136,16.535-74.271,40.187-104.43,70.298
					c-30.16,30.114-53.868,65.215-70.463,104.329c-17.204,40.549-25.96,83.574-26.024,127.877
					c-0.064,44.345,8.581,87.431,25.696,128.061c16.51,39.192,40.152,74.38,70.273,104.589
					c30.12,30.208,65.24,53.954,104.384,70.578c40.58,17.233,83.64,26.004,127.984,26.069c0.049,0,0.102,0,0.15,0
					c4.505,0,8.99-0.293,13.433-0.874c39.94-1.443,78.743-10.032,115.518-25.587c39.051-16.517,74.101-40.141,104.174-70.215
					c30.074-30.074,53.698-65.124,70.215-104.174c17.104-40.437,25.785-83.331,25.805-127.489h0.001
					c0.063-44.344-8.581-87.429-25.696-128.059c-16.51-39.192-40.153-74.38-70.273-104.589
					c-30.121-30.208-65.24-53.954-104.384-70.577c-40.58-17.234-83.64-26.005-127.984-26.069H8912.253L8912.253,4184.564z
					 M8905.987,4589.574c-18.49-1.184-35.702-8.966-48.894-22.206c-14.332-14.385-22.205-33.49-22.167-53.796
					c0-0.126,0-0.253,0-0.379c-0.077-42.022,34.048-76.335,76.07-76.488c0.019,0,0.037,0,0.055,0l0.237,0
					c41.939,0,76.184,34.126,76.336,76.072c0.074,20.394-7.798,39.596-22.166,54.069c-14.367,14.473-33.512,22.484-53.904,22.559
					C8909.692,4589.411,8907.836,4589.468,8905.987,4589.574L8905.987,4589.574z"/>
			</g>
			<g>
				<path fill="#FAA736" d="M9550.822,4646.156c-15.551,0-34.904,0-52.188-15.585c-19.615-17.685-19.615-40.575-19.615-54.252
					c0-11.876,0-25.337,7.925-39.387c7.628-13.523,20.244-23.071,35.525-26.886c6.934-1.73,13.135-1.964,18.285-1.964
					c0.973,0,2.026,0.009,3.167,0.02c1.005,0.009,2.101,0.02,3.296,0.02c16.644,0,37.356,0,54.88,17.679
					c17.234,17.387,17.048,38.632,16.947,50.045c-0.011,1.245-0.023,2.602-0.023,4.08c0,10.659,0,30.5-16.312,47.229
					c-12.206,12.52-26.621,16.012-37.529,16.985C9560.621,4645.453,9555.803,4646.156,9550.822,4646.156z"/>
				<path fill="#FFFFFF" d="M9540.756,4559.891c1.806,0,3.939,0.039,6.461,0.039c21.963,0,19.996,0,19.996,19.997
					c0,12.457,0,12.784-12.784,12.784h-3.606v1.639c-19.996,0-19.996,0-19.996-18.029
					C9530.826,4561.064,9530.827,4559.891,9540.756,4559.891 M9540.757,4456.276c-7.813,0-18.378,0.398-30.825,3.504
					c-12.938,3.228-24.985,8.678-35.808,16.198c-13.209,9.179-24.378,21.452-32.299,35.493
					c-14.614,25.902-14.614,50.282-14.614,64.849c0,6.678,0,14.248,1.091,23.096c4.297,34.868,21.753,57.112,35.64,69.633
					c12.299,11.089,33.557,24.968,64.992,28.117c7.963,0.798,15.042,0.798,21.889,0.798c7.792,0,15.492-0.877,22.972-2.579
					c0.303-0.036,0.606-0.072,0.913-0.111c31.96-4.006,53.04-19.586,65.096-31.951c11.824-12.128,26.659-33.18,30.181-64.605
					c0.845-7.534,0.845-13.777,0.845-18.792c0-1.313,0.012-2.518,0.021-3.624c0.049-5.624,0.11-12.623-0.823-20.953
					c-3.616-32.253-18.928-53.704-31.136-66.021c-12.665-12.777-34.921-28.735-69.02-32.192c-8.101-0.821-15.17-0.821-22.654-0.821
					c-1.025,0-1.965-0.01-2.826-0.018C9543.081,4456.285,9541.872,4456.276,9540.757,4456.276L9540.757,4456.276z"/>
			</g>
			<g>
				<path fill="#FAA736" d="M9550.822,4687.132c-14.857,0-35.204,0-52.656-17.146c-17.836-17.522-17.836-38.884-17.836-53.019
					c0-10.21,0-19.027,3.556-29.344c6.249-18.13,23.736-37.502,54.075-37.502c2.122,0,4.02,0.085,5.694,0.16
					c1.502,0.068,2.8,0.126,4.218,0.126c16.804,0,37.717,0,55.306,17.662c17.297,17.367,17.212,38.006,17.161,50.337
					c-0.004,0.887-0.008,1.826-0.008,2.821c0,11.233,0,32.143-17.369,49.108c-15.818,15.451-34.25,16.405-46.251,16.464
					C9554.779,4687.02,9552.813,4687.132,9550.822,4687.132z"/>
				<path fill="#FFFFFF" d="M9537.961,4601.929c2.288,0,5.475,0.287,9.912,0.287c21.962,0,20.651,0,20.651,19.013
					c0,13.768,0,13.768-14.096,13.768h-3.606v0.328c-18.685,0-18.685,0-18.685-18.357
					C9532.138,4603.788,9532.138,4601.929,9537.961,4601.929 M9537.961,4498.314c-16.705,0-32.517,3.408-46.996,10.13
					c-14.37,6.671-26.799,16.213-36.941,28.36c-8.385,10.042-14.816,21.46-19.117,33.938c-6.384,18.521-6.384,33.882-6.384,46.226
					c0,6.502,0,13.872,0.948,22.257c3.775,33.38,19.696,55.25,32.387,67.718c12.43,12.211,34.129,27.519,66.919,31.099
					c8.232,0.899,15.255,0.899,22.046,0.899c2.843,0,5.675-0.117,8.487-0.348c4.236-0.049,9.083-0.218,14.447-0.8
					c31.883-3.46,53.165-18.437,65.404-30.392c12.589-12.295,28.375-33.813,32.094-66.5c0.885-7.773,0.885-14.37,0.885-19.671
					c0-0.92,0.004-1.789,0.007-2.608c0.023-5.717,0.053-12.832-0.925-21.218c-3.759-32.229-19.114-53.62-31.334-65.891
					c-12.673-12.725-34.932-28.619-69.012-32.08c-8.189-0.832-15.385-0.832-23.003-0.832c-0.266,0-1.203-0.043-1.888-0.074
					C9543.986,4498.438,9541.248,4498.314,9537.961,4498.314L9537.961,4498.314z"/>
			</g>
			<g>
				<path fill="#FAA736" d="M9496.735,4687.46c-2.134,0-4.247-0.131-6.329-0.387c-13.244-0.329-30.411-2.508-45.121-16.946
					c-17.731-17.402-17.731-38.328-17.731-52.176v-7.184c-0.271-14.991,5.091-29.293,15.21-40.45
					c10.531-11.61,24.953-18.426,40.61-19.191c0.842-0.041,1.685-0.062,2.527-0.062h20.652c0.677-0.023,1.353-0.035,2.025-0.035
					c30.247,0,55.348,22.697,58.386,52.797c0.264,2.632,0.351,5.265,0.263,7.882v11.165c1.112,12.803-1.931,25.563-8.858,36.655
					c-8.444,13.521-21.647,22.942-37.179,26.532c-0.94,0.216-1.811,0.396-2.688,0.556c-3.072,0.562-6.188,0.844-9.311,0.844
					H9496.735z"/>
				<path fill="#FFFFFF" d="M9508.579,4602.837c3.491,0,6.482,2.646,6.841,6.194c0.046,0.459,0.046,0.921,0,1.38v15.735
					c0.979,4.233-1.66,8.458-5.895,9.437c-0.11,0.026-0.222,0.049-0.334,0.07h-12.456l0.327-0.328c-17.701,0-17.701,0-17.701-17.374
					v-7.868c-0.186-3.797,2.743-7.026,6.54-7.211l0.016,0h21.963C9508.114,4602.848,9508.348,4602.837,9508.579,4602.837
					 M9508.579,4499.222c-0.925,0-1.853,0.012-2.781,0.035h-19.881c-1.687,0-3.373,0.042-5.059,0.124l0,0
					c-14.854,0.724-29.177,4.362-42.569,10.812c-12.883,6.205-24.288,14.724-33.898,25.319
					c-9.611,10.596-16.979,22.776-21.902,36.204c-4.664,12.721-6.927,25.985-6.741,39.482v6.754c0,6.303,0,13.447,0.934,21.699
					c3.762,33.227,19.648,55.02,32.314,67.451c12.389,12.16,34,27.401,66.601,30.956c4.148,0.453,8.039,0.673,11.69,0.78
					c3.12,0.285,6.274,0.43,9.449,0.43h12.456c6.323,0,12.633-0.579,18.85-1.729c1.615-0.298,3.247-0.639,4.854-1.01
					c14.575-3.368,28.143-9.542,40.282-18.341c11.683-8.467,21.483-18.968,29.13-31.209c7.646-12.242,12.784-25.656,15.269-39.87
					c1.518-8.684,2.003-17.413,1.46-26.103v-8.568c0.111-4.569-0.059-9.148-0.512-13.688c-0.004-0.042-0.008-0.084-0.013-0.125
					c-2.767-27.414-15.574-52.655-36.063-71.075C9562.129,4509.282,9535.895,4499.222,9508.579,4499.222L9508.579,4499.222z"/>
			</g>
			<g>
				<path fill="#FAA736" d="M9492.538,4646.188c-5.419,0-11.346-0.203-17.956-1.678c-15.231-3.399-28.061-12.403-36.124-25.355
					c-9.273-14.896-9.27-29.381-9.266-42.161v-4.443c-1.168-11.871,1.316-23.796,7.288-34.408
					c7.688-13.663,20.236-23.514,35.334-27.738c0.283-0.079,0.566-0.156,0.851-0.23c4.324-1.146,8.779-1.725,13.253-1.725h23.288
					c0.328-0.006,0.655-0.008,0.981-0.008c31.276,0,56.983,24.425,58.607,55.64c0.048,0.908,0.072,1.826,0.072,2.732v17.389
					c1.256,29.42-19.627,55.197-49.227,59.721c-2.415,0.369-4.854,0.566-7.296,0.592c-4.149,1.071-8.503,1.642-12.987,1.642
					c-1.283,0-2.467,0.009-3.56,0.017C9494.63,4646.182,9493.545,4646.188,9492.538,4646.188z"/>
				<path fill="#FFFFFF" d="M9510.188,4560.249c3.647,0,6.69,2.865,6.87,6.549l0.001,0.016v19.013
					c0.392,3.333-1.928,6.377-5.245,6.884h-12.457v1.639c-2.631,0-4.886,0.033-6.816,0.033c-11.783,0-11.541-1.209-11.541-18.39
					v-7.211c-1.024-3.661,1.113-7.46,4.774-8.485c0.048-0.013,0.096-0.026,0.144-0.038h23.93
					C9509.962,4560.252,9510.075,4560.249,9510.188,4560.249 M9510.189,4456.634c-0.451,0-0.903,0.003-1.356,0.009h-22.915
					c-8.562,0-17.09,1.061-25.39,3.159c-0.735,0.186-1.468,0.379-2.202,0.581c-0.16,0.044-0.319,0.088-0.479,0.133
					c-14.321,4.008-27.475,10.738-39.098,20.003c-11.181,8.914-20.406,19.753-27.42,32.218
					c-7.015,12.465-11.491,25.977-13.308,40.161c-0.929,7.257-1.14,14.511-0.637,21.716v1.377l-0.001,0.986
					c-0.004,15.741-0.012,42.088,17.097,69.564c15.472,24.848,39.915,42.085,68.825,48.534c11.604,2.588,21.719,2.92,29.234,2.92
					c1.12,0,2.328-0.007,3.629-0.017c0.978-0.007,2.038-0.016,3.188-0.016c6.669,0,13.27-0.643,19.723-1.894
					c2.805-0.197,5.602-0.508,8.384-0.933c28.297-4.324,53.436-19.245,70.784-42.015c15.405-20.221,23.213-44.722,22.426-69.865
					v-16.443c0-1.692-0.041-3.383-0.124-5.073l0,0C9617.67,4502.802,9569.193,4456.634,9510.189,4456.634L9510.189,4456.634z"/>
			</g>
			<g>
				<path fill="#FAA736" d="M9550.822,4600.919c-14.027,0-35.227,0-52.695-17.469s-17.469-38.668-17.469-52.695
					c0-10.21,0-19.026,3.556-29.343c6.249-18.13,23.735-37.503,54.075-37.503c2.121,0,4.02,0.085,5.694,0.16
					c1.502,0.068,2.799,0.126,4.217,0.126c16.839,0,37.795,0,55.385,17.698c17.29,17.396,17.164,38.01,17.089,50.325
					c-0.007,1.07-0.014,2.22-0.014,3.453c0,10.966,0,31.377-16.897,48.272c-16.977,16.975-37.6,16.975-48.679,16.975H9550.822z"/>
				<path fill="#FFFFFF" d="M9538.289,4515.716c2.287,0,5.473,0.287,9.911,0.287c22.291,0,20.652,0,20.652,19.668
					c0,13.113,0,13.44-13.769,13.44h-4.262c-18.356,0-18.356,0-18.356-18.357
					C9532.466,4517.576,9532.467,4515.717,9538.289,4515.716 M9538.288,4412.102c-0.001,0-0.003,0-0.004,0
					c-16.709,0.001-32.524,3.412-47.006,10.137c-14.368,6.673-26.794,16.215-36.934,28.362c-8.381,10.04-14.811,21.456-19.11,33.929
					c-6.383,18.521-6.383,33.882-6.383,46.225c0,6.454,0,13.77,0.92,22.055c3.673,33.056,19.276,54.829,31.72,67.273
					c12.444,12.445,34.218,28.051,67.275,31.724c8.285,0.92,15.602,0.92,22.056,0.92h4.269c6.134,0,12.773-0.079,20.469-1.015
					c31.713-3.858,52.763-19.061,64.837-31.134c12.196-12.196,27.507-33.454,31.18-65.461c0.891-7.762,0.891-14.24,0.891-19.445
					c0-1.12,0.008-2.164,0.014-3.135c0.034-5.705,0.078-12.803-0.886-21.192c-3.704-32.253-19.047-53.678-31.265-65.971
					c-12.682-12.76-34.967-28.696-69.113-32.156c-8.184-0.829-15.389-0.829-23.017-0.829c-0.266-0.001-1.203-0.043-1.888-0.074
					C9544.313,4412.225,9541.575,4412.102,9538.288,4412.102L9538.288,4412.102z"/>
			</g>
			<g>
				<path fill="#FAA736" d="M9508.174,4602.853c-1.991,0-3.979-0.099-5.959-0.294h-3.514c-5.146,0-10.203-0.766-15.022-2.226
					c-11.79-1.229-25.255-5.038-37.059-16.842c-17.428-17.428-17.428-38.479-17.428-52.409v-5.863
					c-0.563-31.15,23.663-57.465,54.945-59.292c1.027-0.061,2.057-0.092,3.085-0.092h21.532c0.392-0.008,0.782-0.012,1.171-0.012
					c31.042,0,56.775,24.278,58.586,55.271c0.119,2.114,0.128,4.212,0.027,6.292v8.793c2.918,29.121-15.694,56.955-44.875,64.662
					C9518.612,4602.176,9513.399,4602.853,9508.174,4602.853z"/>
				<path fill="#FFFFFF" d="M9509.926,4517.631c3.618,0,6.652,2.824,6.866,6.484c0.026,0.466,0.007,0.933-0.061,1.395v14.423
					c1.248,4.726-1.571,9.569-6.297,10.818c-0.741,0.196-1.501,0.293-2.261,0.293s-1.52-0.098-2.261-0.293h-7.212l0.328-1.639
					c-18.029,0-18.029,0-18.029-18.029v-6.556c-0.186-3.616,2.596-6.698,6.212-6.883c0.006,0,0.011-0.001,0.011-0.001h22.297
					C9509.656,4517.635,9509.791,4517.631,9509.926,4517.631 M9509.926,4414.016c-0.535,0-1.073,0.004-1.611,0.012h-21.092
					c-2.098,0-4.194,0.063-6.287,0.191c-14.457,0.867-28.393,4.507-41.434,10.828c-12.832,6.219-24.184,14.741-33.74,25.329
					s-16.874,22.752-21.749,36.152c-4.593,12.623-6.816,25.775-6.628,39.153v5.402c0,6.387,0,13.627,0.916,21.866
					c3.666,33,19.255,54.746,31.687,67.177c12.077,12.077,32.946,27.133,64.383,31.344c7.892,1.906,16.054,2.896,24.331,2.896h1.354
					c2.7,0.195,5.408,0.293,8.118,0.293c9.691,0,19.357-1.255,28.729-3.731c14.629-3.864,28.118-10.518,40.084-19.774
					c11.511-8.905,21.062-19.8,28.386-32.382c7.323-12.582,12.08-26.266,14.139-40.671c1.155-8.079,1.432-16.17,0.836-24.206v-5.426
					c0.121-3.399,0.087-6.804-0.104-10.194c-0.004-0.066-0.008-0.132-0.012-0.199
					C9616.823,4459.724,9568.372,4414.016,9509.926,4414.016L9509.926,4414.016z"/>
			</g>
			<g>
				<path fill="#FAA736" d="M9550.822,4559.943c-14.027,0-35.227,0-52.695-17.469s-17.469-38.668-17.469-52.695
					c0-10.089,0-19.618,3.964-30.362c6.481-17.568,24.054-36.341,53.933-36.341c1.67,0,3.195,0.049,4.542,0.092
					c1.218,0.039,2.27,0.073,3.371,0.073c0.319,0,0.653-0.003,1.003-0.011c0.353-0.007,0.705-0.011,1.058-0.011
					c16.73,0,37.552,0,55.102,17.661c17.251,17.36,17.121,37.83,17.044,50.06c-0.007,1.062-0.014,2.202-0.014,3.428
					c0,11.559,0,30.904-15.994,47.677c-17.067,17.898-38.006,17.898-49.254,17.898H9550.822z"/>
				<path fill="#FFFFFF" d="M9538.554,4474.883c1.949,0,4.521,0.165,7.917,0.165c0.655,0,1.34-0.006,2.058-0.021
					c21.963,0,20.324,0,20.324,19.34c0,13.44,0,13.768-13.44,13.768l-4.59,0c-18.356,0-18.356,0-18.356-18.357
					C9532.466,4476.495,9532.468,4474.883,9538.554,4474.883 M9538.554,4371.269c-15.646,0-29.893,2.783-43.558,8.508
					c-14.531,6.088-27.252,15.08-37.811,26.727c-9.245,10.199-16.367,21.969-21.169,34.984c-7.165,19.424-7.165,36.108-7.165,48.291
					c0,6.454,0,13.77,0.92,22.054c3.673,33.057,19.276,54.829,31.72,67.273c12.444,12.445,34.218,28.051,67.275,31.724
					c8.285,0.92,15.602,0.92,22.056,0.92l4.602,0c6.207,0,12.941-0.084,20.849-1.091c32.505-4.14,53.771-20.156,65.888-32.863
					c11.567-12.13,26.071-33.141,29.483-64.345c0.823-7.535,0.823-13.938,0.823-19.083c0-1.108,0.008-2.14,0.014-3.1
					c0.036-5.647,0.08-12.676-0.879-21.029c-3.696-32.197-19.02-53.595-31.223-65.875c-12.673-12.753-34.937-28.679-69.038-32.128
					c-8.131-0.822-15.263-0.822-22.813-0.822c-0.691,0-1.382,0.007-2.072,0.021c-0.292-0.001-1.07-0.026-1.698-0.046
					C9543.195,4371.337,9541.055,4371.269,9538.554,4371.269L9538.554,4371.269z"/>
			</g>
			<g>
				<path fill="#FAA736" d="M9498.359,4474.059c-13.943-0.001-34.814-0.146-52.114-17.765
					c-17.053-17.368-17.053-38.253-17.053-52.072c0-10.456,0-20.331,4.351-31.511c6.688-17.188,24.399-35.555,54.047-35.555
					c1.737,0,3.3,0.049,4.812,0.096c1.363,0.043,2.65,0.083,4.006,0.083c17.102,0,38.386,0,55.933,17.863
					c17.156,17.466,16.786,38.223,16.587,49.374c-0.027,1.54-0.061,3.273-0.061,5.223c0,10.38,0,29.7-15.805,46.336
					c-17.031,17.928-38.258,17.928-48.459,17.928C9504.603,4474.059,9498.365,4474.059,9498.359,4474.059z"/>
				<path fill="#FFFFFF" d="M9487.589,4388.963c2.157,0,5.019,0.18,8.818,0.18c23.602,0,20.651,0,20.651,20.651
					c0,11.801,0,12.457-12.456,12.457h-6.229h0.328c-17.702,0-17.702,0-17.702-18.029
					C9481,4390.639,9481.001,4388.964,9487.589,4388.963 M9487.589,4285.349c-0.001,0-0.003,0-0.004,0
					c-15.146,0-28.941,2.565-42.174,7.84c-14.382,5.733-27.08,14.301-37.739,25.465c-9.725,10.184-17.264,22.049-22.407,35.267
					c-7.88,20.245-7.88,37.617-7.88,50.302c0,6.339,0,13.523,0.888,21.66c3.564,32.665,18.828,54.306,31.006,66.708
					c12.443,12.673,34.262,28.571,67.538,32.336c8.146,0.922,15.252,0.938,21.536,0.939c0.007,0,0.015,0,0.021,0h0.328h5.9
					c6.437,0,13.509-0.157,21.602-1.292c31.753-4.456,52.558-20.275,64.419-32.761c11.405-12.005,25.729-32.758,29.199-63.449
					c0.852-7.524,0.852-13.907,0.852-18.568c0-1.37,0.025-2.792,0.052-4.297c0.093-5.185,0.22-12.287-0.676-20.667
					c-3.434-32.118-18.617-53.584-30.751-65.936c-12.765-12.995-35.256-29.196-69.908-32.58c-8.045-0.786-15.301-0.786-22.983-0.786
					c-0.543,0-1.396-0.027-2.382-0.058C9492.294,4285.416,9490.14,4285.349,9487.589,4285.349L9487.589,4285.349z"/>
			</g>
			<g>
				<path fill="#FAA736" d="M9499.017,4517.329c-14.188-0.001-35.426-0.143-52.739-17.773
					c-17.396-17.715-17.017-38.589-16.765-52.402l0.032-1.825c0.164-9.346,0.319-18.172,3.867-28.142
					c6.342-17.823,23.74-36.867,53.553-36.867c2.125,0,3.984,0.088,5.625,0.165c1.373,0.065,2.56,0.121,3.817,0.121
					c17.124,0,38.436,0,56.04,17.851c17.243,17.483,16.949,38.617,16.792,49.971c-0.021,1.484-0.045,3.134-0.045,4.966
					c0,10.286,0,29.433-15.738,46.022c-16.994,17.914-38.07,17.914-48.198,17.914
					C9505.258,4517.329,9499.021,4517.329,9499.017,4517.329z"/>
				<path fill="#FFFFFF" d="M9486.965,4432.126c2.162,0,5.188,0.287,9.442,0.287c23.602,0,20.979,0,20.979,20.979
					c0,11.473,0,12.129-12.129,12.129h-6.229h0.328c-18.685,0-18.357,0-18.029-18.357
					C9481.563,4433.986,9481.462,4432.126,9486.965,4432.126 M9486.965,4328.511c-0.002,0-0.004,0-0.005,0
					c-46.775,0.002-86.956,28-102.364,71.327c-6.382,17.947-6.652,33.345-6.851,44.587l-0.016,0.894l-0.016,0.892
					c-0.114,6.275-0.243,13.387,0.54,21.649c3.157,33.271,18.632,55.339,31.059,67.994c12.517,12.746,34.486,28.711,68.067,32.384
					c8.064,0.882,14.967,0.897,21.63,0.897c0.007,0,0.013,0,0.02,0h0.328h5.9c6.385,0,13.407-0.157,21.494-1.299
					c31.688-4.473,52.45-20.287,64.289-32.766c11.37-11.986,25.652-32.696,29.114-63.294c0.846-7.481,0.846-13.783,0.846-18.385
					c0-1.378,0.02-2.771,0.04-4.247c0.078-5.607,0.175-12.585-0.745-21.002c-3.525-32.231-18.783-53.717-30.962-66.066
					c-12.746-12.924-35.188-29.049-69.717-32.472c-8.122-0.805-15.414-0.808-23.128-0.808c-0.259-0.007-0.943-0.04-1.45-0.063
					C9493.158,4328.646,9490.315,4328.511,9486.965,4328.511L9486.965,4328.511z"/>
			</g>
			<g>
				<path fill="#FAA736" d="M9511.918,4560.616c-2.347,0-4.416-0.116-6.079-0.209c-1.352-0.076-2.419-0.136-3.531-0.136h-2.95
					c-2.104,0-4.182-0.126-6.221-0.37c-13.791-0.265-30.805-2.223-45.803-16.685c-18.142-17.492-18.142-38.729-18.142-52.782
					c0-11.204,0-22.791,6.209-35.608c4.617-9.532,19.104-31.703,53.809-31.703c1.222,0,2.583,0.021,4.102,0.049
					c1.197,0.021,2.551,0.048,4.079,0.048c12.559,0,31.538,0,48.694,13.972c22.781,18.551,22.781,45.159,22.781,56.521
					c0,9.653,0,17.99-2.85,27.438C9558.785,4545.126,9537.551,4560.616,9511.918,4560.616z"/>
				<path fill="#FFFFFF" d="M9489.208,4474.931c2.128,0,4.808,0.097,8.183,0.097c16.391,0,19.668,0,19.668,18.685
					c0,13.148-0.001,15.097-5.141,15.097c-2.164,0-5.239-0.345-9.61-0.345h-2.95v-0.328c-18.357,0-18.357,0-18.357-17.702
					C9481,4476.378,9481.001,4474.931,9489.208,4474.931 M9489.207,4371.316c-0.001,0-0.002,0-0.003,0
					c-8.107,0-20.58,0.522-35.232,5.034c-13.66,4.206-26.129,10.928-37.058,19.98c-11.908,9.862-21.378,21.949-28.146,35.926
					c-11.383,23.509-11.383,44.373-11.383,58.179c0,6.419,0,13.694,0.968,22.095c3.872,33.605,20.093,55.517,33.019,67.981
					c12.384,11.941,33.944,26.904,66.334,30.375c4.477,0.479,8.589,0.693,12.5,0.789c3.032,0.269,6.084,0.404,9.151,0.404h2.598
					c0.356,0.016,0.683,0.038,0.981,0.055c2.063,0.116,5.182,0.291,8.981,0.291c18.633,0,36.124-4.319,51.988-12.837
					c25.058-13.455,43.423-35.998,51.71-63.476c5.057-16.766,5.057-30.979,5.057-42.399c0-8.475-0.349-19.83-3.07-32.524
					c-6.993-32.615-24.962-52.898-38.806-64.171c-31.443-25.604-65.188-25.604-81.406-25.604c-0.94,0-1.959-0.019-3.139-0.04
					C9492.771,4371.346,9491.091,4371.316,9489.207,4371.316L9489.207,4371.316z"/>
			</g>
			<g>
				<path fill="#FAA736" d="M9550.822,4475.042c-3.729,0-7.365-0.395-10.871-1.143c-12.514-0.537-25.858-2.886-38.702-13.16
					c-8.121-6.497-18.375-18.364-21.103-37.999c-0.8-5.759-0.8-10.842-0.8-16.224c0-12.609,0-33.713,17.696-51.075
					c17.45-17.123,38.756-17.123,51.485-17.123c13.251,0,33.275,0,50.678,15.529c20.47,18.265,20.47,43.272,20.47,55.291
					c0,11.789,0,31.521-16.519,48.422c-17.085,17.481-38.097,17.481-49.385,17.481H9550.822z"/>
				<path fill="#FFFFFF" d="M9548.528,4390.126c17.373,0,19.34,0,19.34,19.013c0,13.768,0,14.095-14.096,14.095h-2.95v-0.983
					c-19.668,0-19.668,0-19.668-15.734C9531.154,4390.782,9531.154,4390.126,9548.528,4390.126 M9548.528,4286.512
					c-6.966,0-14.477,0.089-22.975,1.158c-31.675,3.983-52.717,18.942-64.792,30.789c-12.542,12.305-28.313,33.844-32.221,66.578
					c-1.001,8.393-1.001,15.65-1.001,21.48c0,6.257,0,14.045,1.292,23.351c3.958,28.5,18.183,53.83,40.054,71.327
					c17.32,13.856,37.976,21.938,61.392,24.019c1.339,0.119,2.646,0.216,3.931,0.296c5.459,0.887,11.012,1.34,16.614,1.34h2.95
					c4.939,0,12.402,0,20.902-1.054c32.199-3.994,53.41-19.619,65.534-32.024c11.913-12.189,26.858-33.376,30.41-65.09
					c0.863-7.714,0.863-14.272,0.863-19.541c0-8.093-0.243-17.797-2.052-28.405c-5.594-32.809-22.518-53.75-35.73-65.541
					c-12.051-10.753-32.794-24.293-63.18-27.729C9562.091,4286.512,9554.886,4286.512,9548.528,4286.512L9548.528,4286.512z"/>
			</g>
			<g>
				<path fill="#FAA736" d="M9565.164,4517.747c-2.611,0-4.823-0.149-6.6-0.269c-1.287-0.087-2.217-0.149-3.152-0.149h-4.59
					c-13.915,0-32.973,0-49.907-15.053c-19.602-17.424-19.602-40.234-19.602-52.489c0-12.191,0-32.595,16.103-49.89
					c17.961-19.292,41.019-19.292,53.406-19.292c13.46,0,33.8,0,51.208,16.005c19.612,18.03,19.612,41.746,19.612,54.487
					c0,9.595,0,17.174-2.468,26.073C9612.447,4501.44,9590.741,4517.747,9565.164,4517.747z"/>
				<path fill="#FFFFFF" d="M9550.822,4432.413c17.702,0,19.013,0,19.013,18.685c0,12.831-0.001,14.841-4.672,14.841
					c-2.131,0-5.232-0.418-9.751-0.418h-4.59c-17.701,0-17.701,0-17.701-15.735
					C9533.121,4434.052,9533.121,4432.413,9550.822,4432.413 M9550.822,4328.798c-7.6,0-16.709,0.215-26.653,1.811
					c-32.095,5.151-52.883,21.325-64.671,33.985c-11.245,12.079-25.408,32.955-29.015,63.811c-0.977,8.36-0.977,15.58-0.977,21.381
					c0,5.941,0,13.334,1.076,21.948c4.34,34.718,21.924,56.827,35.911,69.261c12.171,10.819,33.138,24.354,63.91,27.393
					c7.569,0.748,14.101,0.748,20.418,0.748h3.791c0.163,0.011,0.318,0.022,0.468,0.032c2.142,0.145,5.728,0.386,10.082,0.386
					c49.142,0,90.91-31.563,103.936-78.54c4.351-15.693,4.351-28.563,4.351-39.917c0-8.033-0.2-16.789-1.658-26.375
					c-5.018-33.004-21.638-54.245-34.696-66.251c-12.174-11.192-33.215-25.264-64.325-28.741
					C9564.421,4328.798,9557.196,4328.798,9550.822,4328.798L9550.822,4328.798z"/>
			</g>
			<g>
				<path fill="#FAA736" d="M9393.429,4687.132c-13.72-0.002-34.233-0.154-51.401-17.004
					c-17.732-17.402-17.732-38.329-17.732-52.177v-1.756c-2.997-27.653,13.905-54.531,41.446-63.064
					c5.712-1.767,11.612-2.658,17.563-2.658c1.867,0,3.732,0.088,5.588,0.264h12.799c1.022-0.053,2.046-0.079,3.065-0.079
					c29.521,0,54.916,22.045,59.07,51.279c0.579,4.065,0.735,8.165,0.471,12.248v8.025c1.132,12.925-1.949,25.807-8.963,36.99
					c-8.517,13.579-21.811,23.028-37.434,26.607c-0.099,0.022-0.762,0.17-0.981,0.216c-3.505,0.736-7.076,1.108-10.658,1.108
					C9406.261,4687.132,9393.445,4687.132,9393.429,4687.132z"/>
				<path fill="#FFFFFF" d="M9383.305,4602.28c0.664,0,1.329,0.088,1.977,0.264h18.357c0.375-0.053,0.749-0.079,1.117-0.079
					c3.854,0,7.221,2.834,7.778,6.761c0.118,0.829,0.103,1.672-0.045,2.497v13.768c1.011,4.412-1.746,8.808-6.158,9.818
					c-0.023,0.005-0.047,0.011-0.07,0.016h-12.784l0.328,0c-17.702,0-17.702,0-17.702-17.374v-5.901
					c-1.231-3.978,0.994-8.2,4.972-9.433C9381.8,4602.393,9382.552,4602.28,9383.305,4602.28 M9383.305,4498.665
					c-11.153,0-22.212,1.672-32.868,4.971c-14.31,4.433-27.351,11.563-38.78,21.2c-10.997,9.272-19.976,20.428-26.685,33.157
					c-6.708,12.729-10.837,26.439-12.271,40.752c-0.667,6.662-0.737,13.308-0.213,19.897c0.001,6.133,0.033,13.056,0.934,21.008
					c3.762,33.228,19.65,55.021,32.316,67.452c12.39,12.159,34,27.399,66.601,30.954c8.089,0.882,15.195,0.882,21.466,0.882
					c0.074,0,0.146,0,0.221,0h12.235c7.271,0,14.521-0.765,21.633-2.283c0.385-0.082,0.771-0.167,1.155-0.253
					c0.141-0.031,0.28-0.063,0.42-0.095c14.67-3.361,28.29-9.529,40.483-18.333c11.731-8.471,21.58-18.983,29.271-31.246
					c7.69-12.262,12.867-25.705,15.386-39.954c1.555-8.799,2.053-17.645,1.495-26.453v-4.697c0.334-7.005,0.004-14.031-0.99-21.011
					c-3.794-26.704-17.157-51.136-37.623-68.758c-20.224-17.415-46.055-27.005-72.734-27.005c-1.394,0-2.79,0.026-4.188,0.079h-9.61
					C9388.412,4498.753,9385.859,4498.665,9383.305,4498.665L9383.305,4498.665z"/>
			</g>
			<g>
				<path fill="#FAA736" d="M9341.684,4646.156c-13.811,0-34.681,0-51.879-17.387c-17.024-17.211-16.799-37.935-16.678-49.067
					c0.014-1.313,0.03-2.763,0.03-4.366v-2.786c-1.168-11.87,1.316-23.795,7.288-34.407c7.688-13.663,20.237-23.514,35.335-27.738
					c0.271-0.076,0.543-0.149,0.814-0.222c4.336-1.15,8.803-1.733,13.288-1.733h21.996c0.321-0.005,0.643-0.008,0.962-0.008
					c31.511,0,57.358,24.603,58.939,56.052c0.045,0.881,0.068,1.769,0.068,2.647v11.117c2.875,29.491-16.192,57.539-45.776,65.011
					c-4.603,1.159-9.303,1.777-14.014,1.849C9348.706,4645.799,9345.237,4646.156,9341.684,4646.156z"/>
				<path fill="#FFFFFF" d="M9352.842,4560.249c3.829,0,7.019,3.012,7.198,6.877l0.001,0.015v14.751
					c1.24,4.915-1.739,9.905-6.654,11.145c-0.737,0.186-1.491,0.279-2.246,0.279c-0.754,0-1.509-0.093-2.245-0.279h-7.212v1.312
					c-18.685,0-16.719,0-16.719-19.013v-6.556c-1.024-3.661,1.113-7.46,4.774-8.485c0.048-0.013,0.096-0.026,0.144-0.038h22.618
					C9352.615,4560.252,9352.729,4560.249,9352.842,4560.249 M9352.842,4456.634c-0.438,0-0.876,0.003-1.316,0.008h-21.643
					c-8.74,0-17.445,1.106-25.907,3.291c-0.563,0.146-1.123,0.295-1.685,0.449c-0.16,0.044-0.319,0.088-0.479,0.133
					c-14.32,4.008-27.474,10.738-39.096,20.002c-11.181,8.914-20.406,19.753-27.421,32.218
					c-7.015,12.466-11.492,25.978-13.309,40.162c-0.929,7.257-1.14,14.512-0.637,21.717v0.723c0,1.396-0.016,2.659-0.028,3.802
					c-0.059,5.351-0.131,12.011,0.726,20.017c3.449,32.237,18.721,53.711,30.925,66.048c12.511,12.648,34.438,28.457,67.854,31.948
					c7.776,0.813,14.427,0.813,20.857,0.813c5.322,0,10.604-0.41,15.799-1.211c7.173-0.404,14.303-1.494,21.271-3.253
					c14.705-3.711,28.305-10.232,40.406-19.381c11.643-8.802,21.342-19.622,28.827-32.159c7.485-12.538,12.409-26.209,14.634-40.636
					c1.301-8.435,1.645-16.892,1.035-25.298v-8.885c0-1.615-0.037-3.229-0.113-4.843l0,0c0-0.001,0-0.003,0-0.005
					c-0.001-0.034-0.003-0.068-0.005-0.103c-1.362-28.613-13.536-55.246-34.286-74.999
					C9408.552,4467.486,9381.416,4456.634,9352.842,4456.634L9352.842,4456.634z"/>
			</g>
			<g>
				<path fill="#FAA736" d="M9393.805,4603.214c-13.832,0-34.735,0-52.122-17.386c-17.388-17.387-17.388-38.291-17.388-52.123
					v-2.973c-2.544-27.522,14.761-54.108,42.131-62.145c4.74-1.391,9.654-2.098,14.594-2.098h19.838
					c1.438-0.104,2.878-0.158,4.316-0.158c27.99,0,52.428,19.897,58.106,47.313c1.153,5.568,1.49,11.328,1.017,17.011v8.622
					c0,7.152,0,28.918-17.307,46.223c-17.387,17.386-39.397,17.386-46.63,17.386h-0.723
					C9397.717,4603.103,9395.77,4603.214,9393.805,4603.214z"/>
				<path fill="#FFFFFF" d="M9405.174,4518.14c3.5,0,6.638,2.451,7.376,6.013c0.228,1.099,0.206,2.234-0.061,3.324v11.801
					c0,9.834-1.64,11.801-12.129,11.801h-6.884l0.328,0.328c-17.702,0-17.702,0-17.702-17.702v-6.556
					c-1.056-3.798,1.135-7.74,4.917-8.851h22.619C9404.153,4518.191,9404.668,4518.14,9405.174,4518.14 M9405.174,4414.525
					c-1.969,0-3.939,0.053-5.908,0.158h-18.246c-9.883,0-19.716,1.414-29.198,4.199c-14.169,4.162-27.163,10.988-38.621,20.291
					c-11.032,8.956-20.126,19.797-27.029,32.223c-6.903,12.427-11.305,25.877-13.08,39.979c-0.911,7.237-1.111,14.474-0.603,21.661
					v0.67c0,6.32,0,13.483,0.91,21.676c3.66,32.944,19.232,54.662,31.651,67.081c12.418,12.418,34.137,27.989,67.079,31.649
					c8.192,0.91,15.355,0.91,21.676,0.91c2.81,0,5.601-0.113,8.367-0.337c9.297-0.095,17.465-0.933,25.565-2.613
					c21.423-4.447,40.748-14.799,55.887-29.938c15.253-15.252,25.625-34.715,29.996-56.286c2.227-10.987,2.483-20.426,2.483-26.57
					v-6.919c0.585-9.787-0.111-19.657-2.094-29.226c-5.214-25.172-19.114-47.914-39.138-64.033
					C9455.188,4423.252,9430.435,4414.525,9405.174,4414.525L9405.174,4414.525z"/>
			</g>
			<g>
				<path fill="#FAA736" d="M9341.684,4603.214c-13.72,0-34.453,0-51.778-17.006c-17.73-17.402-17.73-38.328-17.73-52.176v-2.285
					c-1.196-12.468,1.563-24.954,8.059-35.942c8.112-13.722,21.083-23.463,36.521-27.429c4.867-1.247,9.853-1.875,14.846-1.875
					c2.06,0,4.112,0.105,6.154,0.317h9.472c1.722-0.15,3.449-0.226,5.177-0.226c27.593,0,51.431,18.727,57.97,45.538
					c1.529,6.288,2.021,12.803,1.476,19.227v2.02c0,0.629-0.012,1.257-0.034,1.885c-0.524,14.408-1.243,34.142-18.259,50.854
					C9376.146,4603.214,9355.407,4603.214,9341.684,4603.214z"/>
				<path fill="#FFFFFF" d="M9331.603,4518.308c0.746,0,1.491,0.106,2.214,0.318h16.718c0.626-0.152,1.253-0.226,1.869-0.226
					c3.544,0,6.761,2.41,7.638,6.006c0.298,1.224,0.298,2.501,0,3.726v5.245c-0.656,18.029-0.656,18.029-18.357,18.029
					s-17.701,0-17.701-17.374v-5.9c-1.081-4.208,1.454-8.497,5.662-9.577C9330.287,4518.39,9330.945,4518.308,9331.603,4518.308
					 M9331.603,4414.693c-9.346,0-18.674,1.179-27.726,3.503c-14.538,3.732-27.955,10.237-39.881,19.333
					c-11.473,8.75-21.014,19.487-28.359,31.912c-7.345,12.423-12.152,25.956-14.289,40.224c-1.205,8.047-1.531,16.113-0.979,24.128
					v0.241c0,6.303,0,13.447,0.934,21.7c3.762,33.227,19.648,55.019,32.314,67.45c12.389,12.16,34,27.401,66.601,30.957
					c8.09,0.882,15.196,0.882,21.467,0.882c6.358,0,13.564,0,21.848-0.934c32.445-3.657,53.977-18.882,66.326-31.01
					c12.082-11.866,27.452-32.664,32.063-64.36c1.177-8.083,1.438-15.249,1.667-21.572c0.046-1.256,0.068-2.512,0.068-3.768v-0.245
					c0.682-11.137-0.298-22.375-2.938-33.224c-5.957-24.438-20.159-46.348-40.001-61.734c-19.45-15.082-43.711-23.388-68.313-23.388
					c-2.36,0-4.721,0.075-7.077,0.226h-5.304C9337.224,4414.799,9334.416,4414.693,9331.603,4414.693L9331.603,4414.693z"/>
			</g>
			<g>
				<path fill="#FAA736" d="M9393.805,4646.156c-14.957,0-35.442,0-52.777-17.386c-17.158-17.207-17.1-37.603-17.064-49.788
					l0.004-3.75c-3.49-26.164,11.034-52.418,36.64-62.632c6.993-2.788,14.348-4.2,21.867-4.2c0.798,0,1.598,0.017,2.398,0.049
					c0,0,19.769,0,19.815,0c32.448,0,59.07,26.398,59.344,58.846c0.009,1.084-0.012,2.172-0.063,3.258v3.583
					c0.482,14.438,0.842,35.752-16.577,53.771C9429.752,4646.156,9408.119,4646.156,9393.805,4646.156z"/>
				<path fill="#FFFFFF" d="M9382.473,4560.208c0.281,0,0.562,0.016,0.842,0.049h21.308c0.021,0,0.044,0,0.066,0
					c4.134,0,7.502,3.333,7.537,7.475c0.003,0.351-0.019,0.701-0.064,1.048v6.228c0.656,19.341,0,19.341-18.356,19.341
					c-19.013,0-18.03,0-18.03-17.702v-6.556c-1.475-3.7,0.328-7.895,4.027-9.37
					C9380.654,4560.381,9381.561,4560.208,9382.473,4560.208 M9382.473,4456.593c-14.125,0-27.939,2.654-41.061,7.887
					c-13.853,5.525-26.253,13.642-36.854,24.123c-10.198,10.082-18.241,21.877-23.905,35.057
					c-5.663,13.177-8.686,27.127-8.983,41.463c-0.091,4.373,0.072,8.717,0.488,13.024c-0.001,0.232-0.001,0.461-0.002,0.687
					c-0.016,5.559-0.035,12.479,0.896,20.614c3.695,32.242,19.056,53.636,31.289,65.905c12.529,12.564,34.478,28.277,67.893,31.778
					c7.959,0.833,14.879,0.833,21.571,0.833c6.606,0,14.095,0,22.685-0.997c33.702-3.912,55.663-20.133,68.151-33.052
					c12.291-12.715,27.592-34.865,30.685-68.181c0.757-8.145,0.674-15.299,0.451-22.421v-1.745c0.053-1.566,0.073-3.131,0.061-4.692
					c-0.126-14.9-3.171-29.371-9.052-43.031c-5.659-13.146-13.685-24.92-23.853-34.998c-10.162-10.072-22.001-17.989-35.188-23.53
					c-13.701-5.757-28.188-8.676-43.057-8.676c-0.079,0-0.159,0-0.239,0h-18.688
					C9384.664,4456.609,9383.567,4456.593,9382.473,4456.593L9382.473,4456.593z"/>
			</g>
			<g>
				<path fill="#FAA736" d="M9341.684,4687.132c-13.943,0-35.015,0-52.457-17.766c-17.052-17.368-17.052-38.252-17.052-52.071v-3.65
					c-2.16-28.646,17.075-55.351,45.918-61.697c3.656-0.805,7.39-1.211,11.134-1.211h22.346c0.313-0.005,0.627-0.008,0.94-0.008
					c31.832,0,57.873,24.913,59.284,56.717c0.033,0.765,0.051,1.53,0.051,2.296v6.243c0,0.585-0.01,1.17-0.03,1.754
					c-0.516,15.218-1.157,34.155-16.987,50.834C9377.215,4687.132,9354.973,4687.132,9341.684,4687.132z"/>
				<path fill="#FFFFFF" d="M9352.513,4602.537c4.011,0,7.348,3.159,7.527,7.205v0.014v6.228
					c-0.655,19.341-0.655,19.341-18.356,19.341s-17.701,0-17.701-18.029v-6.556c-0.813-3.711,1.534-7.378,5.244-8.195h22.946
					C9352.286,4602.539,9352.4,4602.537,9352.513,4602.537 M9352.514,4498.921c-0.431,0-0.862,0.003-1.296,0.008h-21.991
					c-7.49,0-14.958,0.812-22.272,2.422c-14.515,3.195-28.019,9.169-40.138,17.758c-11.66,8.263-21.479,18.559-29.185,30.6
					c-7.703,12.04-12.938,25.267-15.556,39.314c-1.634,8.768-2.203,17.594-1.709,26.391v1.881c0,6.338,0,13.522,0.888,21.66
					c3.563,32.664,18.827,54.305,31.004,66.707c12.443,12.674,34.262,28.572,67.54,32.338c8.296,0.939,15.516,0.939,21.885,0.939
					c6.556,0,13.985,0,22.681-1.051c33.709-4.076,55.608-20.549,68.044-33.652c11.225-11.827,25.48-32.383,29.651-63.151
					c1.072-7.903,1.308-14.863,1.535-21.593c0.04-1.169,0.06-2.339,0.06-3.509v-6.228c0-1.531-0.033-3.076-0.102-4.605
					c-1.276-28.791-13.463-55.602-34.313-75.496C9408.468,4509.836,9381.219,4498.921,9352.514,4498.921L9352.514,4498.921z"/>
			</g>
			<g>
				<path fill="#F68934" d="M8971.359,4637.69c-0.844,0-1.691-0.019-2.538-0.057h-44.761c-16.307,0-29.9-5.326-40.404-15.83
					c-10.612-10.612-15.993-24.481-15.993-41.223v-54.029c-1.416-28.073,18.391-53.501,46.771-58.384
					c3.197-0.545,6.39-0.815,9.56-0.815c1.232,0,2.465,0.04,3.695,0.121h25.219c3.425,0,6.792,0.337,10.063,0.983h14.539
					c1.469-0.116,2.943-0.175,4.421-0.175c24.612,0,46.02,15.805,53.269,39.328c2.378,7.724,3.046,15.76,2.005,23.654
					c-1.524,21.412-5.16,42.739-10.817,63.45C9020.124,4619.794,8997.463,4637.689,8971.359,4637.69z"/>
				<path fill="#FFFFFF" d="M8923.995,4519.16c0.352,0,0.704,0.041,1.049,0.122h27.863l0.327,0.983h27.536
					c0.386-0.119,0.775-0.175,1.159-0.175c1.681,0,3.237,1.086,3.758,2.777c0.232,0.754,0.232,1.561,0,2.315
					c-1.197,19.181-4.384,38.187-9.506,56.71c-0.451,2.346-2.504,3.991-4.824,3.991c-0.247,0-0.497-0.019-0.749-0.057h-46.548
					c-3.935,0-4.59,0-4.59-5.245v-56.055c-0.429-2.498,1.248-4.871,3.746-5.3C8923.475,4519.182,8923.734,4519.16,8923.995,4519.16
					 M8923.995,4415.545c-6.116,0-12.274,0.525-18.303,1.559c-14.365,2.467-27.858,7.703-40.115,15.563
					c-11.788,7.561-21.865,17.195-29.949,28.635c-8.081,11.436-13.798,24.146-16.99,37.778c-2.22,9.483-3.148,19.096-2.781,28.719
					v52.781c0,38.589,16.948,63.638,31.167,77.856c16.52,16.52,37.602,26.898,60.968,30.013c7.431,0.991,13.266,0.991,16.069,0.991
					h43.791c1.17,0.038,2.339,0.057,3.506,0.057c49.75,0,92.962-33.957,105.144-81.642c6.334-23.314,10.454-47.295,12.268-71.386
					c1.729-14.75,0.376-29.722-4.063-44.122c-6.803-22.078-20.844-41.724-39.533-55.312c-18.503-13.452-40.372-20.562-63.244-20.562
					c-2.052,0-4.1,0.059-6.144,0.175h-8.604c-4.683-0.65-9.447-0.983-14.273-0.983h-23.799
					C8927.405,4415.585,8925.699,4415.545,8923.995,4415.545L8923.995,4415.545z"/>
			</g>
			<g>
				<path fill="#F68934" d="M8925.699,4558.305c-5.776,0-21.119,0-35.917-11.098c-8.261-6.194-22.119-20.487-22.119-46.61v-51.282
					c-1.052-10.199,0.695-20.525,5.188-30.011c6.406-13.525,17.673-23.814,31.723-28.97c5.717-2.098,11.759-3.172,17.848-3.172
					h45.813c1.163-0.07,2.327-0.106,3.489-0.106c26.662,0,50.033,18.592,56.15,44.423c5.236,21.053,8.552,42.705,9.855,64.367
					c0.063,1.036,0.094,2.074,0.094,3.112c0,5.731,0,17.658-7.206,30.556c-9.855,17.64-28.399,28.17-49.607,28.17
					c-1.228,0-2.502-0.033-3.79-0.098c-0.147-0.004-0.305-0.004-0.471-0.004c-2.299,0-6.274,0.17-9.782,0.319
					c-4.636,0.198-9.429,0.403-13.732,0.403H8925.699z"/>
				<path fill="#FFFFFF" d="M8971.723,4438.863c2.74,0,5.189,1.916,5.77,4.695c4.546,18.164,7.398,36.709,8.523,55.399
					c0,4.875,0,6.918-5.003,6.918c-0.379,0-0.787-0.012-1.226-0.035c-0.889-0.047-1.913-0.067-3.035-0.067
					c-6.737,0-17.054,0.723-23.518,0.723h-27.535c-4.589,0-6.229,0-6.229-5.9v-55.399c-0.879-2.533,0.433-5.304,2.95-6.229h48.188
					C8970.982,4438.898,8971.355,4438.863,8971.723,4438.863 M8971.723,4335.249c-1.601,0-3.202,0.036-4.804,0.106h-44.498
					c-12.184,0-24.272,2.149-35.71,6.348c-26.879,9.868-48.431,29.554-60.685,55.433c-8.189,17.294-11.608,36.05-10.17,54.664
					v48.798c0,10.785,1.292,20.786,3.951,30.575c6.23,22.933,20.042,43.348,38.893,57.483
					c15.111,11.333,33.167,18.484,52.214,20.682c6.717,0.775,12.166,0.775,14.785,0.775h27.535c5.411,0,10.767-0.229,15.947-0.45
					c2.194-0.094,5.377-0.229,7.014-0.264c1.619,0.062,3.233,0.093,4.817,0.093c13.868,0,27.239-2.412,39.741-7.169
					c23.377-8.896,42.948-25.789,55.107-47.569c13.769-24.664,13.769-47.281,13.769-55.795c0-2.077-0.062-4.153-0.187-6.226
					c-1.49-24.751-5.271-49.492-11.242-73.551c-5.646-23.472-18.994-44.589-37.84-59.748
					C9020.974,4343.837,8996.597,4335.249,8971.723,4335.249L8971.723,4335.249z"/>
			</g>
			<g>
				<path fill="#F68934" d="M8850.922,4638.617c-27.273,0.001-50.524-19.164-56.113-45.374c-4.776-18.592-7.956-37.657-9.477-56.806
					c-4.874-19.979,1.438-41.938,18.144-56.139c10.133-8.613,23.038-13.357,36.338-13.357c4.417,0,8.77,0.517,12.979,1.516h43.975
					c1.389-0.104,2.782-0.156,4.176-0.156c25.104,0,47.321,16.897,54.028,41.092c2.241,8.096,2.633,16.56,1.176,24.774
					c-0.815,6.054-1.137,12.21-0.955,18.318c0.016,0.515,0.023,1.029,0.023,1.544v25.658c1.504,27.125-16.72,51.727-43.95,57.719
					c-3.657,0.805-7.391,1.211-11.135,1.211C8900.131,4638.617,8850.954,4638.617,8850.922,4638.617z"/>
				<path fill="#FFFFFF" d="M8839.813,4518.749c1.219,0,2.429,0.515,3.28,1.516h56.71c0.381-0.105,0.765-0.156,1.142-0.156
					c1.867,0,3.58,1.237,4.104,3.124c0.206,0.745,0.206,1.532,0,2.276c-1.376,9.44-1.924,18.983-1.64,28.519v27.864
					c0.406,2.253-1.041,4.425-3.277,4.917h-49.171c-0.013,0-0.026,0-0.039,0c-2.822,0-5.202-2.111-5.534-4.917
					c-4.823-18.341-7.788-37.12-8.851-56.055c-1.538-1.81-1.318-4.525,0.492-6.064
					C8837.838,4519.085,8838.828,4518.749,8839.813,4518.749 M8839.813,4415.134c-25.581,0-50.403,9.125-69.894,25.694
					c-11.059,9.398-19.98,20.746-26.508,33.718c-6.276,12.476-10.031,25.861-11.16,39.784c-0.819,10.098-0.229,20.14,1.754,29.979
					c1.831,20.499,5.307,40.896,10.37,60.825c11.029,49.334,55.014,85.291,106.546,85.291c0.075,0,0.151,0,0.228,0h48.982
					c7.488,0,14.955-0.812,22.268-2.421c27.387-6.026,51.033-22.196,66.584-45.53c12.745-19.124,18.955-41.415,18.04-64.028v-24.417
					c0-1.028-0.015-2.056-0.046-3.084c-0.09-3.042,0.051-6.104,0.419-9.12c2.518-15.36,1.689-31.135-2.484-46.221
					c-0.006-0.021-0.012-0.043-0.018-0.064c-6.337-22.845-20.272-43.258-39.238-57.478c-18.551-13.908-41.532-21.567-64.711-21.567
					c-1.936,0-3.869,0.052-5.799,0.156h-37.262C8851.961,4415.648,8845.919,4415.134,8839.813,4415.134L8839.813,4415.134z"/>
			</g>
			<g>
				<path fill="#F68934" d="M8843.093,4558.305c-6.518,0-26.353,0-42.515-17.139c-7.438-7.887-16.038-21.798-14.777-43.278
					c1.283-21.167,4.41-42.249,9.305-62.793c4.801-27.396,28.656-47.941,57.151-47.941c0.324,0,0.649,0.003,0.976,0.008h44.932
					c5.895,0,21.552,0,36.472,11.341c8.176,6.215,21.892,20.544,21.892,46.695c0,4.537-0.328,9.463-0.676,14.679
					c-0.298,4.476-0.636,9.548-0.636,12.857v23.777c2.455,24.559-11.585,48.874-35.588,58.246
					c-6.005,2.345-12.396,3.548-18.842,3.548H8843.093z"/>
				<path fill="#FFFFFF" d="M8852.258,4438.96c0.107,0,0.216,0.002,0.324,0.008c0.006,0,0.011,0,0.011,0l45.571,0
					c4.917,0,6.556,0,6.556,6.228c0,6.229-1.312,18.357-1.312,27.536v27.863c0.892,2.354-0.278,4.985-2.622,5.901h-57.693
					c-4.59,0-5.9,0-5.573-5.573c1.146-18.904,3.998-37.665,8.523-56.055C8846.213,4441.543,8848.964,4438.96,8852.258,4438.96
					 M8852.258,4335.345c-0.003,0-0.006,0-0.009,0c-53.4,0.004-98.193,38.136-107.889,89.219
					c-5.388,22.986-8.839,46.542-10.266,70.093c-0.004,0.065-0.008,0.131-0.012,0.196c-0.514,8.754-0.151,16.946,1.11,25.044
					c3.349,21.506,12.925,41.152,27.693,56.813c16.519,17.517,38.899,28.995,63.021,32.321c7.838,1.081,14.151,1.081,17.186,1.081
					h57.693c12.898,0,25.683-2.408,37.697-7.101c13.469-5.261,25.561-13.029,35.939-23.088c9.991-9.684,17.923-21.042,23.574-33.76
					s8.767-26.217,9.258-40.123c0.142-4.007,0.063-7.994-0.232-11.952v-21.355c0.01-1.72,0.33-6.536,0.522-9.413
					c0.388-5.832,0.79-11.862,0.79-18.123c0-10.591-1.225-20.394-3.744-29.968c-6.073-23.08-19.785-43.669-38.609-57.976
					c-28.814-21.899-58.171-21.899-67.817-21.899l-44.512,0C8853.186,4335.348,8852.721,4335.345,8852.258,4335.345
					L8852.258,4335.345z"/>
			</g>
			<g>
				<path fill="#F68934" d="M8814.764,4558.565c-2.96,0-5.91-0.226-8.828-0.672c-0.428-0.018-0.9-0.026-1.438-0.026
					c-1.612,0-3.576,0.078-5.85,0.168c-3.177,0.126-6.777,0.27-10.954,0.27h-25.299c-1.014,0.056-2.028,0.083-3.042,0.083
					c-26.26,0.001-49.208-18.659-54.566-44.368c-1.246-5.982-1.491-12.159-0.746-18.215c2.083-27.276,9.604-53.382,22.37-77.627
					c9.941-18.953,29.406-30.725,50.812-30.725c0.679,0,1.359,0.012,2.041,0.036h46.456c18.438,0,33.183,6.583,43.827,19.567
					c10.691,13.042,14.251,28.962,10.58,47.317c-0.249,1.241-0.542,2.473-0.881,3.692c-3.51,12.648-5.594,25.68-6.207,38.787
					c1.591,27.498-16.593,53.17-44.277,60.009C8824.166,4557.994,8819.467,4558.565,8814.764,4558.565z"/>
				<path fill="#FFFFFF" d="M8777.221,4439.26c0.212,0,0.425,0.012,0.639,0.037h47.859c4.262,0,4.589,0,3.605,4.917
					c-4.923,17.74-7.675,36.013-8.194,54.416c0.867,3.515-1.278,7.068-4.793,7.937c-0.517,0.128-1.045,0.191-1.572,0.191
					c-0.616,0-1.232-0.087-1.83-0.261c-2.95-0.328-5.719-0.437-8.438-0.437c-5.439,0-10.685,0.437-16.804,0.437h-27.535
					c-0.271,0.057-0.541,0.083-0.807,0.083c-1.824,0-3.461-1.275-3.848-3.131c-0.129-0.619-0.107-1.26,0.064-1.869
					c1.332-20.734,7.029-40.954,16.719-59.333C8773.256,4440.397,8775.167,4439.26,8777.221,4439.26 M8777.222,4335.646
					c-19.853,0-39.335,5.415-56.342,15.66c-17.057,10.275-30.969,25.008-40.25,42.62l0,0
					c-15.985,30.321-25.457,62.952-28.178,97.045c-1.216,11.195-0.685,22.576,1.615,33.61c5.079,24.352,18.541,46.324,37.911,61.893
					c19.033,15.297,42.96,23.722,67.373,23.722c1.409,0,2.819-0.028,4.229-0.084h24.112c5.205,0,9.715-0.179,13.009-0.31
					c0.648-0.026,1.413-0.056,2.1-0.081c3.967,0.433,7.961,0.651,11.963,0.651c8.893,0,17.779-1.081,26.413-3.213
					c14.401-3.557,27.717-9.862,39.584-18.74c11.415-8.54,20.939-19.06,28.312-31.266c7.369-12.204,12.245-25.529,14.489-39.604
					c1.084-6.794,1.531-13.606,1.344-20.396c0.546-8.527,1.975-16.996,4.26-25.233c0.677-2.439,1.265-4.903,1.761-7.386
					c0.851-4.25,1.879-10.047,2.292-17.209c1.539-26.7-6.845-52.666-23.608-73.114c-17.175-20.95-41.583-34.33-68.729-37.675
					c-6.926-0.854-12.489-0.854-15.163-0.854h-45.685C8779.095,4335.658,8778.157,4335.646,8777.222,4335.646L8777.222,4335.646z"/>
			</g>
			<g>
				<path fill="#F68934" d="M9044.896,4640.042c-1.209,0-2.42-0.038-3.629-0.114h-19.521c-3.454,0-6.831-0.339-10.097-0.983h-12.85
					c-6.28,0-25.391,0-41.22-15.826c-15.833-15.83-15.833-34.944-15.833-41.226c0-4.454,0.575-8.891,1.709-13.198
					c3.681-13.968,5.942-28.344,6.734-42.771c-0.621-25.886,16.799-49.223,42.877-55.41c3.919-0.931,7.933-1.4,11.961-1.4h55.124
					c1.017-0.056,2.033-0.084,3.05-0.084c26.258,0,49.205,18.66,54.563,44.369c1.236,5.938,1.487,12.069,0.762,18.085
					c-1.969,26.767-9.233,52.399-21.609,76.242C9087.175,4627.44,9067.031,4640.042,9044.896,4640.042z"/>
				<path fill="#FFFFFF" d="M9063.2,4520.837c1.824,0,3.461,1.275,3.848,3.131c0.129,0.619,0.106,1.26-0.064,1.869
					c-1.254,20.498-6.84,40.498-16.391,58.677c-1.009,2.292-3.268,3.72-5.698,3.72c-0.393,0-0.789-0.037-1.186-0.114h-21.963v-0.983
					H8998.8c-5.245,0-5.245,0-5.245-5.245c4.856-18.434,7.714-37.337,8.523-56.383c-0.41-2.074,0.893-4.101,2.95-4.589h57.365
					C9062.664,4520.864,9062.935,4520.837,9063.2,4520.837 M9063.2,4417.222c-1.409,0-2.819,0.028-4.229,0.083h-53.942
					c-8.063,0-16.098,0.941-23.942,2.804c-27.196,6.459-50.499,22.965-65.614,46.477c-11.285,17.552-17.123,37.634-17.106,58.094
					c-0.673,10.396-2.354,20.745-5.007,30.815c-2.27,8.616-3.418,17.488-3.418,26.397c0,2.808,0,8.033,0.715,14.475
					c2.706,24.356,13.18,46.273,30.288,63.381s39.025,27.582,63.382,30.288c6.441,0.715,11.667,0.715,14.475,0.715h8.702
					c4.692,0.651,9.452,0.983,14.244,0.983h18.161c1.662,0.076,3.326,0.114,4.987,0.114c41.716,0,79.695-23.643,98.225-60.68
					c15.363-29.732,24.44-61.661,27.009-94.99c1.179-11.11,0.637-22.399-1.644-33.343c-5.079-24.352-18.541-46.324-37.911-61.892
					C9111.54,4425.646,9087.613,4417.222,9063.2,4417.222L9063.2,4417.222z"/>
			</g>
			<g>
				<path fill="#F68934" d="M9008.962,4558.633c-4.152,0-15.182,0-27.269-6.044c-17.728-8.865-29.181-26.308-30.636-46.659
					c-0.05-0.696-0.085-1.394-0.106-2.091c-0.536-17.298-3.053-34.555-7.48-51.291c-4.112-15.543-0.775-32.114,9.032-44.854
					c9.808-12.739,24.974-20.204,41.052-20.204h52.449c0.251,0,0.502,0.002,0.754,0.006c22.636,0.329,42.591,13.742,51.588,34.031
					c11.897,23.414,18.943,48.563,20.949,74.791c0.101,1.314,0.151,2.633,0.151,3.951c0,6.095,0,22.285-11.966,37.4
					c-7.57,9.563-21.708,20.964-46.07,20.964H9008.962z"/>
				<path fill="#FFFFFF" d="M9046.004,4439.297c2.416,0.036,4.534,1.624,5.244,3.934c9.288,17.699,14.866,37.108,16.391,57.039
					c0,5.245,0,6.556-6.229,6.556h-52.448c-2.95,0-5.9,0-6.229-4.589c-0.658-21.26-3.738-42.376-9.179-62.939H9046.004
					 M9046.004,4335.682h-52.449c-32.155,0-62.489,14.929-82.104,40.409c-19.614,25.48-26.288,58.623-18.063,89.708
					c3.422,12.936,5.367,26.274,5.781,39.644c0.043,1.394,0.115,2.787,0.214,4.177c1.194,16.706,5.934,32.412,14.088,46.68
					c10.521,18.41,26.103,33.151,45.06,42.628c23.024,11.511,43.653,11.511,50.433,11.511h52.448
					c47.449,0,74.678-25.441,86.685-40.606c23.159-29.25,23.159-59.593,23.159-69.564c0-2.637-0.101-5.273-0.302-7.903
					c-2.493-32.59-11.156-63.855-25.764-93.009c-7.534-16.503-19.025-30.791-33.752-41.836
					c-18.583-13.938-40.683-21.486-63.909-21.828C9047.02,4335.686,9046.512,4335.682,9046.004,4335.682L9046.004,4335.682z"/>
			</g>
			<g>
				<path fill="#F68934" d="M8923.803,4476.631c-23.617,0-44.914-14.911-52.995-37.104c-3.229-8.887-4.145-18.303-2.816-27.424
					v-45.906c0-6.832,0.546-15.941,4.8-25.821c8.5-19.74,27.943-32.496,49.535-32.496c2.282,0,4.243,0.14,5.625,0.269
					c24.913,0.262,48.094,13.386,61.161,34.53c11.665,17.544,21.588,36.322,29.504,55.838c0.032,0.078,0.063,0.157,0.096,0.236
					c7.364,18.415,5.561,37.879-4.948,53.4c-10.428,15.401-27.488,24.234-46.809,24.235c-0.694,0-1.395-0.011-2.099-0.034h-35.45
					C8927.55,4476.538,8925.681,4476.631,8923.803,4476.631z"/>
				<path fill="#FFFFFF" d="M8922.326,4359.687c0.988,0,2.308,0.281,4.028,0.281c0.279-0.011,0.56-0.017,0.838-0.017
					c7.479,0,14.42,3.989,18.175,10.506c10.021,14.936,18.48,30.864,25.241,47.532c1.828,4.569,0.258,6.591-3.655,6.591
					c-0.298,0-0.609-0.012-0.934-0.035h-40.648c-0.518,0.188-1.048,0.278-1.568,0.278c-1.875,0-3.635-1.158-4.313-3.021
					c-0.456-1.255-0.344-2.647,0.31-3.813v-25.897v-25.896C8919.799,4360.657,8920.491,4359.687,8922.326,4359.687
					 M8922.326,4256.072c-0.005,0-0.01,0-0.015,0c-42.304,0.006-80.421,25.058-97.108,63.824c-8.084,18.779-9.019,35.418-9.019,46.3
					v25.896v16.804c-1.702,16.145,0.237,32.652,5.918,48.288c0.008,0.023,0.017,0.046,0.025,0.069
					c7.744,21.269,21.692,39.292,40.338,52.121c18.128,12.472,39.337,19.064,61.337,19.064c2.601,0,5.192-0.092,7.773-0.277h32.557
					c0.943,0.023,1.885,0.035,2.82,0.035c36.25,0,69.786-17.569,89.711-46.999c12.913-19.074,19.214-41.415,18.219-64.605
					c-0.539-12.567-3.255-25.044-8.07-37.084c-0.063-0.155-0.125-0.31-0.188-0.464c-9.126-22.498-20.539-44.154-33.943-64.406
					c-10.779-17.148-25.637-31.474-43.211-41.617c-17.92-10.343-38.199-16.065-58.853-16.636
					C8928.254,4256.207,8925.488,4256.072,8922.326,4256.072L8922.326,4256.072z"/>
			</g>
			<g>
				<path fill="#F68934" d="M8856.204,4475.37c-24.735,0-38.692-11.922-46.046-21.922c-6.064-8.249-15.083-25.789-7.338-50.58
					c0.28-0.897,0.585-1.788,0.914-2.669c9.103-24.383,21.7-47.251,37.445-67.971c3.313-4.359,7.297-8.167,11.803-11.279
					c13.262-9.162,28.792-14.005,44.91-14.005c3.434,0,6.901,0.227,10.307,0.675c14.447,1.901,27.427,9.798,35.755,21.756
					c7.301,10.482,10.632,22.924,9.993,35.194c1.285,9.859,1.712,19.828,1.269,29.765v20.786
					c1.869,26.485-15.354,51.546-41.879,58.537c-4.311,1.137-8.749,1.712-13.206,1.712H8856.204z"/>
				<path fill="#FFFFFF" d="M8897.892,4358.752c1.182,0,2.367,0.077,3.55,0.232c1.098,1.576,1.098,3.668,0,5.245
					c1.823,9.5,2.483,19.187,1.967,28.847v24.913c0.623,2.442-0.84,4.931-3.277,5.573h-43.927c-4.261,0-5.572,0-3.934-5.245
					c7.325-19.623,17.485-38.067,30.158-54.744C8886.997,4360.418,8892.396,4358.752,8897.892,4358.752 M8897.892,4255.137
					c-0.001,0-0.003,0-0.005,0c-26.681,0.001-52.388,8.017-74.342,23.18c-9.016,6.226-16.985,13.843-23.614,22.566
					c-18.81,24.752-33.859,52.07-44.732,81.197c-0.657,1.762-1.268,3.542-1.828,5.337c-2.647,8.474-4.281,16.601-4.994,24.847
					c-2.226,25.741,4.893,51.266,20.042,71.871c16.941,23.042,42.027,37.936,70.638,41.94c7.863,1.101,14.135,1.101,17.148,1.101
					h43.927c8.909,0,17.781-1.149,26.396-3.418c14.011-3.691,26.935-10.041,38.414-18.872c11.045-8.498,20.229-18.899,27.294-30.915
					c7.064-12.013,11.689-25.091,13.746-38.872c1.083-7.255,1.43-14.524,1.042-21.757v-17.926c0.43-10.977,0.044-21.98-1.146-32.898
					c0.002-0.303,0.004-0.608,0.004-0.912c0-22.224-6.715-43.609-19.417-61.845c-16.658-23.916-42.618-39.709-71.515-43.508
					C8909.313,4255.513,8903.573,4255.137,8897.892,4255.137L8897.892,4255.137z"/>
			</g>
			<g>
				<path fill="#F68934" d="M8921.59,4718.641c-1.347,0-2.711-0.03-4.057-0.089c-17.681-0.773-33.744-10.521-42.596-25.846
					c-6.517-11.282-8.832-24.328-6.946-36.863v-48.71c0-5.829,0-23.568,14.038-39.165c10.878-12.086,25.57-18.215,43.67-18.215
					h19.341c1.947,0,3.891,0.11,5.821,0.328h16.797c22.981,0,36.557,10.825,43.897,19.906c7.396,9.148,15.199,24.79,10.365,47.346
					c-0.57,2.66-1.349,5.271-2.329,7.81c-9.868,25.551-23.6,49.306-40.813,70.607c-5.081,6.288-11.563,11.299-18.928,14.634
					C8947.748,4715.862,8934.876,4718.641,8921.59,4718.641z"/>
				<path fill="#FFFFFF" d="M8945.04,4601.561l1.311,0.328h21.308c3.605,0,4.589,0,3.605,4.589
					c-7.914,20.492-18.974,39.625-32.78,56.71c-5.313,2.405-11.074,3.645-16.894,3.645c-0.597,0-1.193-0.013-1.791-0.039
					c-0.879-1.521-0.879-3.396,0-4.917v-54.744c0-4.589,0-5.573,5.9-5.573H8945.04 M8945.04,4497.946h-19.341
					c-8.348,0-16.032,0.716-23.491,2.189c-22.939,4.531-43.233,16.004-58.689,33.177c-14.565,16.185-23.709,36.297-26.442,58.163
					c-0.893,7.139-0.893,12.893-0.893,15.658v45.639c-2.397,22.527,2.233,45.661,13.892,65.845
					c17.706,30.657,49.841,50.152,85.211,51.694c2.094,0.091,4.214,0.137,6.304,0.137c20.701,0,40.761-4.328,59.62-12.864
					c14.732-6.668,27.7-16.693,37.865-29.272c20.602-25.495,37.035-53.926,48.845-84.503c1.961-5.076,3.519-10.299,4.658-15.62
					c9.599-44.791-8.87-76.097-20.732-90.771c-16.82-20.806-40.799-34.323-67.52-38.061c-7.74-1.083-13.996-1.083-16.668-1.083
					h-14.382C8950.539,4498.055,8947.791,4497.946,8945.04,4497.946L8945.04,4497.946z"/>
			</g>
			<g>
				<path fill="#F68934" d="M8993.005,4477.04c-21.27,0.001-40.565-11.728-50.357-30.609c-1.07-2.063-2-4.196-2.784-6.385
					c-5.388-15.045-12.713-29.352-21.772-42.521c-12.136-17.642-12.168-40.933-0.079-58.607
					c9.794-14.321,25.909-22.564,42.759-22.564c3.946,0,7.933,0.452,11.888,1.384c46.566,10.975,86.621,39.078,112.786,79.131
					c10.401,15.924,11.241,36.266,2.188,52.992s-26.543,27.148-45.563,27.148h-47.197
					C8994.249,4477.029,8993.626,4477.04,8993.005,4477.04z"/>
				<path fill="#FFFFFF" d="M8960.774,4368.163c33.415,7.875,62.521,28.296,81.296,57.038h-48.516
					c-0.186,0.021-0.371,0.031-0.555,0.031c-1.82,0-3.511-1.011-4.362-2.653C8981.738,4403.313,8972.372,4385.023,8960.774,4368.163
					 M8960.768,4264.543c-33.702,0-65.93,16.484-85.52,45.128c-24.176,35.35-24.112,81.931,0.159,117.215
					c6.525,9.486,11.802,19.791,15.683,30.627c1.566,4.373,3.425,8.636,5.563,12.76c9.188,17.72,23.069,32.549,40.144,42.886
					c16.953,10.263,36.388,15.688,56.204,15.688c0.863,0,1.729-0.01,2.595-0.031h46.476c38.038,0,73.019-20.843,91.124-54.296
					c18.106-33.453,16.426-74.138-4.377-105.984c-16.581-25.384-37.573-47.085-62.394-64.499
					c-24.821-17.415-52.37-29.771-81.883-36.726C8976.634,4265.447,8968.657,4264.543,8960.768,4264.543L8960.768,4264.543z"/>
			</g>
			<circle fill="#FFFFFF" cx="8922.155" cy="4524.07" r="246"/>
			<circle fill="#FFFFFF" cx="9458.155" cy="4514.07" r="246"/>
			<circle fill="#FFFFFF" cx="7705.155" cy="3809.07" r="219"/>
			<circle fill="#FFFFFF" cx="9982.155" cy="4494.07" r="246"/>
			<circle fill="#FFFFFF" cx="6358.157" cy="3806.07" r="219"/>
		</g>
		<g>
			<path fill="#FEFEFE" d="M6346.148,3692.87c-12.486,2.796-25.01,5.391-36.621,11.146c-38.021,18.844-60.385,49.162-67.113,91.051
				c-0.15,0.94-0.768,1.804-1.167,2.703c0-33.326,0.097-66.653-0.122-99.977c-0.028-4.205,0.84-5.073,5.046-5.045
				C6279.496,3692.968,6312.822,3692.87,6346.148,3692.87z"/>
			<path fill="#683615" d="M8022.705,4107.973c2.382-0.502,2.825-2.047,3.532-3.349c29.029-53.316,73.978-86.566,131.991-101.628
				c94.546-24.545,185.785-16.7,271.094,33.454c65.068,38.255,106.053,96.48,131.667,166.18
				c24.634,67.031,32.288,136.538,27.974,207.582c-3.414,56.233-14.254,110.832-36.813,162.65
				c-31.933,73.347-82.086,129.441-156.444,161.781c-42.384,18.434-87.247,23.66-132.924,22.032
				c-45.607-1.626-89.904-10.083-131.502-29.84c-38.888-18.469-72.255-43.568-96.018-80.178c-0.866-1.333-1.151-3.503-4.614-3.404
				c0,2.542,0,5.162,0,7.782c0,115.287-0.068,230.573,0.174,345.858c0.013,6.751-1.65,8.212-8.245,8.169
				c-48.393-0.312-96.79-0.296-145.184-0.013c-6.384,0.038-7.801-1.699-7.797-7.943c0.164-326.349,0.167-652.697-0.008-979.046
				c-0.004-6.622,1.469-8.468,8.275-8.418c45.604,0.329,91.213,0.266,136.819,0.047c5.54-0.027,7.317,1.181,7.247,7.056
				c-0.337,27.867-0.174,55.741-0.108,83.613C8021.826,4102.76,8021.068,4105.325,8022.705,4107.973z M8429.319,4380.829
				c-0.053-54.162-7.517-101.003-28.021-144.778c-31.352-66.932-80.37-111.761-157.22-118.241
				c-38.688-3.263-76.288,2.325-111.292,20.3c-39.817,20.449-64.7,54.203-82.212,94.101c-16.06,36.589-22.902,75.317-25.063,114.995
				c-2.906,53.385,1.696,105.897,22.079,155.799c38.725,94.811,126.753,147.598,235.44,119.79
				c56.558-14.472,94.003-53.719,118.631-105.39C8423.122,4472.376,8428.447,4423.967,8429.319,4380.829z"/>
			<path fill="#683615" d="M6720.927,4359.844c0-73.727-0.09-147.454,0.155-221.181c0.022-6.589-1.441-8.448-8.266-8.373
				c-35.466,0.389-70.939,0.068-106.407,0.302c-5.321,0.036-6.777-1.422-6.742-6.736c0.229-35.722,0.229-71.447-0.003-107.169
				c-0.034-5.112,1.541-6.206,6.361-6.18c35.976,0.193,71.955-0.039,107.928,0.251c5.737,0.046,7.124-1.438,7.106-7.107
				c-0.205-67.646-0.04-135.293-0.283-202.938c-0.023-6.318,1.531-7.95,7.886-7.913c48.39,0.285,96.783,0.312,145.172-0.024
				c6.705-0.046,7.614,2.118,7.596,8.072c-0.21,67.393-0.031,134.787-0.299,202.179c-0.026,6.448,1.689,7.781,7.893,7.74
				c43.322-0.293,86.647-0.046,129.97-0.289c5.562-0.031,7.186,1.171,7.136,6.985c-0.304,35.467-0.265,70.938-0.032,106.406
				c0.035,5.334-1.455,6.747-6.756,6.722c-43.576-0.211-87.155,0-130.731-0.26c-5.911-0.036-7.463,1.434-7.455,7.42
				c0.185,128.452,0.119,256.905,0.171,385.357c0.006,13.922,0.681,27.833,2.691,41.635c4.763,32.692,22.207,49.485,54.974,52.391
				c27.585,2.446,55.102,1.508,82.347-3.659c4.151-0.787,4.69,0.183,4.684,3.787c-0.074,38.257-0.078,76.515,0.005,114.771
				c0.008,3.452-1.043,4.804-4.651,5.222c-48.314,5.593-96.641,10.687-145.374,6.062c-27.561-2.616-54.561-7.465-79.922-19.34
				c-40.151-18.798-61.025-51.388-68.289-94.061c-4.512-26.51-6.963-53.146-6.907-80.055
				C6721.017,4486.523,6720.927,4423.184,6720.927,4359.844z"/>
			<path fill="#683615" d="M7264.564,4150.446c3.865-12.994,8.131-25.887,15.215-37.42c39.764-64.736,95.697-106.973,171.363-120.12
				c27.048-4.7,54.522-2.4,81.718,1.461c3.99,0.567,5.324,1.991,5.31,6.183c-0.16,48.137-0.165,96.276-0.003,144.413
				c0.016,4.687-1.264,4.999-5.54,4.393c-26.542-3.76-53.039-7.872-80.067-5.378c-59.783,5.516-105.567,33.982-138.003,84.021
				c-25.189,38.858-36.939,82.228-41.022,127.959c-1.557,17.428-1.547,34.894-1.54,52.37c0.041,106.917-0.046,213.833,0.177,320.749
				c0.014,6.79-1.507,8.724-8.536,8.674c-48.389-0.34-96.781-0.29-145.171-0.037c-6.017,0.031-7.492-1.596-7.488-7.543
				c0.154-237.395,0.154-474.791,0-712.185c-0.004-5.907,1.398-7.557,7.438-7.521c45.603,0.27,91.208,0.253,136.812,0.017
				c5.81-0.031,7.619,1.254,7.576,7.391c-0.297,41.295-0.155,82.593-0.155,123.89c0,2.759,0,5.518,0,8.277
				C7263.286,4150.177,7263.925,4150.311,7264.564,4150.446z"/>
			<path fill="#01ACE1" d="M10206.203,4508.699c1.908,119.775-98.629,225.217-226.029,224.458
				c-123.126-0.735-224.067-101.617-223.746-225.014c0.324-123.994,100.396-225.081,224.688-224.934
				C10114.891,4283.369,10208.694,4393.801,10206.203,4508.699z M9866.861,4373.855c-0.232,0.035-2.537,0.146-4.707,0.745
				c-2.69,0.744-5.866,1.772-6.743,4.442c-0.99,3.012,2.635,3.863,4.393,5.386c8.993,7.792,18.133,15.415,27.224,23.094
				c25.337,21.407,50.634,42.86,76.049,64.173c4.532,3.801,5.18,6.097-0.396,9.951c-19.778,13.674-39.236,27.817-58.66,41.994
				c-3.295,2.404-5.915,2.65-9.674,1.148c-9.379-3.746-18.975-6.955-28.502-10.327c-7.056-2.498-13.981-1.946-20.577,1.476
				c-3.888,2.018-5.096,4.248-0.912,7.863c6.313,5.454,11.872,11.776,18.153,17.271c3.114,2.724,3.394,4.481,1.15,8.04
				c-6.627,10.515-4.201,15.06,7.908,14.729c4.514-0.123,6.225,1.165,7.071,5.438c1.572,7.929,3.83,15.722,5.505,23.633
				c1.142,5.389,3.838,6.02,7.91,3.123c5.536-3.938,9.646-9.052,10.998-15.831c1.928-9.671,3.826-19.365,5.158-29.128
				c0.688-5.051,2.568-7.989,7.442-10.106c21.328-9.262,42.46-18.975,63.668-28.514c8.13-3.657,8.13-3.646,9.734,5.324
				c7.833,43.806,15.645,87.616,23.566,131.406c0.423,2.333-0.584,6.026,2.006,6.731c3.274,0.891,6.197-1.646,8.457-4.085
				c6.046-6.528,7.076-14.87,8.18-23.189c6.487-48.902,13.1-97.788,19.364-146.717c0.572-4.466,2.669-6.605,6.014-8.698
				c16.949-10.601,33.74-21.459,50.772-31.924c7.375-4.53,11.656-11.067,14.17-18.968c2.89-9.084-1.357-16.779-10.603-19.346
				c-8.115-2.253-15.941-1.58-23.472,2.557c-17.291,9.497-34.798,18.608-51.916,28.403c-5.004,2.862-8.995,2.813-14.069,0.696
				c-45.958-19.169-91.999-38.134-138.016-57.164C9878.816,4375.542,9874.104,4373.691,9866.861,4373.855z"/>
			<path fill="#B4A97E" d="M6440.578,4373.914c0,118.049,0.001,236.098,0,354.147c-0.001,9.657-0.009,9.663-9.958,9.664
				c-47.118,0.002-94.238-0.116-141.354,0.133c-6.648,0.036-9.071-1.333-9.064-8.662c0.204-236.858,0.191-473.717,0.043-710.576
				c-0.004-6.138,1.388-8.19,7.879-8.153c48.13,0.272,96.263,0.309,144.393-0.032c7.004-0.049,8.207,2.174,8.197,8.57
				C6440.529,4137.309,6440.578,4255.611,6440.578,4373.914z"/>
			<path fill="#683615" d="M7623.988,4373.843c0-118.284,0.068-236.568-0.17-354.852c-0.014-7.058,1.951-8.58,8.72-8.538
				c48.375,0.3,96.754,0.263,145.13,0.022c5.637-0.028,7.083,1.297,7.079,7.027c-0.16,237.834-0.157,475.668-0.015,713.502
				c0.002,5.56-1.229,7.225-7.037,7.195c-48.629-0.25-97.261-0.263-145.891,0.004c-6.343,0.035-7.965-1.688-7.955-7.989
				C7624.038,4611.424,7623.988,4492.634,7623.988,4373.843z"/>
			<path fill="#F9A635" d="M9446.374,4732.978c-124.482-0.003-225.191-100.6-224.688-225.321
				c0.495-122.747,97.985-224.354,225.084-224.395c125.313-0.042,225.125,99.63,224.981,225.164
				C9671.6,4638.896,9565.058,4734.282,9446.374,4732.978z M9585.919,4508.735c0-39.009,0.017-78.016-0.01-117.024
				c-0.01-14.814-7.534-22.272-22.489-22.293c-25.582-0.036-51.165-0.051-76.748,0.006c-14.297,0.032-22.124,7.763-22.134,22.077
				c-0.053,77.763-0.054,155.525,0,233.287c0.01,14.441,8.129,22.517,22.7,22.583c25.33,0.116,50.661,0.137,75.989-0.007
				c15.226-0.087,22.675-7.829,22.684-23.126C9585.934,4585.736,9585.919,4547.235,9585.919,4508.735z M9307.497,4572.439
				c0,17.735-0.11,35.471,0.037,53.205c0.11,13.397,7.856,21.565,21.069,21.685c26.347,0.236,52.699,0.263,79.045-0.013
				c13.404-0.139,21.049-8.202,21.087-21.65c0.104-35.469,0.096-70.939,0.006-106.409c-0.037-14.37-7.795-21.902-22.225-21.917
				c-25.336-0.029-50.671-0.017-76.007-0.005c-15.387,0.007-22.901,7.33-22.993,22.661
				C9307.413,4537.476,9307.493,4554.958,9307.497,4572.439z"/>
			<path fill="#F58934" d="M8911.372,4734.066c-120.729-0.016-224.916-96.579-224.615-225.524
				c0.307-131.465,108.915-227.339,230.248-224.446c117.511,2.802,219.671,98.109,219.805,225.848
				C9136.938,4633.477,9035.568,4734.066,8911.372,4734.066z M8911.799,4688.666c98.139,0,179.748-80.177,179.789-176.629
				c0.042-101.69-79.873-183.067-179.803-183.091c-98.501-0.023-179.969,81.467-180.047,180.095
				C8731.661,4607.907,8812.617,4688.667,8911.799,4688.666z"/>
			<path fill="#F9A635" d="M9551.341,4588.33c-18.419,0-18.419,0-18.418-16.464c0.001-16.435,0.001-16.367,16.419-16.451
				c21.874-0.112,20.099-0.917,20.07,20.088c-0.018,12.399-0.436,12.821-12.774,12.827
				C9554.872,4588.33,9553.106,4588.33,9551.341,4588.33z"/>
			<path fill="#F9A635" d="M9551.404,4630.898c-18.488,0-18.488,0-18.481-18.209c0.005-14.298,0.432-14.629,15.994-14.704
				c21.864-0.104,20.58-1.022,20.504,19.071c-0.053,13.627-0.233,13.84-14.217,13.842
				C9553.938,4630.898,9552.671,4630.898,9551.404,4630.898z"/>
			<path fill="#F9A635" d="M9498.653,4630.897c-17.422,0.001-17.422,0.001-17.421-17.31c0.001-2.782-0.098-5.57,0.044-8.346
				c0.229-4.491,2.706-7.066,7.19-7.169c7.079-0.162,14.166-0.162,21.244-0.013c4.796,0.102,7.499,2.684,7.554,7.616
				c0.06,5.311-0.177,10.633,0.073,15.933c0.325,6.905-2.856,9.755-9.581,9.321
				C9504.734,4630.735,9501.688,4630.897,9498.653,4630.897z"/>
			<path fill="#F9A635" d="M9499.304,4588.327c-18.627,0.085-18.299,1.74-18.074-18.125c0.029-2.533-0.115-5.076,0.055-7.598
				c0.301-4.469,2.778-7.029,7.283-7.112c7.091-0.132,14.187-0.119,21.277-0.011c4.489,0.069,7.197,2.529,7.356,7.014
				c0.227,6.325,0.174,12.667,0.031,18.997c-0.103,4.588-2.662,6.879-7.289,6.839
				C9506.398,4588.301,9502.851,4588.324,9499.304,4588.327z"/>
			<path fill="#F9A635" d="M9551.11,4545.978c-18.193,0-18.194,0-18.188-18.377c0.006-14.188,0.6-14.665,15.899-14.755
				c22.289-0.132,20.645-0.838,20.594,19.6c-0.031,13.015-0.532,13.526-13.765,13.533
				C9554.137,4545.979,9552.624,4545.978,9551.11,4545.978z"/>
			<path fill="#F9A635" d="M9499.128,4545.978c-17.896,0-17.896,0-17.894-17.753c0.001-2.787-0.09-5.58,0.06-8.358
				c0.224-4.171,2.614-6.712,6.692-6.857c7.337-0.262,14.693-0.249,22.033-0.049c4.875,0.132,7.265,3.039,7.262,7.907
				c-0.003,4.813,0.028,9.627,0.002,14.44c-0.05,9.145-1.463,10.566-10.555,10.666
				C9504.195,4546,9501.661,4545.978,9499.128,4545.978z"/>
			<path fill="#F9A635" d="M9551.291,4503.409c-18.375,0-18.375,0-18.369-18.396c0.006-14.055,0.731-14.611,16.101-14.744
				c22.18-0.192,20.445-0.22,20.394,19.294c-0.034,13.346-0.493,13.837-13.564,13.846
				C9554.331,4503.41,9552.812,4503.409,9551.291,4503.409z"/>
			<path fill="#F9A635" d="M9498.815,4418.272c-17.584,0-17.584,0-17.583-17.938c0-14.55,0.637-15.024,15.433-15.212
				c23.858-0.303,20.521,0.977,20.612,20.649c0.056,11.863-0.612,12.483-12.389,12.501
				C9502.864,4418.275,9500.84,4418.272,9498.815,4418.272z"/>
			<path fill="#F9A635" d="M9499.236,4460.841c-18.486,0.094-18.188,1.481-18.026-18.267c0.116-14.177,0.698-14.72,15.021-14.877
				c23.901-0.263,21.018,0.383,21.053,20.984c0.02,11.349-0.783,12.136-11.973,12.158
				C9503.285,4460.844,9501.261,4460.841,9499.236,4460.841z"/>
			<path fill="#F9A635" d="M9499.37,4503.409c-18.139,0-18.139,0-18.138-17.475c0-15.523,0.124-15.64,16.403-15.64
				c19.654,0,19.654,0,19.653,18.457c0,14.658,0,14.658-14.885,14.658C9501.393,4503.409,9500.381,4503.409,9499.37,4503.409z"/>
			<path fill="#F9A635" d="M9550.846,4418.272c-17.921,0-17.921,0-17.923-16.43c-0.001-16.314,0.383-16.686,17.25-16.686
				c19.246,0,19.246,0,19.238,19.066c-0.005,13.847-0.202,14.045-14.007,14.049
				C9553.885,4418.273,9552.365,4418.272,9550.846,4418.272z"/>
			<path fill="#F9A635" d="M9550.522,4460.841c-17.598,0-17.598,0-17.6-15.945c-0.002-16.932,0.242-17.171,17.555-17.171
				c18.938,0,18.938,0,18.934,18.681c-0.002,14.434-0.002,14.434-14.331,14.435
				C9553.562,4460.841,9552.042,4460.841,9550.522,4460.841z"/>
			<path fill="#F9A635" d="M9393.536,4630.898c-17.42,0-17.42,0-17.42-17.197c0-2.019,0.16-4.054-0.029-6.054
				c-0.646-6.799,2.417-9.847,9.177-9.683c6.053,0.147,12.114,0.101,18.17,0.013c6.434-0.093,9.143,3.158,8.979,9.381
				c-0.119,4.54-0.175,9.092,0.013,13.626c0.284,6.932-2.501,10.512-9.808,9.952
				C9399.608,4630.706,9396.564,4630.898,9393.536,4630.898z"/>
			<path fill="#F9A635" d="M9341.818,4588.548c-18.72,0.085-17.728,1.376-17.611-17.551c0.014-2.269,0.132-4.546-0.021-6.805
				c-0.357-5.305,2.193-8.273,7.324-8.496c7.042-0.306,14.109-0.313,21.156-0.12c4.757,0.13,7.386,3.022,7.588,7.741
				c0.204,4.781,0.144,9.577,0.105,14.365c-0.076,9.515-1.424,10.824-10.979,10.863
				C9346.86,4588.557,9344.34,4588.547,9341.818,4588.548z"/>
			<path fill="#F9A635" d="M9393.511,4546.74c-17.395,0-17.395,0-17.395-17.517c0-2.274,0.104-4.554-0.019-6.821
				c-0.322-6.002,2.303-8.954,8.465-8.811c6.313,0.146,12.638,0.177,18.949-0.011c6.572-0.196,9.127,3.057,8.906,9.295
				c-0.144,4.038-0.016,8.085-0.029,12.128c-0.034,10.006-1.731,11.657-12.055,11.734
				C9398.06,4546.754,9395.786,4546.74,9393.511,4546.74z"/>
			<path fill="#F9A635" d="M9341.842,4546.74c-17.633,0-17.633,0-17.633-17.317c0-2.026,0.137-4.064-0.024-6.078
				c-0.58-7.251,2.796-10.171,9.915-9.787c5.558,0.301,11.16,0.328,16.714-0.007c7.028-0.423,9.67,3.053,9.56,9.542
				c-0.03,1.773-0.002,3.547-0.002,5.32C9360.374,4546.74,9360.374,4546.74,9341.842,4546.74z"/>
			<path fill="#F9A635" d="M9393.852,4588.548c-18.895,0.156-17.895,1.035-17.738-17.526c0.02-2.273,0.123-4.553-0.019-6.817
				c-0.336-5.348,2.438-8.271,7.43-8.538c7.048-0.377,14.14-0.379,21.193-0.074c5.035,0.218,7.713,3.284,7.672,8.47
				c-0.016,2.02-0.026,4.041,0.005,6.06C9412.711,4590.796,9412.347,4588.526,9393.852,4588.548z"/>
			<path fill="#F9A635" d="M9341.795,4630.898c-17.587,0-17.587,0-17.586-17.851c0-2.273,0.088-4.549-0.011-6.818
				c-0.233-5.341,2.369-8.088,7.607-8.177c6.815-0.116,13.635-0.05,20.453-0.018c5.295,0.024,7.775,2.974,8.054,8.028
				c0.111,2.015,0.055,4.04,0.055,6.059C9360.38,4630.898,9360.38,4630.898,9341.795,4630.898z"/>
			<path fill="#F58934" d="M8953.301,4515.573c9.622,0.001,19.245,0.104,28.865-0.053c3.569-0.059,4.885,1.001,4.669,4.793
				c-1.124,19.75-3.863,39.221-9.13,58.318c-0.826,2.998-2.561,3.904-5.515,3.887c-15.952-0.091-31.906-0.133-47.856,0.02
				c-3.863,0.037-4.601-1.693-4.583-5.051c0.098-18.991,0.146-37.983-0.027-56.973c-0.039-4.221,1.76-5.073,5.471-5.001
				C8934.561,4515.692,8943.932,4515.572,8953.301,4515.573z"/>
			<path fill="#F58934" d="M8953.134,4501.677c-9.112,0-18.232-0.215-27.334,0.091c-4.492,0.15-6.194-0.945-6.119-5.829
				c0.282-18.474,0.247-36.956,0.019-55.432c-0.057-4.585,1.186-6.152,5.947-6.063c15.182,0.284,30.374,0.203,45.561,0.038
				c3.905-0.043,5.727,1.101,6.82,5.135c4.922,18.145,7.264,36.642,8.77,55.318c0.414,5.145-0.719,7.168-6.332,6.872
				C8971.378,4501.327,8962.246,4501.677,8953.134,4501.677z"/>
			<path fill="#F58934" d="M8903.527,4549.58c0,9.351-0.106,18.703,0.055,28.051c0.06,3.5-1.023,4.936-4.72,4.903
				c-15.92-0.143-31.844-0.171-47.763,0.012c-4.226,0.048-4.793-2.585-5.674-5.607c-5.334-18.289-7.229-37.104-8.809-55.979
				c-0.311-3.708,0.709-5.501,4.926-5.463c18.953,0.173,37.909,0.165,56.862,0.003c4.005-0.034,5.269,1.381,5.188,5.27
				C8903.396,4530.37,8903.529,4539.976,8903.527,4549.58z"/>
			<path fill="#F58934" d="M8903.532,4468.016c0,9.35-0.17,18.703,0.077,28.046c0.109,4.127-0.964,5.759-5.429,5.706
				c-18.695-0.22-37.397-0.207-56.094-0.006c-4.313,0.046-5.866-1.264-5.493-5.595c1.629-18.868,3.693-37.638,8.704-56
				c1.135-4.16,2.742-5.781,7.142-5.71c14.905,0.239,29.818,0.262,44.722-0.007c4.823-0.087,6.698,1.163,6.479,6.281
				C8903.254,4449.811,8903.532,4458.919,8903.532,4468.016z"/>
			<path fill="#F58934" d="M8787.574,4501.675c-9.102-0.001-18.205-0.125-27.303,0.059c-3.66,0.074-4.806-1.137-4.57-4.835
				c1.331-20.993,7.082-40.683,16.759-59.309c1.253-2.414,2.981-3.069,5.474-3.062c15.928,0.049,31.856,0.113,47.782-0.041
				c4.025-0.039,4.445,1.189,3.478,4.864c-4.708,17.868-7.947,35.998-8.234,54.54c-0.087,5.658-1.82,8.494-8.369,7.951
				C8804.305,4501.156,8795.917,4501.677,8787.574,4501.675z"/>
			<path fill="#F58934" d="M8787.788,4515.57c8.848,0,17.699,0.151,26.543-0.069c3.936-0.097,6.04,0.782,6.231,5.242
				c0.844,19.726,3.552,39.202,8.821,58.259c0.858,3.106-0.544,3.468-2.917,3.467c-16.432-0.002-32.864-0.042-49.296,0.058
				c-2.803,0.018-4-1.521-5.107-3.653c-9.316-17.932-14.636-36.958-16.359-57.103c-0.462-5.407,1.553-6.438,6.301-6.282
				C8770.591,4515.773,8779.193,4515.57,8787.788,4515.57z"/>
			<path fill="#F58934" d="M9021.848,4582.479c-7.582-0.002-15.167-0.143-22.744,0.056c-3.871,0.101-5.711-0.852-4.562-5.106
				c5.091-18.843,7.627-38.079,8.498-57.546c0.146-3.256,1.569-4.353,4.697-4.341c18.449,0.073,36.901,0.109,55.35-0.029
				c3.78-0.029,4.83,1.523,4.637,4.981c-1.156,20.741-6.91,40.166-16.352,58.6c-1.544,3.016-3.749,3.508-6.777,3.442
				C9037.016,4582.371,9029.43,4582.481,9021.848,4582.479z"/>
			<path fill="#F58934" d="M8993.233,4434.562c18.079,0,35.524,0.03,52.97-0.032c2.736-0.009,3.969,1.456,5.113,3.66
				c9.33,17.972,14.846,36.983,16.388,57.211c0.389,5.103-1.236,6.458-6.207,6.381c-17.477-0.269-34.959-0.119-52.439-0.091
				c-3.146,0.005-5.893,0.303-6.073-4.405C9002.179,4476.273,8998.917,4455.591,8993.233,4434.562z"/>
			<path fill="#F58934" d="M8919.794,4387.538c0-8.606,0.305-17.228-0.113-25.814c-0.256-5.271,1.772-6.176,6.542-6.046
				c8.176,0.224,14.023,2.963,18.774,10.167c10.066,15.267,18.892,31.061,25.598,48.091c1.957,4.972,1.434,6.774-4.303,6.668
				c-13.664-0.253-27.339-0.225-41.005-0.001c-4.386,0.071-5.688-1.5-5.569-5.729
				C8919.969,4405.769,8919.795,4396.65,8919.794,4387.538z"/>
			<path fill="#F58934" d="M8903.531,4388.419c0,8.848-0.191,17.702,0.082,26.542c0.134,4.333-1.373,5.702-5.649,5.638
				c-13.901-0.208-27.808-0.139-41.712-0.041c-4.054,0.029-5.534-0.929-3.859-5.302c7.549-19.706,17.51-38.042,30.408-54.752
				c2.46-3.187,15.557-6.192,19.008-4.636c2.564,1.156,1.655,3.424,1.675,5.248
				C8903.587,4370.216,8903.531,4379.319,8903.531,4388.419z"/>
			<path fill="#F58934" d="M8946.718,4597.451c7.085,0.002,14.172,0.122,21.253-0.047c3.568-0.085,4.567,1.211,3.338,4.476
				c-7.708,20.484-17.922,39.582-31.483,56.813c-1.482,1.884-17.062,4.719-18.741,3.569c-1.771-1.211-1.265-3.162-1.268-4.856
				c-0.033-18.217,0.115-36.436-0.117-54.65c-0.057-4.544,1.691-5.53,5.769-5.379
				C8932.542,4597.638,8939.634,4597.449,8946.718,4597.451z"/>
			<path fill="#F58934" d="M8903.533,4630.481c0,8.339-0.243,16.687,0.087,25.013c0.213,5.34-0.618,7.005-6.974,6.776
				c-9.317-0.338-14.472-4.685-19.248-11.859c-9.696-14.569-17.738-29.898-24.354-46.085c-2.479-6.068-0.891-7.167,5.092-6.995
				c13.129,0.376,26.28,0.288,39.415,0.023c4.5-0.091,6.29,0.981,6.088,5.841
				C8903.264,4612.277,8903.532,4621.384,8903.533,4630.481z"/>
			<path fill="#F58934" d="M9041.899,4420.511c-16.945,0-32.804-0.025-48.662,0.022c-2.77,0.009-3.947-1.462-4.8-3.873
				c-6.751-19.099-16.03-36.941-27.495-53.899C8981.792,4362.112,9028.845,4395.444,9041.899,4420.511z"/>
			<path fill="#F58934" d="M8863.146,4361.964c-12.098,17.748-21.313,35.621-28.098,54.689c-1.026,2.883-2.646,3.91-5.568,3.897
				c-15.611-0.069-31.223-0.033-46.986-0.033C8788.642,4400.182,8834.309,4366.777,8863.146,4361.964z"/>
			<path fill="#F58934" d="M8959.669,4657.34c12.573-18.901,22.127-36.909,28.848-56.32c0.856-2.472,2.198-3.627,4.949-3.611
				c15.87,0.092,31.74,0.045,49.373,0.045C9021.786,4627.128,8995.277,4646.433,8959.669,4657.34z"/>
			<path fill="#F58934" d="M8862.005,4656.014c-33.783-9.64-60.218-28.916-81.405-58.538c17.737,0,33.987,0.014,50.236-0.018
				c2.114-0.004,3.217,1.062,3.865,2.914C8841.566,4619.973,8851.107,4638.25,8862.005,4656.014z"/>
			<circle fill="#683615" cx="7705.122" cy="3810.053" r="119.167"/>
			<circle fill="#B4A97E" cx="6354.042" cy="3810.053" r="119.167"/>
		</g>
	</g>
</g>
</svg>
