<svg width="1475" height="373" viewBox="0 0 1475 373" fill="none" xmlns="http://www.w3.org/2000/svg">
<path d="M322.65 0.679993C309.37 0.679993 298.6 11.45 298.6 24.73C298.6 24.8 298.61 24.87 298.61 24.94L230.65 58.38L203.79 71.6L177.88 84.35L48.98 22.8C47.99 10.42 37.64 0.679993 25.01 0.679993C11.73 0.679993 0.960022 11.45 0.960022 24.73C0.960022 38.01 11.73 48.78 25.01 48.78C30.08 48.78 34.79 47.2 38.67 44.52L150.39 97.86L124.52 110.59L25 65.03V91.48L124.88 137.21L310.89 45.7C314.37 47.66 318.38 48.78 322.66 48.78C335.94 48.78 346.71 38.01 346.71 24.73C346.7 11.45 335.93 0.679993 322.65 0.679993Z" fill="#2C2E35"/>
<path d="M135.55 162.87V244.49L159.6 258.16V178.03L180.94 167.83V261.38C173.75 265.54 168.91 273.3 168.91 282.2C168.91 295.48 179.68 306.25 192.96 306.25C206.24 306.25 217.01 295.48 217.01 282.2C217.01 273.3 212.17 265.53 204.99 261.38V156.34L229.82 144.47V253.27L253.87 237.7V132.97L329.9 96.63V69.97L135.55 162.87Z" fill="#641232"/>
<path d="M1473 200C1452.96 200 1389.61 200 1372 200C1372.21 213.97 1375.01 226.18 1386.74 233.36C1398.44 240.52 1412.17 240.5 1421.77 231.54C1431.31 222.63 1441.33 221.01 1451.99 221.01C1457.99 221.01 1462.99 221.01 1468.99 221.01C1468.57 242.35 1449.55 264.84 1425.02 268.81C1413.56 270.66 1401.41 270.74 1389.63 269.43C1386.21 269.05 1352.99 265.01 1338.2 230.88C1330.6 209.42 1328.98 187.74 1333.28 166.15C1333.8 163.54 1336.21 145.46 1347.28 132.02C1348.2 130.91 1349.17 129.82 1350.22 128.78C1351.5 127.51 1352.8 126.32 1354.12 125.21C1361.87 118.7 1369.93 115.04 1373.87 113.72C1391.03 107.98 1408.48 107.5 1425.89 111.7C1447.6 116.94 1462.56 130.54 1468.31 151.86C1472 166 1473 183 1473 200ZM1430.98 172.93C1431.34 153.04 1419.61 140.6 1402.07 140.86C1384.84 141.11 1373.46 153.76 1373.81 172.93C1392.64 172.93 1411.48 172.93 1430.98 172.93Z" fill="#2E2E2E"/>
<path d="M1307.53 159.98C1299.55 159.98 1283 160 1282 160C1275 160 1271.06 155.35 1268.15 151.66C1259.1 140.22 1238.44 135.45 1225.69 142.74C1217.58 147.38 1217.17 157.02 1225.78 162.11C1231.95 165.75 1239.23 167.73 1246.21 169.78C1259.55 173.71 1273.24 176.56 1286.41 180.98C1302.72 186.45 1313.09 197.69 1314.12 215.44C1315.22 234.23 1309.61 250.91 1292.19 260.02C1263.67 274.95 1233.51 275.14 1203.84 263.75C1188.23 257.76 1178.94 245.14 1176.25 228.14C1176.12 227.33 1175.93 225.11 1175.94 224.55C1175.95 223.8 1175.98 222.94 1176.04 222.36C1176.06 222.14 1176.19 221.65 1176.22 221.56C1177.19 218.85 1179.79 216.94 1185.59 216.97C1186.89 216.98 1201.51 217 1202.01 216.99C1209.24 216.83 1214.72 217.92 1218.39 227.21C1223.89 241.12 1258.37 245.3 1269.57 234.85C1276.15 228.72 1275.01 219.02 1265.83 215.33C1254.37 210.72 1230.16 204.65 1230.16 204.65C1230.16 204.65 1211.68 199.71 1203.16 195.73C1187.46 188.38 1179.4 175.31 1179.76 157.99C1180.13 140.27 1187.53 125.85 1204.01 118.01C1229.98 105.64 1256.58 105.63 1282.67 117.69C1299.51 125.5 1308.87 142.02 1307.53 159.98Z" fill="#2E2E2E"/>
<path d="M647 152C649 133 660.96 116.23 683.05 111.57C703.84 107.19 724.62 107.83 744.83 114.98C763.08 121.43 772.13 133.64 772.49 152.84C772.85 171.79 773.03 190.76 772.43 209.69C771.43 241.47 754.85 261.75 723.33 267.91C709.9 270.54 695.59 271.23 681.98 269.86C656.78 267.33 641.56 250.15 640.01 225.65C638.46 201.15 650.5 183.77 675.16 176.96C687.1 173.66 699.58 172.31 711.84 170.18C726.61 167.61 734.35 162.09 733.78 154.33C733.36 148.62 729.14 144.84 721.86 142.49C718.29 141.34 705.01 139.01 696.46 141.04C685.5 143.64 680 152 680 152C680 152 657.75 152 647 152ZM735.9 189.8C720.81 193.72 708.82 196.83 696.84 199.97C695.43 200.34 694.04 200.82 692.7 201.39C683.88 205.16 678.11 211.3 678.5 221.34C678.81 229.13 682.01 235.36 690.01 238.28C705.4 243.9 725.82 235.69 731.09 220.24C734.15 211.27 734.21 201.28 735.9 189.8Z" fill="#2E2E2E"/>
<path d="M475.63 267.58C461.1 267.58 448.74 267.58 435.17 267.58C435.17 212.62 435.17 158.13 435.17 102.11C414.85 102.11 395.65 102.11 376.85 102.11C371.38 77.48 379.97 67.03 403 67C443.32 66.96 531 67 535 67C535 78.33 535 89.64 535 102C519.24 102 504 102 488 102C478.41 102 475.32 104.04 475.42 113.83C475.9 160.47 475.63 262.32 475.63 267.58Z" fill="#2E2E2E"/>
<path d="M784 112H820.61C821.5 112 826.59 112.93 829.58 119.99C829.7 120.27 860 218 860.37 217.29C862.37 211.32 880.28 151.75 886.89 127.84C890.13 116.12 897.19 112 909 112C917 112 925.98 112 935 112C934.88 114.27 899.59 215.29 884.12 259.59C882.29 264.83 879.39 267.19 875.18 267.97C875.12 267.98 875.01 268 875.01 268H856.01C856.01 268 855.34 267.97 855.01 267.95C838.77 267.03 837.36 262.26 828.94 238.34C818.2 207.84 789.56 126.93 789.56 126.93L784 112Z" fill="#2E2E2E"/>
<path d="M948 112H984.61C985.5 112 990.59 112.93 993.58 119.99C993.7 120.27 1024 218 1024.37 217.29C1026.37 211.32 1044.28 151.75 1050.89 127.84C1054.13 116.12 1061.19 112 1073 112C1081 112 1089.98 112 1099 112C1098.88 114.27 1063.59 215.29 1048.12 259.59C1046.29 264.83 1043.39 267.19 1039.18 267.97C1039.12 267.98 1039.01 268 1039.01 268H1020.01C1020.01 268 1019.34 267.97 1019.01 267.95C1002.77 267.03 1001.36 262.26 992.94 238.34C982.2 207.84 953.56 126.93 953.56 126.93L948 112Z" fill="#2E2E2E"/>
<path d="M576.83 267.47H538.58L538.38 225.07C538.38 225.07 538.43 187.01 540.58 168.22C545.06 129.1 582.44 105.56 623.13 112.76C623.13 125.14 622.99 138.5 622.99 151.99C618.99 151.99 615.54 151.9 611.99 151.99C590.7 152.55 579.92 161.1 577.83 180.24C577.62 182.16 577.3 197.89 577.3 197.89L576.83 267.47Z" fill="#2E2E2E"/>
<path d="M1117.36 268.06C1117.36 248.77 1117.36 231.34 1117.36 213.9C1117.36 184.38 1117.35 154.85 1117.36 125.33C1117.36 113.47 1117.09 112.25 1125.99 112C1127.58 111.96 1138.88 111.99 1138.99 112C1151.24 113.09 1156.26 118.2 1156.4 131.61C1156.67 157.12 1156.5 182.64 1156.51 208.15C1156.51 224.92 1156.3 241.69 1156.6 258.45C1156.72 265.18 1155.03 268.32 1147.42 268.19C1137 268 1128.51 268.06 1117.36 268.06Z" fill="#2E2E2E"/>
<path d="M1117.87 96.1C1117.87 86.45 1117.87 77.53 1117.87 68.71C1153.11 62.11 1159.46 72.66 1155.42 96.1C1143.45 96.1 1131.29 96.1 1117.87 96.1Z" fill="#2E2E2E"/>
<path d="M1172.41 319.221C1172.41 314.393 1173.52 310.062 1175.75 306.228C1178.02 302.394 1181.07 299.412 1184.91 297.282C1188.79 295.105 1193.02 294.016 1197.62 294.016C1202.87 294.016 1207.53 295.318 1211.6 297.921C1215.72 300.477 1218.7 304.122 1220.55 308.855H1210.82C1209.54 306.252 1207.77 304.311 1205.5 303.033C1203.22 301.755 1200.6 301.116 1197.62 301.116C1194.35 301.116 1191.44 301.85 1188.88 303.317C1186.33 304.784 1184.31 306.891 1182.85 309.636C1181.43 312.381 1180.72 315.576 1180.72 319.221C1180.72 322.866 1181.43 326.061 1182.85 328.806C1184.31 331.551 1186.33 333.681 1188.88 335.196C1191.44 336.663 1194.35 337.397 1197.62 337.397C1200.6 337.397 1203.22 336.758 1205.5 335.48C1207.77 334.202 1209.54 332.261 1210.82 329.658H1220.55C1218.7 334.391 1215.72 338.036 1211.6 340.592C1207.53 343.148 1202.87 344.426 1197.62 344.426C1192.98 344.426 1188.74 343.361 1184.91 341.231C1181.07 339.054 1178.02 336.048 1175.75 332.214C1173.52 328.38 1172.41 324.049 1172.41 319.221ZM1246.99 344.639C1243.3 344.639 1239.96 343.811 1236.98 342.154C1234 340.45 1231.66 338.083 1229.95 335.054C1228.25 331.977 1227.4 328.427 1227.4 324.404C1227.4 320.428 1228.27 316.902 1230.02 313.825C1231.77 310.748 1234.16 308.382 1237.19 306.725C1240.22 305.068 1243.61 304.24 1247.35 304.24C1251.09 304.24 1254.47 305.068 1257.5 306.725C1260.53 308.382 1262.92 310.748 1264.67 313.825C1266.42 316.902 1267.3 320.428 1267.3 324.404C1267.3 328.38 1266.4 331.906 1264.6 334.983C1262.8 338.06 1260.34 340.45 1257.22 342.154C1254.14 343.811 1250.73 344.639 1246.99 344.639ZM1246.99 337.61C1249.07 337.61 1251.01 337.113 1252.81 336.119C1254.66 335.125 1256.15 333.634 1257.29 331.646C1258.42 329.658 1258.99 327.244 1258.99 324.404C1258.99 321.564 1258.45 319.174 1257.36 317.233C1256.27 315.245 1254.82 313.754 1253.03 312.76C1251.23 311.766 1249.29 311.269 1247.2 311.269C1245.12 311.269 1243.18 311.766 1241.38 312.76C1239.63 313.754 1238.23 315.245 1237.19 317.233C1236.15 319.174 1235.63 321.564 1235.63 324.404C1235.63 328.617 1236.7 331.883 1238.83 334.202C1241 336.474 1243.73 337.61 1246.99 337.61ZM1295.04 304.24C1298.11 304.24 1300.86 304.879 1303.27 306.157C1305.73 307.435 1307.65 309.328 1309.02 311.837C1310.4 314.346 1311.08 317.375 1311.08 320.925V344H1303.06V322.132C1303.06 318.629 1302.18 315.955 1300.43 314.109C1298.68 312.216 1296.29 311.269 1293.26 311.269C1290.23 311.269 1287.82 312.216 1286.02 314.109C1284.27 315.955 1283.39 318.629 1283.39 322.132V344H1275.3V304.879H1283.39V309.352C1284.72 307.743 1286.4 306.488 1288.43 305.589C1290.52 304.69 1292.72 304.24 1295.04 304.24ZM1341.15 304.24C1344.22 304.24 1346.97 304.879 1349.38 306.157C1351.84 307.435 1353.76 309.328 1355.13 311.837C1356.5 314.346 1357.19 317.375 1357.19 320.925V344H1349.17V322.132C1349.17 318.629 1348.29 315.955 1346.54 314.109C1344.79 312.216 1342.4 311.269 1339.37 311.269C1336.34 311.269 1333.93 312.216 1332.13 314.109C1330.38 315.955 1329.5 318.629 1329.5 322.132V344H1321.41V304.879H1329.5V309.352C1330.83 307.743 1332.51 306.488 1334.54 305.589C1336.62 304.69 1338.83 304.24 1341.15 304.24ZM1403.37 323.481C1403.37 324.948 1403.28 326.274 1403.09 327.457H1373.2C1373.43 330.581 1374.59 333.09 1376.67 334.983C1378.76 336.876 1381.31 337.823 1384.34 337.823C1388.7 337.823 1391.77 336.001 1393.57 332.356H1402.31C1401.12 335.953 1398.97 338.912 1395.84 341.231C1392.77 343.503 1388.93 344.639 1384.34 344.639C1380.6 344.639 1377.24 343.811 1374.26 342.154C1371.33 340.45 1369.01 338.083 1367.3 335.054C1365.65 331.977 1364.82 328.427 1364.82 324.404C1364.82 320.381 1365.62 316.854 1367.23 313.825C1368.89 310.748 1371.18 308.382 1374.12 306.725C1377.1 305.068 1380.51 304.24 1384.34 304.24C1388.03 304.24 1391.32 305.045 1394.21 306.654C1397.1 308.263 1399.35 310.535 1400.96 313.47C1402.57 316.357 1403.37 319.694 1403.37 323.481ZM1394.92 320.925C1394.87 317.943 1393.81 315.553 1391.73 313.754C1389.64 311.955 1387.06 311.056 1383.99 311.056C1381.19 311.056 1378.8 311.955 1376.82 313.754C1374.83 315.505 1373.65 317.896 1373.27 320.925H1394.92ZM1408.64 324.404C1408.64 320.381 1409.44 316.854 1411.05 313.825C1412.71 310.748 1414.98 308.382 1417.87 306.725C1420.76 305.068 1424.07 304.24 1427.81 304.24C1432.54 304.24 1436.45 305.376 1439.52 307.648C1442.65 309.873 1444.75 313.068 1445.84 317.233H1437.11C1436.4 315.292 1435.26 313.778 1433.7 312.689C1432.14 311.6 1430.17 311.056 1427.81 311.056C1424.49 311.056 1421.84 312.239 1419.86 314.606C1417.92 316.925 1416.94 320.191 1416.94 324.404C1416.94 328.617 1417.92 331.906 1419.86 334.273C1421.84 336.64 1424.49 337.823 1427.81 337.823C1432.49 337.823 1435.59 335.764 1437.11 331.646H1445.84C1444.71 335.622 1442.58 338.793 1439.45 341.16C1436.33 343.479 1432.45 344.639 1427.81 344.639C1424.07 344.639 1420.76 343.811 1417.87 342.154C1414.98 340.45 1412.71 338.083 1411.05 335.054C1409.44 331.977 1408.64 328.427 1408.64 324.404ZM1463.35 311.482V333.137C1463.35 334.604 1463.68 335.669 1464.35 336.332C1465.06 336.947 1466.24 337.255 1467.9 337.255H1472.87V344H1466.48C1462.83 344 1460.04 343.148 1458.1 341.444C1456.16 339.74 1455.19 336.971 1455.19 333.137V311.482H1450.57V304.879H1455.19V295.152H1463.35V304.879H1472.87V311.482H1463.35Z" fill="#641232"/>
</svg>
