<svg width="441" height="83" viewBox="0 0 441 83" fill="none" xmlns="http://www.w3.org/2000/svg">
<path d="M429.881 27V19.7273H432.338C432.906 19.7273 433.373 19.8243 433.737 20.0185C434.102 20.2102 434.372 20.4742 434.547 20.8104C434.722 21.1465 434.81 21.5289 434.81 21.9574C434.81 22.3859 434.722 22.7659 434.547 23.0973C434.372 23.4287 434.103 23.6892 433.741 23.8786C433.379 24.0656 432.916 24.1591 432.352 24.1591H430.364V23.3636H432.324C432.712 23.3636 433.025 23.3068 433.261 23.1932C433.5 23.0795 433.673 22.9186 433.78 22.7102C433.889 22.4995 433.943 22.2486 433.943 21.9574C433.943 21.6662 433.889 21.4117 433.78 21.1939C433.671 20.9761 433.497 20.808 433.258 20.6896C433.019 20.5689 432.703 20.5085 432.31 20.5085H430.761V27H429.881ZM433.304 23.733L435.094 27H434.071L432.31 23.733H433.304Z" fill="#9B9B9B"/>
<path d="M83.9176 19.5732V12.7273H116.172V19.5732H104.148V52H95.9411V19.5732H83.9176ZM121.484 52V12.7273H136.978C139.944 12.7273 142.475 13.2578 144.572 14.3189C146.681 15.3672 148.286 16.8565 149.385 18.7869C150.497 20.7045 151.053 22.9609 151.053 25.5561C151.053 28.1641 150.491 30.4077 149.366 32.2869C148.241 34.1534 146.611 35.5852 144.476 36.5824C142.354 37.5795 139.784 38.0781 136.767 38.0781H126.393V31.4048H135.425C137.01 31.4048 138.327 31.1875 139.375 30.7528C140.423 30.3182 141.203 29.6662 141.714 28.7969C142.239 27.9276 142.501 26.8473 142.501 25.5561C142.501 24.2521 142.239 23.1527 141.714 22.2578C141.203 21.3629 140.417 20.6854 139.356 20.2251C138.308 19.7521 136.984 19.5156 135.386 19.5156H129.787V52H121.484ZM142.692 34.1278L152.453 52H143.287L133.737 34.1278H142.692ZM163.69 52H154.793L168.35 12.7273H179.05L192.589 52H183.691L173.854 21.7017H173.547L163.69 52ZM163.134 36.5632H184.151V43.0447H163.134V36.5632ZM199.507 12.7273L208.999 42.5653H209.363L218.874 12.7273H228.079L214.541 52H203.84L190.283 12.7273H199.507ZM232.806 52V12.7273H259.269V19.5732H241.109V28.9311H257.907V35.777H241.109V45.1541H259.346V52H232.806ZM265.87 52V12.7273H274.174V45.1541H291.01V52H265.87Z" fill="#008594"/>
<path d="M297.41 52V12.7273H311.409C314.464 12.7273 316.996 13.2834 319.003 14.3956C321.01 15.5078 322.512 17.0291 323.509 18.9595C324.506 20.8771 325.005 23.0376 325.005 25.4411C325.005 27.8572 324.5 30.0305 323.49 31.9609C322.493 33.8786 320.984 35.3999 318.964 36.5249C316.957 37.6371 314.432 38.1932 311.39 38.1932H301.763V33.169H310.853C312.783 33.169 314.349 32.8366 315.551 32.1719C316.753 31.4943 317.635 30.5739 318.197 29.4105C318.76 28.2472 319.041 26.924 319.041 25.4411C319.041 23.9581 318.76 22.6413 318.197 21.4908C317.635 20.3402 316.746 19.4389 315.532 18.7869C314.33 18.1349 312.745 17.8089 310.776 17.8089H303.336V52H297.41ZM328.711 52V12.7273H334.637V46.8991H352.432V52H328.711ZM381.207 12.7273H387.151V38.5575C387.151 41.3061 386.506 43.7415 385.215 45.8636C383.923 47.973 382.108 49.6349 379.769 50.8494C377.429 52.0511 374.687 52.652 371.542 52.652C368.41 52.652 365.674 52.0511 363.335 50.8494C360.995 49.6349 359.18 47.973 357.889 45.8636C356.597 43.7415 355.952 41.3061 355.952 38.5575V12.7273H361.877V38.0781C361.877 39.8551 362.267 41.4339 363.047 42.8146C363.84 44.1953 364.958 45.282 366.403 46.0746C367.847 46.8544 369.56 47.2443 371.542 47.2443C373.536 47.2443 375.256 46.8544 376.7 46.0746C378.158 45.282 379.27 44.1953 380.037 42.8146C380.817 41.4339 381.207 39.8551 381.207 38.0781V12.7273ZM413.946 23.044C413.741 21.2287 412.898 19.8224 411.415 18.8253C409.932 17.8153 408.065 17.3104 405.815 17.3104C404.205 17.3104 402.811 17.5661 401.635 18.0774C400.459 18.576 399.545 19.2663 398.893 20.1484C398.254 21.0178 397.934 22.0085 397.934 23.1207C397.934 24.054 398.151 24.8594 398.586 25.5369C399.033 26.2145 399.615 26.7834 400.331 27.2436C401.06 27.6911 401.839 28.0682 402.67 28.375C403.501 28.669 404.3 28.9119 405.067 29.1037L408.903 30.1009C410.156 30.4077 411.44 30.8232 412.757 31.3473C414.074 31.8714 415.295 32.5618 416.42 33.4183C417.545 34.2749 418.452 35.3359 419.143 36.6016C419.846 37.8672 420.197 39.3821 420.197 41.1463C420.197 43.3707 419.622 45.3459 418.472 47.0717C417.334 48.7976 415.678 50.1591 413.505 51.1562C411.344 52.1534 408.73 52.652 405.662 52.652C402.722 52.652 400.178 52.1854 398.03 51.2521C395.882 50.3189 394.201 48.9957 392.986 47.2827C391.772 45.5568 391.101 43.5114 390.973 41.1463H396.918C397.033 42.5653 397.493 43.7479 398.298 44.6939C399.116 45.6271 400.158 46.3239 401.424 46.7841C402.702 47.2315 404.102 47.4553 405.624 47.4553C407.298 47.4553 408.788 47.1932 410.092 46.669C411.408 46.1321 412.444 45.3906 413.198 44.4446C413.952 43.4858 414.33 42.3672 414.33 41.0888C414.33 39.9254 413.997 38.973 413.332 38.2315C412.68 37.4901 411.792 36.8764 410.667 36.3906C409.555 35.9048 408.295 35.4766 406.889 35.1058L402.249 33.8402C399.104 32.9837 396.611 31.7244 394.77 30.0625C392.942 28.4006 392.028 26.2017 392.028 23.4659C392.028 21.2031 392.641 19.228 393.869 17.5405C395.096 15.853 396.758 14.5426 398.854 13.6094C400.951 12.6634 403.316 12.1903 405.95 12.1903C408.609 12.1903 410.955 12.657 412.987 13.5902C415.033 14.5234 416.643 15.8082 417.82 17.4446C418.996 19.0682 419.609 20.9347 419.661 23.044H413.946Z" fill="#9B9B9B"/>
<path d="M71.5 12V82.5L44.5 38L0 12H71.5Z" fill="#B2B2B2"/>
<path d="M55.5 28.5L71.5 82.5L44.5 38L0 12L55.5 28.5Z" fill="#9B9B9B"/>
<path d="M100.444 66.8182V68.7358H95.2823V66.8182H100.444ZM96.3636 64.858H98.9684V72.4272C98.9684 72.587 98.9933 72.7166 99.043 72.8161C99.0962 72.9119 99.1726 72.9812 99.272 73.0238C99.3714 73.0629 99.4904 73.0824 99.6289 73.0824C99.7283 73.0824 99.8331 73.0735 99.9432 73.0558C100.057 73.0344 100.142 73.0167 100.199 73.0025L100.593 74.8828C100.469 74.9183 100.293 74.9627 100.066 75.016C99.842 75.0692 99.5739 75.103 99.2614 75.1172C98.6506 75.1456 98.1268 75.0746 97.69 74.9041C97.2567 74.7301 96.9247 74.4602 96.6939 74.0945C96.4666 73.7287 96.3565 73.2688 96.3636 72.7148V64.858ZM107.202 71.4684V66.8182H109.801V75H107.319V73.4766H107.234C107.053 73.9773 106.744 74.375 106.307 74.6697C105.874 74.9609 105.35 75.1065 104.735 75.1065C104.178 75.1065 103.688 74.9787 103.265 74.723C102.843 74.4673 102.514 74.1104 102.28 73.6523C102.045 73.1907 101.926 72.6509 101.923 72.033V66.8182H104.528V71.5217C104.531 71.9656 104.648 72.3153 104.879 72.571C105.11 72.8267 105.424 72.9545 105.822 72.9545C106.081 72.9545 106.314 72.8977 106.52 72.7841C106.729 72.6669 106.894 72.4982 107.015 72.2781C107.14 72.0543 107.202 71.7844 107.202 71.4684ZM111.609 75V66.8182H114.139V68.3097H114.224C114.374 67.7699 114.617 67.3686 114.954 67.1058C115.292 66.8395 115.684 66.7063 116.131 66.7063C116.252 66.7063 116.376 66.7152 116.504 66.733C116.632 66.7472 116.751 66.7702 116.861 66.8022V69.0661C116.737 69.0234 116.574 68.9897 116.371 68.9648C116.172 68.94 115.995 68.9276 115.838 68.9276C115.529 68.9276 115.251 68.9968 115.002 69.1353C114.757 69.2702 114.564 69.4602 114.422 69.7053C114.283 69.9467 114.214 70.2308 114.214 70.5575V75H111.609ZM118.073 75V66.8182H120.677V75H118.073ZM119.378 65.8647C119.012 65.8647 118.698 65.744 118.435 65.5025C118.172 65.2575 118.041 64.9627 118.041 64.6183C118.041 64.2773 118.172 63.9862 118.435 63.7447C118.698 63.4996 119.012 63.3771 119.378 63.3771C119.747 63.3771 120.061 63.4996 120.32 63.7447C120.583 63.9862 120.715 64.2773 120.715 64.6183C120.715 64.9627 120.583 65.2575 120.32 65.5025C120.061 65.744 119.747 65.8647 119.378 65.8647ZM129.628 69.3164L127.237 69.3803C127.212 69.2099 127.144 69.0589 127.034 68.9276C126.924 68.7926 126.78 68.6879 126.603 68.6133C126.429 68.5352 126.226 68.4961 125.996 68.4961C125.694 68.4961 125.436 68.5565 125.223 68.6772C125.014 68.7979 124.911 68.9613 124.914 69.1673C124.911 69.3271 124.975 69.4656 125.106 69.5827C125.241 69.6999 125.481 69.794 125.825 69.8651L127.402 70.1634C128.219 70.3196 128.826 70.5788 129.223 70.9411C129.625 71.3033 129.827 71.7827 129.831 72.3793C129.827 72.9403 129.66 73.4286 129.33 73.8441C129.003 74.2596 128.556 74.5827 127.988 74.8136C127.42 75.0408 126.77 75.1545 126.038 75.1545C124.87 75.1545 123.948 74.9148 123.274 74.4354C122.602 73.9524 122.219 73.3061 122.123 72.4964L124.696 72.4325C124.753 72.7308 124.9 72.9581 125.138 73.1143C125.376 73.2706 125.679 73.3487 126.049 73.3487C126.383 73.3487 126.654 73.2866 126.864 73.1623C127.073 73.038 127.18 72.8729 127.183 72.6669C127.18 72.4822 127.098 72.3349 126.938 72.2248C126.779 72.1112 126.528 72.0224 126.187 71.9585L124.76 71.6868C123.939 71.5376 123.329 71.2624 122.927 70.8612C122.526 70.4563 122.327 69.9414 122.331 69.3164C122.327 68.7695 122.473 68.3026 122.768 67.9155C123.062 67.5249 123.481 67.2266 124.025 67.0206C124.568 66.8146 125.209 66.7116 125.948 66.7116C127.056 66.7116 127.929 66.9442 128.568 67.4094C129.208 67.8711 129.561 68.5067 129.628 69.3164ZM131.263 75V66.8182H133.74V68.3203H133.831C134.001 67.8232 134.289 67.4308 134.694 67.1431C135.098 66.8555 135.581 66.7116 136.142 66.7116C136.711 66.7116 137.197 66.8572 137.602 67.1484C138.007 67.4396 138.264 67.8303 138.374 68.3203H138.46C138.612 67.8338 138.911 67.445 139.354 67.1538C139.798 66.859 140.322 66.7116 140.926 66.7116C141.7 66.7116 142.328 66.9602 142.811 67.4574C143.294 67.951 143.536 68.6293 143.536 69.4922V75H140.931V70.0888C140.931 69.6804 140.826 69.3697 140.617 69.1566C140.407 68.94 140.136 68.8317 139.802 68.8317C139.443 68.8317 139.161 68.9489 138.955 69.1832C138.752 69.4141 138.651 69.7248 138.651 70.1154V75H136.148V70.0621C136.148 69.6822 136.045 69.3821 135.839 69.1619C135.633 68.9418 135.361 68.8317 135.024 68.8317C134.797 68.8317 134.596 68.8867 134.422 68.9968C134.248 69.1033 134.111 69.256 134.012 69.4549C133.916 69.6538 133.868 69.8881 133.868 70.158V75H131.263ZM149.119 75.1545C148.26 75.1545 147.521 74.9787 146.903 74.6271C146.289 74.272 145.815 73.7784 145.481 73.1463C145.151 72.5107 144.986 71.7738 144.986 70.9357C144.986 70.0941 145.151 69.3572 145.481 68.7251C145.815 68.0895 146.289 67.5959 146.903 67.2443C147.521 66.8892 148.26 66.7116 149.119 66.7116C149.978 66.7116 150.715 66.8892 151.33 67.2443C151.948 67.5959 152.422 68.0895 152.752 68.7251C153.086 69.3572 153.253 70.0941 153.253 70.9357C153.253 71.7738 153.086 72.5107 152.752 73.1463C152.422 73.7784 151.948 74.272 151.33 74.6271C150.715 74.9787 149.978 75.1545 149.119 75.1545ZM149.135 73.1889C149.448 73.1889 149.712 73.093 149.929 72.9013C150.145 72.7095 150.311 72.4432 150.424 72.1023C150.541 71.7614 150.6 71.3672 150.6 70.9197C150.6 70.4652 150.541 70.0675 150.424 69.7266C150.311 69.3857 150.145 69.1193 149.929 68.9276C149.712 68.7358 149.448 68.6399 149.135 68.6399C148.812 68.6399 148.538 68.7358 148.315 68.9276C148.095 69.1193 147.926 69.3857 147.809 69.7266C147.695 70.0675 147.638 70.4652 147.638 70.9197C147.638 71.3672 147.695 71.7614 147.809 72.1023C147.926 72.4432 148.095 72.7095 148.315 72.9013C148.538 73.093 148.812 73.1889 149.135 73.1889ZM161.929 75.1545C161.066 75.1545 160.326 74.9769 159.708 74.6218C159.093 74.2667 158.621 73.7731 158.291 73.141C157.96 72.5053 157.795 71.7702 157.795 70.9357C157.795 70.0977 157.96 69.3626 158.291 68.7305C158.625 68.0948 159.099 67.5994 159.713 67.2443C160.331 66.8892 161.068 66.7116 161.924 66.7116C162.68 66.7116 163.339 66.8484 163.9 67.1218C164.464 67.3952 164.905 67.7823 165.221 68.283C165.54 68.7802 165.709 69.3643 165.727 70.0355H163.293C163.243 69.6165 163.101 69.288 162.866 69.0501C162.636 68.8121 162.334 68.6932 161.961 68.6932C161.659 68.6932 161.394 68.7784 161.167 68.9489C160.94 69.1158 160.762 69.3643 160.634 69.6946C160.51 70.0213 160.448 70.4261 160.448 70.9091C160.448 71.392 160.51 71.8004 160.634 72.1342C160.762 72.4645 160.94 72.7148 161.167 72.8853C161.394 73.0522 161.659 73.1357 161.961 73.1357C162.202 73.1357 162.415 73.0842 162.6 72.9812C162.788 72.8782 162.943 72.7273 163.063 72.5284C163.184 72.326 163.261 72.081 163.293 71.7933H165.727C165.702 72.468 165.533 73.0575 165.221 73.5618C164.912 74.0661 164.477 74.4585 163.916 74.739C163.358 75.016 162.696 75.1545 161.929 75.1545ZM171.029 75.1545C170.17 75.1545 169.431 74.9787 168.813 74.6271C168.199 74.272 167.725 73.7784 167.391 73.1463C167.061 72.5107 166.896 71.7738 166.896 70.9357C166.896 70.0941 167.061 69.3572 167.391 68.7251C167.725 68.0895 168.199 67.5959 168.813 67.2443C169.431 66.8892 170.17 66.7116 171.029 66.7116C171.888 66.7116 172.625 66.8892 173.24 67.2443C173.858 67.5959 174.332 68.0895 174.662 68.7251C174.996 69.3572 175.163 70.0941 175.163 70.9357C175.163 71.7738 174.996 72.5107 174.662 73.1463C174.332 73.7784 173.858 74.272 173.24 74.6271C172.625 74.9787 171.888 75.1545 171.029 75.1545ZM171.045 73.1889C171.358 73.1889 171.622 73.093 171.839 72.9013C172.055 72.7095 172.22 72.4432 172.334 72.1023C172.451 71.7614 172.51 71.3672 172.51 70.9197C172.51 70.4652 172.451 70.0675 172.334 69.7266C172.22 69.3857 172.055 69.1193 171.839 68.9276C171.622 68.7358 171.358 68.6399 171.045 68.6399C170.722 68.6399 170.448 68.7358 170.225 68.9276C170.005 69.1193 169.836 69.3857 169.719 69.7266C169.605 70.0675 169.548 70.4652 169.548 70.9197C169.548 71.3672 169.605 71.7614 169.719 72.1023C169.836 72.4432 170.005 72.7095 170.225 72.9013C170.448 73.093 170.722 73.1889 171.045 73.1889ZM176.647 75V66.8182H179.177V68.3097H179.262C179.411 67.7699 179.655 67.3686 179.992 67.1058C180.329 66.8395 180.722 66.7063 181.169 66.7063C181.29 66.7063 181.414 66.7152 181.542 66.733C181.67 66.7472 181.789 66.7702 181.899 66.8022V69.0661C181.775 69.0234 181.611 68.9897 181.409 68.9648C181.21 68.94 181.033 68.9276 180.876 68.9276C180.567 68.9276 180.289 68.9968 180.04 69.1353C179.795 69.2702 179.601 69.4602 179.459 69.7053C179.321 69.9467 179.252 70.2308 179.252 70.5575V75H176.647ZM183.11 78.0682V66.8182H185.689V68.2191H185.768C185.875 67.9705 186.026 67.7308 186.221 67.5C186.42 67.2692 186.672 67.081 186.978 66.9354C187.287 66.7862 187.656 66.7116 188.086 66.7116C188.654 66.7116 189.185 66.8608 189.678 67.1591C190.175 67.4574 190.577 67.9173 190.882 68.5387C191.187 69.1602 191.34 69.9521 191.34 70.9144C191.34 71.8413 191.193 72.6172 190.898 73.2422C190.607 73.8672 190.213 74.3359 189.716 74.6484C189.222 74.9609 188.673 75.1172 188.07 75.1172C187.658 75.1172 187.301 75.0497 186.999 74.9148C186.697 74.7798 186.443 74.6023 186.237 74.3821C186.035 74.1619 185.879 73.9258 185.768 73.6737H185.715V78.0682H183.11ZM185.662 70.9091C185.662 71.3494 185.72 71.733 185.838 72.0597C185.958 72.3864 186.131 72.6403 186.354 72.8214C186.582 72.9989 186.853 73.0877 187.169 73.0877C187.489 73.0877 187.761 72.9989 187.984 72.8214C188.208 72.6403 188.377 72.3864 188.49 72.0597C188.608 71.733 188.666 71.3494 188.666 70.9091C188.666 70.4687 188.608 70.087 188.49 69.7638C188.377 69.4407 188.208 69.1903 187.984 69.0128C187.764 68.8352 187.493 68.7464 187.169 68.7464C186.85 68.7464 186.578 68.8335 186.354 69.0075C186.131 69.1815 185.958 69.43 185.838 69.7532C185.72 70.0763 185.662 70.4616 185.662 70.9091ZM196.674 75.1545C195.815 75.1545 195.076 74.9787 194.458 74.6271C193.844 74.272 193.37 73.7784 193.036 73.1463C192.706 72.5107 192.541 71.7738 192.541 70.9357C192.541 70.0941 192.706 69.3572 193.036 68.7251C193.37 68.0895 193.844 67.5959 194.458 67.2443C195.076 66.8892 195.815 66.7116 196.674 66.7116C197.534 66.7116 198.271 66.8892 198.885 67.2443C199.503 67.5959 199.977 68.0895 200.307 68.7251C200.641 69.3572 200.808 70.0941 200.808 70.9357C200.808 71.7738 200.641 72.5107 200.307 73.1463C199.977 73.7784 199.503 74.272 198.885 74.6271C198.271 74.9787 197.534 75.1545 196.674 75.1545ZM196.69 73.1889C197.003 73.1889 197.267 73.093 197.484 72.9013C197.701 72.7095 197.866 72.4432 197.979 72.1023C198.097 71.7614 198.155 71.3672 198.155 70.9197C198.155 70.4652 198.097 70.0675 197.979 69.7266C197.866 69.3857 197.701 69.1193 197.484 68.9276C197.267 68.7358 197.003 68.6399 196.69 68.6399C196.367 68.6399 196.094 68.7358 195.87 68.9276C195.65 69.1193 195.481 69.3857 195.364 69.7266C195.25 70.0675 195.194 70.4652 195.194 70.9197C195.194 71.3672 195.25 71.7614 195.364 72.1023C195.481 72.4432 195.65 72.7095 195.87 72.9013C196.094 73.093 196.367 73.1889 196.69 73.1889ZM202.292 75V66.8182H204.822V68.3097H204.908C205.057 67.7699 205.3 67.3686 205.637 67.1058C205.975 66.8395 206.367 66.7063 206.815 66.7063C206.935 66.7063 207.06 66.7152 207.187 66.733C207.315 66.7472 207.434 66.7702 207.544 66.8022V69.0661C207.42 69.0234 207.257 68.9897 207.054 68.9648C206.855 68.94 206.678 68.9276 206.522 68.9276C206.213 68.9276 205.934 68.9968 205.685 69.1353C205.44 69.2702 205.247 69.4602 205.105 69.7053C204.966 69.9467 204.897 70.2308 204.897 70.5575V75H202.292ZM210.755 75.1385C210.233 75.1385 209.769 75.0515 209.364 74.8775C208.963 74.6999 208.645 74.4336 208.411 74.0785C208.18 73.7198 208.065 73.2706 208.065 72.7308C208.065 72.2763 208.144 71.8928 208.304 71.5803C208.464 71.2678 208.684 71.0138 208.965 70.8185C209.245 70.6232 209.568 70.4759 209.934 70.3764C210.3 70.2734 210.691 70.2042 211.106 70.1687C211.571 70.1261 211.946 70.0817 212.23 70.0355C212.514 69.9858 212.72 69.9165 212.848 69.8278C212.979 69.7354 213.045 69.6058 213.045 69.4389V69.4123C213.045 69.1388 212.951 68.9276 212.763 68.7784C212.575 68.6293 212.321 68.5547 212.001 68.5547C211.657 68.5547 211.38 68.6293 211.17 68.7784C210.961 68.9276 210.827 69.1335 210.771 69.3963L208.368 69.3111C208.439 68.8139 208.622 68.37 208.917 67.9794C209.215 67.5852 209.624 67.2763 210.142 67.0526C210.664 66.8253 211.291 66.7116 212.022 66.7116C212.544 66.7116 213.026 66.7738 213.466 66.8981C213.906 67.0188 214.29 67.1964 214.616 67.4308C214.943 67.6616 215.195 67.9457 215.373 68.283C215.554 68.6204 215.644 69.0057 215.644 69.4389V75H213.194V73.8601H213.13C212.985 74.1371 212.798 74.3714 212.571 74.5632C212.347 74.755 212.083 74.8988 211.777 74.9947C211.475 75.0906 211.135 75.1385 210.755 75.1385ZM211.559 73.4339C211.839 73.4339 212.092 73.3771 212.315 73.2635C212.543 73.1499 212.724 72.9936 212.859 72.7947C212.994 72.5923 213.061 72.358 213.061 72.0916V71.3139C212.986 71.353 212.896 71.3885 212.789 71.4205C212.686 71.4524 212.573 71.4826 212.448 71.511C212.324 71.5394 212.196 71.5643 212.065 71.5856C211.934 71.6069 211.807 71.6264 211.687 71.6442C211.442 71.6832 211.232 71.7436 211.058 71.8253C210.888 71.907 210.756 72.0135 210.664 72.1449C210.575 72.2727 210.531 72.4254 210.531 72.603C210.531 72.8729 210.627 73.0788 210.818 73.2209C211.014 73.3629 211.261 73.4339 211.559 73.4339ZM222.005 66.8182V68.7358H216.844V66.8182H222.005ZM217.925 64.858H220.53V72.4272C220.53 72.587 220.555 72.7166 220.604 72.8161C220.658 72.9119 220.734 72.9812 220.834 73.0238C220.933 73.0629 221.052 73.0824 221.19 73.0824C221.29 73.0824 221.395 73.0735 221.505 73.0558C221.618 73.0344 221.704 73.0167 221.76 73.0025L222.155 74.8828C222.03 74.9183 221.854 74.9627 221.627 75.016C221.403 75.0692 221.135 75.103 220.823 75.1172C220.212 75.1456 219.688 75.0746 219.252 74.9041C218.818 74.7301 218.486 74.4602 218.255 74.0945C218.028 73.7287 217.918 73.2688 217.925 72.7148V64.858ZM223.484 75V66.8182H226.089V75H223.484ZM224.789 65.8647C224.424 65.8647 224.109 65.744 223.847 65.5025C223.584 65.2575 223.452 64.9627 223.452 64.6183C223.452 64.2773 223.584 63.9862 223.847 63.7447C224.109 63.4996 224.424 63.3771 224.789 63.3771C225.159 63.3771 225.473 63.4996 225.732 63.7447C225.995 63.9862 226.126 64.2773 226.126 64.6183C226.126 64.9627 225.995 65.2575 225.732 65.5025C225.473 65.744 225.159 65.8647 224.789 65.8647ZM235.834 66.8182L233.027 75H230.044L227.242 66.8182H229.985L231.493 72.4538H231.578L233.091 66.8182H235.834ZM240.538 75.1545C239.679 75.1545 238.94 74.9787 238.322 74.6271C237.708 74.272 237.234 73.7784 236.9 73.1463C236.57 72.5107 236.405 71.7738 236.405 70.9357C236.405 70.0941 236.57 69.3572 236.9 68.7251C237.234 68.0895 237.708 67.5959 238.322 67.2443C238.94 66.8892 239.679 66.7116 240.538 66.7116C241.398 66.7116 242.134 66.8892 242.749 67.2443C243.367 67.5959 243.841 68.0895 244.171 68.7251C244.505 69.3572 244.672 70.0941 244.672 70.9357C244.672 71.7738 244.505 72.5107 244.171 73.1463C243.841 73.7784 243.367 74.272 242.749 74.6271C242.134 74.9787 241.398 75.1545 240.538 75.1545ZM240.554 73.1889C240.867 73.1889 241.131 73.093 241.348 72.9013C241.565 72.7095 241.73 72.4432 241.843 72.1023C241.96 71.7614 242.019 71.3672 242.019 70.9197C242.019 70.4652 241.96 70.0675 241.843 69.7266C241.73 69.3857 241.565 69.1193 241.348 68.9276C241.131 68.7358 240.867 68.6399 240.554 68.6399C240.231 68.6399 239.958 68.7358 239.734 68.9276C239.514 69.1193 239.345 69.3857 239.228 69.7266C239.114 70.0675 239.057 70.4652 239.057 70.9197C239.057 71.3672 239.114 71.7614 239.228 72.1023C239.345 72.4432 239.514 72.7095 239.734 72.9013C239.958 73.093 240.231 73.1889 240.554 73.1889Z" fill="#008594"/>
<path d="M273.666 75.1491C272.793 75.1491 272.04 74.9822 271.408 74.6484C270.779 74.3111 270.294 73.8281 269.953 73.1996C269.616 72.5675 269.447 71.8111 269.447 70.9304C269.447 70.0852 269.618 69.3466 269.959 68.7145C270.3 68.0824 270.781 67.5906 271.402 67.239C272.024 66.8874 272.757 66.7116 273.602 66.7116C274.22 66.7116 274.779 66.8075 275.28 66.9993C275.781 67.1911 276.209 67.4698 276.564 67.8356C276.919 68.1978 277.192 68.6381 277.384 69.1566C277.576 69.6751 277.672 70.2592 277.672 70.9091V71.5909H270.364V69.9716H274.966C274.962 69.7372 274.902 69.5312 274.785 69.3537C274.671 69.1726 274.517 69.0323 274.321 68.9329C274.13 68.8299 273.911 68.7784 273.666 68.7784C273.428 68.7784 273.21 68.8299 273.011 68.9329C272.812 69.0323 272.652 69.1708 272.532 69.3484C272.414 69.5259 272.352 69.7337 272.345 69.9716V71.7188C272.345 71.9815 272.4 72.2159 272.51 72.4219C272.62 72.6278 272.778 72.7894 272.984 72.9066C273.19 73.0238 273.439 73.0824 273.73 73.0824C273.933 73.0824 274.117 73.054 274.284 72.9972C274.455 72.9403 274.6 72.8587 274.721 72.7521C274.842 72.642 274.93 72.5107 274.987 72.358H277.672C277.58 72.9261 277.361 73.4197 277.017 73.8388C276.672 74.2543 276.216 74.5774 275.648 74.8082C275.083 75.0355 274.423 75.1491 273.666 75.1491ZM287.212 66.8182L284.464 75H281.055L278.306 66.8182H281.396L282.717 72.2301H282.802L284.123 66.8182H287.212ZM292.02 75.1491C291.147 75.1491 290.394 74.9822 289.762 74.6484C289.133 74.3111 288.648 73.8281 288.307 73.1996C287.97 72.5675 287.801 71.8111 287.801 70.9304C287.801 70.0852 287.972 69.3466 288.313 68.7145C288.654 68.0824 289.135 67.5906 289.756 67.239C290.378 66.8874 291.111 66.7116 291.956 66.7116C292.574 66.7116 293.133 66.8075 293.634 66.9993C294.135 67.1911 294.563 67.4698 294.918 67.8356C295.273 68.1978 295.546 68.6381 295.738 69.1566C295.93 69.6751 296.026 70.2592 296.026 70.9091V71.5909H288.718V69.9716H293.32C293.316 69.7372 293.256 69.5312 293.139 69.3537C293.025 69.1726 292.871 69.0323 292.675 68.9329C292.484 68.8299 292.265 68.7784 292.02 68.7784C291.782 68.7784 291.564 68.8299 291.365 68.9329C291.166 69.0323 291.006 69.1708 290.886 69.3484C290.768 69.5259 290.706 69.7337 290.699 69.9716V71.7188C290.699 71.9815 290.754 72.2159 290.864 72.4219C290.974 72.6278 291.132 72.7894 291.338 72.9066C291.544 73.0238 291.793 73.0824 292.084 73.0824C292.286 73.0824 292.471 73.054 292.638 72.9972C292.808 72.9403 292.954 72.8587 293.075 72.7521C293.196 72.642 293.284 72.5107 293.341 72.358H296.026C295.933 72.9261 295.715 73.4197 295.371 73.8388C295.026 74.2543 294.57 74.5774 294.002 74.8082C293.437 75.0355 292.776 75.1491 292.02 75.1491ZM300.466 70.3977V75H297.526V66.8182H300.317V68.3736H300.402C300.58 67.8551 300.892 67.4485 301.34 67.1538C301.791 66.859 302.316 66.7116 302.916 66.7116C303.495 66.7116 303.998 66.8448 304.424 67.1112C304.853 67.3739 305.185 67.7362 305.42 68.1978C305.658 68.6594 305.775 69.1868 305.771 69.7798V75H302.831V70.3977C302.835 69.9929 302.732 69.6751 302.522 69.4442C302.316 69.2134 302.028 69.098 301.659 69.098C301.418 69.098 301.206 69.1513 301.025 69.2578C300.848 69.3608 300.711 69.5099 300.615 69.7053C300.519 69.897 300.47 70.1278 300.466 70.3977ZM312.402 66.8182V68.9489H307.012V66.8182H312.402ZM308.056 64.858H310.996V72.3686C310.996 72.4822 311.015 72.5781 311.054 72.6562C311.094 72.7308 311.154 72.7876 311.236 72.8267C311.317 72.8622 311.422 72.88 311.55 72.88C311.639 72.88 311.742 72.8693 311.859 72.848C311.98 72.8267 312.068 72.8089 312.125 72.7947L312.551 74.8615C312.42 74.9006 312.232 74.9485 311.987 75.0053C311.745 75.0621 311.458 75.0994 311.124 75.1172C310.449 75.1527 309.883 75.0835 309.425 74.9094C308.966 74.7319 308.622 74.4531 308.391 74.0732C308.16 73.6932 308.048 73.2173 308.056 72.6456V64.858ZM317.756 75.1491C316.868 75.1491 316.108 74.9734 315.476 74.6218C314.844 74.2667 314.359 73.7731 314.022 73.141C313.684 72.5053 313.516 71.7685 313.516 70.9304C313.516 70.0923 313.684 69.3572 314.022 68.7251C314.359 68.0895 314.844 67.5959 315.476 67.2443C316.108 66.8892 316.868 66.7116 317.756 66.7116C318.644 66.7116 319.404 66.8892 320.036 67.2443C320.668 67.5959 321.153 68.0895 321.49 68.7251C321.827 69.3572 321.996 70.0923 321.996 70.9304C321.996 71.7685 321.827 72.5053 321.49 73.141C321.153 73.7731 320.668 74.2667 320.036 74.6218C319.404 74.9734 318.644 75.1491 317.756 75.1491ZM317.777 72.9759C318.026 72.9759 318.241 72.8924 318.422 72.7255C318.603 72.5586 318.743 72.3207 318.843 72.0117C318.942 71.7028 318.992 71.3352 318.992 70.9091C318.992 70.4794 318.942 70.1119 318.843 69.8065C318.743 69.4975 318.603 69.2596 318.422 69.0927C318.241 68.9258 318.026 68.8423 317.777 68.8423C317.514 68.8423 317.289 68.9258 317.101 69.0927C316.912 69.2596 316.769 69.4975 316.669 69.8065C316.57 70.1119 316.52 70.4794 316.52 70.9091C316.52 71.3352 316.57 71.7028 316.669 72.0117C316.769 72.3207 316.912 72.5586 317.101 72.7255C317.289 72.8924 317.514 72.9759 317.777 72.9759ZM330.968 69.4815H328.262C328.248 69.3146 328.189 69.1708 328.086 69.0501C327.983 68.9293 327.85 68.837 327.687 68.7731C327.527 68.7056 327.349 68.6719 327.154 68.6719C326.902 68.6719 326.685 68.718 326.504 68.8104C326.323 68.9027 326.234 69.0341 326.238 69.2045C326.234 69.3253 326.286 69.4371 326.392 69.5401C326.502 69.6431 326.714 69.723 327.026 69.7798L328.688 70.0781C329.526 70.2308 330.149 70.4883 330.558 70.8505C330.97 71.2092 331.177 71.6903 331.181 72.294C331.177 72.8764 331.003 73.3825 330.659 73.8121C330.318 74.2383 329.851 74.5685 329.258 74.8029C328.668 75.0337 327.995 75.1491 327.239 75.1491C325.989 75.1491 325.011 74.8935 324.304 74.3821C323.601 73.8707 323.209 73.196 323.127 72.358H326.046C326.085 72.6172 326.213 72.8178 326.429 72.9599C326.65 73.0984 326.927 73.1676 327.26 73.1676C327.53 73.1676 327.752 73.1214 327.926 73.0291C328.104 72.9368 328.194 72.8054 328.198 72.6349C328.194 72.4787 328.116 72.3544 327.964 72.2621C327.814 72.1697 327.58 72.0952 327.26 72.0384L325.812 71.7827C324.977 71.6371 324.352 71.3601 323.937 70.9517C323.521 70.5433 323.315 70.0178 323.319 69.375C323.315 68.8068 323.464 68.3256 323.766 67.9315C324.071 67.5337 324.506 67.2319 325.071 67.0259C325.639 66.8164 326.312 66.7116 327.09 66.7116C328.272 66.7116 329.205 66.9567 329.886 67.4467C330.572 67.9368 330.932 68.6151 330.968 69.4815Z" fill="#008594"/>
<path d="M335.518 75.1094C334.888 75.1094 334.328 75.0013 333.838 74.7852C333.351 74.5664 332.968 74.2656 332.69 73.8828C332.411 73.5 332.271 73.0599 332.268 72.5625H334.455C334.458 72.7161 334.505 72.8542 334.596 72.9766C334.69 73.0964 334.817 73.1901 334.979 73.2578C335.14 73.3255 335.325 73.3594 335.534 73.3594C335.734 73.3594 335.911 73.3242 336.065 73.2539C336.218 73.181 336.338 73.0807 336.424 72.9531C336.51 72.8255 336.552 72.6797 336.549 72.5156C336.552 72.3542 336.502 72.2109 336.401 72.0859C336.302 71.9609 336.162 71.8633 335.983 71.793C335.803 71.7227 335.596 71.6875 335.362 71.6875H334.549V70.1875H335.362C335.578 70.1875 335.768 70.1523 335.932 70.082C336.099 70.0117 336.228 69.9141 336.319 69.7891C336.412 69.6641 336.458 69.5208 336.455 69.3594C336.458 69.2031 336.42 69.0651 336.342 68.9453C336.264 68.8255 336.155 68.7318 336.014 68.6641C335.876 68.5964 335.716 68.5625 335.534 68.5625C335.336 68.5625 335.159 68.5977 335.002 68.668C334.849 68.7383 334.728 68.8359 334.639 68.9609C334.551 69.0859 334.505 69.2292 334.502 69.3906H332.424C332.427 68.901 332.561 68.4687 332.827 68.0937C333.095 67.7187 333.462 67.4245 333.928 67.2109C334.394 66.9974 334.929 66.8906 335.534 66.8906C336.125 66.8906 336.647 66.9909 337.1 67.1914C337.556 67.3919 337.911 67.668 338.166 68.0195C338.424 68.3685 338.552 68.7682 338.549 69.2187C338.554 69.6667 338.401 70.0339 338.088 70.3203C337.778 70.6068 337.385 70.776 336.909 70.8281V70.8906C337.554 70.9609 338.04 71.1589 338.366 71.4844C338.691 71.8073 338.851 72.2135 338.846 72.7031C338.849 73.1719 338.708 73.5872 338.424 73.9492C338.143 74.3112 337.751 74.5951 337.248 74.8008C336.748 75.0065 336.172 75.1094 335.518 75.1094ZM343.27 75.1094C342.803 75.1094 342.361 75.0365 341.941 74.8906C341.525 74.7422 341.155 74.5091 340.832 74.1914C340.509 73.8737 340.255 73.4596 340.07 72.9492C339.888 72.4388 339.798 71.8203 339.801 71.0937C339.803 70.4453 339.887 69.862 340.051 69.3437C340.217 68.8255 340.453 68.3841 340.758 68.0195C341.065 67.6549 341.432 67.3763 341.859 67.1836C342.286 66.9883 342.762 66.8906 343.285 66.8906C343.874 66.8906 344.392 67.0039 344.84 67.2305C345.288 67.457 345.645 67.7604 345.91 68.1406C346.178 68.5182 346.335 68.9349 346.379 69.3906H344.238C344.189 69.1641 344.074 68.9987 343.895 68.8945C343.717 68.7878 343.514 68.7344 343.285 68.7344C342.829 68.7344 342.495 68.9323 342.281 69.3281C342.07 69.724 341.962 70.2448 341.957 70.8906H342.004C342.106 70.6458 342.259 70.4362 342.465 70.2617C342.671 70.0872 342.91 69.9531 343.184 69.8594C343.457 69.7656 343.746 69.7187 344.051 69.7187C344.535 69.7187 344.958 69.8281 345.32 70.0469C345.685 70.2656 345.969 70.5651 346.172 70.9453C346.375 71.3255 346.475 71.7604 346.473 72.25C346.475 72.8229 346.34 73.3242 346.066 73.7539C345.796 74.1836 345.419 74.5169 344.938 74.7539C344.456 74.9909 343.9 75.1094 343.27 75.1094ZM343.254 73.4687C343.47 73.4687 343.661 73.4193 343.828 73.3203C343.997 73.2214 344.129 73.0859 344.223 72.9141C344.319 72.7422 344.366 72.5469 344.363 72.3281C344.366 72.1068 344.319 71.9115 344.223 71.7422C344.129 71.5703 343.997 71.4349 343.828 71.3359C343.661 71.237 343.47 71.1875 343.254 71.1875C343.095 71.1875 342.948 71.2161 342.813 71.2734C342.68 71.3281 342.564 71.4076 342.465 71.5117C342.366 71.6133 342.288 71.7344 342.231 71.875C342.176 72.013 342.147 72.1641 342.145 72.3281C342.147 72.5469 342.197 72.7422 342.293 72.9141C342.389 73.0859 342.521 73.2214 342.688 73.3203C342.854 73.4193 343.043 73.4687 343.254 73.4687ZM351.05 75.2187C350.324 75.2161 349.696 75.0482 349.168 74.7148C348.639 74.3815 348.231 73.901 347.945 73.2734C347.659 72.6458 347.517 71.8932 347.519 71.0156C347.522 70.1354 347.665 69.388 347.949 68.7734C348.235 68.1589 348.642 67.6914 349.168 67.3711C349.696 67.0508 350.324 66.8906 351.05 66.8906C351.777 66.8906 352.405 67.0521 352.933 67.375C353.462 67.6953 353.869 68.1628 354.156 68.7773C354.442 69.3919 354.584 70.138 354.582 71.0156C354.582 71.8984 354.438 72.6536 354.152 73.2812C353.866 73.9089 353.458 74.3893 352.929 74.7227C352.403 75.0534 351.777 75.2187 351.05 75.2187ZM351.05 73.4531C351.425 73.4531 351.733 73.2578 351.972 72.8672C352.215 72.474 352.334 71.8568 352.332 71.0156C352.332 70.4661 352.277 70.0169 352.168 69.668C352.058 69.319 351.907 69.0612 351.715 68.8945C351.522 68.7253 351.3 68.6406 351.05 68.6406C350.675 68.6406 350.369 68.8307 350.132 69.2109C349.896 69.5911 349.774 70.1927 349.769 71.0156C349.767 71.5755 349.82 72.0365 349.929 72.3984C350.039 72.7578 350.19 73.0234 350.382 73.1953C350.578 73.3672 350.8 73.4531 351.05 73.4531Z" fill="#9B9B9B"/>
<path d="M383.686 64.0909V75H380.746V64.0909H383.686ZM387.914 75.1278C387.392 75.1278 386.93 75.0426 386.529 74.8722C386.131 74.6982 385.819 74.4354 385.592 74.0838C385.364 73.7322 385.251 73.2848 385.251 72.7415C385.251 72.294 385.327 71.9123 385.48 71.5962C385.632 71.2766 385.846 71.0156 386.119 70.8132C386.392 70.6108 386.71 70.4563 387.072 70.3498C387.438 70.2433 387.832 70.174 388.255 70.142C388.713 70.1065 389.081 70.0639 389.358 70.0142C389.638 69.9609 389.841 69.8881 389.965 69.7958C390.089 69.6999 390.151 69.5739 390.151 69.4176V69.3963C390.151 69.1832 390.07 69.0199 389.906 68.9062C389.743 68.7926 389.533 68.7358 389.278 68.7358C388.997 68.7358 388.768 68.7979 388.591 68.9222C388.417 69.043 388.312 69.2294 388.276 69.4815H385.57C385.606 68.9844 385.764 68.5263 386.044 68.1072C386.328 67.6847 386.742 67.3473 387.285 67.0952C387.829 66.8395 388.507 66.7116 389.32 66.7116C389.906 66.7116 390.432 66.7809 390.897 66.9194C391.362 67.0543 391.758 67.2443 392.085 67.4893C392.412 67.7308 392.66 68.0149 392.831 68.3416C393.005 68.6648 393.092 69.0163 393.092 69.3963V75H390.343V73.8494H390.279C390.116 74.1548 389.917 74.4016 389.683 74.5898C389.452 74.7781 389.187 74.9148 388.889 75C388.594 75.0852 388.269 75.1278 387.914 75.1278ZM388.873 73.2741C389.097 73.2741 389.306 73.228 389.501 73.1357C389.7 73.0433 389.862 72.9102 389.986 72.7362C390.11 72.5621 390.173 72.3509 390.173 72.1023V71.4205C390.094 71.4524 390.011 71.4826 389.922 71.511C389.837 71.5394 389.745 71.5661 389.645 71.5909C389.549 71.6158 389.446 71.6388 389.336 71.6602C389.23 71.6815 389.118 71.701 389.001 71.7188C388.773 71.7543 388.587 71.8129 388.441 71.8945C388.299 71.9727 388.193 72.0703 388.122 72.1875C388.054 72.3011 388.021 72.429 388.021 72.571C388.021 72.7983 388.1 72.9723 388.26 73.093C388.42 73.2138 388.624 73.2741 388.873 73.2741ZM395.032 75V73.3807L398.611 69.098V69.0554H395.16V66.8182H402.084V68.608L398.824 72.7202V72.7628H402.212V75H395.032ZM407.974 75.1491C407.101 75.1491 406.348 74.9822 405.716 74.6484C405.087 74.3111 404.602 73.8281 404.261 73.1996C403.924 72.5675 403.755 71.8111 403.755 70.9304C403.755 70.0852 403.926 69.3466 404.267 68.7145C404.608 68.0824 405.089 67.5906 405.71 67.239C406.332 66.8874 407.065 66.7116 407.91 66.7116C408.528 66.7116 409.087 66.8075 409.588 66.9993C410.089 67.1911 410.517 67.4698 410.872 67.8356C411.227 68.1978 411.5 68.6381 411.692 69.1566C411.884 69.6751 411.98 70.2592 411.98 70.9091V71.5909H404.672V69.9716H409.274C409.27 69.7372 409.21 69.5312 409.093 69.3537C408.979 69.1726 408.825 69.0323 408.629 68.9329C408.438 68.8299 408.219 68.7784 407.974 68.7784C407.736 68.7784 407.518 68.8299 407.319 68.9329C407.12 69.0323 406.96 69.1708 406.84 69.3484C406.722 69.5259 406.66 69.7337 406.653 69.9716V71.7188C406.653 71.9815 406.708 72.2159 406.818 72.4219C406.928 72.6278 407.086 72.7894 407.292 72.9066C407.498 73.0238 407.747 73.0824 408.038 73.0824C408.241 73.0824 408.425 73.054 408.592 72.9972C408.763 72.9403 408.908 72.8587 409.029 72.7521C409.15 72.642 409.238 72.5107 409.295 72.358H411.98C411.888 72.9261 411.669 73.4197 411.325 73.8388C410.98 74.2543 410.524 74.5774 409.956 74.8082C409.391 75.0355 408.731 75.1491 407.974 75.1491ZM413.63 75V66.8182H416.485V68.3736H416.57C416.719 67.7983 416.955 67.3775 417.279 67.1112C417.605 66.8448 417.987 66.7116 418.424 66.7116C418.552 66.7116 418.678 66.7223 418.802 66.7436C418.93 66.7614 419.052 66.788 419.169 66.8235V69.3324C419.024 69.2827 418.845 69.2454 418.631 69.2205C418.418 69.1957 418.236 69.1832 418.083 69.1832C417.795 69.1832 417.536 69.2489 417.305 69.3803C417.078 69.5082 416.899 69.6893 416.767 69.9237C416.636 70.1545 416.57 70.4261 416.57 70.7386V75H413.63Z" fill="#008594"/>
<circle cx="257" cy="71" r="2" fill="#9B9B9B"/>
<circle cx="368" cy="71" r="2" fill="#9B9B9B"/>
<circle cx="432" cy="23" r="8" stroke="#9B9B9B" stroke-width="2"/>
</svg>
