<svg xmlns="http://www.w3.org/2000/svg" width="301" height="146" viewBox="0 0 301 146" fill="none">
<path fill-rule="evenodd" clip-rule="evenodd" d="M65.5256 45.9989C65.0805 50.2114 64.9159 54.4695 65.0402 58.7427C65.5874 77.5574 71.7069 95.7161 82.536 110.659C93.3651 125.602 108.358 136.577 125.401 142.035C142.444 147.493 160.678 147.161 177.533 141.084C194.388 135.007 209.014 123.492 219.349 108.163C229.685 92.8333 235.208 74.4622 235.141 55.6387C235.134 53.5969 235.061 51.5609 234.924 49.5341L182.161 48.999C182.598 51.2406 182.825 53.5341 182.833 55.847C182.859 63.0963 180.732 70.1713 176.751 76.075C172.771 81.9786 167.138 86.4131 160.647 88.7534C154.156 91.0937 147.134 91.2219 140.57 89.1198C134.007 87.0177 128.233 82.7913 124.062 77.0364C119.892 71.2815 117.535 64.2883 117.324 57.0424C117.215 53.2842 117.686 49.5562 118.698 45.9989H65.5256ZM122.637 37.0468C122.72 36.9134 122.803 36.7806 122.887 36.6483L122.637 36.4707V37.0468Z" fill="#D9D9D9"/>
</svg>