<svg width="21" height="21" viewBox="0 0 21 21" fill="none" xmlns="http://www.w3.org/2000/svg">
<path d="M9.10224 4.10878C9.87441 4.10878 10.5004 3.48281 10.5004 2.71064C10.5004 1.93847 9.87441 1.3125 9.10224 1.3125C8.33007 1.3125 7.7041 1.93847 7.7041 2.71064C7.7041 3.48281 8.33007 4.10878 9.10224 4.10878Z" fill="#1CB1BC"/>
<path d="M18.8742 14.7854L16.9078 15.277L16.1212 11.6064C16.0732 11.3866 15.9516 11.1897 15.7766 11.0483C15.6017 10.9068 15.3837 10.8292 15.1587 10.8283H11.5204L11.2554 8.53141H15.7521V7.21891H11.104L10.9344 5.74948C10.9196 5.62106 10.8796 5.49682 10.8168 5.38384C10.7539 5.27087 10.6695 5.17138 10.5682 5.09105C10.4669 5.01072 10.3508 4.95113 10.2265 4.91567C10.1022 4.88022 9.97208 4.8696 9.84366 4.88442L8.21387 5.07248L9.02963 12.1408H14.8936L15.9091 16.8796L19.1927 16.0587L18.8742 14.7854Z" fill="#1CB1BC"/>
<path d="M9.1875 18.3732C8.04636 18.373 6.94075 17.9764 6.05979 17.251C5.17883 16.5257 4.57728 15.5168 4.35805 14.3969C4.13882 13.277 4.31553 12.1158 4.85795 11.1118C5.40037 10.1078 6.27479 9.32352 7.33162 8.89307L7.17663 7.5498C4.72266 8.38829 2.95312 10.717 2.95312 13.4513C2.95312 16.889 5.74986 19.6857 9.1875 19.6857C10.2603 19.6852 11.3149 19.4079 12.2493 18.8807C13.1836 18.3535 13.9662 17.5941 14.5213 16.6761L14.1094 14.7638C13.4531 16.7326 11.591 18.3732 9.1875 18.3732Z" fill="#1CB1BC"/>
</svg>
