<svg width="44" height="29" viewBox="0 0 44 29" fill="none" xmlns="http://www.w3.org/2000/svg">
<path d="M44 28.5L4 28.5C1.79086 28.5 0 26.7091 0 24.5L0 4.50757C0 2.29548 1.79548 0.503395 4.00757 0.507579L43.9256 0.583083L43.8774 5.44383L44 28.5Z" fill="#E9F9EB"/>
<path d="M15.3242 16.5859V17.5H12.2969V16.5859H15.3242ZM12.6797 11.8125V17.5H11.5078V11.8125H12.6797ZM14.9297 14.1289V15.0195H12.2969V14.1289H14.9297ZM15.3203 11.8125V12.7305H12.2969V11.8125H15.3203ZM17.0527 11.8125L18.123 13.7969L19.1933 11.8125H20.5331L18.8808 14.6328L20.5761 17.5H19.2245L18.123 15.4766L17.0214 17.5H15.662L17.3612 14.6328L15.705 11.8125H17.0527ZM22.492 11.8125V17.5H21.3241V11.8125H22.492ZM26.0955 11.8125V17.5H24.9275V11.8125H26.0955ZM27.8455 11.8125V12.7305H23.2048V11.8125H27.8455Z" fill="#27C133"/>
<path d="M34.5298 12.5L37 14.833L34.5298 17.166" stroke="#27C133" stroke-width="1.09789" stroke-linecap="round"/>
</svg>
