<svg width="44" height="29" viewBox="0 0 44 29" fill="none" xmlns="http://www.w3.org/2000/svg">
<path d="M0 0.5L40 0.5C42.2091 0.5 44 2.29086 44 4.5V24.4924C44 26.7045 42.2045 28.4966 39.9924 28.4924L0.0744368 28.4169L0.12265 23.5562L0 0.5Z" fill="#E9F9EB"/>
<path d="M19.3242 16.5859V17.5H16.2969V16.5859H19.3242ZM16.6797 11.8125V17.5H15.5078V11.8125H16.6797ZM18.9297 14.1289V15.0195H16.2969V14.1289H18.9297ZM19.3203 11.8125V12.7305H16.2969V11.8125H19.3203ZM21.0527 11.8125L22.123 13.7969L23.1933 11.8125H24.5331L22.8808 14.6328L24.5761 17.5H23.2245L22.123 15.4766L21.0214 17.5H19.662L21.3612 14.6328L19.705 11.8125H21.0527ZM26.492 11.8125V17.5H25.3241V11.8125H26.492ZM30.0955 11.8125V17.5H28.9275V11.8125H30.0955ZM31.8455 11.8125V12.7305H27.2048V11.8125H31.8455Z" fill="#27C133"/>
<path d="M9.47021 17.166L6.99997 14.833L9.47021 12.5" stroke="#27C133" stroke-width="1.09789" stroke-linecap="round"/>
</svg>
