<svg width="304" height="311" viewBox="0 0 304 311" fill="none" xmlns="http://www.w3.org/2000/svg">
<path d="M1.29102 310.5V163.623L40.421 5.06557C41.4244 3.71038 44.033 1 46.441 1C48.849 1 186.239 1 254.633 1C256.639 1.5082 260.853 3.03279 261.656 5.06557C262.459 7.09836 289.08 111.617 302.291 163.623V310.5" stroke="#D9D9D9" stroke-width="2"/>
<rect x="116.291" y="128.281" width="65" height="7.32662" transform="rotate(-0.248061 116.291 128.281)" fill="#D9D9D9"/>
<rect x="116.291" y="142.281" width="65" height="7.32662" transform="rotate(-0.248061 116.291 142.281)" fill="#D9D9D9"/>
<rect x="116.291" y="156.281" width="65" height="7.32662" transform="rotate(-0.248061 116.291 156.281)" fill="#D9D9D9"/>
<rect x="116.291" y="170.281" width="65" height="7.32662" transform="rotate(-0.248061 116.291 170.281)" fill="#D9D9D9"/>
<rect x="116.291" y="184.281" width="65" height="7.32662" transform="rotate(-0.248061 116.291 184.281)" fill="#D9D9D9"/>
<rect x="116.291" y="198.281" width="65" height="7.32662" transform="rotate(-0.248061 116.291 198.281)" fill="#D9D9D9"/>
<rect x="116.291" y="212.281" width="65" height="7.32662" transform="rotate(-0.248061 116.291 212.281)" fill="#D9D9D9"/>
<rect x="116.291" y="226.281" width="65" height="7.32662" transform="rotate(-0.248061 116.291 226.281)" fill="#D9D9D9"/>
<rect x="116.291" y="240.281" width="65" height="7.32662" transform="rotate(-0.248061 116.291 240.281)" fill="#D9D9D9"/>
<rect x="116.291" y="254.281" width="65" height="7.32662" transform="rotate(-0.248061 116.291 254.281)" fill="#D9D9D9"/>
<rect x="116.291" y="268.281" width="65" height="7.32662" transform="rotate(-0.248061 116.291 268.281)" fill="#D9D9D9"/>
<path d="M100.934 41.3607C102.051 41.3607 102.956 40.4669 102.956 39.3644C102.956 38.2619 102.051 37.3682 100.934 37.3682C99.8167 37.3682 98.9111 38.2619 98.9111 39.3644C98.9111 40.4669 99.8167 41.3607 100.934 41.3607Z" fill="#898989"/>
<path d="M103.841 41.6943H98.0021C97.5035 41.6943 97.1777 42.0593 97.1777 42.5578V44.3166V49.7092C97.1777 50.1076 97.4607 50.4304 97.859 50.4304C98.1748 50.4304 98.3799 50.3002 98.4999 50.0675V60.1673C98.4999 60.765 98.9845 61.2493 99.582 61.2493C100.179 61.2493 100.664 60.765 100.664 60.1673V52.0325H101.265V60.1676C101.265 60.7652 101.749 61.2495 102.347 61.2495C102.944 61.2495 103.429 60.7652 103.429 60.1676V50.0677C103.549 50.2843 103.774 50.4306 104.042 50.4306C104.44 50.4306 104.751 50.1076 104.751 49.7094V42.5578C104.751 42.0215 104.327 41.6943 103.841 41.6943Z" fill="#898989"/>
<path d="M112.09 41.325C113.197 41.325 114.094 40.4392 114.094 39.3466C114.094 38.2539 113.197 37.3682 112.09 37.3682C110.982 37.3682 110.085 38.2539 110.085 39.3466C110.085 40.4392 110.982 41.325 112.09 41.325Z" fill="#898989"/>
<path d="M114.487 43.333C114.487 43.333 116.362 46.8512 116.974 48.0377C117.118 48.3175 117.397 48.6167 117.682 48.6266C117.865 48.633 118.049 48.5569 118.189 48.4171C118.468 48.1382 118.388 47.749 118.189 47.4065C117.388 46.0285 115.824 43.2497 115.035 41.8487C114.95 41.6983 114.809 41.5732 114.501 41.5732C114.357 41.5732 110.854 41.5732 109.626 41.5732C109.434 41.5732 109.255 41.6567 109.165 41.8142C108.372 43.2112 106.768 46.0509 105.988 47.4013C105.79 47.743 105.709 48.1353 105.988 48.4147C106.127 48.554 106.31 48.6227 106.493 48.6253C106.734 48.6287 106.987 48.4448 107.144 48.1459C107.838 46.8191 109.679 43.3328 109.679 43.3328V45.7311L106.592 50.9311C106.487 51.1072 106.485 51.3255 106.586 51.5035C106.688 51.6814 106.876 51.7914 107.081 51.7914H109.679V60.1763C109.679 60.7685 110.158 61.2487 110.75 61.2487C111.342 61.2487 111.843 60.7689 111.843 60.1763V51.7914H112.324V60.1763C112.324 60.7685 112.824 61.2487 113.417 61.2487C114.009 61.2487 114.487 60.7689 114.487 60.1763V51.7914H117.094C117.299 51.7914 117.488 51.6812 117.589 51.5029C117.69 51.3245 117.688 51.1058 117.583 50.9298L114.508 45.7806H114.487V43.333H114.487Z" fill="#898989"/>
<path d="M77.0121 2.91921C77.0109 2.64307 77.2338 2.41825 77.51 2.41705L138.361 2.1536C138.637 2.1524 138.862 2.37529 138.863 2.65143L139.205 81.6856C139.216 84.1708 137.21 86.1943 134.725 86.205L81.8738 86.4338C79.3885 86.4446 77.3651 84.4386 77.3543 81.9534L77.0121 2.91921Z" stroke="#D9D9D9"/>
<path d="M150.26 2.02956C150.259 1.75342 150.482 1.5286 150.758 1.5274L211.609 1.26395C211.885 1.26275 212.11 1.48564 212.111 1.76178L212.581 110.297C212.592 112.782 210.586 114.806 208.1 114.817L155.25 115.045C152.764 115.056 150.741 113.05 150.73 110.565L150.26 2.02956Z" stroke="#D9D9D9"/>
<path d="M185.936 58.5576V63.2295C185.743 63.443 185.446 63.6722 185.045 63.917C184.649 64.1566 184.149 64.3623 183.545 64.5342C182.941 64.7061 182.23 64.792 181.412 64.792C180.657 64.792 179.972 64.6722 179.357 64.4326C178.743 64.1878 178.214 63.8311 177.771 63.3623C177.334 62.8883 176.995 62.3102 176.756 61.6279C176.521 60.9404 176.404 60.154 176.404 59.2686V58.6357C176.404 57.7503 176.524 56.9639 176.764 56.2764C177.003 55.5889 177.339 55.0107 177.771 54.542C178.209 54.068 178.722 53.7087 179.311 53.4639C179.904 53.2191 180.555 53.0967 181.264 53.0967C182.311 53.0967 183.162 53.2633 183.818 53.5967C184.475 53.9248 184.972 54.3805 185.311 54.9639C185.649 55.542 185.855 56.2113 185.928 56.9717H183.295C183.243 56.5967 183.144 56.279 182.998 56.0186C182.857 55.7529 182.654 55.5524 182.389 55.417C182.123 55.2764 181.779 55.2061 181.357 55.2061C181.029 55.2061 180.73 55.2764 180.459 55.417C180.193 55.5576 179.967 55.7712 179.779 56.0576C179.592 56.3389 179.446 56.693 179.342 57.1201C179.243 57.5472 179.193 58.0472 179.193 58.6201V59.2686C179.193 59.8363 179.24 60.3337 179.334 60.7607C179.433 61.1878 179.579 61.5446 179.771 61.8311C179.969 62.1123 180.219 62.3258 180.521 62.4717C180.829 62.6123 181.191 62.6826 181.607 62.6826C181.899 62.6826 182.149 62.6592 182.357 62.6123C182.566 62.5602 182.738 62.4977 182.873 62.4248C183.014 62.3467 183.12 62.2738 183.193 62.2061V60.4404H181.287V58.5576H185.936Z" fill="#898989"/>
<rect x="166.264" y="45.1357" width="30" height="28" rx="2.5" stroke="#898989"/>
<path d="M1.29102 222.5L23.452 222.505C36.7496 222.508 47.5148 211.699 47.4573 198.401L47.3745 179.286C47.3177 166.161 36.7275 155.516 23.6027 155.391L2.76311 155.193L1.31699 161.477L1.36945 167.749L1.29102 222.5Z" fill="#D9D9D9"/>
<path d="M21.6406 191.857V193H17.8564V191.857H21.6406ZM18.335 185.891V193H16.8701V185.891H18.335ZM21.1475 188.786V189.899H17.8564V188.786H21.1475ZM21.6357 185.891V187.038H17.8564V185.891H21.6357ZM23.8012 185.891L25.1391 188.371L26.477 185.891H28.1518L26.0863 189.416L28.2055 193H26.516L25.1391 190.471L23.7621 193H22.0629L24.1869 189.416L22.1166 185.891H23.8012ZM30.6004 185.891V193H29.1404V185.891H30.6004ZM35.1047 185.891V193H33.6447V185.891H35.1047ZM37.2922 185.891V187.038H31.4914V185.891H37.2922Z" fill="#27C133"/>
<path d="M11 193.556L7.00006 189.778L11 186" stroke="#27C133" stroke-width="1.77775" stroke-linecap="round"/>
<path d="M302.292 220L280.611 220.133C267.34 220.215 256.521 209.509 256.464 196.238L256.394 179.966C256.337 166.835 266.843 156.096 279.972 155.866L300.792 155.5L302.291 161.5L302.292 167.5L302.292 220Z" fill="#D9D9D9"/>
<path d="M272.405 190.857V192H268.621V190.857H272.405ZM269.1 184.891V192H267.635V184.891H269.1ZM271.912 187.786V188.899H268.621V187.786H271.912ZM272.4 184.891V186.038H268.621V184.891H272.4ZM274.566 184.891L275.904 187.371L277.242 184.891H278.916L276.851 188.416L278.97 192H277.281L275.904 189.471L274.527 192H272.828L274.952 188.416L272.881 184.891H274.566ZM281.365 184.891V192H279.905V184.891H281.365ZM285.869 184.891V192H284.409V184.891H285.869ZM288.057 184.891V186.038H282.256V184.891H288.057Z" fill="#27C133"/>
<path d="M294 185L298 188.778L294 192.555" stroke="#27C133" stroke-width="1.77775" stroke-linecap="round"/>
</svg>
