<svg width="299" height="302" viewBox="0 0 299 302" fill="none" xmlns="http://www.w3.org/2000/svg">
<path d="M298 138.186L278 138.103C264.745 138.049 254.045 127.259 254.099 114.005L254.165 98.1086C254.219 84.8134 265.072 74.0961 278.367 74.2083L298.188 74.3757L298.094 85.4857L298 138.186Z" fill="#D9D9D9"/>
<path d="M0 74H20C33.2548 74 44 84.7452 44 98V113.896C44 127.191 33.1915 137.953 19.8962 137.896L0.0744368 137.81L0.12265 126.7L0 74Z" fill="#D9D9D9"/>
<path d="M114.472 18.1164C115.192 18.1164 115.775 17.5405 115.775 16.8302C115.775 16.1198 115.192 15.5439 114.472 15.5439C113.752 15.5439 113.169 16.1198 113.169 16.8302C113.169 17.5405 113.752 18.1164 114.472 18.1164Z" fill="#898989"/>
<path d="M116.345 18.3315H112.583C112.262 18.3315 112.052 18.5667 112.052 18.8879V20.0211V23.4957C112.052 23.7524 112.234 23.9603 112.491 23.9603C112.694 23.9603 112.826 23.8765 112.904 23.7265V30.2341C112.904 30.6191 113.216 30.9312 113.601 30.9312C113.986 30.9312 114.298 30.6191 114.298 30.2341V24.9926H114.685V30.2342C114.685 30.6193 114.997 30.9313 115.382 30.9313C115.767 30.9313 116.079 30.6193 116.079 30.2342V23.7267C116.157 23.8662 116.302 23.9605 116.474 23.9605C116.731 23.9605 116.931 23.7524 116.931 23.4958V18.8879C116.931 18.5424 116.658 18.3315 116.345 18.3315Z" fill="#898989"/>
<path d="M121.66 18.0934C122.373 18.0934 122.951 17.5227 122.951 16.8187C122.951 16.1147 122.373 15.5439 121.66 15.5439C120.946 15.5439 120.368 16.1147 120.368 16.8187C120.368 17.5227 120.946 18.0934 121.66 18.0934Z" fill="#898989"/>
<path d="M123.205 19.3872C123.205 19.3872 124.413 21.6541 124.807 22.4186C124.9 22.5989 125.08 22.7917 125.263 22.798C125.381 22.8022 125.5 22.7531 125.59 22.663C125.77 22.4834 125.718 22.2326 125.59 22.0119C125.074 21.124 124.066 19.3336 123.558 18.4309C123.503 18.334 123.412 18.2534 123.213 18.2534C123.121 18.2534 120.864 18.2534 120.073 18.2534C119.949 18.2534 119.833 18.3072 119.776 18.4087C119.264 19.3088 118.231 21.1385 117.728 22.0086C117.601 22.2287 117.548 22.4815 117.728 22.6615C117.818 22.7513 117.936 22.7955 118.054 22.7972C118.209 22.7994 118.372 22.6809 118.473 22.4883C118.921 21.6334 120.107 19.3872 120.107 19.3872V20.9324L118.117 24.2829C118.05 24.3963 118.049 24.537 118.114 24.6516C118.179 24.7663 118.301 24.8371 118.433 24.8371H120.107V30.2397C120.107 30.6213 120.415 30.9307 120.797 30.9307C121.178 30.9307 121.501 30.6215 121.501 30.2397V24.8371H121.811V30.2397C121.811 30.6213 122.133 30.9307 122.515 30.9307C122.896 30.9307 123.205 30.6215 123.205 30.2397V24.8371H124.884C125.016 24.8371 125.138 24.7661 125.203 24.6513C125.268 24.5364 125.267 24.3955 125.199 24.282L123.218 20.9643H123.205V19.3872H123.205Z" fill="#898989"/>
<path d="M99.0022 0.900939L138.34 0.730628C138.616 0.729432 138.84 0.952318 138.842 1.22846L139.013 40.8235C139.024 43.3087 137.018 45.3322 134.533 45.3429L103.195 45.4786C100.71 45.4893 98.6865 43.4834 98.6758 40.9981L98.5043 1.4031C98.5031 1.12696 98.726 0.902135 99.0022 0.900939Z" stroke="#D9D9D9"/>
<path d="M174.472 18.1164C175.192 18.1164 175.775 17.5405 175.775 16.8302C175.775 16.1198 175.192 15.5439 174.472 15.5439C173.752 15.5439 173.169 16.1198 173.169 16.8302C173.169 17.5405 173.752 18.1164 174.472 18.1164Z" fill="#898989"/>
<path d="M176.345 18.3315H172.583C172.262 18.3315 172.052 18.5667 172.052 18.8879V20.0211V23.4957C172.052 23.7524 172.234 23.9603 172.491 23.9603C172.694 23.9603 172.826 23.8765 172.904 23.7265V30.2341C172.904 30.6191 173.216 30.9312 173.601 30.9312C173.986 30.9312 174.298 30.6191 174.298 30.2341V24.9926H174.685V30.2342C174.685 30.6193 174.997 30.9313 175.382 30.9313C175.767 30.9313 176.079 30.6193 176.079 30.2342V23.7267C176.157 23.8662 176.302 23.9605 176.474 23.9605C176.731 23.9605 176.931 23.7524 176.931 23.4958V18.8879C176.931 18.5424 176.658 18.3315 176.345 18.3315Z" fill="#898989"/>
<path d="M181.66 18.0934C182.373 18.0934 182.951 17.5227 182.951 16.8187C182.951 16.1147 182.373 15.5439 181.66 15.5439C180.946 15.5439 180.368 16.1147 180.368 16.8187C180.368 17.5227 180.946 18.0934 181.66 18.0934Z" fill="#898989"/>
<path d="M183.205 19.3872C183.205 19.3872 184.413 21.6541 184.807 22.4186C184.9 22.5989 185.08 22.7917 185.263 22.798C185.381 22.8022 185.5 22.7531 185.59 22.663C185.77 22.4834 185.718 22.2326 185.59 22.0119C185.074 21.124 184.066 19.3336 183.558 18.4309C183.503 18.334 183.412 18.2534 183.213 18.2534C183.121 18.2534 180.864 18.2534 180.073 18.2534C179.949 18.2534 179.833 18.3072 179.776 18.4087C179.264 19.3088 178.231 21.1385 177.728 22.0086C177.601 22.2287 177.548 22.4815 177.728 22.6615C177.818 22.7513 177.936 22.7955 178.054 22.7972C178.209 22.7994 178.372 22.6809 178.473 22.4883C178.921 21.6334 180.107 19.3872 180.107 19.3872V20.9324L178.117 24.2829C178.05 24.3963 178.049 24.537 178.114 24.6516C178.179 24.7663 178.301 24.8371 178.433 24.8371H180.107V30.2397C180.107 30.6213 180.415 30.9307 180.797 30.9307C181.178 30.9307 181.501 30.6215 181.501 30.2397V24.8371H181.811V30.2397C181.811 30.6213 182.133 30.9307 182.515 30.9307C182.896 30.9307 183.205 30.6215 183.205 30.2397V24.8371H184.884C185.016 24.8371 185.138 24.7661 185.203 24.6513C185.268 24.5364 185.267 24.3955 185.199 24.282L183.218 20.9643H183.205V19.3872H183.205Z" fill="#898989"/>
<path d="M159.002 0.900939L198.34 0.730628C198.616 0.729432 198.84 0.952318 198.842 1.22846L199.013 40.8235C199.024 43.3087 197.018 45.3322 194.533 45.3429L163.195 45.4786C160.71 45.4893 158.687 43.4834 158.676 40.9981L158.504 1.4031C158.503 1.12696 158.726 0.902135 159.002 0.900939Z" stroke="#D9D9D9"/>
<path d="M197.42 173.572C198.14 173.572 198.724 172.997 198.724 172.286C198.724 171.576 198.14 171 197.42 171C196.701 171 196.117 171.576 196.117 172.286C196.117 172.997 196.701 173.572 197.42 173.572Z" fill="#898989"/>
<path d="M199.293 173.788H195.531C195.21 173.788 195 174.023 195 174.344V175.477V178.952C195 179.208 195.182 179.416 195.439 179.416C195.642 179.416 195.775 179.333 195.852 179.183V185.69C195.852 186.075 196.164 186.387 196.549 186.387C196.934 186.387 197.246 186.075 197.246 185.69V180.449H197.633V185.69C197.633 186.075 197.946 186.387 198.331 186.387C198.716 186.387 199.028 186.075 199.028 185.69V179.183C199.105 179.322 199.25 179.417 199.423 179.417C199.679 179.417 199.88 179.208 199.88 178.952V174.344C199.88 173.998 199.607 173.788 199.293 173.788Z" fill="#898989"/>
<path d="M204.608 173.549C205.321 173.549 205.9 172.979 205.9 172.275C205.9 171.571 205.321 171 204.608 171C203.895 171 203.316 171.571 203.316 172.275C203.316 172.979 203.895 173.549 204.608 173.549Z" fill="#898989"/>
<path d="M206.153 174.843C206.153 174.843 207.361 177.11 207.755 177.875C207.848 178.055 208.028 178.248 208.211 178.254C208.329 178.258 208.448 178.209 208.538 178.119C208.718 177.939 208.666 177.689 208.538 177.468C208.022 176.58 207.014 174.79 206.506 173.887C206.451 173.79 206.36 173.709 206.162 173.709C206.069 173.709 203.812 173.709 203.021 173.709C202.897 173.709 202.782 173.763 202.724 173.865C202.213 174.765 201.18 176.595 200.677 177.465C200.549 177.685 200.497 177.938 200.677 178.118C200.766 178.207 200.884 178.252 201.002 178.253C201.157 178.255 201.321 178.137 201.421 177.944C201.869 177.09 203.055 174.843 203.055 174.843V176.388L201.066 179.739C200.998 179.852 200.997 179.993 201.062 180.108C201.128 180.222 201.249 180.293 201.381 180.293H203.055V185.696C203.055 186.077 203.363 186.387 203.745 186.387C204.127 186.387 204.449 186.078 204.449 185.696V180.293H204.759V185.696C204.759 186.077 205.081 186.387 205.463 186.387C205.845 186.387 206.153 186.078 206.153 185.696V180.293H207.833C207.965 180.293 208.087 180.222 208.152 180.107C208.217 179.992 208.215 179.852 208.148 179.738L206.166 176.42H206.153V174.843H206.153Z" fill="#898989"/>
<path d="M176.449 156.934L227.003 156.715C227.279 156.714 227.504 156.936 227.505 157.213L227.676 196.808C227.687 199.293 225.681 201.316 223.196 201.327L180.642 201.511C178.157 201.522 176.134 199.516 176.123 197.031L175.952 157.436C175.95 157.16 176.173 156.935 176.449 156.934Z" stroke="#D9D9D9"/>
<path d="M133.42 174.572C134.14 174.572 134.724 173.997 134.724 173.286C134.724 172.576 134.14 172 133.42 172C132.701 172 132.117 172.576 132.117 173.286C132.117 173.997 132.701 174.572 133.42 174.572Z" fill="#898989"/>
<path d="M135.293 174.788H131.531C131.21 174.788 131 175.023 131 175.344V176.477V179.952C131 180.208 131.182 180.416 131.439 180.416C131.642 180.416 131.775 180.333 131.852 180.183V186.69C131.852 187.075 132.164 187.387 132.549 187.387C132.934 187.387 133.246 187.075 133.246 186.69V181.449H133.633V186.69C133.633 187.075 133.946 187.387 134.331 187.387C134.716 187.387 135.028 187.075 135.028 186.69V180.183C135.105 180.322 135.25 180.417 135.423 180.417C135.679 180.417 135.88 180.208 135.88 179.952V175.344C135.88 174.998 135.607 174.788 135.293 174.788Z" fill="#898989"/>
<path d="M140.608 174.549C141.321 174.549 141.9 173.979 141.9 173.275C141.9 172.571 141.321 172 140.608 172C139.895 172 139.316 172.571 139.316 173.275C139.316 173.979 139.895 174.549 140.608 174.549Z" fill="#898989"/>
<path d="M142.153 175.843C142.153 175.843 143.361 178.11 143.755 178.875C143.848 179.055 144.028 179.248 144.211 179.254C144.329 179.258 144.448 179.209 144.538 179.119C144.718 178.939 144.666 178.689 144.538 178.468C144.022 177.58 143.014 175.79 142.506 174.887C142.451 174.79 142.36 174.709 142.162 174.709C142.069 174.709 139.812 174.709 139.021 174.709C138.897 174.709 138.782 174.763 138.724 174.865C138.213 175.765 137.18 177.595 136.677 178.465C136.549 178.685 136.497 178.938 136.677 179.118C136.766 179.207 136.884 179.252 137.002 179.253C137.157 179.255 137.321 179.137 137.421 178.944C137.869 178.09 139.055 175.843 139.055 175.843V177.388L137.066 180.739C136.998 180.852 136.997 180.993 137.062 181.108C137.128 181.222 137.249 181.293 137.381 181.293H139.055V186.696C139.055 187.077 139.363 187.387 139.745 187.387C140.127 187.387 140.449 187.078 140.449 186.696V181.293H140.759V186.696C140.759 187.077 141.081 187.387 141.463 187.387C141.845 187.387 142.153 187.078 142.153 186.696V181.293H143.833C143.965 181.293 144.087 181.222 144.152 181.107C144.217 180.992 144.215 180.852 144.148 180.738L142.166 177.42H142.153V175.843H142.153Z" fill="#898989"/>
<path d="M112.449 157.934L163.003 157.715C163.279 157.714 163.504 157.936 163.505 158.213L163.676 197.808C163.687 200.293 161.681 202.316 159.196 202.327L116.642 202.511C114.157 202.522 112.134 200.516 112.123 198.031L111.952 158.436C111.95 158.16 112.173 157.935 112.449 157.934Z" stroke="#D9D9D9"/>
<path fill-rule="evenodd" clip-rule="evenodd" d="M58.8757 202C58.4398 206.175 58.2793 210.394 58.4025 214.628C58.9498 233.443 65.0692 251.602 75.8983 266.545C86.7274 281.488 101.72 292.462 118.763 297.921C135.806 303.379 154.04 303.046 170.895 296.969C187.75 290.892 202.376 279.378 212.711 264.048C223.047 248.719 228.57 230.348 228.504 211.524C228.497 209.521 228.426 207.524 228.294 205.535L175.546 205C175.968 207.205 176.187 209.459 176.195 211.733C176.221 218.982 174.094 226.057 170.114 231.961C166.133 237.864 160.501 242.299 154.009 244.639C147.518 246.979 140.496 247.107 133.932 245.005C127.369 242.903 121.595 238.677 117.424 232.922C113.254 227.167 110.897 220.174 110.686 212.928C110.578 209.21 111.038 205.522 112.028 202H58.8757ZM116 192.932C116.082 192.799 116.165 192.666 116.25 192.534L116 192.356V192.932Z" fill="#D9D9D9"/>
<path d="M18.6406 107.857V109H14.8564V107.857H18.6406ZM15.335 101.891V109H13.8701V101.891H15.335ZM18.1475 104.786V105.899H14.8564V104.786H18.1475ZM18.6357 101.891V103.038H14.8564V101.891H18.6357ZM20.8012 101.891L22.1391 104.371L23.477 101.891H25.1518L23.0863 105.416L25.2055 109H23.516L22.1391 106.471L20.7621 109H19.0629L21.1869 105.416L19.1166 101.891H20.8012ZM27.6004 101.891V109H26.1404V101.891H27.6004ZM32.1047 101.891V109H30.6447V101.891H32.1047ZM34.2922 101.891V103.038H28.4914V101.891H34.2922Z" fill="#27C133"/>
<path d="M8 109.556L4.00006 105.778L8 102" stroke="#27C133" stroke-width="1.77775" stroke-linecap="round"/>
<path d="M266.405 107.857V109H262.621V107.857H266.405ZM263.1 101.891V109H261.635V101.891H263.1ZM265.912 104.786V105.899H262.621V104.786H265.912ZM266.4 101.891V103.038H262.621V101.891H266.4ZM268.566 101.891L269.904 104.371L271.242 101.891H272.916L270.851 105.416L272.97 109H271.281L269.904 106.471L268.527 109H266.828L268.952 105.416L266.881 101.891H268.566ZM275.365 101.891V109H273.905V101.891H275.365ZM279.869 101.891V109H278.409V101.891H279.869ZM282.057 101.891V103.038H276.256V101.891H282.057Z" fill="#27C133"/>
<path d="M288 102L292 105.778L288 109.555" stroke="#27C133" stroke-width="1.77775" stroke-linecap="round"/>
</svg>
