
<svg width="25" height="34" viewBox="0 0 25 34" fill="none" xmlns="http://www.w3.org/2000/svg">
<path d="M15.6289 16.4414V19.9453C15.4844 20.1055 15.2617 20.2773 14.9609 20.4609C14.6641 20.6406 14.2891 20.7949 13.8359 20.9238C13.3828 21.0527 12.8496 21.1172 12.2363 21.1172C11.6699 21.1172 11.1562 21.0273 10.6953 20.8477C10.2344 20.6641 9.83789 20.3965 9.50586 20.0449C9.17773 19.6895 8.92383 19.2559 8.74414 18.7441C8.56836 18.2285 8.48047 17.6387 8.48047 16.9746V16.5C8.48047 15.8359 8.57031 15.2461 8.75 14.7305C8.92969 14.2148 9.18164 13.7812 9.50586 13.4297C9.83398 13.0742 10.2187 12.8047 10.6602 12.6211C11.1055 12.4375 11.5937 12.3457 12.125 12.3457C12.9102 12.3457 13.5488 12.4707 14.041 12.7207C14.5332 12.9668 14.9062 13.3086 15.1602 13.7461C15.4141 14.1797 15.5684 14.6816 15.623 15.252H13.6484C13.6094 14.9707 13.5352 14.7324 13.4258 14.5371C13.3203 14.3379 13.168 14.1875 12.9687 14.0859C12.7695 13.9805 12.5117 13.9277 12.1953 13.9277C11.9492 13.9277 11.7246 13.9805 11.5215 14.0859C11.3223 14.1914 11.1523 14.3516 11.0117 14.5664C10.8711 14.7773 10.7617 15.043 10.6836 15.3633C10.6094 15.6836 10.5723 16.0586 10.5723 16.4883V16.9746C10.5723 17.4004 10.6074 17.7734 10.6777 18.0937C10.752 18.4141 10.8613 18.6816 11.0059 18.8965C11.1543 19.1074 11.3418 19.2676 11.5684 19.377C11.7988 19.4824 12.0703 19.5352 12.3828 19.5352C12.6016 19.5352 12.7891 19.5176 12.9453 19.4824C13.1016 19.4434 13.2305 19.3965 13.332 19.3418C13.4375 19.2832 13.5176 19.2285 13.5723 19.1777V17.8535H12.1426V16.4414H15.6289Z" fill="#898989"/>
<rect x="0.5" y="0.5" width="24" height="33" rx="1.5" stroke="#898989"/>
</svg>
