<svg width="31" height="29" viewBox="0 0 31 29" fill="none" xmlns="http://www.w3.org/2000/svg">
<path d="M20.1719 13.9219V18.5937C19.9792 18.8073 19.6823 19.0365 19.2812 19.2812C18.8854 19.5208 18.3854 19.7266 17.7812 19.8984C17.1771 20.0703 16.4661 20.1562 15.6484 20.1562C14.8932 20.1562 14.2083 20.0365 13.5937 19.7969C12.9792 19.5521 12.4505 19.1953 12.0078 18.7266C11.5703 18.2526 11.2318 17.6745 10.9922 16.9922C10.7578 16.3047 10.6406 15.5182 10.6406 14.6328V14C10.6406 13.1146 10.7604 12.3281 11 11.6406C11.2396 10.9531 11.5755 10.375 12.0078 9.90625C12.4453 9.43229 12.9583 9.07292 13.5469 8.82812C14.1406 8.58333 14.7917 8.46094 15.5 8.46094C16.5469 8.46094 17.3984 8.6276 18.0547 8.96094C18.7109 9.28906 19.2083 9.74479 19.5469 10.3281C19.8854 10.9062 20.0911 11.5755 20.1641 12.3359H17.5312C17.4792 11.9609 17.3802 11.6432 17.2344 11.3828C17.0937 11.1172 16.8906 10.9167 16.625 10.7812C16.3594 10.6406 16.0156 10.5703 15.5937 10.5703C15.2656 10.5703 14.9661 10.6406 14.6953 10.7812C14.4297 10.9219 14.2031 11.1354 14.0156 11.4219C13.8281 11.7031 13.6823 12.0573 13.5781 12.4844C13.4792 12.9115 13.4297 13.4115 13.4297 13.9844V14.6328C13.4297 15.2005 13.4766 15.6979 13.5703 16.125C13.6693 16.5521 13.8151 16.9089 14.0078 17.1953C14.2057 17.4766 14.4557 17.6901 14.7578 17.8359C15.0651 17.9766 15.4271 18.0469 15.8437 18.0469C16.1354 18.0469 16.3854 18.0234 16.5937 17.9766C16.8021 17.9245 16.974 17.862 17.1094 17.7891C17.25 17.7109 17.3568 17.638 17.4297 17.5703V15.8047H15.5234V13.9219H20.1719Z" fill="#898989"/>
<rect x="0.5" y="0.5" width="30" height="28" rx="2.5" stroke="#898989"/>
</svg>
