<svg width="65" height="53" viewBox="0 0 65 53" fill="none" xmlns="http://www.w3.org/2000/svg">
<g filter="url(#filter0_d_95_399)">
<path d="M4.91523 44.2282H60.3956V48H4.91523V44.2282ZM55.7362 7.47245C53.0329 6.70453 50.159 6.75899 47.6444 7.62568L47.5411 7.66104L40.0165 11.3079L18.0577 2.4055C17.0991 2.01275 16.0517 1.90242 15.0346 2.0871C14.0175 2.27177 13.0717 2.74402 12.305 3.45006L9.36522 6.13723C9.0551 6.42077 8.81156 6.77188 8.65269 7.16451C8.49382 7.55715 8.42368 7.98123 8.4475 8.40528C8.47132 8.82934 8.58847 9.24248 8.79026 9.61405C8.99205 9.98562 9.27331 10.3061 9.61315 10.5517L23.2252 20.3888L18.0039 23.1779L13.8688 19.3251C13.0782 18.5899 12.0963 18.1031 11.0409 17.9233C9.98558 17.7435 8.90177 17.8783 7.91973 18.3114L5.67104 19.3057C5.31957 19.461 5.00346 19.6888 4.74261 19.9749C4.48176 20.2609 4.28183 20.599 4.15542 20.9677C4.02901 21.3364 3.97885 21.7279 4.0081 22.1173C4.03736 22.5068 4.1454 22.8859 4.32541 23.2307L12.7424 39.3583L58.581 16.318C61.3256 15.0006 61.6603 12.8945 61.0567 11.3606C60.3877 9.65998 58.4482 8.24284 55.7362 7.47245V7.47245ZM56.9961 12.9101L56.9789 12.9183L14.3231 34.3587L8.0612 22.3596L9.39042 21.7718C9.71777 21.6274 10.0791 21.5825 10.4309 21.6424C10.7826 21.7024 11.11 21.8647 11.3735 22.1098L17.4227 27.7461L30.2906 20.8722L12.6966 8.15727L14.7738 6.25864C15.0293 6.02332 15.3446 5.86592 15.6836 5.80436C16.0226 5.7428 16.3718 5.77956 16.6913 5.91045L40.1483 15.4202L48.9269 11.1658C50.7134 10.5753 52.8409 10.557 54.7826 11.1171C56.3816 11.5784 57.231 12.2486 57.5188 12.6001C57.3561 12.7225 57.1809 12.8265 56.9963 12.9104L56.9961 12.9101Z" fill="url(#paint0_linear_95_399)" shape-rendering="crispEdges"/>
</g>
<defs>
<filter id="filter0_d_95_399" x="0.983606" y="0.491803" width="63.3443" height="52.0328" filterUnits="userSpaceOnUse" color-interpolation-filters="sRGB">
<feFlood flood-opacity="0" result="BackgroundImageFix"/>
<feColorMatrix in="SourceAlpha" type="matrix" values="0 0 0 0 0 0 0 0 0 0 0 0 0 0 0 0 0 0 127 0" result="hardAlpha"/>
<feOffset dy="1.5082"/>
<feGaussianBlur stdDeviation="1.5082"/>
<feComposite in2="hardAlpha" operator="out"/>
<feColorMatrix type="matrix" values="0 0 0 0 0 0 0 0 0 0 0 0 0 0 0 0 0 0 0.25 0"/>
<feBlend mode="normal" in2="BackgroundImageFix" result="effect1_dropShadow_95_399"/>
<feBlend mode="normal" in="SourceGraphic" in2="effect1_dropShadow_95_399" result="shape"/>
</filter>
<linearGradient id="paint0_linear_95_399" x1="56.633" y1="10.2564" x2="56.633" y2="104.026" gradientUnits="userSpaceOnUse">
<stop stop-color="white"/>
<stop offset="1" stop-color="white" stop-opacity="0.6"/>
</linearGradient>
</defs>
</svg>
