<svg width="64" height="52" viewBox="0 0 64 52" fill="none" xmlns="http://www.w3.org/2000/svg">
<g filter="url(#filter0_d_77_872)">
<path d="M6.54545 46C5.82424 46 5.22012 45.7184 4.73309 45.1552C4.24436 44.594 4 43.8978 4 43.0667V4.93333C4 4.10222 4.24436 3.40507 4.73309 2.84187C5.22012 2.28062 5.82424 2 6.54545 2C7.26667 2 7.87164 2.28062 8.36036 2.84187C8.84739 3.40507 9.09091 4.10222 9.09091 4.93333V31.3333H29.4545V13.7333C29.4545 12.12 29.9535 10.7384 30.9513 9.58853C31.9474 8.44062 33.1455 7.86667 34.5455 7.86667H49.8182C52.6182 7.86667 55.0152 9.01556 57.0091 11.3133C59.003 13.6111 60 16.3733 60 19.6V43.0667C60 43.8978 59.7556 44.594 59.2669 45.1552C58.7799 45.7184 58.1758 46 57.4545 46C56.7333 46 56.1292 45.7184 55.6422 45.1552C55.1535 44.594 54.9091 43.8978 54.9091 43.0667V37.2H9.09091V43.0667C9.09091 43.8978 8.84739 44.594 8.36036 45.1552C7.87164 45.7184 7.26667 46 6.54545 46ZM19.2727 28.4C17.1515 28.4 15.3485 27.5444 13.8636 25.8333C12.3788 24.1222 11.6364 22.0444 11.6364 19.6C11.6364 17.1556 12.3788 15.0778 13.8636 13.3667C15.3485 11.6556 17.1515 10.8 19.2727 10.8C21.3939 10.8 23.197 11.6556 24.6818 13.3667C26.1667 15.0778 26.9091 17.1556 26.9091 19.6C26.9091 22.0444 26.1667 24.1222 24.6818 25.8333C23.197 27.5444 21.3939 28.4 19.2727 28.4ZM34.5455 31.3333H54.9091V19.6C54.9091 17.9867 54.411 16.6051 53.4149 15.4552C52.4171 14.3073 51.2182 13.7333 49.8182 13.7333H34.5455V31.3333ZM19.2727 22.5333C19.9939 22.5333 20.5989 22.2517 21.0876 21.6885C21.5747 21.1273 21.8182 20.4311 21.8182 19.6C21.8182 18.7689 21.5747 18.0717 21.0876 17.5085C20.5989 16.9473 19.9939 16.6667 19.2727 16.6667C18.5515 16.6667 17.9465 16.9473 17.4578 17.5085C16.9708 18.0717 16.7273 18.7689 16.7273 19.6C16.7273 20.4311 16.9708 21.1273 17.4578 21.6885C17.9465 22.2517 18.5515 22.5333 19.2727 22.5333ZM34.5455 13.7333V31.3333V13.7333Z" fill="url(#paint0_linear_77_872)" shape-rendering="crispEdges"/>
</g>
<defs>
<filter id="filter0_d_77_872" x="0" y="0" width="64" height="52" filterUnits="userSpaceOnUse" color-interpolation-filters="sRGB">
<feFlood flood-opacity="0" result="BackgroundImageFix"/>
<feColorMatrix in="SourceAlpha" type="matrix" values="0 0 0 0 0 0 0 0 0 0 0 0 0 0 0 0 0 0 127 0" result="hardAlpha"/>
<feOffset dy="2"/>
<feGaussianBlur stdDeviation="2"/>
<feComposite in2="hardAlpha" operator="out"/>
<feColorMatrix type="matrix" values="0 0 0 0 0 0 0 0 0 0 0 0 0 0 0 0 0 0 0.25 0"/>
<feBlend mode="normal" in2="BackgroundImageFix" result="effect1_dropShadow_77_872"/>
<feBlend mode="normal" in="SourceGraphic" in2="effect1_dropShadow_77_872" result="shape"/>
</filter>
<linearGradient id="paint0_linear_77_872" x1="55.4286" y1="9.89743" x2="55.4286" y2="99.5897" gradientUnits="userSpaceOnUse">
<stop stop-color="white"/>
<stop offset="1" stop-color="white" stop-opacity="0.6"/>
</linearGradient>
</defs>
</svg>
