
<svg width="26" height="39" viewBox="0 0 26 39" fill="none" xmlns="http://www.w3.org/2000/svg">
<path d="M13.0001 13.1058C13.8814 13.1058 14.5959 12.4106 14.5959 11.5529C14.5959 10.6953 13.8814 10 13.0001 10C12.1188 10 11.4043 10.6953 11.4043 11.5529C11.4043 12.4106 12.1188 13.1058 13.0001 13.1058Z" fill="#898989"/>
<path d="M14.9098 14.684C14.9098 14.684 16.4019 17.4456 16.8893 18.3768C17.0042 18.5965 17.2264 18.8313 17.4527 18.8391C17.5985 18.8441 17.7454 18.7844 17.8564 18.6746C18.0785 18.4558 18.0146 18.1503 17.8562 17.8814C17.219 16.7998 15.9737 14.6186 15.3456 13.519C15.2781 13.4009 15.1658 13.3027 14.9203 13.3027C14.8057 13.3027 12.0177 13.3027 11.0398 13.3027C10.8868 13.3027 10.7442 13.3682 10.673 13.4919C10.041 14.5884 8.76485 16.8174 8.1433 17.8774C7.98609 18.1455 7.92112 18.4535 8.1433 18.6727C8.25435 18.7821 8.40004 18.8361 8.54544 18.8381C8.73749 18.8407 8.93914 18.6964 9.06362 18.4618C9.61654 17.4204 11.0818 14.6839 11.0818 14.6839V16.5663L8.62405 20.648C8.54093 20.7862 8.5393 20.9575 8.61992 21.0972C8.70054 21.2369 8.85084 21.3232 9.01381 21.3232H11.0819L11.0819 27.9048C11.0819 28.3696 11.4629 28.7465 11.9344 28.7465C12.4059 28.7465 12.8045 28.3699 12.8045 27.9048L12.8045 21.3232H13.1873L13.1873 27.9048C13.1873 28.3696 13.5858 28.7465 14.0573 28.7465C14.5286 28.7465 14.9096 28.3699 14.9096 27.9048L14.9096 21.3232H16.985C17.148 21.3232 17.2987 21.2367 17.379 21.0968C17.4594 20.9568 17.4575 20.7851 17.374 20.647L14.9258 16.6052H14.9094V14.684H14.9098Z" fill="#898989"/>
<path d="M2.00272 0.579064L23.0026 0.506974C23.831 0.50413 24.5063 1.17339 24.5108 2.0018L24.6972 36.1515C24.7018 36.9799 24.0339 37.6537 23.2054 37.6566L2.20557 37.7287C1.37714 37.7315 0.701909 37.0623 0.697386 36.2339L0.510918 2.08419C0.506394 1.25578 1.1743 0.581908 2.00272 0.579064Z" stroke="#898989"/>
</svg>
