<svg width="148" height="55" viewBox="0 0 148 55" fill="none" xmlns="http://www.w3.org/2000/svg">
<path d="M3.72561 29.4643C3.56391 28.781 3.39717 28.0124 3.23042 27.1634C3.05862 26.3144 2.90703 25.3398 2.7605 24.2446C2.61396 23.1494 2.49269 21.8935 2.38658 20.4868C2.28552 19.0752 2.20468 17.4525 2.15415 15.6188C2.63418 15.237 3.23547 14.8954 3.96309 14.6091C4.69071 14.3177 5.44865 14.177 6.23691 14.172C7.22728 14.172 8.00543 14.3679 8.5663 14.7648C9.13223 15.1617 9.44551 15.9052 9.52131 17.0004L10.4157 28.3038H10.5875C11.1281 27.3694 11.6789 26.3546 12.2448 25.2594C12.8057 24.1642 13.3716 23.0289 13.9376 21.8633C14.5035 20.6978 15.0441 19.5323 15.5646 18.3668C16.085 17.2013 16.5651 16.0559 17.0097 14.9306C18.1416 14.4081 19.3139 14.1469 20.5316 14.1418C21.522 14.1418 22.2951 14.3428 22.856 14.7547C23.4168 15.1617 23.5886 15.875 23.3663 16.8898C23.2046 17.6283 22.9216 18.4874 22.5124 19.462C22.1031 20.4366 21.618 21.4715 21.0521 22.5667C20.4861 23.6618 19.8596 24.7972 19.1673 25.9627C18.4751 27.1282 17.7677 28.2737 17.0451 29.399C16.3225 30.5243 15.5949 31.5893 14.8723 32.5891C14.1447 33.5938 13.4575 34.488 12.8007 35.2868C11.7193 36.6332 10.7441 37.7283 9.88006 38.5824C9.01601 39.4314 8.2227 40.0996 7.50014 40.5818C6.77252 41.0641 6.08027 41.3907 5.41833 41.5715C4.7564 41.7524 4.08942 41.8428 3.41233 41.8428C2.22489 41.8428 1.33558 41.5062 0.75449 40.823C0.168352 40.1397 -0.0792414 39.2505 0.021817 38.1554C1.07282 37.4671 2.14404 36.7035 3.23042 35.8696C4.3168 35.0306 5.32233 34.1715 6.25207 33.2924C5.7973 33.1567 5.35265 32.8352 4.91304 32.3278C4.46333 31.8154 4.06921 30.8609 3.72561 29.4643Z" fill="black"/>
<path d="M34.1897 13.9058C35.7157 13.9007 37.0749 14.0514 38.2674 14.3479C39.4599 14.6443 40.4351 15.1014 41.193 15.7193C41.951 16.3322 42.4664 17.1159 42.7392 18.0604C43.0121 19.0049 43.0121 20.1201 42.7342 21.4112L40.7332 30.6248C40.5766 31.3382 40.2481 31.9209 39.7378 32.3731C39.2325 32.8252 38.6565 33.217 38.0198 33.5486C35.9481 34.6237 33.2498 35.1612 29.9098 35.1713C28.4091 35.1763 27.0903 35.0407 25.9484 34.7694C24.8064 34.4981 23.8615 34.0912 23.1238 33.5436C22.381 32.996 21.8656 32.2977 21.5877 31.4487C21.3047 30.5997 21.2845 29.615 21.5321 28.4897C21.9414 26.5957 22.8358 25.1439 24.2203 24.1291C25.5997 23.1143 27.5299 22.4763 30.016 22.2251L35.6954 21.6373L35.7561 21.351C35.9279 20.5572 35.6904 19.9895 35.0436 19.6479C34.3968 19.3063 33.3964 19.1355 32.0371 19.1405C30.9609 19.1405 29.8896 19.2561 28.8285 19.4771C27.7624 19.6981 26.7871 19.9744 25.8928 20.306C25.5795 20.0599 25.3521 19.6831 25.2056 19.1757C25.059 18.6683 25.0489 18.1408 25.1652 17.5932C25.3218 16.8798 25.6199 16.3121 26.0646 15.8851C26.5092 15.4581 27.1358 15.0964 27.9342 14.7899C28.8184 14.4885 29.8341 14.2675 30.9811 14.1268C32.1331 13.9761 33.1993 13.9058 34.1897 13.9058ZM31.0215 30.0672C31.5015 30.0672 32.0422 30.0169 32.6435 29.9215C33.2448 29.826 33.7046 29.6954 34.0229 29.5296L34.7354 26.2391L31.6278 26.4903C30.8244 26.5455 30.1372 26.7113 29.5713 26.9876C29.0054 27.2639 28.6618 27.6759 28.5405 28.2234C28.4192 28.771 28.5405 29.2181 28.9094 29.5598C29.2681 29.8964 29.9755 30.0672 31.0215 30.0672Z" fill="black"/>
<path d="M49.9901 34.4227C49.6667 34.4779 49.1918 34.5533 48.5652 34.6487C47.9386 34.7442 47.3121 34.7944 46.6906 34.7944C46.0691 34.7944 45.5183 34.7542 45.0433 34.6739C44.5683 34.5935 44.1843 34.4277 43.9014 34.1815C43.6184 33.9354 43.4264 33.5988 43.3354 33.1768C43.2445 32.7498 43.2748 32.1972 43.4213 31.5139L48.6006 7.66619C48.924 7.61093 49.3989 7.53557 50.0255 7.44012C50.6521 7.34467 51.2786 7.29443 51.9001 7.29443C52.5216 7.29443 53.0724 7.33462 53.5474 7.415C54.0224 7.49538 54.4064 7.66117 54.6893 7.90733C54.9723 8.15349 55.1643 8.49009 55.2553 8.91208C55.3462 9.3391 55.3159 9.89171 55.1694 10.5749L49.9901 34.4227Z" fill="black"/>
<path d="M60.6973 34.3976C60.3739 34.4529 59.8989 34.5283 59.2724 34.6237C58.6458 34.7192 58.0192 34.7694 57.3977 34.7694C56.7762 34.7694 56.2254 34.7292 55.7505 34.6488C55.2755 34.5685 54.8915 34.4027 54.6085 34.1565C54.3255 33.9103 54.1335 33.5738 54.0426 33.1518C53.9516 32.7298 53.9819 32.1721 54.1285 31.4889L59.3077 7.64117C59.6311 7.58591 60.1061 7.51055 60.7326 7.4151C61.3592 7.31965 61.9858 7.26941 62.6073 7.26941C63.2288 7.26941 63.7796 7.3096 64.2545 7.38998C64.7295 7.47036 65.1135 7.63614 65.3965 7.88231C65.6795 8.12847 65.8715 8.46506 65.9624 8.88706C66.0534 9.31407 66.0231 9.86669 65.8765 10.5499L60.6973 34.3976Z" fill="black"/>
<path d="M77.0435 13.8103C78.5695 13.8053 79.9287 13.956 81.1212 14.2524C82.3137 14.5538 83.2889 15.006 84.0468 15.6239C84.8048 16.2368 85.3202 17.0205 85.593 17.9649C85.8659 18.9094 85.8659 20.0247 85.588 21.3158L83.587 30.5293C83.4304 31.2427 83.1019 31.8255 82.5916 32.2776C82.0863 32.7297 81.5103 33.1216 80.8736 33.4532C78.8019 34.5282 76.0986 35.0658 72.7637 35.0758C71.268 35.0809 69.9441 34.9452 68.8022 34.6739C67.6602 34.4026 66.7153 33.9957 65.9776 33.4481C65.2348 32.9005 64.7194 32.2022 64.4415 31.3532C64.1585 30.5042 64.1383 29.5196 64.3809 28.3942C64.7901 26.5003 65.6896 25.0484 67.069 24.0336C68.4485 23.0188 70.3787 22.3808 72.8647 22.1296L78.5442 21.5419L78.6048 21.2555C78.7766 20.4617 78.5391 19.8941 77.8924 19.5524C77.2456 19.2108 76.2451 19.045 74.8859 19.045C73.8096 19.045 72.7384 19.1606 71.6773 19.3816C70.6111 19.6027 69.6359 19.879 68.7415 20.2106C68.4283 19.9644 68.2009 19.5876 68.0543 19.0802C67.9078 18.5728 67.8977 18.0453 68.0139 17.4977C68.1706 16.7844 68.4687 16.2167 68.9133 15.7897C69.358 15.3626 69.9845 15.0009 70.7829 14.6945C71.6672 14.3931 72.6828 14.172 73.8298 14.0313C74.9869 13.8857 76.0582 13.8153 77.0435 13.8103ZM73.8753 29.9717C74.3553 29.9717 74.896 29.9215 75.4973 29.826C76.0986 29.7306 76.5584 29.5999 76.8767 29.4342L77.5892 26.1436L74.4817 26.3948C73.6782 26.4501 72.991 26.6158 72.4251 26.8921C71.8592 27.1684 71.5156 27.5804 71.3943 28.128C71.273 28.6756 71.3943 29.1227 71.7632 29.4643C72.127 29.8059 72.8293 29.9767 73.8753 29.9717Z" fill="black"/>
<path d="M21.8454 42.1342C21.5826 42.1342 21.3249 42.1744 21.0672 42.2598C20.8146 42.3402 20.5821 42.4607 20.375 42.6215C20.1678 42.7822 19.9859 42.9782 19.8292 43.2093C19.6726 43.4454 19.5614 43.7217 19.4907 44.0382C19.3543 44.6712 19.4351 45.1434 19.7433 45.4599C20.0465 45.7764 20.4659 45.9321 21.0066 45.9321C21.3249 45.9321 21.6028 45.897 21.8504 45.8216C22.098 45.7513 22.3153 45.6709 22.5123 45.5905C22.6942 45.7312 22.8155 45.8869 22.8863 46.0577C22.957 46.2285 22.962 46.4295 22.9115 46.6606C22.8206 47.0775 22.5477 47.4041 22.0828 47.6352C21.623 47.8663 21.0318 47.9818 20.3042 47.9818C19.6423 47.9818 19.0612 47.8914 18.566 47.7055C18.0708 47.5196 17.6666 47.2534 17.3584 46.9118C17.0501 46.5701 16.843 46.1632 16.7368 45.6809C16.6307 45.2037 16.6408 44.6712 16.7672 44.0884C16.9137 43.4152 17.1562 42.8275 17.4897 42.3201C17.8232 41.8127 18.2224 41.4007 18.6822 41.0691C19.142 40.7426 19.6473 40.4964 20.193 40.3307C20.7388 40.1649 21.2946 40.0845 21.8656 40.0795C22.6235 40.0795 23.1793 40.2101 23.533 40.4713C23.8867 40.7376 24.0181 41.0792 23.9272 41.4962C23.8867 41.6921 23.8008 41.8729 23.6695 42.0387C23.5381 42.2095 23.3966 42.3502 23.24 42.4758C23.0783 42.3954 22.8812 42.315 22.6437 42.2397C22.4062 42.1744 22.1384 42.1342 21.8454 42.1342Z" fill="black"/>
<path d="M31.173 47.7106C31.0619 47.7407 30.8901 47.7708 30.6576 47.806C30.4252 47.8362 30.1877 47.8512 29.9452 47.8562C29.7127 47.8562 29.5106 47.8412 29.3338 47.811C29.1569 47.7809 29.0154 47.7206 28.9093 47.6302C28.8032 47.5397 28.7325 47.4142 28.6971 47.2534C28.6617 47.0977 28.6718 46.8917 28.7274 46.6355L29.4651 43.2394C29.5561 42.8224 29.5106 42.526 29.3338 42.3603C29.1519 42.1895 28.9093 42.1091 28.591 42.1091C28.3788 42.1091 28.1767 42.1342 27.9745 42.1895C27.7724 42.2397 27.6057 42.3 27.4794 42.3753L26.3172 47.7307C26.206 47.7608 26.0342 47.7909 25.8018 47.8261C25.5693 47.8562 25.3319 47.8713 25.0893 47.8713C24.8569 47.8713 24.6548 47.8562 24.4779 47.8261C24.3011 47.796 24.1596 47.7357 24.0535 47.6452C23.9474 47.5548 23.8766 47.4292 23.8413 47.2685C23.8059 47.1077 23.816 46.9017 23.8716 46.6505L25.7967 37.7786C25.918 37.7585 26.0949 37.7284 26.3273 37.6932C26.5597 37.658 26.7922 37.6379 27.0246 37.6379C27.257 37.6379 27.4591 37.653 27.636 37.6832C27.8128 37.7133 27.9543 37.7736 28.0604 37.864C28.1666 37.9544 28.2373 38.08 28.2727 38.2408C28.308 38.3965 28.2979 38.6075 28.2423 38.8587L27.919 40.3558C28.0655 40.3056 28.2878 40.2453 28.5809 40.18C28.874 40.1147 29.1923 40.0795 29.5258 40.0795C30.5667 40.0795 31.3246 40.3256 31.7996 40.833C32.2746 41.3354 32.4009 42.089 32.1836 43.0887L31.173 47.7106Z" fill="black"/>
<path d="M36.4432 47.9617C35.8217 47.9617 35.2659 47.8813 34.7707 47.7105C34.2755 47.5447 33.8713 47.2936 33.5479 46.957C33.2245 46.6204 33.0072 46.1984 32.891 45.691C32.7748 45.1836 32.7899 44.5858 32.9415 43.9025C33.0881 43.2293 33.3256 42.6516 33.6591 42.1643C33.9875 41.682 34.3715 41.2801 34.8111 40.9687C35.2457 40.6572 35.7156 40.4261 36.2209 40.2754C36.7262 40.1247 37.2264 40.0493 37.7216 40.0493C38.2774 40.0493 38.7676 40.1297 39.192 40.2905C39.6164 40.4512 39.96 40.6773 40.2278 40.9586C40.4957 41.245 40.6776 41.5866 40.7786 41.9835C40.8746 42.3803 40.8746 42.8124 40.7736 43.2846C40.6978 43.6313 40.5411 43.8975 40.3036 44.0784C40.0611 44.2642 39.7579 44.3798 39.3891 44.43L35.3669 45.0128C35.4074 45.3494 35.5893 45.6006 35.9127 45.7663C36.236 45.9321 36.6251 46.0175 37.09 46.0175C37.5195 46.0175 37.9389 45.9623 38.3482 45.8517C38.7524 45.7462 39.096 45.6207 39.3688 45.475C39.5154 45.5754 39.6265 45.7211 39.7023 45.902C39.7781 46.0879 39.7933 46.2788 39.7478 46.4847C39.6468 46.9419 39.3537 47.2835 38.8636 47.5096C38.4896 47.6854 38.0854 47.801 37.6509 47.8663C37.2163 47.9266 36.8121 47.9567 36.4432 47.9617ZM37.3073 41.9483C37.0546 41.9483 36.8272 41.9885 36.6251 42.0689C36.423 42.1492 36.2512 42.2547 36.1097 42.3854C35.9682 42.516 35.847 42.6566 35.756 42.8174C35.6651 42.9782 35.5943 43.1389 35.5488 43.2997L38.3381 42.8676C38.3482 42.6617 38.2774 42.4607 38.1258 42.2547C37.9692 42.0488 37.6963 41.9483 37.3073 41.9483Z" fill="black"/>
<path d="M46.256 42.084C45.9932 42.084 45.7355 42.1242 45.4778 42.2096C45.2252 42.29 44.9928 42.4106 44.7856 42.5713C44.5784 42.7271 44.3965 42.928 44.2399 43.1591C44.0832 43.3952 43.9721 43.6715 43.9013 43.988C43.7649 44.621 43.8457 45.0933 44.154 45.4098C44.4572 45.7262 44.8765 45.882 45.4172 45.882C45.7355 45.882 46.0135 45.8468 46.261 45.7715C46.5086 45.7011 46.7259 45.6207 46.923 45.5404C47.1049 45.681 47.2262 45.8368 47.2969 46.0076C47.3676 46.1784 47.3727 46.3793 47.3222 46.6104C47.2312 47.0274 46.9583 47.3539 46.4935 47.585C46.0337 47.8161 45.4425 47.9317 44.7149 47.9317C44.0529 47.9317 43.4718 47.8412 42.9766 47.6503C42.4815 47.4645 42.0772 47.1982 41.769 46.8566C41.4608 46.515 41.2536 46.1081 41.1475 45.6258C41.0414 45.1485 41.0515 44.616 41.1778 44.0332C41.3243 43.3601 41.5669 42.7723 41.9004 42.2649C42.2339 41.7575 42.6331 41.3455 43.0929 41.014C43.5527 40.6874 44.058 40.4413 44.6037 40.2755C45.1494 40.1097 45.7052 40.0293 46.2762 40.0243C47.0341 40.0243 47.59 40.1549 47.9437 40.4161C48.2974 40.6824 48.4287 41.024 48.3378 41.441C48.2974 41.6369 48.2115 41.8178 48.0801 41.9836C47.9487 42.1493 47.8072 42.295 47.6506 42.4206C47.4889 42.3402 47.2918 42.2599 47.0544 42.1845C46.8169 42.1192 46.5541 42.079 46.256 42.084Z" fill="black"/>
<path d="M55.7959 46.3291C55.6393 46.8114 55.4169 47.1781 55.1239 47.4343C54.8308 47.6905 54.4619 47.8161 54.0072 47.8212C53.6686 47.8212 53.3857 47.7408 53.1583 47.585C52.9309 47.4293 52.7035 47.158 52.4812 46.7863L51.3342 44.8923L50.7278 47.6755C50.6066 47.6956 50.4297 47.7257 50.1973 47.7609C49.9648 47.796 49.7324 47.8161 49.5 47.8161C49.2675 47.8161 49.0654 47.8011 48.8886 47.7709C48.7117 47.7408 48.5702 47.6805 48.4641 47.5901C48.358 47.4996 48.2873 47.3741 48.2519 47.2133C48.2165 47.0576 48.2266 46.8516 48.2822 46.5954L50.2074 37.7385C50.3286 37.7084 50.5055 37.6732 50.743 37.638C50.9754 37.6029 51.2079 37.5828 51.4403 37.5828C51.6727 37.5828 51.8748 37.5978 52.0517 37.628C52.2285 37.6581 52.37 37.7184 52.4761 37.8088C52.5822 37.8993 52.653 38.0249 52.6884 38.1856C52.7237 38.3414 52.7136 38.5473 52.658 38.8035L51.7839 42.8426L55.0784 40.1449C55.6241 40.1449 56.0384 40.2604 56.3214 40.4965C56.5993 40.7276 56.7054 41.024 56.6246 41.3807C56.5943 41.5365 56.5336 41.6771 56.4528 41.8027C56.3719 41.9283 56.2608 42.0589 56.1243 42.1946C55.9829 42.3252 55.8111 42.4658 55.6089 42.6166C55.4018 42.7623 55.1643 42.9381 54.8914 43.129L53.8101 43.8976L55.7959 46.3291Z" fill="black"/>
<path d="M61.8796 47.6453C61.7584 47.6654 61.5815 47.6955 61.3491 47.7307C61.1166 47.7659 60.8791 47.7859 60.6518 47.7859C60.4193 47.7859 60.2172 47.7709 60.0404 47.7407C59.8635 47.7106 59.722 47.6503 59.6159 47.5599C59.5098 47.4694 59.4391 47.3439 59.4037 47.1831C59.3683 47.0223 59.3784 46.8164 59.434 46.5652L60.7831 40.3408C60.9044 40.3207 61.0813 40.2905 61.3137 40.2553C61.5461 40.2202 61.7786 40.2001 62.011 40.2001C62.2434 40.2001 62.4455 40.2152 62.6224 40.2453C62.7993 40.2754 62.9407 40.3357 63.0519 40.4262C63.158 40.5166 63.2287 40.6422 63.2641 40.7979C63.2995 40.9536 63.2894 41.1596 63.2338 41.4158L61.8796 47.6453ZM61.1318 38.1655C61.2177 37.7786 61.4198 37.4521 61.7482 37.1858C62.0767 36.9196 62.4557 36.7839 62.9003 36.7839C63.3399 36.7839 63.6684 36.9146 63.8806 37.1808C64.0928 37.4471 64.1534 37.7736 64.0726 38.1604C63.9867 38.5473 63.7846 38.8738 63.4561 39.1401C63.1277 39.4063 62.7487 39.5369 62.3041 39.542C61.8645 39.542 61.536 39.4114 61.3238 39.1451C61.1065 38.8788 61.0459 38.5523 61.1318 38.1655Z" fill="black"/>
<path d="M69.075 42.938C69.1457 42.6215 69.1002 42.3904 68.9486 42.2448C68.797 42.0991 68.5646 42.0237 68.2513 42.0237C68.0391 42.0237 67.8269 42.0488 67.6096 42.1041C67.3923 42.1543 67.2003 42.2297 67.0336 42.3352L65.8815 47.6453C65.7703 47.6754 65.5985 47.7056 65.3661 47.7357C65.1337 47.7659 64.8962 47.7809 64.6537 47.786C64.4212 47.786 64.2191 47.7709 64.0422 47.7407C63.8654 47.7106 63.7239 47.6503 63.6178 47.5599C63.5117 47.4695 63.441 47.3439 63.4056 47.1831C63.3702 47.0274 63.3803 46.8214 63.4359 46.5652L64.4313 41.9785C64.492 41.7022 64.6031 41.4761 64.7598 41.3053C64.9164 41.1295 65.1185 40.9737 65.3611 40.8281C65.7703 40.5819 66.2655 40.3809 66.8416 40.2302C67.4176 40.0745 68.0341 39.9991 68.701 39.9991C69.8885 39.9991 70.7475 40.2453 71.2831 40.7527C71.8136 41.2551 71.9804 41.9584 71.7884 42.8526L70.7374 47.6252C70.6262 47.6553 70.4544 47.6855 70.222 47.7206C69.9895 47.7508 69.7521 47.7659 69.5095 47.7659C69.2771 47.7659 69.075 47.7508 68.8981 47.7206C68.7213 47.6905 68.5798 47.6302 68.4737 47.5398C68.3676 47.4494 68.2968 47.3238 68.2614 47.163C68.2261 47.0022 68.2362 46.7963 68.2918 46.5451L69.075 42.938Z" fill="black"/>
<path d="M77.9227 42.9179C77.9934 42.6014 77.9479 42.3703 77.7964 42.2246C77.6448 42.0789 77.4123 42.0036 77.099 42.0036C76.8868 42.0036 76.6746 42.0287 76.4573 42.084C76.2401 42.1342 76.048 42.2095 75.8813 42.315L74.7292 47.6251C74.6181 47.6553 74.4463 47.6854 74.2138 47.7206C73.9814 47.7507 73.7439 47.7658 73.5014 47.7658C73.2689 47.7658 73.0668 47.7507 72.89 47.7206C72.7131 47.6905 72.5716 47.6302 72.4655 47.5397C72.3594 47.4493 72.2887 47.3237 72.2533 47.163C72.2179 47.0022 72.228 46.7962 72.2836 46.545L73.279 41.9584C73.3397 41.6821 73.4508 41.456 73.6075 41.2852C73.7641 41.1093 73.9662 40.9536 74.2088 40.8079C74.6181 40.5618 75.1133 40.3608 75.6893 40.2101C76.2653 40.0544 76.8818 39.979 77.5437 39.979C78.7311 39.979 79.5901 40.2252 80.1257 40.7326C80.6563 41.2349 80.8231 41.9383 80.631 42.8325L79.5901 47.6201C79.479 47.6503 79.3072 47.6804 79.0747 47.7106C78.8423 47.7407 78.6048 47.7558 78.3623 47.7608C78.1298 47.7608 77.9277 47.7457 77.7509 47.7156C77.574 47.6854 77.4325 47.6251 77.3264 47.5347C77.2203 47.4443 77.1496 47.3187 77.1142 47.1579C77.0788 46.9972 77.0889 46.7912 77.1445 46.54L77.9227 42.9179Z" fill="black"/>
<path d="M92.5458 0.00502375L117.295 0C117.265 0.0502375 113.51 7.17894 113.51 7.17894C113.273 7.6361 112.798 7.92245 112.283 7.91743H99.0843C98.6599 7.91743 98.3921 8.36956 98.6043 8.7363L99.7008 10.6303C99.8675 10.9166 100.13 11.1326 100.438 11.2381L108.331 13.9761C109.114 14.2473 109.483 15.1466 109.104 15.8851L103.066 27.7462L89.6 4.60175C88.3923 2.5169 90.0143 -0.0150712 92.5458 0.00502375Z" fill="#1CB1BC"/>
<path d="M123.99 0.0150146L119.235 9.48478C119.155 9.64554 119.16 9.83644 119.245 9.99218L126.385 22.23C126.592 22.6018 126.32 23.0489 125.89 23.0489H123.348C123.222 23.0439 123.106 22.9987 123.01 22.9183L116.674 18.1307C115.996 17.5579 114.961 17.7639 114.556 18.5526L99.5795 47.5698C97.8413 51.001 100.494 54.9999 104.547 54.9999C107.796 54.9999 114.157 54.9899 117.391 54.9899C120.438 54.9899 123.136 53.4074 124.435 50.8754C130.195 39.6222 147.557 5.90787 147.557 5.90787C148.941 3.19002 146.845 0.0451571 143.626 0.0200384L123.99 0.0150146Z" fill="#1CB1BC"/>
</svg>
