<svg width="299" height="251" viewBox="0 0 299 251" fill="none" xmlns="http://www.w3.org/2000/svg">
<path d="M100.875 250.001L100.611 189.15C100.61 188.874 100.833 188.649 101.109 188.648L202.579 188.209L202.847 250.06L101.377 250.499C101.101 250.5 100.876 250.277 100.875 250.001Z" stroke="#D9D9D9"/>
<path d="M156.172 218.922V223.594C155.979 223.807 155.682 224.036 155.281 224.281C154.885 224.521 154.385 224.727 153.781 224.898C153.177 225.07 152.466 225.156 151.648 225.156C150.893 225.156 150.208 225.036 149.594 224.797C148.979 224.552 148.451 224.195 148.008 223.727C147.57 223.253 147.232 222.674 146.992 221.992C146.758 221.305 146.641 220.518 146.641 219.633V219C146.641 218.115 146.76 217.328 147 216.641C147.24 215.953 147.576 215.375 148.008 214.906C148.445 214.432 148.958 214.073 149.547 213.828C150.141 213.583 150.792 213.461 151.5 213.461C152.547 213.461 153.398 213.628 154.055 213.961C154.711 214.289 155.208 214.745 155.547 215.328C155.885 215.906 156.091 216.576 156.164 217.336H153.531C153.479 216.961 153.38 216.643 153.234 216.383C153.094 216.117 152.891 215.917 152.625 215.781C152.359 215.641 152.016 215.57 151.594 215.57C151.266 215.57 150.966 215.641 150.695 215.781C150.43 215.922 150.203 216.135 150.016 216.422C149.828 216.703 149.682 217.057 149.578 217.484C149.479 217.911 149.43 218.411 149.43 218.984V219.633C149.43 220.201 149.477 220.698 149.57 221.125C149.669 221.552 149.815 221.909 150.008 222.195C150.206 222.477 150.456 222.69 150.758 222.836C151.065 222.977 151.427 223.047 151.844 223.047C152.135 223.047 152.385 223.023 152.594 222.977C152.802 222.924 152.974 222.862 153.109 222.789C153.25 222.711 153.357 222.638 153.43 222.57V220.805H151.523V218.922H156.172Z" fill="#898989"/>
<rect x="136.5" y="205.5" width="30" height="28" rx="2.5" stroke="#898989"/>
<path d="M298.006 205.186L278.006 205.103C264.751 205.049 254.05 194.259 254.105 181.005L254.171 165.109C254.225 151.813 265.078 141.096 278.373 141.208L298.194 141.376L298.1 152.486L298.006 205.186Z" fill="#D9D9D9"/>
<path d="M0 141H20C33.2548 141 44 151.745 44 165V180.896C44 194.191 33.1915 204.953 19.8962 204.896L0.0744368 204.81L0.12265 193.7L0 141Z" fill="#D9D9D9"/>
<rect x="41" y="123.179" width="41.3329" height="9.03056" transform="rotate(-0.248061 41 123.179)" fill="#E9E9E9"/>
<rect x="218" y="123.179" width="41.3329" height="9.03056" transform="rotate(-0.248061 218 123.179)" fill="#E9E9E9"/>
<path d="M4.99434 3.89264L65.8452 3.62918C66.1213 3.62799 66.3461 3.85087 66.3473 4.12701L66.8172 112.662C66.828 115.148 64.822 117.171 62.3368 117.182L9.48585 117.411C7.0006 117.421 4.97718 115.415 4.96642 112.93L4.49651 4.3948C4.49532 4.11866 4.7182 3.89383 4.99434 3.89264Z" stroke="#D9D9D9"/>
<path d="M40.1719 60.9229V65.5947C39.9792 65.8083 39.6823 66.0374 39.2812 66.2822C38.8854 66.5218 38.3854 66.7275 37.7812 66.8994C37.1771 67.0713 36.4661 67.1572 35.6484 67.1572C34.8932 67.1572 34.2083 67.0374 33.5937 66.7979C32.9792 66.5531 32.4505 66.1963 32.0078 65.7275C31.5703 65.2536 31.2318 64.6755 30.9922 63.9932C30.7578 63.3057 30.6406 62.5192 30.6406 61.6338V61.001C30.6406 60.1156 30.7604 59.3291 31 58.6416C31.2396 57.9541 31.5755 57.376 32.0078 56.9072C32.4453 56.4333 32.9583 56.0739 33.5469 55.8291C34.1406 55.5843 34.7917 55.4619 35.5 55.4619C36.5469 55.4619 37.3984 55.6286 38.0547 55.9619C38.7109 56.29 39.2083 56.7458 39.5469 57.3291C39.8854 57.9072 40.0911 58.5765 40.1641 59.3369H37.5312C37.4792 58.9619 37.3802 58.6442 37.2344 58.3838C37.0937 58.1182 36.8906 57.9176 36.625 57.7822C36.3594 57.6416 36.0156 57.5713 35.5937 57.5713C35.2656 57.5713 34.9661 57.6416 34.6953 57.7822C34.4297 57.9229 34.2031 58.1364 34.0156 58.4229C33.8281 58.7041 33.6823 59.0583 33.5781 59.4854C33.4792 59.9124 33.4297 60.4124 33.4297 60.9854V61.6338C33.4297 62.2015 33.4766 62.6989 33.5703 63.126C33.6693 63.5531 33.8151 63.9098 34.0078 64.1963C34.2057 64.4775 34.4557 64.6911 34.7578 64.8369C35.0651 64.9775 35.4271 65.0479 35.8437 65.0479C36.1354 65.0479 36.3854 65.0244 36.5937 64.9775C36.8021 64.9255 36.974 64.863 37.1094 64.79C37.25 64.7119 37.3568 64.639 37.4297 64.5713V62.8057H35.5234V60.9229H40.1719Z" fill="#898989"/>
<rect x="20.5" y="47.501" width="30" height="28" rx="2.5" stroke="#898989"/>
<path d="M234.994 3.89264L295.845 3.62918C296.121 3.62799 296.346 3.85087 296.347 4.12701L296.817 112.662C296.828 115.148 294.822 117.171 292.337 117.182L239.486 117.411C237.001 117.421 234.977 115.415 234.966 112.93L234.497 4.3948C234.495 4.11866 234.718 3.89383 234.994 3.89264Z" stroke="#D9D9D9"/>
<path d="M270.172 60.9229V65.5947C269.979 65.8083 269.682 66.0374 269.281 66.2822C268.885 66.5218 268.385 66.7275 267.781 66.8994C267.177 67.0713 266.466 67.1572 265.648 67.1572C264.893 67.1572 264.208 67.0374 263.594 66.7979C262.979 66.5531 262.451 66.1963 262.008 65.7275C261.57 65.2536 261.232 64.6755 260.992 63.9932C260.758 63.3057 260.641 62.5192 260.641 61.6338V61.001C260.641 60.1156 260.76 59.3291 261 58.6416C261.24 57.9541 261.576 57.376 262.008 56.9072C262.445 56.4333 262.958 56.0739 263.547 55.8291C264.141 55.5843 264.792 55.4619 265.5 55.4619C266.547 55.4619 267.398 55.6286 268.055 55.9619C268.711 56.29 269.208 56.7458 269.547 57.3291C269.885 57.9072 270.091 58.5765 270.164 59.3369H267.531C267.479 58.9619 267.38 58.6442 267.234 58.3838C267.094 58.1182 266.891 57.9176 266.625 57.7822C266.359 57.6416 266.016 57.5713 265.594 57.5713C265.266 57.5713 264.966 57.6416 264.695 57.7822C264.43 57.9229 264.203 58.1364 264.016 58.4229C263.828 58.7041 263.682 59.0583 263.578 59.4854C263.479 59.9124 263.43 60.4124 263.43 60.9854V61.6338C263.43 62.2015 263.477 62.6989 263.57 63.126C263.669 63.5531 263.815 63.9098 264.008 64.1963C264.206 64.4775 264.456 64.6911 264.758 64.8369C265.065 64.9775 265.427 65.0479 265.844 65.0479C266.135 65.0479 266.385 65.0244 266.594 64.9775C266.802 64.9255 266.974 64.863 267.109 64.79C267.25 64.7119 267.357 64.639 267.43 64.5713V62.8057H265.523V60.9229H270.172Z" fill="#898989"/>
<rect x="250.5" y="47.501" width="30" height="28" rx="2.5" stroke="#898989"/>
<path d="M101.538 1.85553L201.128 1.42435C201.404 1.42316 201.629 1.64604 201.63 1.92218L201.966 79.3958C201.976 81.881 199.97 83.9044 197.485 83.9152L105.895 84.3117C103.41 84.3225 101.387 82.3165 101.376 79.8313L101.04 2.35769C101.039 2.08155 101.262 1.85672 101.538 1.85553Z" stroke="#D9D9D9"/>
<path d="M156.172 42.9219V47.5937C155.979 47.8073 155.682 48.0365 155.281 48.2812C154.885 48.5208 154.385 48.7266 153.781 48.8984C153.177 49.0703 152.466 49.1562 151.648 49.1562C150.893 49.1562 150.208 49.0365 149.594 48.7969C148.979 48.5521 148.451 48.1953 148.008 47.7266C147.57 47.2526 147.232 46.6745 146.992 45.9922C146.758 45.3047 146.641 44.5182 146.641 43.6328V43C146.641 42.1146 146.76 41.3281 147 40.6406C147.24 39.9531 147.576 39.375 148.008 38.9062C148.445 38.4323 148.958 38.0729 149.547 37.8281C150.141 37.5833 150.792 37.4609 151.5 37.4609C152.547 37.4609 153.398 37.6276 154.055 37.9609C154.711 38.2891 155.208 38.7448 155.547 39.3281C155.885 39.9062 156.091 40.5755 156.164 41.3359H153.531C153.479 40.9609 153.38 40.6432 153.234 40.3828C153.094 40.1172 152.891 39.9167 152.625 39.7812C152.359 39.6406 152.016 39.5703 151.594 39.5703C151.266 39.5703 150.966 39.6406 150.695 39.7812C150.43 39.9219 150.203 40.1354 150.016 40.4219C149.828 40.7031 149.682 41.0573 149.578 41.4844C149.479 41.9115 149.43 42.4115 149.43 42.9844V43.6328C149.43 44.2005 149.477 44.6979 149.57 45.125C149.669 45.5521 149.815 45.9089 150.008 46.1953C150.206 46.4766 150.456 46.6901 150.758 46.8359C151.065 46.9766 151.427 47.0469 151.844 47.0469C152.135 47.0469 152.385 47.0234 152.594 46.9766C152.802 46.9245 152.974 46.862 153.109 46.7891C153.25 46.7109 153.357 46.638 153.43 46.5703V44.8047H151.523V42.9219H156.172Z" fill="#898989"/>
<rect x="136.5" y="29.5" width="30" height="28" rx="2.5" stroke="#898989"/>
<path d="M21.6406 175.857V177H17.8564V175.857H21.6406ZM18.335 169.891V177H16.8701V169.891H18.335ZM21.1475 172.786V173.899H17.8564V172.786H21.1475ZM21.6357 169.891V171.038H17.8564V169.891H21.6357ZM23.8012 169.891L25.1391 172.371L26.477 169.891H28.1518L26.0863 173.416L28.2055 177H26.516L25.1391 174.471L23.7621 177H22.0629L24.1869 173.416L22.1166 169.891H23.8012ZM30.6004 169.891V177H29.1404V169.891H30.6004ZM35.1047 169.891V177H33.6447V169.891H35.1047ZM37.2922 169.891V171.038H31.4914V169.891H37.2922Z" fill="#27C133"/>
<path d="M11 177.556L7.00006 173.778L11 170" stroke="#27C133" stroke-width="1.77775" stroke-linecap="round"/>
<path d="M269.405 175.857V177H265.621V175.857H269.405ZM266.1 169.891V177H264.635V169.891H266.1ZM268.912 172.786V173.899H265.621V172.786H268.912ZM269.4 169.891V171.038H265.621V169.891H269.4ZM271.566 169.891L272.904 172.371L274.242 169.891H275.916L273.851 173.416L275.97 177H274.281L272.904 174.471L271.527 177H269.828L271.952 173.416L269.881 169.891H271.566ZM278.365 169.891V177H276.905V169.891H278.365ZM282.869 169.891V177H281.409V169.891H282.869ZM285.057 169.891V171.038H279.256V169.891H285.057Z" fill="#27C133"/>
<path d="M291 170L295 173.778L291 177.555" stroke="#27C133" stroke-width="1.77775" stroke-linecap="round"/>
</svg>
