<svg width="298" height="151" viewBox="0 0 298 151" fill="none" xmlns="http://www.w3.org/2000/svg">
<rect x="40" y="67.1787" width="41.3329" height="9.03056" transform="rotate(-0.248061 40 67.1787)" fill="#E9E9E9"/>
<rect x="217" y="67.1787" width="41.3329" height="9.03056" transform="rotate(-0.248061 217 67.1787)" fill="#E9E9E9"/>
<path d="M100.04 68.3577C100.039 68.0815 100.262 67.8567 100.538 67.8555L200.128 67.4244C200.404 67.4232 200.629 67.646 200.63 67.9222L200.966 145.396C200.976 147.881 198.97 149.904 196.485 149.915L104.895 150.312C102.41 150.322 100.387 148.317 100.376 145.831L100.04 68.3577Z" stroke="#D9D9D9"/>
<path d="M155.172 108.922V113.594C154.979 113.807 154.682 114.036 154.281 114.281C153.885 114.521 153.385 114.727 152.781 114.898C152.177 115.07 151.466 115.156 150.648 115.156C149.893 115.156 149.208 115.036 148.594 114.797C147.979 114.552 147.451 114.195 147.008 113.727C146.57 113.253 146.232 112.674 145.992 111.992C145.758 111.305 145.641 110.518 145.641 109.633V109C145.641 108.115 145.76 107.328 146 106.641C146.24 105.953 146.576 105.375 147.008 104.906C147.445 104.432 147.958 104.073 148.547 103.828C149.141 103.583 149.792 103.461 150.5 103.461C151.547 103.461 152.398 103.628 153.055 103.961C153.711 104.289 154.208 104.745 154.547 105.328C154.885 105.906 155.091 106.576 155.164 107.336H152.531C152.479 106.961 152.38 106.643 152.234 106.383C152.094 106.117 151.891 105.917 151.625 105.781C151.359 105.641 151.016 105.57 150.594 105.57C150.266 105.57 149.966 105.641 149.695 105.781C149.43 105.922 149.203 106.135 149.016 106.422C148.828 106.703 148.682 107.057 148.578 107.484C148.479 107.911 148.43 108.411 148.43 108.984V109.633C148.43 110.201 148.477 110.698 148.57 111.125C148.669 111.552 148.815 111.909 149.008 112.195C149.206 112.477 149.456 112.69 149.758 112.836C150.065 112.977 150.427 113.047 150.844 113.047C151.135 113.047 151.385 113.023 151.594 112.977C151.802 112.924 151.974 112.862 152.109 112.789C152.25 112.711 152.357 112.638 152.43 112.57V110.805H150.523V108.922H155.172Z" fill="#898989"/>
<rect x="135.5" y="95.5" width="30" height="28" rx="2.5" stroke="#898989"/>
<path d="M115.472 18.1164C116.192 18.1164 116.775 17.5405 116.775 16.8302C116.775 16.1198 116.192 15.5439 115.472 15.5439C114.752 15.5439 114.169 16.1198 114.169 16.8302C114.169 17.5405 114.752 18.1164 115.472 18.1164Z" fill="#898989"/>
<path d="M117.345 18.3315H113.583C113.262 18.3315 113.052 18.5667 113.052 18.8879V20.0211V23.4957C113.052 23.7524 113.234 23.9603 113.491 23.9603C113.694 23.9603 113.826 23.8765 113.904 23.7265V30.2341C113.904 30.6191 114.216 30.9312 114.601 30.9312C114.986 30.9312 115.298 30.6191 115.298 30.2341V24.9926H115.685V30.2342C115.685 30.6193 115.997 30.9313 116.382 30.9313C116.767 30.9313 117.079 30.6193 117.079 30.2342V23.7267C117.157 23.8662 117.302 23.9605 117.474 23.9605C117.731 23.9605 117.931 23.7524 117.931 23.4958V18.8879C117.931 18.5424 117.658 18.3315 117.345 18.3315Z" fill="#898989"/>
<path d="M122.66 18.0934C123.373 18.0934 123.951 17.5227 123.951 16.8187C123.951 16.1147 123.373 15.5439 122.66 15.5439C121.946 15.5439 121.368 16.1147 121.368 16.8187C121.368 17.5227 121.946 18.0934 122.66 18.0934Z" fill="#898989"/>
<path d="M124.205 19.3872C124.205 19.3872 125.413 21.6541 125.807 22.4186C125.9 22.5989 126.08 22.7917 126.263 22.798C126.381 22.8022 126.5 22.7531 126.59 22.663C126.77 22.4834 126.718 22.2326 126.59 22.0119C126.074 21.124 125.066 19.3336 124.558 18.4309C124.503 18.334 124.412 18.2534 124.213 18.2534C124.121 18.2534 121.864 18.2534 121.073 18.2534C120.949 18.2534 120.833 18.3072 120.776 18.4087C120.264 19.3088 119.231 21.1385 118.728 22.0086C118.601 22.2287 118.548 22.4815 118.728 22.6615C118.818 22.7513 118.936 22.7955 119.054 22.7972C119.209 22.7994 119.372 22.6809 119.473 22.4883C119.921 21.6334 121.107 19.3872 121.107 19.3872V20.9324L119.117 24.2829C119.05 24.3963 119.049 24.537 119.114 24.6516C119.179 24.7663 119.301 24.8371 119.433 24.8371H121.107V30.2397C121.107 30.6213 121.415 30.9307 121.797 30.9307C122.178 30.9307 122.501 30.6215 122.501 30.2397V24.8371H122.811V30.2397C122.811 30.6213 123.133 30.9307 123.515 30.9307C123.896 30.9307 124.205 30.6215 124.205 30.2397V24.8371H125.884C126.016 24.8371 126.138 24.7661 126.203 24.6513C126.268 24.5364 126.267 24.3955 126.199 24.282L124.218 20.9643H124.205V19.3872H124.205Z" fill="#898989"/>
<path d="M99.5043 1.4031C99.5031 1.12696 99.726 0.902135 100.002 0.900939L139.34 0.730628C139.616 0.729432 139.84 0.952319 139.842 1.22846L140.013 40.8235C140.024 43.3087 138.018 45.3322 135.533 45.3429L104.195 45.4786C101.71 45.4893 99.6865 43.4834 99.6758 40.9981L99.5043 1.4031Z" stroke="#D9D9D9"/>
<path d="M175.472 18.1164C176.192 18.1164 176.775 17.5405 176.775 16.8302C176.775 16.1198 176.192 15.5439 175.472 15.5439C174.752 15.5439 174.169 16.1198 174.169 16.8302C174.169 17.5405 174.752 18.1164 175.472 18.1164Z" fill="#898989"/>
<path d="M177.345 18.3315H173.583C173.262 18.3315 173.052 18.5667 173.052 18.8879V20.0211V23.4957C173.052 23.7524 173.234 23.9603 173.491 23.9603C173.694 23.9603 173.826 23.8765 173.904 23.7265V30.2341C173.904 30.6191 174.216 30.9312 174.601 30.9312C174.986 30.9312 175.298 30.6191 175.298 30.2341V24.9926H175.685V30.2342C175.685 30.6193 175.997 30.9313 176.382 30.9313C176.767 30.9313 177.079 30.6193 177.079 30.2342V23.7267C177.157 23.8662 177.302 23.9605 177.474 23.9605C177.731 23.9605 177.931 23.7524 177.931 23.4958V18.8879C177.931 18.5424 177.658 18.3315 177.345 18.3315Z" fill="#898989"/>
<path d="M182.66 18.0934C183.373 18.0934 183.951 17.5227 183.951 16.8187C183.951 16.1147 183.373 15.5439 182.66 15.5439C181.946 15.5439 181.368 16.1147 181.368 16.8187C181.368 17.5227 181.946 18.0934 182.66 18.0934Z" fill="#898989"/>
<path d="M184.205 19.3872C184.205 19.3872 185.413 21.6541 185.807 22.4186C185.9 22.5989 186.08 22.7917 186.263 22.798C186.381 22.8022 186.5 22.7531 186.59 22.663C186.77 22.4834 186.718 22.2326 186.59 22.0119C186.074 21.124 185.066 19.3336 184.558 18.4309C184.503 18.334 184.412 18.2534 184.213 18.2534C184.121 18.2534 181.864 18.2534 181.073 18.2534C180.949 18.2534 180.833 18.3072 180.776 18.4087C180.264 19.3088 179.231 21.1385 178.728 22.0086C178.601 22.2287 178.548 22.4815 178.728 22.6615C178.818 22.7513 178.936 22.7955 179.054 22.7972C179.209 22.7994 179.372 22.6809 179.473 22.4883C179.921 21.6334 181.107 19.3872 181.107 19.3872V20.9324L179.117 24.2829C179.05 24.3963 179.049 24.537 179.114 24.6516C179.179 24.7663 179.301 24.8371 179.433 24.8371H181.107V30.2397C181.107 30.6213 181.415 30.9307 181.797 30.9307C182.178 30.9307 182.501 30.6215 182.501 30.2397V24.8371H182.811V30.2397C182.811 30.6213 183.133 30.9307 183.515 30.9307C183.896 30.9307 184.205 30.6215 184.205 30.2397V24.8371H185.884C186.016 24.8371 186.138 24.7661 186.203 24.6513C186.268 24.5364 186.267 24.3955 186.199 24.282L184.218 20.9643H184.205V19.3872H184.205Z" fill="#898989"/>
<path d="M159.504 1.4031C159.503 1.12696 159.726 0.902135 160.002 0.900939L199.34 0.730628C199.616 0.729432 199.84 0.952319 199.842 1.22846L200.013 40.8235C200.024 43.3087 198.018 45.3322 195.533 45.3429L164.195 45.4786C161.71 45.4893 159.687 43.4834 159.676 40.9981L159.504 1.4031Z" stroke="#D9D9D9"/>
<mask id="path-16-inside-1_1239_10" fill="white">
<path fill-rule="evenodd" clip-rule="evenodd" d="M80.9613 49.946L63.7626 40.9996L80.884 32.0935L80.7449 -0.000240326L0.840172 0.0996208L1.09434 58.7432L80.999 58.6433L80.9613 49.946Z"/>
</mask>
<path d="M63.7626 40.9996L63.3011 41.8868L61.5956 40.9996L63.3011 40.1125L63.7626 40.9996ZM80.9613 49.946L81.4228 49.0588L81.9587 49.3376L81.9613 49.9417L80.9613 49.946ZM80.884 32.0935L81.8839 32.0892L81.8866 32.6992L81.3454 32.9807L80.884 32.0935ZM80.7449 -0.000240326L80.7436 -1.00024L81.7405 -1.00148L81.7449 -0.00457382L80.7449 -0.000240326ZM0.840172 0.0996208L-0.159821 0.103954L-0.164169 -0.899124L0.838921 -0.900375L0.840172 0.0996208ZM1.09434 58.7432L1.09559 59.7432L0.0986633 59.7444L0.0943451 58.7475L1.09434 58.7432ZM80.999 58.6433L81.999 58.639L82.0034 59.642L81.0003 59.6433L80.999 58.6433ZM64.224 40.1125L81.4228 49.0588L80.4999 50.8331L63.3011 41.8868L64.224 40.1125ZM81.3454 32.9807L64.224 41.8868L63.3011 40.1125L80.4225 31.2064L81.3454 32.9807ZM79.884 32.0979L79.7449 0.00409317L81.7449 -0.00457382L81.8839 32.0892L79.884 32.0979ZM80.7461 0.99976L0.841423 1.09962L0.838921 -0.900375L80.7436 -1.00024L80.7461 0.99976ZM1.84016 0.0952873L2.09433 58.7388L0.0943451 58.7475L-0.159821 0.103954L1.84016 0.0952873ZM1.09309 57.7432L80.9978 57.6433L81.0003 59.6433L1.09559 59.7432L1.09309 57.7432ZM79.999 58.6476L79.9613 49.9503L81.9613 49.9417L81.999 58.639L79.999 58.6476Z" fill="#D9D9D9" mask="url(#path-16-inside-1_1239_10)"/>
<path d="M32.8889 21.0472C34.006 21.0472 34.9115 20.1535 34.9115 19.051C34.9115 17.9484 34.006 17.0547 32.8889 17.0547C31.7718 17.0547 30.8662 17.9484 30.8662 19.051C30.8662 20.1535 31.7718 21.0472 32.8889 21.0472Z" fill="#898989"/>
<path d="M35.7959 21.3809H29.9572C29.4586 21.3809 29.1328 21.7458 29.1328 22.2443V24.0031V29.3957C29.1328 29.7942 29.4158 30.1169 29.8141 30.1169C30.1299 30.1169 30.3349 29.9867 30.455 29.754L30.455 39.8539C30.455 40.4515 30.9396 40.9358 31.5371 40.9358C32.1346 40.9358 32.6189 40.4515 32.6189 39.8539V31.7191H33.22V39.8541C33.22 40.4517 33.7044 40.936 34.302 40.936C34.8994 40.936 35.3837 40.4517 35.3837 39.8541V29.7543C35.5039 29.9708 35.7292 30.1171 35.997 30.1171C36.3955 30.1171 36.7063 29.7942 36.7063 29.3959V22.2443C36.7063 21.7081 36.2824 21.3809 35.7959 21.3809Z" fill="#898989"/>
<path d="M44.0446 21.0115C45.1517 21.0115 46.0492 20.1258 46.0492 19.0331C46.0492 17.9405 45.1517 17.0547 44.0446 17.0547C42.9375 17.0547 42.04 17.9405 42.04 19.0331C42.04 20.1258 42.9375 21.0115 44.0446 21.0115Z" fill="#898989"/>
<path d="M46.4434 23.0195C46.4434 23.0195 48.3178 26.5377 48.93 27.7242C49.0743 28.004 49.3535 28.3032 49.6378 28.3131C49.821 28.3195 50.0054 28.2434 50.1449 28.1036C50.4239 27.8247 50.3436 27.4356 50.1447 27.093C49.3443 25.715 47.7799 22.9362 46.9909 21.5352C46.9061 21.3848 46.7651 21.2598 46.4567 21.2598C46.3127 21.2598 42.8105 21.2598 41.5821 21.2598C41.3899 21.2598 41.2108 21.3432 41.1213 21.5008C40.3276 22.8977 38.7244 25.7374 37.9437 27.0879C37.7462 27.4295 37.6646 27.8218 37.9437 28.1012C38.0832 28.2405 38.2662 28.3093 38.4488 28.3118C38.6901 28.3152 38.9434 28.1313 39.0998 27.8324C39.7943 26.5057 41.6349 23.0194 41.6349 23.0194V25.4176L38.5476 30.6177C38.4432 30.7937 38.4411 31.012 38.5424 31.19C38.6437 31.3679 38.8325 31.4779 39.0372 31.4779H41.6351V39.8628C41.6351 40.455 42.1137 40.9352 42.7059 40.9352C43.2982 40.9352 43.7989 40.4554 43.7989 39.8628V31.4779H44.2797V39.8628C44.2797 40.455 44.7803 40.9352 45.3726 40.9352C45.9647 40.9352 46.4432 40.4554 46.4432 39.8628V31.4779H49.0502C49.2551 31.4779 49.4443 31.3677 49.5452 31.1894C49.6462 31.0111 49.6439 30.7924 49.5389 30.6163L46.4636 25.4671H46.4429V23.0195H46.4434Z" fill="#898989"/>
<mask id="path-22-inside-2_1239_10" fill="white">
<path fill-rule="evenodd" clip-rule="evenodd" d="M217.038 50.1645L234.237 41.179L217.115 32.2338L217.254 0.000240326L297.159 0.10054L296.905 59L217 58.8997L217.038 50.1645Z"/>
</mask>
<path d="M234.237 41.179L234.7 42.0653L236.396 41.179L234.7 40.2926L234.237 41.179ZM217.038 50.1645L216.575 49.2782L216.04 49.5573L216.038 50.1602L217.038 50.1645ZM217.115 32.2338L216.115 32.2295L216.112 32.8383L216.652 33.1202L217.115 32.2338ZM217.254 0.000240326L217.255 -0.99976L216.258 -1.00101L216.254 -0.0040741L217.254 0.000240326ZM297.159 0.10054L298.159 0.104855L298.163 -0.898201L297.16 -0.89946L297.159 0.10054ZM296.905 59L296.903 60L297.9 60.0013L297.905 59.0043L296.905 59ZM217 58.8997L216 58.8954L215.996 59.8984L216.999 59.8997L217 58.8997ZM233.774 40.2926L216.575 49.2782L217.501 51.0508L234.7 42.0653L233.774 40.2926ZM216.652 33.1202L233.774 42.0653L234.7 40.2926L217.578 31.3475L216.652 33.1202ZM218.115 32.2382L218.254 0.00455475L216.254 -0.0040741L216.115 32.2295L218.115 32.2382ZM217.253 1.00024L297.158 1.10054L297.16 -0.89946L217.255 -0.99976L217.253 1.00024ZM296.159 0.0962257L295.905 58.9957L297.905 59.0043L298.159 0.104855L296.159 0.0962257ZM296.906 58L217.001 57.8997L216.999 59.8997L296.903 60L296.906 58ZM218 58.904L218.038 50.1688L216.038 50.1602L216 58.8954L218 58.904Z" fill="#D9D9D9" mask="url(#path-22-inside-2_1239_10)"/>
<path d="M252.889 21.0472C254.006 21.0472 254.912 20.1535 254.912 19.051C254.912 17.9484 254.006 17.0547 252.889 17.0547C251.772 17.0547 250.866 17.9484 250.866 19.051C250.866 20.1535 251.772 21.0472 252.889 21.0472Z" fill="#898989"/>
<path d="M255.796 21.3809H249.957C249.459 21.3809 249.133 21.7458 249.133 22.2443V24.0031V29.3957C249.133 29.7942 249.416 30.1169 249.814 30.1169C250.13 30.1169 250.335 29.9867 250.455 29.754V39.8539C250.455 40.4515 250.94 40.9358 251.537 40.9358C252.135 40.9358 252.619 40.4515 252.619 39.8539V31.7191H253.22V39.8541C253.22 40.4517 253.704 40.936 254.302 40.936C254.899 40.936 255.384 40.4517 255.384 39.8541V29.7543C255.504 29.9708 255.729 30.1171 255.997 30.1171C256.395 30.1171 256.706 29.7942 256.706 29.3959V22.2443C256.706 21.7081 256.282 21.3809 255.796 21.3809Z" fill="#898989"/>
<path d="M264.045 21.0115C265.152 21.0115 266.049 20.1258 266.049 19.0331C266.049 17.9405 265.152 17.0547 264.045 17.0547C262.938 17.0547 262.04 17.9405 262.04 19.0331C262.04 20.1258 262.938 21.0115 264.045 21.0115Z" fill="#898989"/>
<path d="M266.443 23.0195C266.443 23.0195 268.318 26.5377 268.93 27.7242C269.074 28.004 269.354 28.3032 269.638 28.3131C269.821 28.3195 270.005 28.2434 270.145 28.1036C270.424 27.8247 270.344 27.4356 270.145 27.093C269.344 25.715 267.78 22.9362 266.991 21.5352C266.906 21.3848 266.765 21.2598 266.457 21.2598C266.313 21.2598 262.811 21.2598 261.582 21.2598C261.39 21.2598 261.211 21.3432 261.121 21.5008C260.328 22.8977 258.724 25.7374 257.944 27.0879C257.746 27.4295 257.665 27.8218 257.944 28.1012C258.083 28.2405 258.266 28.3093 258.449 28.3118C258.69 28.3152 258.943 28.1313 259.1 27.8324C259.794 26.5057 261.635 23.0194 261.635 23.0194V25.4176L258.548 30.6177C258.443 30.7937 258.441 31.012 258.542 31.19C258.644 31.3679 258.832 31.4779 259.037 31.4779H261.635V39.8628C261.635 40.455 262.114 40.9352 262.706 40.9352C263.298 40.9352 263.799 40.4554 263.799 39.8628V31.4779H264.28V39.8628C264.28 40.455 264.78 40.9352 265.373 40.9352C265.965 40.9352 266.443 40.4554 266.443 39.8628V31.4779H269.05C269.255 31.4779 269.444 31.3677 269.545 31.1894C269.646 31.0111 269.644 30.7924 269.539 30.6163L266.464 25.4671H266.443V23.0195H266.443Z" fill="#898989"/>
</svg>
