<svg width="299" height="332" viewBox="0 0 299 332" fill="none" xmlns="http://www.w3.org/2000/svg">
<path d="M298.006 154.186L278.006 154.103C264.751 154.049 254.05 143.259 254.105 130.005L254.171 114.109C254.225 100.813 265.078 90.0961 278.373 90.2083L298.194 90.3757L298.1 101.486L298.006 154.186Z" fill="#D9D9D9"/>
<path d="M0 90H20C33.2548 90 44 100.745 44 114V129.896C44 143.191 33.1915 153.953 19.8962 153.896L0.0744368 153.81L0.12265 142.7L0 90Z" fill="#D9D9D9"/>
<rect x="213.473" y="42.8145" width="41.3329" height="9.03056" transform="rotate(-0.248061 213.473 42.8145)" fill="#E9E9E9"/>
<rect x="39.4727" y="43.8145" width="41.3329" height="9.03056" transform="rotate(-0.248061 39.4727 43.8145)" fill="#E9E9E9"/>
<rect x="97" y="284.179" width="45.5848" height="47.184" transform="rotate(-0.248061 97 284.179)" fill="#E9E9E9"/>
<rect x="183.877" y="284.062" width="14.4561" height="47.1024" transform="rotate(-0.248061 183.877 284.062)" fill="#E9E9E9"/>
<path d="M1.99434 176.893L62.8452 176.629C63.1213 176.628 63.3461 176.851 63.3473 177.127L63.8172 285.662C63.828 288.148 61.822 290.171 59.3368 290.182L6.48585 290.411C4.0006 290.421 1.97718 288.415 1.96642 285.93L1.49651 177.395C1.49532 177.119 1.7182 176.894 1.99434 176.893Z" stroke="#D9D9D9"/>
<path d="M37.1719 233.923V238.595C36.9792 238.808 36.6823 239.037 36.2812 239.282C35.8854 239.522 35.3854 239.728 34.7812 239.899C34.1771 240.071 33.4661 240.157 32.6484 240.157C31.8932 240.157 31.2083 240.037 30.5937 239.798C29.9792 239.553 29.4505 239.196 29.0078 238.728C28.5703 238.254 28.2318 237.675 27.9922 236.993C27.7578 236.306 27.6406 235.519 27.6406 234.634V234.001C27.6406 233.116 27.7604 232.329 28 231.642C28.2396 230.954 28.5755 230.376 29.0078 229.907C29.4453 229.433 29.9583 229.074 30.5469 228.829C31.1406 228.584 31.7917 228.462 32.5 228.462C33.5469 228.462 34.3984 228.629 35.0547 228.962C35.7109 229.29 36.2083 229.746 36.5469 230.329C36.8854 230.907 37.0911 231.576 37.1641 232.337H34.5312C34.4792 231.962 34.3802 231.644 34.2344 231.384C34.0937 231.118 33.8906 230.918 33.625 230.782C33.3594 230.642 33.0156 230.571 32.5937 230.571C32.2656 230.571 31.9661 230.642 31.6953 230.782C31.4297 230.923 31.2031 231.136 31.0156 231.423C30.8281 231.704 30.6823 232.058 30.5781 232.485C30.4792 232.912 30.4297 233.412 30.4297 233.985V234.634C30.4297 235.201 30.4766 235.699 30.5703 236.126C30.6693 236.553 30.8151 236.91 31.0078 237.196C31.2057 237.478 31.4557 237.691 31.7578 237.837C32.0651 237.978 32.4271 238.048 32.8437 238.048C33.1354 238.048 33.3854 238.024 33.5937 237.978C33.8021 237.925 33.974 237.863 34.1094 237.79C34.25 237.712 34.3568 237.639 34.4297 237.571V235.806H32.5234V233.923H37.1719Z" fill="#898989"/>
<rect x="17.5" y="220.501" width="30" height="28" rx="2.5" stroke="#898989"/>
<path d="M229.994 176.893L290.845 176.629C291.121 176.628 291.346 176.851 291.347 177.127L291.817 285.662C291.828 288.148 289.822 290.171 287.337 290.182L234.486 290.411C232.001 290.421 229.977 288.415 229.966 285.93L229.497 177.395C229.495 177.119 229.718 176.894 229.994 176.893Z" stroke="#D9D9D9"/>
<path d="M265.172 233.923V238.595C264.979 238.808 264.682 239.037 264.281 239.282C263.885 239.522 263.385 239.728 262.781 239.899C262.177 240.071 261.466 240.157 260.648 240.157C259.893 240.157 259.208 240.037 258.594 239.798C257.979 239.553 257.451 239.196 257.008 238.728C256.57 238.254 256.232 237.675 255.992 236.993C255.758 236.306 255.641 235.519 255.641 234.634V234.001C255.641 233.116 255.76 232.329 256 231.642C256.24 230.954 256.576 230.376 257.008 229.907C257.445 229.433 257.958 229.074 258.547 228.829C259.141 228.584 259.792 228.462 260.5 228.462C261.547 228.462 262.398 228.629 263.055 228.962C263.711 229.29 264.208 229.746 264.547 230.329C264.885 230.907 265.091 231.576 265.164 232.337H262.531C262.479 231.962 262.38 231.644 262.234 231.384C262.094 231.118 261.891 230.918 261.625 230.782C261.359 230.642 261.016 230.571 260.594 230.571C260.266 230.571 259.966 230.642 259.695 230.782C259.43 230.923 259.203 231.136 259.016 231.423C258.828 231.704 258.682 232.058 258.578 232.485C258.479 232.912 258.43 233.412 258.43 233.985V234.634C258.43 235.201 258.477 235.699 258.57 236.126C258.669 236.553 258.815 236.91 259.008 237.196C259.206 237.478 259.456 237.691 259.758 237.837C260.065 237.978 260.427 238.048 260.844 238.048C261.135 238.048 261.385 238.024 261.594 237.978C261.802 237.925 261.974 237.863 262.109 237.79C262.25 237.712 262.357 237.639 262.43 237.571V235.806H260.523V233.923H265.172Z" fill="#898989"/>
<rect x="245.5" y="220.501" width="30" height="28" rx="2.5" stroke="#898989"/>
<path d="M97.5383 174.856L197.128 174.424C197.404 174.423 197.629 174.646 197.63 174.922L197.966 252.396C197.976 254.881 195.97 256.904 193.485 256.915L101.895 257.312C99.4101 257.322 97.3866 255.317 97.3759 252.831L97.0405 175.358C97.0393 175.082 97.2621 174.857 97.5383 174.856Z" stroke="#D9D9D9"/>
<path d="M152.172 215.922V220.594C151.979 220.807 151.682 221.036 151.281 221.281C150.885 221.521 150.385 221.727 149.781 221.898C149.177 222.07 148.466 222.156 147.648 222.156C146.893 222.156 146.208 222.036 145.594 221.797C144.979 221.552 144.451 221.195 144.008 220.727C143.57 220.253 143.232 219.674 142.992 218.992C142.758 218.305 142.641 217.518 142.641 216.633V216C142.641 215.115 142.76 214.328 143 213.641C143.24 212.953 143.576 212.375 144.008 211.906C144.445 211.432 144.958 211.073 145.547 210.828C146.141 210.583 146.792 210.461 147.5 210.461C148.547 210.461 149.398 210.628 150.055 210.961C150.711 211.289 151.208 211.745 151.547 212.328C151.885 212.906 152.091 213.576 152.164 214.336H149.531C149.479 213.961 149.38 213.643 149.234 213.383C149.094 213.117 148.891 212.917 148.625 212.781C148.359 212.641 148.016 212.57 147.594 212.57C147.266 212.57 146.966 212.641 146.695 212.781C146.43 212.922 146.203 213.135 146.016 213.422C145.828 213.703 145.682 214.057 145.578 214.484C145.479 214.911 145.43 215.411 145.43 215.984V216.633C145.43 217.201 145.477 217.698 145.57 218.125C145.669 218.552 145.815 218.909 146.008 219.195C146.206 219.477 146.456 219.69 146.758 219.836C147.065 219.977 147.427 220.047 147.844 220.047C148.135 220.047 148.385 220.023 148.594 219.977C148.802 219.924 148.974 219.862 149.109 219.789C149.25 219.711 149.357 219.638 149.43 219.57V217.805H147.523V215.922H152.172Z" fill="#898989"/>
<rect x="132.5" y="202.5" width="30" height="28" rx="2.5" stroke="#898989"/>
<path d="M113.472 18.1164C114.192 18.1164 114.775 17.5405 114.775 16.8302C114.775 16.1198 114.192 15.5439 113.472 15.5439C112.752 15.5439 112.169 16.1198 112.169 16.8302C112.169 17.5405 112.752 18.1164 113.472 18.1164Z" fill="#898989"/>
<path d="M115.345 18.3315H111.583C111.262 18.3315 111.052 18.5667 111.052 18.8879V20.0211V23.4957C111.052 23.7524 111.234 23.9603 111.491 23.9603C111.694 23.9603 111.826 23.8765 111.904 23.7265V30.2341C111.904 30.6191 112.216 30.9312 112.601 30.9312C112.986 30.9312 113.298 30.6191 113.298 30.2341V24.9926H113.685V30.2342C113.685 30.6193 113.997 30.9313 114.382 30.9313C114.767 30.9313 115.079 30.6193 115.079 30.2342V23.7267C115.157 23.8662 115.302 23.9605 115.474 23.9605C115.731 23.9605 115.931 23.7524 115.931 23.4958V18.8879C115.931 18.5424 115.658 18.3315 115.345 18.3315Z" fill="#898989"/>
<path d="M120.66 18.0934C121.373 18.0934 121.951 17.5227 121.951 16.8187C121.951 16.1147 121.373 15.5439 120.66 15.5439C119.946 15.5439 119.368 16.1147 119.368 16.8187C119.368 17.5227 119.946 18.0934 120.66 18.0934Z" fill="#898989"/>
<path d="M122.205 19.3872C122.205 19.3872 123.413 21.6541 123.807 22.4186C123.9 22.5989 124.08 22.7917 124.263 22.798C124.381 22.8022 124.5 22.7531 124.59 22.663C124.77 22.4834 124.718 22.2326 124.59 22.0119C124.074 21.124 123.066 19.3336 122.558 18.4309C122.503 18.334 122.412 18.2534 122.213 18.2534C122.121 18.2534 119.864 18.2534 119.073 18.2534C118.949 18.2534 118.833 18.3072 118.776 18.4087C118.264 19.3088 117.231 21.1385 116.728 22.0086C116.601 22.2287 116.548 22.4815 116.728 22.6615C116.818 22.7513 116.936 22.7955 117.054 22.7972C117.209 22.7994 117.372 22.6809 117.473 22.4883C117.921 21.6334 119.107 19.3872 119.107 19.3872V20.9324L117.117 24.2829C117.05 24.3963 117.049 24.537 117.114 24.6516C117.179 24.7663 117.301 24.8371 117.433 24.8371H119.107V30.2397C119.107 30.6213 119.415 30.9307 119.797 30.9307C120.178 30.9307 120.501 30.6215 120.501 30.2397V24.8371H120.811V30.2397C120.811 30.6213 121.133 30.9307 121.515 30.9307C121.896 30.9307 122.205 30.6215 122.205 30.2397V24.8371H123.884C124.016 24.8371 124.138 24.7661 124.203 24.6513C124.268 24.5364 124.267 24.3955 124.199 24.282L122.218 20.9643H122.205V19.3872H122.205Z" fill="#898989"/>
<path d="M98.0022 0.900939L137.34 0.730628C137.616 0.729432 137.84 0.952318 137.842 1.22846L138.013 40.8235C138.024 43.3087 136.018 45.3322 133.533 45.3429L102.195 45.4786C99.7099 45.4893 97.6865 43.4834 97.6758 40.9981L97.5043 1.4031C97.5031 1.12696 97.726 0.902135 98.0022 0.900939Z" stroke="#D9D9D9"/>
<path d="M173.472 18.1164C174.192 18.1164 174.775 17.5405 174.775 16.8302C174.775 16.1198 174.192 15.5439 173.472 15.5439C172.752 15.5439 172.169 16.1198 172.169 16.8302C172.169 17.5405 172.752 18.1164 173.472 18.1164Z" fill="#898989"/>
<path d="M175.345 18.3315H171.583C171.262 18.3315 171.052 18.5667 171.052 18.8879V20.0211V23.4957C171.052 23.7524 171.234 23.9603 171.491 23.9603C171.694 23.9603 171.826 23.8765 171.904 23.7265V30.2341C171.904 30.6191 172.216 30.9312 172.601 30.9312C172.986 30.9312 173.298 30.6191 173.298 30.2341V24.9926H173.685V30.2342C173.685 30.6193 173.997 30.9313 174.382 30.9313C174.767 30.9313 175.079 30.6193 175.079 30.2342V23.7267C175.157 23.8662 175.302 23.9605 175.474 23.9605C175.731 23.9605 175.931 23.7524 175.931 23.4958V18.8879C175.931 18.5424 175.658 18.3315 175.345 18.3315Z" fill="#898989"/>
<path d="M180.66 18.0934C181.373 18.0934 181.951 17.5227 181.951 16.8187C181.951 16.1147 181.373 15.5439 180.66 15.5439C179.946 15.5439 179.368 16.1147 179.368 16.8187C179.368 17.5227 179.946 18.0934 180.66 18.0934Z" fill="#898989"/>
<path d="M182.205 19.3872C182.205 19.3872 183.413 21.6541 183.807 22.4186C183.9 22.5989 184.08 22.7917 184.263 22.798C184.381 22.8022 184.5 22.7531 184.59 22.663C184.77 22.4834 184.718 22.2326 184.59 22.0119C184.074 21.124 183.066 19.3336 182.558 18.4309C182.503 18.334 182.412 18.2534 182.213 18.2534C182.121 18.2534 179.864 18.2534 179.073 18.2534C178.949 18.2534 178.833 18.3072 178.776 18.4087C178.264 19.3088 177.231 21.1385 176.728 22.0086C176.601 22.2287 176.548 22.4815 176.728 22.6615C176.818 22.7513 176.936 22.7955 177.054 22.7972C177.209 22.7994 177.372 22.6809 177.473 22.4883C177.921 21.6334 179.107 19.3872 179.107 19.3872V20.9324L177.117 24.2829C177.05 24.3963 177.049 24.537 177.114 24.6516C177.179 24.7663 177.301 24.8371 177.433 24.8371H179.107V30.2397C179.107 30.6213 179.415 30.9307 179.797 30.9307C180.178 30.9307 180.501 30.6215 180.501 30.2397V24.8371H180.811V30.2397C180.811 30.6213 181.133 30.9307 181.515 30.9307C181.896 30.9307 182.205 30.6215 182.205 30.2397V24.8371H183.884C184.016 24.8371 184.138 24.7661 184.203 24.6513C184.268 24.5364 184.267 24.3955 184.199 24.282L182.218 20.9643H182.205V19.3872H182.205Z" fill="#898989"/>
<path d="M158.002 0.900939L197.34 0.730628C197.616 0.729432 197.84 0.952318 197.842 1.22846L198.013 40.8235C198.024 43.3087 196.018 45.3322 193.533 45.3429L162.195 45.4786C159.71 45.4893 157.687 43.4834 157.676 40.9981L157.504 1.4031C157.503 1.12696 157.726 0.902135 158.002 0.900939Z" stroke="#D9D9D9"/>
<path d="M21.6406 123.857V125H17.8564V123.857H21.6406ZM18.335 117.891V125H16.8701V117.891H18.335ZM21.1475 120.786V121.899H17.8564V120.786H21.1475ZM21.6357 117.891V119.038H17.8564V117.891H21.6357ZM23.8012 117.891L25.1391 120.371L26.477 117.891H28.1518L26.0863 121.416L28.2055 125H26.516L25.1391 122.471L23.7621 125H22.0629L24.1869 121.416L22.1166 117.891H23.8012ZM30.6004 117.891V125H29.1404V117.891H30.6004ZM35.1047 117.891V125H33.6447V117.891H35.1047ZM37.2922 117.891V119.038H31.4914V117.891H37.2922Z" fill="#27C133"/>
<path d="M11 125.556L7.00006 121.778L11 118" stroke="#27C133" stroke-width="1.77775" stroke-linecap="round"/>
<path d="M268.405 123.857V125H264.621V123.857H268.405ZM265.1 117.891V125H263.635V117.891H265.1ZM267.912 120.786V121.899H264.621V120.786H267.912ZM268.4 117.891V119.038H264.621V117.891H268.4ZM270.566 117.891L271.904 120.371L273.242 117.891H274.916L272.851 121.416L274.97 125H273.281L271.904 122.471L270.527 125H268.828L270.952 121.416L268.881 117.891H270.566ZM277.365 117.891V125H275.905V117.891H277.365ZM281.869 117.891V125H280.409V117.891H281.869ZM284.057 117.891V119.038H278.256V117.891H284.057Z" fill="#27C133"/>
<path d="M290 118L294 121.778L290 125.555" stroke="#27C133" stroke-width="1.77775" stroke-linecap="round"/>
</svg>
