<svg width="154" height="150" viewBox="0 0 154 150" fill="none" xmlns="http://www.w3.org/2000/svg">
<g clip-path="url(#clip0_1666_2)">
<path d="M97.7654 33.7346H56.2691C55.3235 33.7358 54.4169 34.1111 53.7483 34.7784C53.0796 35.4456 52.7034 36.3502 52.7023 37.2938V129.321L52.2267 129.466L42.047 132.577C41.5646 132.724 41.0435 132.673 40.5981 132.437C40.1528 132.201 39.8195 131.798 39.6716 131.317L9.3916 32.6218C9.24424 32.1404 9.29447 31.6203 9.53123 31.1758C9.768 30.7313 10.1719 30.3988 10.6543 30.2514L26.3412 25.4584L71.8181 11.5683L87.5049 6.77527C87.7436 6.70196 87.9945 6.67634 88.2432 6.69988C88.4918 6.72342 88.7334 6.79567 88.954 6.91247C89.1747 7.02928 89.3701 7.18836 89.5291 7.3806C89.688 7.57285 89.8074 7.79449 89.8804 8.03284L97.6204 33.2601L97.7654 33.7346Z" fill="#F2F2F2"/>
<path d="M106.821 33.26L97.4922 2.85537C97.337 2.34877 97.0833 1.87765 96.7455 1.46894C96.4078 1.06022 95.9926 0.721923 95.5238 0.473366C95.055 0.224809 94.5417 0.0708646 94.0132 0.0203369C93.4848 -0.0301909 92.9515 0.0236876 92.4439 0.178888L70.3891 6.91517L24.9146 20.8077L2.85983 27.5464C1.83527 27.8603 0.977404 28.567 0.474516 29.5115C-0.0283719 30.4559 -0.135192 31.5608 0.177506 32.5837L32.0601 136.494C32.3141 137.32 32.8267 138.043 33.5226 138.556C34.2184 139.07 35.061 139.348 35.9266 139.349C36.3272 139.349 36.7256 139.289 37.1083 139.171L52.2269 134.553L52.7025 134.406V133.91L52.2269 134.055L36.9681 138.718C36.0637 138.993 35.087 138.899 34.252 138.456C33.4171 138.013 32.7922 137.258 32.5143 136.357L0.634156 32.4438C0.496499 31.9969 0.448521 31.5274 0.49297 31.0621C0.537418 30.5967 0.673416 30.1447 0.893185 29.7319C1.11295 29.3191 1.41217 28.9536 1.77371 28.6563C2.13524 28.3591 2.55198 28.1359 3.00008 27.9996L25.0549 21.2609L70.5295 7.37074L92.5843 0.632091C92.9242 0.528591 93.2775 0.475818 93.6329 0.475487C94.3955 0.477196 95.1375 0.72253 95.7503 1.17555C96.3631 1.62858 96.8144 2.26549 97.0381 2.99299L106.324 33.26L106.471 33.7345H106.966L106.821 33.26Z" fill="#3F3D56"/>
<path d="M29.172 30.329C28.7137 30.3286 28.2676 30.1818 27.8991 29.9099C27.5305 29.638 27.259 29.2554 27.1244 28.8183L24.0616 18.8356C23.9793 18.5675 23.9507 18.2858 23.9775 18.0066C24.0044 17.7275 24.086 17.4563 24.2179 17.2086C24.3497 16.961 24.5292 16.7416 24.746 16.5632C24.9628 16.3847 25.2127 16.2507 25.4815 16.1686L67.3176 3.38799C67.8603 3.22274 68.4466 3.2791 68.9477 3.54471C69.4488 3.81031 69.8239 4.26346 69.9905 4.8047L73.0533 14.7875C73.2188 15.329 73.1623 15.914 72.8961 16.414C72.63 16.914 72.1759 17.2882 71.6336 17.4546L29.7973 30.2352C29.5947 30.2973 29.384 30.3289 29.172 30.329Z" fill="#1CB1BC"/>
<path d="M45.2162 10.6668C47.8427 10.6668 49.972 8.5422 49.972 5.92131C49.972 3.30043 47.8427 1.17578 45.2162 1.17578C42.5897 1.17578 40.4604 3.30043 40.4604 5.92131C40.4604 8.5422 42.5897 10.6668 45.2162 10.6668Z" fill="#1CB1BC"/>
<path d="M45.2161 8.92605C46.8793 8.92605 48.2276 7.58066 48.2276 5.92103C48.2276 4.26141 46.8793 2.91602 45.2161 2.91602C43.5529 2.91602 42.2046 4.26141 42.2046 5.92103C42.2046 7.58066 43.5529 8.92605 45.2161 8.92605Z" fill="white"/>
<path d="M143.3 138.137H62.9274C62.3916 138.136 61.8778 137.923 61.4989 137.545C61.12 137.167 60.9069 136.654 60.9062 136.12V40.0227C60.9068 39.488 61.12 38.9753 61.4989 38.5972C61.8778 38.2191 62.3916 38.0065 62.9274 38.0059H143.3C143.836 38.0065 144.349 38.2192 144.728 38.5973C145.107 38.9754 145.32 39.488 145.321 40.0227V136.12C145.32 136.654 145.107 137.167 144.728 137.545C144.349 137.923 143.836 138.136 143.3 138.137Z" fill="#E6E6E6"/>
<path d="M106.324 33.2598H56.2694C55.1978 33.2613 54.1705 33.6867 53.4127 34.4429C52.6549 35.199 52.2286 36.2241 52.2271 37.2935V134.055L52.7026 133.91V37.2935C52.7038 36.3499 53.0799 35.4453 53.7486 34.778C54.4173 34.1108 55.3238 33.7355 56.2694 33.7343H106.471L106.324 33.2598ZM149.958 33.2598H56.2694C55.1978 33.2613 54.1705 33.6867 53.4127 34.4429C52.6549 35.199 52.2286 36.2241 52.2271 37.2935V145.966C52.2286 147.035 52.6549 148.061 53.4127 148.817C54.1705 149.573 55.1978 149.998 56.2694 150H149.958C151.029 149.998 152.057 149.573 152.815 148.817C153.572 148.061 153.999 147.035 154 145.966V37.2935C153.999 36.2241 153.572 35.199 152.815 34.4429C152.057 33.6867 151.029 33.2613 149.958 33.2598ZM153.525 145.966C153.524 146.91 153.147 147.814 152.479 148.482C151.81 149.149 150.903 149.524 149.958 149.525H56.2694C55.3238 149.524 54.4173 149.149 53.7486 148.482C53.0799 147.814 52.7038 146.91 52.7026 145.966V37.2935C52.7038 36.3499 53.0799 35.4453 53.7486 34.778C54.4173 34.1108 55.3238 33.7355 56.2694 33.7343H149.958C150.903 33.7355 151.81 34.1108 152.479 34.778C153.147 35.4453 153.524 36.3499 153.525 37.2935V145.966Z" fill="#3F3D56"/>
<path d="M124.99 43.7004H81.2368C80.6694 43.6998 80.1254 43.4746 79.7242 43.0742C79.323 42.6739 79.0973 42.1311 79.0967 41.5649V31.1247C79.0973 30.5586 79.323 30.0158 79.7242 29.6154C80.1254 29.2151 80.6694 28.9899 81.2368 28.9893H124.99C125.557 28.9899 126.101 29.2151 126.502 29.6154C126.903 30.0158 127.129 30.5586 127.13 31.1247V41.5649C127.129 42.1311 126.904 42.6739 126.502 43.0742C126.101 43.4746 125.557 43.6998 124.99 43.7004Z" fill="#1CB1BC"/>
<path d="M103.113 29.701C105.74 29.701 107.869 27.5764 107.869 24.9555C107.869 22.3346 105.74 20.21 103.113 20.21C100.487 20.21 98.3574 22.3346 98.3574 24.9555C98.3574 27.5764 100.487 29.701 103.113 29.701Z" fill="#1CB1BC"/>
<path d="M103.114 27.8454C104.713 27.8454 106.01 26.5513 106.01 24.9549C106.01 23.3586 104.713 22.0645 103.114 22.0645C101.514 22.0645 100.217 23.3586 100.217 24.9549C100.217 26.5513 101.514 27.8454 103.114 27.8454Z" fill="white"/>
</g>
<defs>
<clipPath id="clip0_1666_2">
<rect width="154" height="150" fill="white"/>
</clipPath>
</defs>
</svg>
