<svg width="21" height="21" viewBox="0 0 21 21" fill="none" xmlns="http://www.w3.org/2000/svg">
<path d="M15.7498 2.05078C15.1474 2.05078 14.5454 2.32751 14.4506 2.88053C14.8724 2.7277 15.3285 2.64838 15.785 2.64703C16.2138 2.6458 16.6428 2.71347 17.044 2.85251C16.9341 2.31808 16.3421 2.05078 15.7498 2.05078ZM15.7863 3.39187C15.366 3.3931 14.9442 3.47082 14.5785 3.62225C14.3182 3.73013 14.0188 3.89201 13.8076 4.07392C13.5965 4.25586 13.494 4.43174 13.494 4.59375V6.73624L18.0057 4.95887V4.59375C18.0057 4.43326 17.9076 4.2543 17.7101 4.07203C17.5125 3.88992 17.2314 3.72647 16.9846 3.62037C16.6252 3.46582 16.2065 3.39068 15.7863 3.39191L15.7863 3.39187ZM20.2615 4.86371L3.44082 11.4901C3.22139 11.6022 2.89556 11.9305 2.58466 12.3908C2.27155 12.8545 1.96114 13.4433 1.69093 14.0537C1.26847 15.0083 0.952117 16.0422 0.833008 16.694C1.74101 16.5309 2.66493 16.364 3.59529 16.1972L3.83002 14.6407C5.09543 14.2751 8.38316 13.4505 10.1582 12.9828L10.1697 12.9599L10.1957 12.9729C14.1735 11.9257 16.806 11.4096 20.2615 11.0051V4.86371ZM20.2615 11.7475C19.208 11.8717 18.2324 12.0063 17.2711 12.1639L15.8311 14.3117C17.4229 14.1439 18.9173 14.0379 20.2615 14.02V11.7475ZM16.2656 12.338C14.5527 12.6509 12.8091 13.0518 10.6697 13.6109L9.91772 15.1149C11.6193 14.845 13.2861 14.605 14.8706 14.4188L16.2657 12.338H16.2656ZM9.71806 13.8629C8.21008 14.2671 6.49021 14.7498 4.47163 15.3255L4.36203 16.0606C5.91259 15.7844 7.47606 15.5116 9.01977 15.2595L9.7181 13.8629H9.71806ZM12.408 15.4925C12.0697 15.5409 11.7316 15.5904 11.3937 15.6411L11.5252 17.1445H12.2635L12.408 15.4925ZM8.47459 16.1029C8.13432 16.1595 7.79416 16.2167 7.45412 16.2745L7.58771 17.8008H8.32599L8.47459 16.1029ZM4.53504 16.7813C4.19596 16.8415 3.85684 16.9016 3.51941 16.9619L3.65021 18.457H4.38849L4.53508 16.7814L4.53504 16.7813Z" fill="#1CB1BC"/>
</svg>
