<svg width="18" height="27" viewBox="0 0 18 27" fill="none" xmlns="http://www.w3.org/2000/svg">
<rect x="5.97266" y="1.13477" width="6" height="4" rx="0.5" stroke="#898989"/>
<rect x="2.97266" y="6.13477" width="12" height="9" rx="0.5" stroke="#898989"/>
<path fill-rule="evenodd" clip-rule="evenodd" d="M16.4727 16.6348H1.47266L1.47266 22.6348H16.4727V16.6348ZM1.47266 15.6348C0.920372 15.6348 0.472656 16.0825 0.472656 16.6348V22.6348C0.472656 23.1871 0.920371 23.6348 1.47266 23.6348H16.4727C17.0249 23.6348 17.4727 23.1871 17.4727 22.6348V16.6348C17.4727 16.0825 17.0249 15.6348 16.4727 15.6348H1.47266ZM14.4727 16.6348H3.47266V18.6348H14.4727V16.6348ZM3.47266 15.6348C2.92037 15.6348 2.47266 16.0825 2.47266 16.6348V18.6348C2.47266 19.1871 2.92037 19.6348 3.47266 19.6348H14.4727C15.0249 19.6348 15.4727 19.1871 15.4727 18.6348V16.6348C15.4727 16.0825 15.0249 15.6348 14.4727 15.6348H3.47266Z" fill="#898989"/>
<rect x="8.47266" y="23.6348" width="1" height="1" fill="#898989"/>
<rect x="8.47266" y="24.6348" width="1" height="1" fill="#898989"/>
<rect x="1.47266" y="25.6348" width="15" height="1" rx="0.5" fill="#898989"/>
</svg>
