<svg width="95" height="90" viewBox="0 0 95 90" fill="none" xmlns="http://www.w3.org/2000/svg">
<path fill-rule="evenodd" clip-rule="evenodd" d="M31.6053 48.8832C30.9037 47.656 30.3362 46.3561 29.9093 45.0084L0 45.0084C0.818357 52.0301 3.02935 58.8151 6.51324 64.9096C11.0032 72.764 17.4369 79.1734 25.1203 83.4463C32.8037 87.7192 41.4451 89.6935 50.1123 89.156C58.7794 88.6186 67.1433 85.5899 74.3015 80.3967C81.4597 75.2035 87.1406 68.0429 90.7313 59.6875C94.0182 52.039 95.4393 43.6551 94.8819 35.2998L65.3192 35C65.4195 35.5244 65.4995 36.0542 65.5586 36.5882C65.9474 40.0984 65.422 43.6543 64.0392 46.8721C62.6564 50.0899 60.4686 52.8476 57.7118 54.8476C54.955 56.8476 51.7339 58.014 48.3961 58.221C45.0582 58.428 41.7302 57.6677 38.7712 56.0221C35.8122 54.3765 33.3344 51.9081 31.6053 48.8832Z" fill="#D9D9D9"/>
<rect x="35.9473" y="0.0869141" width="20.0431" height="2.2592" transform="rotate(-0.248061 35.9473 0.0869141)" fill="#D9D9D9"/>
<rect x="35.9473" y="4.40332" width="20.0431" height="2.2592" transform="rotate(-0.248061 35.9473 4.40332)" fill="#D9D9D9"/>
<rect x="35.9473" y="8.7207" width="20.0431" height="2.2592" transform="rotate(-0.248061 35.9473 8.7207)" fill="#D9D9D9"/>
<rect x="35.9473" y="13.0371" width="20.0431" height="2.2592" transform="rotate(-0.248061 35.9473 13.0371)" fill="#D9D9D9"/>
<rect x="35.9473" y="17.3555" width="20.0431" height="2.2592" transform="rotate(-0.248061 35.9473 17.3555)" fill="#D9D9D9"/>
<rect x="35.9473" y="21.6719" width="20.0431" height="2.2592" transform="rotate(-0.248061 35.9473 21.6719)" fill="#D9D9D9"/>
<rect x="35.9473" y="25.9883" width="20.0431" height="2.2592" transform="rotate(-0.248061 35.9473 25.9883)" fill="#D9D9D9"/>
<rect x="35.9473" y="30.3057" width="20.0431" height="2.2592" transform="rotate(-0.248061 35.9473 30.3057)" fill="#D9D9D9"/>
<rect x="35.9473" y="34.6221" width="20.0431" height="2.2592" transform="rotate(-0.248061 35.9473 34.6221)" fill="#D9D9D9"/>
<rect x="35.9473" y="38.9404" width="20.0431" height="2.2592" transform="rotate(-0.248061 35.9473 38.9404)" fill="#D9D9D9"/>
<rect x="35.9473" y="43.2568" width="20.0431" height="2.2592" transform="rotate(-0.248061 35.9473 43.2568)" fill="#D9D9D9"/>
</svg>
