<svg width="279" height="320" viewBox="0 0 279 320" fill="none" xmlns="http://www.w3.org/2000/svg">
<path fill-rule="evenodd" clip-rule="evenodd" d="M122.444 239.773C121.193 237.583 120.18 235.263 119.418 232.859H66.0527C67.5129 245.387 71.4578 257.493 77.674 268.368C85.6852 282.382 97.1646 293.818 110.874 301.442C124.583 309.066 140.001 312.588 155.466 311.629C170.93 310.671 185.853 305.267 198.625 296.001C211.397 286.735 221.533 273.958 227.94 259.05C233.805 245.403 236.341 230.443 235.346 215.535L182.598 215C182.777 215.936 182.92 216.882 183.026 217.835C183.719 224.098 182.782 230.443 180.315 236.184C177.847 241.926 173.944 246.846 169.025 250.415C164.106 253.983 158.359 256.064 152.403 256.434C146.448 256.803 140.51 255.446 135.23 252.51C129.951 249.574 125.53 245.17 122.444 239.773Z" fill="#D9D9D9"/>
<mask id="path-2-inside-1_1346_7" fill="white">
<path fill-rule="evenodd" clip-rule="evenodd" d="M77.9671 57.9741L62.9446 49.0273L77.8995 40.1208L77.778 8.02758L9 8.12599L9.22199 66.7695L78 66.6711L77.9671 57.9741Z"/>
</mask>
<path d="M62.9446 49.0273L62.433 49.8865L60.9903 49.0273L62.433 48.1682L62.9446 49.0273ZM77.9671 57.9741L78.4788 57.115L78.9649 57.4045L78.9671 57.9703L77.9671 57.9741ZM77.8995 40.1208L78.8995 40.117L78.9016 40.6879L78.4112 40.98L77.8995 40.1208ZM77.778 8.02758L77.7766 7.02758L78.7742 7.02615L78.778 8.02379L77.778 8.02758ZM9 8.12599L8 8.12977L7.99621 7.12742L8.99857 7.12599L9 8.12599ZM9.22199 66.7695L9.22342 67.7695L8.22577 67.771L8.222 66.7733L9.22199 66.7695ZM78 66.6711L79 66.6673L79.0038 67.6697L78.0014 67.6711L78 66.6711ZM63.4563 48.1682L78.4788 57.115L77.4554 58.8333L62.433 49.8865L63.4563 48.1682ZM78.4112 40.98L63.4563 49.8865L62.433 48.1682L77.3878 39.2616L78.4112 40.98ZM76.8995 40.1246L76.778 8.03136L78.778 8.02379L78.8995 40.117L76.8995 40.1246ZM77.7794 9.02758L9.00143 9.12599L8.99857 7.12599L77.7766 7.02758L77.7794 9.02758ZM9.99999 8.1222L10.222 66.7657L8.222 66.7733L8 8.12977L9.99999 8.1222ZM9.22056 65.7695L77.9986 65.6711L78.0014 67.6711L9.22342 67.7695L9.22056 65.7695ZM77 66.6749L76.9671 57.9779L78.9671 57.9703L79 66.6673L77 66.6749Z" fill="#D9D9D9" mask="url(#path-2-inside-1_1346_7)"/>
<mask id="path-4-inside-2_1346_7" fill="white">
<path fill-rule="evenodd" clip-rule="evenodd" d="M200.086 57.948L215.11 49L200.153 40.0923L200.275 8.00023L269.053 8.09864L268.831 66.7422L200.053 66.6438L200.086 57.948Z"/>
</mask>
<path d="M215.11 49L215.622 49.8592L217.064 49L215.622 48.1408L215.11 49ZM200.086 57.948L199.574 57.0888L199.088 57.3783L199.086 57.9442L200.086 57.948ZM200.153 40.0923L199.153 40.0885L199.151 40.6594L199.642 40.9515L200.153 40.0923ZM200.275 8.00023L200.276 7.00023L199.279 6.99881L199.275 7.99645L200.275 8.00023ZM269.053 8.09864L270.053 8.10243L270.057 7.10008L269.054 7.09865L269.053 8.09864ZM268.831 66.7422L268.829 67.7422L269.827 67.7436L269.831 66.746L268.831 66.7422ZM200.053 66.6438L199.053 66.64L199.049 67.6423L200.051 67.6438L200.053 66.6438ZM214.598 48.1408L199.574 57.0888L200.597 58.8071L215.622 49.8592L214.598 48.1408ZM199.642 40.9515L214.598 49.8592L215.622 48.1408L200.665 39.2331L199.642 40.9515ZM201.153 40.0961L201.275 8.00402L199.275 7.99645L199.153 40.0885L201.153 40.0961ZM200.273 9.00023L269.051 9.09864L269.054 7.09865L200.276 7.00023L200.273 9.00023ZM268.053 8.09486L267.831 66.7384L269.831 66.746L270.053 8.10243L268.053 8.09486ZM268.832 65.7422L200.054 65.6438L200.051 67.6438L268.829 67.7422L268.832 65.7422ZM201.053 66.6476L201.086 57.9517L199.086 57.9442L199.053 66.64L201.053 66.6476Z" fill="#D9D9D9" mask="url(#path-4-inside-2_1346_7)"/>
<path d="M33.8879 29.0472C35.005 29.0472 35.9106 28.1535 35.9106 27.051C35.9106 25.9484 35.005 25.0547 33.8879 25.0547C32.7708 25.0547 31.8652 25.9484 31.8652 27.051C31.8652 28.1535 32.7708 29.0472 33.8879 29.0472Z" fill="#898989"/>
<path d="M36.7959 29.3809H30.9572C30.4586 29.3809 30.1328 29.7458 30.1328 30.2443V32.0031V37.3957C30.1328 37.7942 30.4158 38.1169 30.8141 38.1169C31.1299 38.1169 31.3349 37.9867 31.455 37.754L31.455 47.8539C31.455 48.4515 31.9396 48.9358 32.5371 48.9358C33.1346 48.9358 33.6189 48.4515 33.6189 47.8539V39.7191H34.22V47.8541C34.22 48.4517 34.7044 48.936 35.302 48.936C35.8994 48.936 36.3837 48.4517 36.3837 47.8541V37.7543C36.5039 37.9708 36.7292 38.1171 36.997 38.1171C37.3955 38.1171 37.7063 37.7942 37.7063 37.3959V30.2443C37.7063 29.7081 37.2824 29.3809 36.7959 29.3809Z" fill="#898989"/>
<path d="M45.0456 29.0115C46.1527 29.0115 47.0502 28.1258 47.0502 27.0331C47.0502 25.9405 46.1527 25.0547 45.0456 25.0547C43.9385 25.0547 43.041 25.9405 43.041 27.0331C43.041 28.1258 43.9385 29.0115 45.0456 29.0115Z" fill="#898989"/>
<path d="M47.4434 31.0195C47.4434 31.0195 49.3178 34.5377 49.93 35.7242C50.0743 36.004 50.3535 36.3032 50.6378 36.3131C50.821 36.3195 51.0054 36.2434 51.1449 36.1036C51.4239 35.8247 51.3436 35.4356 51.1447 35.093C50.3443 33.715 48.7799 30.9362 47.9909 29.5352C47.9061 29.3848 47.7651 29.2598 47.4567 29.2598C47.3127 29.2598 43.8105 29.2598 42.5821 29.2598C42.3899 29.2598 42.2108 29.3432 42.1213 29.5008C41.3276 30.8977 39.7244 33.7374 38.9437 35.0879C38.7462 35.4295 38.6646 35.8218 38.9437 36.1012C39.0832 36.2405 39.2662 36.3093 39.4488 36.3118C39.6901 36.3152 39.9434 36.1313 40.0998 35.8324C40.7943 34.5057 42.6349 31.0194 42.6349 31.0194V33.4176L39.5476 38.6177C39.4432 38.7937 39.4411 39.012 39.5424 39.19C39.6437 39.3679 39.8325 39.4779 40.0372 39.4779H42.6351V47.8628C42.6351 48.455 43.1137 48.9352 43.7059 48.9352C44.2982 48.9352 44.7989 48.4554 44.7989 47.8628V39.4779H45.2797V47.8628C45.2797 48.455 45.7803 48.9352 46.3726 48.9352C46.9647 48.9352 47.4432 48.4554 47.4432 47.8628V39.4779H50.0502C50.2551 39.4779 50.4443 39.3677 50.5452 39.1894C50.6462 39.0111 50.6439 38.7924 50.5389 38.6163L47.4636 33.4671H47.4429V31.0195H47.4434Z" fill="#898989"/>
<path d="M234.941 29.0199C236.058 29.0199 236.963 28.1261 236.963 27.0236C236.963 25.9211 236.058 25.0273 234.941 25.0273C233.824 25.0273 232.918 25.9211 232.918 27.0236C232.918 28.1261 233.824 29.0199 234.941 29.0199Z" fill="#898989"/>
<path d="M237.849 29.3535H232.01C231.511 29.3535 231.186 29.7185 231.186 30.217V31.9757V37.3684C231.186 37.7668 231.469 38.0896 231.867 38.0896C232.183 38.0896 232.388 37.9594 232.508 37.7267V47.8265C232.508 48.4241 232.992 48.9084 233.59 48.9084C234.187 48.9084 234.672 48.4241 234.672 47.8265V39.6917H235.273V47.8267C235.273 48.4244 235.757 48.9087 236.355 48.9087C236.952 48.9087 237.436 48.4244 237.436 47.8267V37.7269C237.557 37.9434 237.782 38.0898 238.05 38.0898C238.448 38.0898 238.759 37.7668 238.759 37.3686V30.217C238.759 29.6807 238.335 29.3535 237.849 29.3535Z" fill="#898989"/>
<path d="M246.098 28.9842C247.205 28.9842 248.103 28.0984 248.103 27.0058C248.103 25.9131 247.205 25.0273 246.098 25.0273C244.991 25.0273 244.094 25.9131 244.094 27.0058C244.094 28.0984 244.991 28.9842 246.098 28.9842Z" fill="#898989"/>
<path d="M248.496 30.9921C248.496 30.9921 250.371 34.5104 250.983 35.6968C251.127 35.9767 251.406 36.2759 251.691 36.2858C251.874 36.2922 252.058 36.2161 252.198 36.0762C252.477 35.7974 252.396 35.4082 252.197 35.0657C251.397 33.6877 249.833 30.9088 249.044 29.5079C248.959 29.3574 248.818 29.2324 248.509 29.2324C248.365 29.2324 244.863 29.2324 243.635 29.2324C243.443 29.2324 243.264 29.3159 243.174 29.4734C242.38 30.8704 240.777 33.7101 239.996 35.0605C239.799 35.4022 239.717 35.7945 239.996 36.0738C240.136 36.2132 240.319 36.2819 240.502 36.2845C240.743 36.2878 240.996 36.104 241.152 35.8051C241.847 34.4783 243.688 30.992 243.688 30.992V33.3902L240.6 38.5903C240.496 38.7663 240.494 38.9847 240.595 39.1626C240.696 39.3406 240.885 39.4505 241.09 39.4505H243.688V47.8355C243.688 48.4277 244.166 48.9079 244.759 48.9079C245.351 48.9079 245.852 48.4281 245.852 47.8355V39.4505H246.332V47.8355C246.332 48.4277 246.833 48.9079 247.425 48.9079C248.017 48.9079 248.496 48.4281 248.496 47.8355V39.4505H251.103C251.308 39.4505 251.497 39.3403 251.598 39.162C251.699 38.9837 251.697 38.765 251.592 38.589L248.516 33.4398H248.496V30.9921H248.496Z" fill="#898989"/>
<path d="M82.5043 80.5174C82.5031 80.2412 82.726 80.0164 83.0022 80.0152L194.702 79.5316C194.978 79.5304 195.203 79.7533 195.204 80.0294L195.481 144.049C195.492 146.535 193.486 148.558 191.001 148.569L87.3009 149.018C84.8157 149.028 82.7923 147.022 82.7815 144.537L82.5043 80.5174Z" stroke="#D9D9D9"/>
<path d="M143.172 111.949V116.621C142.979 116.835 142.682 117.064 142.281 117.309C141.885 117.548 141.385 117.754 140.781 117.926C140.177 118.098 139.466 118.184 138.648 118.184C137.893 118.184 137.208 118.064 136.594 117.824C135.979 117.579 135.451 117.223 135.008 116.754C134.57 116.28 134.232 115.702 133.992 115.02C133.758 114.332 133.641 113.546 133.641 112.66V112.027C133.641 111.142 133.76 110.355 134 109.668C134.24 108.98 134.576 108.402 135.008 107.934C135.445 107.46 135.958 107.1 136.547 106.855C137.141 106.611 137.792 106.488 138.5 106.488C139.547 106.488 140.398 106.655 141.055 106.988C141.711 107.316 142.208 107.772 142.547 108.355C142.885 108.934 143.091 109.603 143.164 110.363H140.531C140.479 109.988 140.38 109.671 140.234 109.41C140.094 109.145 139.891 108.944 139.625 108.809C139.359 108.668 139.016 108.598 138.594 108.598C138.266 108.598 137.966 108.668 137.695 108.809C137.43 108.949 137.203 109.163 137.016 109.449C136.828 109.73 136.682 110.085 136.578 110.512C136.479 110.939 136.43 111.439 136.43 112.012V112.66C136.43 113.228 136.477 113.725 136.57 114.152C136.669 114.579 136.815 114.936 137.008 115.223C137.206 115.504 137.456 115.717 137.758 115.863C138.065 116.004 138.427 116.074 138.844 116.074C139.135 116.074 139.385 116.051 139.594 116.004C139.802 115.952 139.974 115.889 140.109 115.816C140.25 115.738 140.357 115.665 140.43 115.598V113.832H138.523V111.949H143.172Z" fill="#898989"/>
<rect x="123.5" y="98.5273" width="30" height="28" rx="2.5" stroke="#898989"/>
<path d="M9.50432 80.2976C9.50313 80.0215 9.72602 79.7967 10.0022 79.7955L70.853 79.532C71.1291 79.5308 71.354 79.7537 71.3552 80.0298L71.8169 186.69C71.8277 189.175 69.8217 191.199 67.3365 191.209L14.4855 191.438C12.0003 191.449 9.97687 189.443 9.96611 186.958L9.50432 80.2976Z" stroke="#D9D9D9"/>
<path d="M45.1719 134.95V139.622C44.9792 139.836 44.6823 140.065 44.2812 140.31C43.8854 140.549 43.3854 140.755 42.7812 140.927C42.1771 141.099 41.4661 141.185 40.6484 141.185C39.8932 141.185 39.2083 141.065 38.5937 140.825C37.9792 140.58 37.4505 140.224 37.0078 139.755C36.5703 139.281 36.2318 138.703 35.9922 138.021C35.7578 137.333 35.6406 136.547 35.6406 135.661V135.028C35.6406 134.143 35.7604 133.356 36 132.669C36.2396 131.981 36.5755 131.403 37.0078 130.935C37.4453 130.461 37.9583 130.101 38.5469 129.856C39.1406 129.612 39.7917 129.489 40.5 129.489C41.5469 129.489 42.3984 129.656 43.0547 129.989C43.7109 130.317 44.2083 130.773 44.5469 131.356C44.8854 131.935 45.0911 132.604 45.1641 133.364H42.5312C42.4792 132.989 42.3802 132.672 42.2344 132.411C42.0937 132.146 41.8906 131.945 41.625 131.81C41.3594 131.669 41.0156 131.599 40.5937 131.599C40.2656 131.599 39.9661 131.669 39.6953 131.81C39.4297 131.95 39.2031 132.164 39.0156 132.45C38.8281 132.731 38.6823 133.086 38.5781 133.513C38.4792 133.94 38.4297 134.44 38.4297 135.013V135.661C38.4297 136.229 38.4766 136.726 38.5703 137.153C38.6693 137.58 38.8151 137.937 39.0078 138.224C39.2057 138.505 39.4557 138.718 39.7578 138.864C40.0651 139.005 40.4271 139.075 40.8437 139.075C41.1354 139.075 41.3854 139.052 41.5937 139.005C41.8021 138.953 41.974 138.89 42.1094 138.817C42.25 138.739 42.3568 138.666 42.4297 138.599V136.833H40.5234V134.95H45.1719Z" fill="#898989"/>
<rect x="25.5" y="121.528" width="30" height="28" rx="2.5" stroke="#898989"/>
<path d="M206.504 80.2976C206.503 80.0215 206.726 79.7967 207.002 79.7955L267.853 79.532C268.129 79.5308 268.354 79.7537 268.355 80.0298L268.817 186.69C268.828 189.175 266.822 191.199 264.336 191.209L211.486 191.438C209 191.449 206.977 189.443 206.966 186.958L206.504 80.2976Z" stroke="#D9D9D9"/>
<path d="M242.172 134.95V139.622C241.979 139.836 241.682 140.065 241.281 140.31C240.885 140.549 240.385 140.755 239.781 140.927C239.177 141.099 238.466 141.185 237.648 141.185C236.893 141.185 236.208 141.065 235.594 140.825C234.979 140.58 234.451 140.224 234.008 139.755C233.57 139.281 233.232 138.703 232.992 138.021C232.758 137.333 232.641 136.547 232.641 135.661V135.028C232.641 134.143 232.76 133.356 233 132.669C233.24 131.981 233.576 131.403 234.008 130.935C234.445 130.461 234.958 130.101 235.547 129.856C236.141 129.612 236.792 129.489 237.5 129.489C238.547 129.489 239.398 129.656 240.055 129.989C240.711 130.317 241.208 130.773 241.547 131.356C241.885 131.935 242.091 132.604 242.164 133.364H239.531C239.479 132.989 239.38 132.672 239.234 132.411C239.094 132.146 238.891 131.945 238.625 131.81C238.359 131.669 238.016 131.599 237.594 131.599C237.266 131.599 236.966 131.669 236.695 131.81C236.43 131.95 236.203 132.164 236.016 132.45C235.828 132.731 235.682 133.086 235.578 133.513C235.479 133.94 235.43 134.44 235.43 135.013V135.661C235.43 136.229 235.477 136.726 235.57 137.153C235.669 137.58 235.815 137.937 236.008 138.224C236.206 138.505 236.456 138.718 236.758 138.864C237.065 139.005 237.427 139.075 237.844 139.075C238.135 139.075 238.385 139.052 238.594 139.005C238.802 138.953 238.974 138.89 239.109 138.817C239.25 138.739 239.357 138.666 239.43 138.599V136.833H237.523V134.95H242.172Z" fill="#898989"/>
<rect x="222.5" y="121.528" width="30" height="28" rx="2.5" stroke="#898989"/>
<rect x="133" y="172.17" width="32.9841" height="3.71788" transform="rotate(-0.248061 133 172.17)" fill="#D9D9D9"/>
<rect x="133" y="179.273" width="32.9841" height="3.71788" transform="rotate(-0.248061 133 179.273)" fill="#D9D9D9"/>
<rect x="133" y="186.379" width="32.9841" height="3.71788" transform="rotate(-0.248061 133 186.379)" fill="#D9D9D9"/>
<rect x="133" y="193.482" width="32.9841" height="3.71788" transform="rotate(-0.248061 133 193.482)" fill="#D9D9D9"/>
<rect x="133" y="200.588" width="32.9841" height="3.71788" transform="rotate(-0.248061 133 200.588)" fill="#D9D9D9"/>
<rect x="133" y="207.691" width="32.9841" height="3.71788" transform="rotate(-0.248061 133 207.691)" fill="#D9D9D9"/>
<rect x="133" y="214.795" width="32.9841" height="3.71788" transform="rotate(-0.248061 133 214.795)" fill="#D9D9D9"/>
<rect x="133" y="221.9" width="32.9841" height="3.71788" transform="rotate(-0.248061 133 221.9)" fill="#D9D9D9"/>
<rect x="133" y="229.004" width="32.9841" height="3.71788" transform="rotate(-0.248061 133 229.004)" fill="#D9D9D9"/>
<rect x="133" y="236.109" width="32.9841" height="3.71788" transform="rotate(-0.248061 133 236.109)" fill="#D9D9D9"/>
<rect x="133" y="243.213" width="32.9841" height="3.71788" transform="rotate(-0.248061 133 243.213)" fill="#D9D9D9"/>
</svg>
