<svg width="41" height="55" viewBox="0 0 41 55" fill="none" xmlns="http://www.w3.org/2000/svg">
<path fill-rule="evenodd" clip-rule="evenodd" d="M6.42917 7.4175C6.82726 5.10848 8.60196 3.25495 10.9376 3.06843C14.0348 2.82109 16.3971 5.56169 16.1593 8.6596L15.5176 17.0158C15.0303 23.3628 22.0985 27.4574 27.3619 23.8771L36.4139 17.7198C37.7033 16.8428 39.4338 17.7843 39.4363 19.3438C39.4379 20.3395 39.4596 21.3352 39.5043 23.3847C39.5742 26.5945 39.7005 32.3889 39.8941 44.816C39.9732 49.8982 35.8252 54.0372 30.7432 53.9485L8.99946 53.5689C3.48206 53.4726 -0.650167 48.4792 0.287385 43.0412L6.42917 7.4175Z" fill="#D9D9D9"/>
<path d="M33.6983 4.17801L15.5885 1.17417C15.0735 1.08874 14.5448 1.10556 14.0328 1.22367L13.978 1.23631C12.9496 1.47355 12.0566 2.11754 11.507 3.01828C11.1897 3.53844 10.9705 4.11063 10.8605 4.70618L5.61577 33.1036C5.40858 34.2254 5.37772 35.3694 5.5243 36.4947L5.883 39.2483L29.0105 43.0844L30.88 38.873C31.2332 38.0773 31.4912 37.2445 31.6487 36.392L36.5719 9.73567C36.7716 8.6542 36.7245 7.54609 36.4339 6.49358L36.3739 6.27617C36.1591 5.4982 35.6091 4.85947 34.87 4.52979C34.4969 4.36337 34.1032 4.24516 33.6983 4.17801Z" fill="#B3B3B3"/>
<path d="M5.883 39.2483L5.5243 36.4947C5.37772 35.3694 5.40858 34.2254 5.61577 33.1036L10.8605 4.70618C10.9705 4.11063 11.1897 3.53844 11.507 3.01828V3.01828C12.0566 2.11755 12.9496 1.47355 13.978 1.23631L14.0328 1.22367C14.5448 1.10556 15.0735 1.08874 15.5885 1.17417L33.6983 4.17801C34.1032 4.24516 34.4969 4.36337 34.87 4.52979V4.52979C35.6091 4.85947 36.1591 5.4982 36.3739 6.27617L36.4339 6.49358C36.7245 7.54609 36.7716 8.6542 36.5719 9.73567L31.6487 36.392C31.4912 37.2445 31.2332 38.0773 30.88 38.873L29.0105 43.0844M5.883 39.2483L29.0105 43.0844M5.883 39.2483L6.3625 36.6521C6.86404 33.9366 9.47901 32.1016 12.2032 32.5534L25.4655 34.7532C28.1897 35.2051 29.9915 37.7727 29.49 40.4882L29.0105 43.0844" stroke="#D9D9D9"/>
</svg>
