<svg width="303" height="311" viewBox="0 0 303 311" fill="none" xmlns="http://www.w3.org/2000/svg">
<path d="M1 310.5V163.623L40.13 5.06557C41.1333 3.71038 43.742 1 46.15 1C48.558 1 185.948 1 254.342 1C256.348 1.5082 260.562 3.03279 261.365 5.06557C262.168 7.09836 288.789 111.617 302 163.623V310.5" stroke="#D9D9D9" stroke-width="2"/>
<path fill-rule="evenodd" clip-rule="evenodd" d="M77.6439 240.536L78.6438 239.008L78.6437 237.565L78.6438 216.784L78.6437 215.784L77.6438 215.797L12.9382 216.615L9.71637 268.065L77.6452 282.847L78.6452 283.065L78.6452 282.832L77.6452 281.393L77.6452 281.823L10.7679 267.27L13.8781 217.603L77.6438 216.797L77.6438 237.568L77.6439 240.536Z" fill="#E9E9E9"/>
<rect x="80.6523" y="232.558" width="85.5559" height="1.25688" transform="rotate(-50.7854 80.6523 232.558)" fill="#D9D9D9"/>
<rect x="219.148" y="231.2" width="85.5559" height="1.25688" transform="rotate(-131.268 219.148 231.2)" fill="#D9D9D9"/>
<rect x="117.717" y="13.3467" width="65" height="7.32662" transform="rotate(-0.248061 117.717 13.3467)" fill="#D9D9D9"/>
<rect x="117.717" y="27.3467" width="65" height="7.32662" transform="rotate(-0.248061 117.717 27.3467)" fill="#D9D9D9"/>
<rect x="117.717" y="41.3467" width="65" height="7.32662" transform="rotate(-0.248061 117.717 41.3467)" fill="#D9D9D9"/>
<rect x="117.717" y="55.3467" width="65" height="7.32662" transform="rotate(-0.248061 117.717 55.3467)" fill="#D9D9D9"/>
<rect x="117.717" y="69.3467" width="65" height="7.32662" transform="rotate(-0.248061 117.717 69.3467)" fill="#D9D9D9"/>
<rect x="117.717" y="83.3467" width="65" height="7.32662" transform="rotate(-0.248061 117.717 83.3467)" fill="#D9D9D9"/>
<rect x="117.717" y="97.3467" width="65" height="7.32662" transform="rotate(-0.248061 117.717 97.3467)" fill="#D9D9D9"/>
<rect x="117.717" y="111.347" width="65" height="7.32662" transform="rotate(-0.248061 117.717 111.347)" fill="#D9D9D9"/>
<rect x="117.717" y="125.347" width="65" height="7.32662" transform="rotate(-0.248061 117.717 125.347)" fill="#D9D9D9"/>
<rect x="117.717" y="139.347" width="65" height="7.32662" transform="rotate(-0.248061 117.717 139.347)" fill="#D9D9D9"/>
<rect x="117.717" y="153.347" width="65" height="7.32662" transform="rotate(-0.248061 117.717 153.347)" fill="#D9D9D9"/>
<rect x="14.1797" y="162.414" width="64.5438" height="49.6406" transform="rotate(-0.248061 14.1797 162.414)" fill="#D9D9D9"/>
<path fill-rule="evenodd" clip-rule="evenodd" d="M223.072 240.057L222.051 238.638L222.03 237.239L221.732 217.147L221.717 216.147L222.717 216.146L289.646 216.065L293.717 265.847L223.681 281.085L222.684 281.302L222.681 281.078L223.66 279.717L223.666 280.064L292.649 265.055L288.725 217.067L222.732 217.146L223.03 237.228L223.072 240.057Z" fill="#D9D9D9"/>
<path d="M59.0024 13.0849L78.7161 13.0906L78.755 156.064L15.3916 156.045L59.0024 13.0849Z" fill="#D9D9D9"/>
<rect x="221.717" y="162.358" width="68.2076" height="49.6406" transform="rotate(-0.248061 221.717 162.358)" fill="#D9D9D9"/>
<path d="M242.373 13.0654L221.717 13.1565L222.325 156.065L288.717 155.773L242.373 13.0654Z" fill="#D9D9D9"/>
<path d="M37.4192 233.085C38.5362 233.085 39.4418 232.192 39.4418 231.089C39.4418 229.987 38.5362 229.093 37.4192 229.093C36.3021 229.093 35.3965 229.987 35.3965 231.089C35.3965 232.192 36.3021 233.085 37.4192 233.085Z" fill="#898989"/>
<path d="M40.3272 233.419H34.4885C33.9898 233.419 33.6641 233.784 33.6641 234.282V236.041V241.434C33.6641 241.832 33.947 242.155 34.3454 242.155C34.6611 242.155 34.8662 242.025 34.9863 241.792V251.892C34.9863 252.49 35.4708 252.974 36.0683 252.974C36.6658 252.974 37.1501 252.49 37.1501 251.892V243.757H37.7512V251.892C37.7512 252.49 38.2357 252.974 38.8333 252.974C39.4307 252.974 39.915 252.49 39.915 251.892V241.792C40.0352 242.009 40.2605 242.155 40.5283 242.155C40.9267 242.155 41.2375 241.832 41.2375 241.434V234.282C41.2375 233.746 40.8136 233.419 40.3272 233.419Z" fill="#898989"/>
<path d="M48.5769 233.05C49.684 233.05 50.5814 232.164 50.5814 231.071C50.5814 229.979 49.684 229.093 48.5769 229.093C47.4697 229.093 46.5723 229.979 46.5723 231.071C46.5723 232.164 47.4697 233.05 48.5769 233.05Z" fill="#898989"/>
<path d="M50.9727 235.058C50.9727 235.058 52.8471 238.576 53.4593 239.762C53.6036 240.042 53.8828 240.341 54.1671 240.351C54.3503 240.358 54.5347 240.282 54.6742 240.142C54.9532 239.863 54.8729 239.474 54.674 239.131C53.8736 237.753 52.3092 234.974 51.5202 233.573C51.4354 233.423 51.2944 233.298 50.986 233.298C50.842 233.298 47.3398 233.298 46.1114 233.298C45.9192 233.298 45.7401 233.381 45.6506 233.539C44.8569 234.936 43.2537 237.776 42.473 239.126C42.2755 239.468 42.1939 239.86 42.473 240.139C42.6125 240.279 42.7955 240.347 42.9781 240.35C43.2194 240.353 43.4727 240.169 43.629 239.871C44.3236 238.544 46.1642 235.057 46.1642 235.057V237.456L43.0769 242.656C42.9725 242.832 42.9704 243.05 43.0717 243.228C43.173 243.406 43.3618 243.516 43.5665 243.516H46.1643V251.901C46.1643 252.493 46.643 252.973 47.2352 252.973C47.8275 252.973 48.3282 252.493 48.3282 251.901V243.516H48.809V251.901C48.809 252.493 49.3096 252.973 49.9019 252.973C50.494 252.973 50.9725 252.493 50.9725 251.901V243.516H53.5795C53.7843 243.516 53.9736 243.406 54.0745 243.227C54.1755 243.049 54.1732 242.83 54.0682 242.654L50.9929 237.505H50.9722V235.058H50.9727Z" fill="#898989"/>
<path d="M254.419 235.085C255.536 235.085 256.442 234.192 256.442 233.089C256.442 231.987 255.536 231.093 254.419 231.093C253.302 231.093 252.396 231.987 252.396 233.089C252.396 234.192 253.302 235.085 254.419 235.085Z" fill="#898989"/>
<path d="M257.327 235.419H251.488C250.99 235.419 250.664 235.784 250.664 236.282V238.041V243.434C250.664 243.832 250.947 244.155 251.345 244.155C251.661 244.155 251.866 244.025 251.986 243.792V253.892C251.986 254.49 252.471 254.974 253.068 254.974C253.666 254.974 254.15 254.49 254.15 253.892V245.757H254.751V253.892C254.751 254.49 255.236 254.974 255.833 254.974C256.431 254.974 256.915 254.49 256.915 253.892V243.792C257.035 244.009 257.26 244.155 257.528 244.155C257.927 244.155 258.238 243.832 258.238 243.434V236.282C258.238 235.746 257.814 235.419 257.327 235.419Z" fill="#898989"/>
<path d="M265.577 235.05C266.684 235.05 267.581 234.164 267.581 233.071C267.581 231.979 266.684 231.093 265.577 231.093C264.47 231.093 263.572 231.979 263.572 233.071C263.572 234.164 264.47 235.05 265.577 235.05Z" fill="#898989"/>
<path d="M267.973 237.058C267.973 237.058 269.847 240.576 270.459 241.762C270.604 242.042 270.883 242.341 271.167 242.351C271.35 242.358 271.535 242.282 271.674 242.142C271.953 241.863 271.873 241.474 271.674 241.131C270.874 239.753 269.309 236.974 268.52 235.573C268.435 235.423 268.294 235.298 267.986 235.298C267.842 235.298 264.34 235.298 263.111 235.298C262.919 235.298 262.74 235.381 262.651 235.539C261.857 236.936 260.254 239.776 259.473 241.126C259.275 241.468 259.194 241.86 259.473 242.139C259.612 242.279 259.795 242.347 259.978 242.35C260.219 242.353 260.473 242.169 260.629 241.871C261.324 240.544 263.164 237.057 263.164 237.057V239.456L260.077 244.656C259.972 244.832 259.97 245.05 260.072 245.228C260.173 245.406 260.362 245.516 260.566 245.516H263.164V253.901C263.164 254.493 263.643 254.973 264.235 254.973C264.827 254.973 265.328 254.493 265.328 253.901V245.516H265.809V253.901C265.809 254.493 266.31 254.973 266.902 254.973C267.494 254.973 267.972 254.493 267.972 253.901V245.516H270.58C270.784 245.516 270.974 245.406 271.075 245.227C271.175 245.049 271.173 244.83 271.068 244.654L267.993 239.505H267.972V237.058H267.973Z" fill="#898989"/>
</svg>
