<svg width="295" height="344" viewBox="0 0 295 344" fill="none" xmlns="http://www.w3.org/2000/svg">
<path d="M0.0527344 151.059L13.1438 151.029C26.3986 150.998 37.1688 161.718 37.1996 174.973L37.245 194.472C37.2759 207.727 26.5557 218.497 13.301 218.528L0.1442 218.559L0.1442 190.354L0.0527344 151.059Z" fill="#D9D9D9"/>
<path d="M294.053 218.887L281.208 218.917C267.954 218.948 257.184 208.228 257.153 194.973L257.109 176.059C257.078 162.804 267.798 152.033 281.053 152.003L293.962 151.973L293.962 179.932L294.053 218.887Z" fill="#D9D9D9"/>
<path d="M118 284V259H179V284L149 293.5L118 284Z" fill="#E9E9E9"/>
<path d="M24.0527 343.973L24.0527 293.973H79.0527V316.473L24.0527 343.973Z" fill="#E9E9E9"/>
<path d="M280.053 343.973V293.973H225.053V316.473L280.053 343.973Z" fill="#E9E9E9"/>
<path d="M47.5637 248.993C48.6808 248.993 49.5864 248.099 49.5864 246.996C49.5864 245.894 48.6808 245 47.5637 245C46.4466 245 45.541 245.894 45.541 246.996C45.541 248.099 46.4466 248.993 47.5637 248.993Z" fill="#898989"/>
<path d="M50.4707 249.326H44.632C44.1334 249.326 43.8076 249.691 43.8076 250.19V251.948V257.341C43.8076 257.739 44.0906 258.062 44.4889 258.062C44.8047 258.062 45.0097 257.932 45.1298 257.699V267.799C45.1298 268.397 45.6144 268.881 46.2119 268.881C46.8094 268.881 47.2937 268.397 47.2937 267.799V259.664H47.8948V267.799C47.8948 268.397 48.3792 268.881 48.9768 268.881C49.5742 268.881 50.0585 268.397 50.0585 267.799V257.7C50.1787 257.916 50.404 258.062 50.6718 258.062C51.0703 258.062 51.3811 257.739 51.3811 257.341V250.19C51.3811 249.653 50.9572 249.326 50.4707 249.326Z" fill="#898989"/>
<path d="M58.7194 248.957C59.8265 248.957 60.724 248.071 60.724 246.978C60.724 245.886 59.8265 245 58.7194 245C57.6123 245 56.7148 245.886 56.7148 246.978C56.7148 248.071 57.6123 248.957 58.7194 248.957Z" fill="#898989"/>
<path d="M61.1173 250.965C61.1173 250.965 62.9916 254.483 63.6038 255.669C63.7482 255.949 64.0274 256.249 64.3117 256.258C64.4948 256.265 64.6793 256.189 64.8187 256.049C65.0977 255.77 65.0174 255.381 64.8185 255.038C64.0181 253.66 62.4537 250.881 61.6647 249.481C61.58 249.33 61.4389 249.205 61.1305 249.205C60.9866 249.205 57.4844 249.205 56.256 249.205C56.0638 249.205 55.8846 249.289 55.7952 249.446C55.0014 250.843 53.3983 253.683 52.6175 255.033C52.42 255.375 52.3384 255.767 52.6175 256.046C52.757 256.186 52.94 256.255 53.1227 256.257C53.3639 256.26 53.6172 256.077 53.7736 255.778C54.4681 254.451 56.3088 250.965 56.3088 250.965V253.363L53.2214 258.563C53.117 258.739 53.1149 258.957 53.2162 259.135C53.3175 259.313 53.5063 259.423 53.711 259.423H56.3089V267.808C56.3089 268.4 56.7875 268.881 57.3797 268.881C57.972 268.881 58.4727 268.401 58.4727 267.808V259.423H58.9535V267.808C58.9535 268.4 59.4541 268.881 60.0464 268.881C60.6385 268.881 61.117 268.401 61.117 267.808V259.423H63.724C63.9289 259.423 64.1182 259.313 64.2191 259.135C64.32 258.956 64.3177 258.738 64.2127 258.562L61.1374 253.412H61.1168V250.965H61.1173Z" fill="#898989"/>
<path d="M22.5043 222.502C22.5031 222.226 22.726 222.001 23.0022 222L85.1588 221.73C85.4349 221.729 85.6597 221.952 85.6609 222.228L85.9413 286.993C85.9521 289.478 83.9461 291.502 81.4608 291.512L27.3042 291.747C24.8189 291.758 22.7955 289.752 22.7847 287.266L22.5043 222.502Z" stroke="#D9D9D9"/>
<path d="M241.564 248.993C242.681 248.993 243.586 248.099 243.586 246.996C243.586 245.894 242.681 245 241.564 245C240.447 245 239.541 245.894 239.541 246.996C239.541 248.099 240.447 248.993 241.564 248.993Z" fill="#898989"/>
<path d="M244.471 249.326H238.632C238.133 249.326 237.808 249.691 237.808 250.19V251.948V257.341C237.808 257.739 238.091 258.062 238.489 258.062C238.805 258.062 239.01 257.932 239.13 257.699V267.799C239.13 268.397 239.614 268.881 240.212 268.881C240.809 268.881 241.294 268.397 241.294 267.799V259.664H241.895V267.799C241.895 268.397 242.379 268.881 242.977 268.881C243.574 268.881 244.059 268.397 244.059 267.799V257.7C244.179 257.916 244.404 258.062 244.672 258.062C245.07 258.062 245.381 257.739 245.381 257.341V250.19C245.381 249.653 244.957 249.326 244.471 249.326Z" fill="#898989"/>
<path d="M252.719 248.957C253.827 248.957 254.724 248.071 254.724 246.978C254.724 245.886 253.827 245 252.719 245C251.612 245 250.715 245.886 250.715 246.978C250.715 248.071 251.612 248.957 252.719 248.957Z" fill="#898989"/>
<path d="M255.117 250.965C255.117 250.965 256.992 254.483 257.604 255.669C257.748 255.949 258.027 256.249 258.312 256.258C258.495 256.265 258.679 256.189 258.819 256.049C259.098 255.77 259.017 255.381 258.819 255.038C258.018 253.66 256.454 250.881 255.665 249.481C255.58 249.33 255.439 249.205 255.131 249.205C254.987 249.205 251.484 249.205 250.256 249.205C250.064 249.205 249.885 249.289 249.795 249.446C249.001 250.843 247.398 253.683 246.618 255.033C246.42 255.375 246.338 255.767 246.618 256.046C246.757 256.186 246.94 256.255 247.123 256.257C247.364 256.26 247.617 256.077 247.774 255.778C248.468 254.451 250.309 250.965 250.309 250.965V253.363L247.221 258.563C247.117 258.739 247.115 258.957 247.216 259.135C247.317 259.313 247.506 259.423 247.711 259.423H250.309V267.808C250.309 268.4 250.788 268.881 251.38 268.881C251.972 268.881 252.473 268.401 252.473 267.808V259.423H252.954V267.808C252.954 268.4 253.454 268.881 254.046 268.881C254.639 268.881 255.117 268.401 255.117 267.808V259.423H257.724C257.929 259.423 258.118 259.313 258.219 259.135C258.32 258.956 258.318 258.738 258.213 258.562L255.137 253.412H255.117V250.965H255.117Z" fill="#898989"/>
<path d="M216.504 222.502C216.503 222.226 216.726 222.001 217.002 222L279.159 221.73C279.435 221.729 279.66 221.952 279.661 222.228L279.941 286.993C279.952 289.478 277.946 291.502 275.461 291.512L221.304 291.747C218.819 291.758 216.795 289.752 216.785 287.266L216.504 222.502Z" stroke="#D9D9D9"/>
<path d="M92.5043 1.49001C92.5031 1.21387 92.726 0.989049 93.0022 0.987853L204.702 0.504248C204.978 0.503053 205.203 0.725939 205.204 1.00208L205.481 65.022C205.492 67.5072 203.486 69.5306 201.001 69.5414L97.3009 69.9904C94.8157 70.0011 92.7923 67.9951 92.7815 65.5099L92.5043 1.49001Z" stroke="#D9D9D9"/>
<path d="M153.172 32.9219V37.5937C152.979 37.8073 152.682 38.0365 152.281 38.2812C151.885 38.5208 151.385 38.7266 150.781 38.8984C150.177 39.0703 149.466 39.1562 148.648 39.1562C147.893 39.1562 147.208 39.0365 146.594 38.7969C145.979 38.5521 145.451 38.1953 145.008 37.7266C144.57 37.2526 144.232 36.6745 143.992 35.9922C143.758 35.3047 143.641 34.5182 143.641 33.6328V33C143.641 32.1146 143.76 31.3281 144 30.6406C144.24 29.9531 144.576 29.375 145.008 28.9062C145.445 28.4323 145.958 28.0729 146.547 27.8281C147.141 27.5833 147.792 27.4609 148.5 27.4609C149.547 27.4609 150.398 27.6276 151.055 27.9609C151.711 28.2891 152.208 28.7448 152.547 29.3281C152.885 29.9062 153.091 30.5755 153.164 31.3359H150.531C150.479 30.9609 150.38 30.6432 150.234 30.3828C150.094 30.1172 149.891 29.9167 149.625 29.7812C149.359 29.6406 149.016 29.5703 148.594 29.5703C148.266 29.5703 147.966 29.6406 147.695 29.7812C147.43 29.9219 147.203 30.1354 147.016 30.4219C146.828 30.7031 146.682 31.0573 146.578 31.4844C146.479 31.9115 146.43 32.4115 146.43 32.9844V33.6328C146.43 34.2005 146.477 34.6979 146.57 35.125C146.669 35.5521 146.815 35.9089 147.008 36.1953C147.206 36.4766 147.456 36.6901 147.758 36.8359C148.065 36.9766 148.427 37.0469 148.844 37.0469C149.135 37.0469 149.385 37.0234 149.594 36.9766C149.802 36.9245 149.974 36.862 150.109 36.7891C150.25 36.7109 150.357 36.638 150.43 36.5703V34.8047H148.523V32.9219H153.172Z" fill="#898989"/>
<rect x="133.5" y="19.5" width="30" height="28" rx="2.5" stroke="#898989"/>
<path d="M92.5043 185.49C92.5031 185.214 92.726 184.989 93.0022 184.988L204.702 184.504C204.978 184.503 205.203 184.726 205.204 185.002L205.481 249.022C205.492 251.507 203.486 253.531 201.001 253.541L97.3009 253.99C94.8157 254.001 92.7923 251.995 92.7815 249.51L92.5043 185.49Z" stroke="#D9D9D9"/>
<path d="M153.172 216.922V221.594C152.979 221.807 152.682 222.036 152.281 222.281C151.885 222.521 151.385 222.727 150.781 222.898C150.177 223.07 149.466 223.156 148.648 223.156C147.893 223.156 147.208 223.036 146.594 222.797C145.979 222.552 145.451 222.195 145.008 221.727C144.57 221.253 144.232 220.674 143.992 219.992C143.758 219.305 143.641 218.518 143.641 217.633V217C143.641 216.115 143.76 215.328 144 214.641C144.24 213.953 144.576 213.375 145.008 212.906C145.445 212.432 145.958 212.073 146.547 211.828C147.141 211.583 147.792 211.461 148.5 211.461C149.547 211.461 150.398 211.628 151.055 211.961C151.711 212.289 152.208 212.745 152.547 213.328C152.885 213.906 153.091 214.576 153.164 215.336H150.531C150.479 214.961 150.38 214.643 150.234 214.383C150.094 214.117 149.891 213.917 149.625 213.781C149.359 213.641 149.016 213.57 148.594 213.57C148.266 213.57 147.966 213.641 147.695 213.781C147.43 213.922 147.203 214.135 147.016 214.422C146.828 214.703 146.682 215.057 146.578 215.484C146.479 215.911 146.43 216.411 146.43 216.984V217.633C146.43 218.201 146.477 218.698 146.57 219.125C146.669 219.552 146.815 219.909 147.008 220.195C147.206 220.477 147.456 220.69 147.758 220.836C148.065 220.977 148.427 221.047 148.844 221.047C149.135 221.047 149.385 221.023 149.594 220.977C149.802 220.924 149.974 220.862 150.109 220.789C150.25 220.711 150.357 220.638 150.43 220.57V218.805H148.523V216.922H153.172Z" fill="#898989"/>
<rect x="133.5" y="203.5" width="30" height="28" rx="2.5" stroke="#898989"/>
<path d="M21.5043 1.27029C21.5031 0.994148 21.726 0.769322 22.0022 0.768127L82.853 0.504672C83.1291 0.503477 83.354 0.726361 83.3552 1.0025L83.8169 107.663C83.8277 110.148 81.8217 112.171 79.3365 112.182L26.4855 112.411C24.0003 112.422 21.9769 110.416 21.9661 107.93L21.5043 1.27029Z" stroke="#D9D9D9"/>
<path d="M57.1719 55.9229V60.5947C56.9792 60.8083 56.6823 61.0374 56.2812 61.2822C55.8854 61.5218 55.3854 61.7275 54.7812 61.8994C54.1771 62.0713 53.4661 62.1572 52.6484 62.1572C51.8932 62.1572 51.2083 62.0374 50.5937 61.7979C49.9792 61.5531 49.4505 61.1963 49.0078 60.7275C48.5703 60.2536 48.2318 59.6755 47.9922 58.9932C47.7578 58.3057 47.6406 57.5192 47.6406 56.6338V56.001C47.6406 55.1156 47.7604 54.3291 48 53.6416C48.2396 52.9541 48.5755 52.376 49.0078 51.9072C49.4453 51.4333 49.9583 51.0739 50.5469 50.8291C51.1406 50.5843 51.7917 50.4619 52.5 50.4619C53.5469 50.4619 54.3984 50.6286 55.0547 50.9619C55.7109 51.29 56.2083 51.7458 56.5469 52.3291C56.8854 52.9072 57.0911 53.5765 57.1641 54.3369H54.5312C54.4792 53.9619 54.3802 53.6442 54.2344 53.3838C54.0937 53.1182 53.8906 52.9176 53.625 52.7822C53.3594 52.6416 53.0156 52.5713 52.5937 52.5713C52.2656 52.5713 51.9661 52.6416 51.6953 52.7822C51.4297 52.9229 51.2031 53.1364 51.0156 53.4229C50.8281 53.7041 50.6823 54.0583 50.5781 54.4854C50.4792 54.9124 50.4297 55.4124 50.4297 55.9854V56.6338C50.4297 57.2015 50.4766 57.6989 50.5703 58.126C50.6693 58.5531 50.8151 58.9098 51.0078 59.1963C51.2057 59.4775 51.4557 59.6911 51.7578 59.8369C52.0651 59.9775 52.4271 60.0479 52.8437 60.0479C53.1354 60.0479 53.3854 60.0244 53.5937 59.9775C53.8021 59.9255 53.974 59.863 54.1094 59.79C54.25 59.7119 54.3568 59.639 54.4297 59.5713V57.8057H52.5234V55.9229H57.1719Z" fill="#898989"/>
<rect x="37.5" y="42.501" width="30" height="28" rx="2.5" stroke="#898989"/>
<path d="M212.504 1.27029C212.503 0.994148 212.726 0.769322 213.002 0.768127L273.853 0.504672C274.129 0.503477 274.354 0.726361 274.355 1.0025L274.817 107.663C274.828 110.148 272.822 112.171 270.336 112.182L217.486 112.411C215 112.422 212.977 110.416 212.966 107.93L212.504 1.27029Z" stroke="#D9D9D9"/>
<path d="M248.172 55.9229V60.5947C247.979 60.8083 247.682 61.0374 247.281 61.2822C246.885 61.5218 246.385 61.7275 245.781 61.8994C245.177 62.0713 244.466 62.1572 243.648 62.1572C242.893 62.1572 242.208 62.0374 241.594 61.7979C240.979 61.5531 240.451 61.1963 240.008 60.7275C239.57 60.2536 239.232 59.6755 238.992 58.9932C238.758 58.3057 238.641 57.5192 238.641 56.6338V56.001C238.641 55.1156 238.76 54.3291 239 53.6416C239.24 52.9541 239.576 52.376 240.008 51.9072C240.445 51.4333 240.958 51.0739 241.547 50.8291C242.141 50.5843 242.792 50.4619 243.5 50.4619C244.547 50.4619 245.398 50.6286 246.055 50.9619C246.711 51.29 247.208 51.7458 247.547 52.3291C247.885 52.9072 248.091 53.5765 248.164 54.3369H245.531C245.479 53.9619 245.38 53.6442 245.234 53.3838C245.094 53.1182 244.891 52.9176 244.625 52.7822C244.359 52.6416 244.016 52.5713 243.594 52.5713C243.266 52.5713 242.966 52.6416 242.695 52.7822C242.43 52.9229 242.203 53.1364 242.016 53.4229C241.828 53.7041 241.682 54.0583 241.578 54.4854C241.479 54.9124 241.43 55.4124 241.43 55.9854V56.6338C241.43 57.2015 241.477 57.6989 241.57 58.126C241.669 58.5531 241.815 58.9098 242.008 59.1963C242.206 59.4775 242.456 59.6911 242.758 59.8369C243.065 59.9775 243.427 60.0479 243.844 60.0479C244.135 60.0479 244.385 60.0244 244.594 59.9775C244.802 59.9255 244.974 59.863 245.109 59.79C245.25 59.7119 245.357 59.639 245.43 59.5713V57.8057H243.523V55.9229H248.172Z" fill="#898989"/>
<rect x="228.5" y="42.501" width="30" height="28" rx="2.5" stroke="#898989"/>
</svg>
