<svg width="45" height="86" viewBox="0 0 45 86" fill="none" xmlns="http://www.w3.org/2000/svg">
<path d="M4.41422 18H36V41.5C36 39.8333 35.4 36.5 33 36.5H11.5C10.3333 36.5 7.8 37.2 7 40C6.2 42.8 6.66667 44.8333 7 45.5C5.33333 45.8333 1.8 47.3 1 50.5C0.321648 53.2134 0.554031 66.1846 0.843613 75.1472C0.933205 77.9201 2.21626 80.5135 4.34754 82.2896C6.06423 83.7202 8.21285 84.5227 10.4472 84.5571C20.4117 84.7107 35.867 84.8555 38 84.5C43.1336 83.6444 44 76.7228 44 71.5184V5.3171C44 4.78165 43.8603 4.25546 43.5946 3.79056C42.6085 2.06495 40.7734 1 38.786 1H4.41422C3.50871 1 2.64029 1.35971 2 2C1.35971 2.64029 1 3.50871 1 4.41421V14.5858C1 15.4913 1.35971 16.3597 2 17C2.64029 17.6403 3.50871 18 4.41422 18Z" fill="#D9D9D9" stroke="#D9D9D9"/>
<path d="M31.8424 37H11.8348C11.2833 37 10.7369 37.1052 10.2249 37.31L10.0845 37.3662C9.07269 37.7709 8.27093 38.5727 7.86618 39.5845C7.62428 40.1893 7.5 40.8346 7.5 41.486V71.7149C7.5 72.8973 7.69061 74.0718 8.06448 75.1935L9 78H34.5L35.6716 73.3137C35.8897 72.4412 36 71.5452 36 70.6458V42.2976C36 41.1154 35.7248 39.9495 35.1961 38.8922L35.1279 38.7557C34.7294 37.9587 34.0025 37.3756 33.138 37.1595C32.7143 37.0536 32.2791 37 31.8424 37Z" fill="#B3B3B3"/>
<path d="M9 78L8.06448 75.1935C7.69061 74.0718 7.5 72.8972 7.5 71.7149V41.486C7.5 40.8346 7.62428 40.1893 7.86618 39.5845V39.5845C8.27093 38.5727 9.07268 37.7709 10.0845 37.3662L10.2249 37.31C10.7369 37.1052 11.2833 37 11.8348 37H31.8424C32.2791 37 32.7143 37.0536 33.138 37.1595V37.1595C34.0025 37.3756 34.7294 37.9587 35.1279 38.7557L35.1961 38.8922C35.7248 39.9495 36 41.1154 36 42.2976V70.6458C36 71.5452 35.8897 72.4412 35.6716 73.3137L34.5 78M9 78H34.5M9 78V75C9 72.2386 11.2386 70 14 70H29.5C32.2614 70 34.5 72.2386 34.5 75V78" stroke="#D9D9D9"/>
</svg>
