<svg width="288" height="426" viewBox="0 0 288 426" fill="none" xmlns="http://www.w3.org/2000/svg">
<path d="M0.0527344 134.059L13.1438 134.029C26.3986 133.998 37.1688 144.718 37.1996 157.973L37.245 177.472C37.2759 190.727 26.5557 201.497 13.301 201.528L0.1442 201.559L0.1442 173.354L0.0527344 134.059Z" fill="#D9D9D9"/>
<path d="M287.053 200.887L274.208 200.917C260.954 200.948 250.184 190.228 250.153 176.973L250.109 158.059C250.078 144.804 260.798 134.033 274.053 134.003L286.962 133.973L286.962 161.932L287.053 200.887Z" fill="#D9D9D9"/>
<path fill-rule="evenodd" clip-rule="evenodd" d="M286.076 83.9727L214.053 84.2845L214.095 94.0734L214.053 94.0735L214.14 114.23L237.275 114.13L237.2 96.7554L286.13 96.5436L286.076 83.9727Z" fill="#D9D9D9"/>
<path fill-rule="evenodd" clip-rule="evenodd" d="M1.10805 83.9727L73.1309 84.2818L73.0885 93.9873L73.1309 93.9875L73.0436 113.972L49.9083 113.873L49.9835 96.6467L1.05362 96.4367L1.10805 83.9727Z" fill="#D9D9D9"/>
<path d="M33.1392 272.756V226.895L77.7032 226V226.895C77.9272 243.599 78.2407 277.767 77.7032 280.81L77.6815 280.933C77.1348 284.029 75.981 290.561 74.5681 295.128C73.1362 299.755 67.5 312.5 66 316C64.5 319.5 60.4599 327.477 60.4599 337.857V426H15V335.172C15 326 18.3591 315.933 22.1661 303.629C25.9731 291.324 33.1392 281.481 33.1392 272.756Z" fill="#D9D9D9"/>
<path d="M256.914 272.729V226.868L212.349 225.973V226.868C212.126 243.571 211.812 277.74 212.349 280.783L212.371 280.906C212.918 284.001 214.072 290.534 215.485 295.1C216.917 299.728 222.553 312.473 224.053 315.973C225.553 319.473 229.593 327.449 229.593 337.829V425.973H275.053V335.145C275.053 325.973 271.694 315.906 267.887 303.601C264.08 291.297 256.914 281.454 256.914 272.729Z" fill="#D9D9D9"/>
<path d="M122.432 230.835C126.392 229.652 154.661 230.342 168.301 230.835C167.421 225.467 166.783 214.995 171.271 216.046C176.88 217.361 176.056 217.689 180.84 227.548C185.625 237.407 182.82 257.29 182.985 260.247C183.117 262.614 179.74 274.269 178.035 279.801C177.045 282.266 174.538 288.181 172.426 292.125C169.786 297.054 159.391 309.871 152.956 317.923C147.808 324.364 143.771 329.699 142.396 331.561L138.272 339.448C135.742 343.063 133.124 352.955 142.891 363.603C155.101 376.912 167.592 371.135 171.053 368.973C175.053 366.473 179.423 360.405 180.675 356.866C182.053 352.973 183.15 341.584 181.665 337.148C180.18 332.711 174.406 322.523 178.86 320.059C183.315 317.594 184.14 320.223 191.4 326.631C197.208 331.758 199.54 350.348 199.98 359.002C200.035 356.756 200.112 356.077 199.98 371.325C199.932 376.805 199.813 380.482 199.663 382.887C199.494 385.61 196.922 386.607 194.194 386.607H102.797H95.2077L94.0527 371.983V354.401V341.255C94.0527 338.133 96.5277 328.11 102.797 314.308C106.798 305.501 114.948 293.437 117.972 289.608C117.98 289.574 117.99 289.538 118 289.5C119.155 285.228 120.287 274.05 120.287 265.67C120.287 258.966 118.747 248.964 117.977 244.802C117.812 240.639 118.472 232.018 122.432 230.835Z" fill="#D9D9D9"/>
<path d="M102.564 27.9925C103.681 27.9925 104.586 27.0988 104.586 25.9963C104.586 24.8938 103.681 24 102.564 24C101.447 24 100.541 24.8938 100.541 25.9963C100.541 27.0988 101.447 27.9925 102.564 27.9925Z" fill="#898989"/>
<path d="M105.471 28.3262H99.632C99.1334 28.3262 98.8076 28.6911 98.8076 29.1896V30.9484V36.341C98.8076 36.7395 99.0906 37.0622 99.4889 37.0622C99.8047 37.0622 100.01 36.932 100.13 36.6993V46.7992C100.13 47.3968 100.614 47.8811 101.212 47.8811C101.809 47.8811 102.294 47.3968 102.294 46.7992V38.6644H102.895V46.7994C102.895 47.397 103.379 47.8813 103.977 47.8813C104.574 47.8813 105.059 47.397 105.059 46.7994V36.6996C105.179 36.9161 105.404 37.0625 105.672 37.0625C106.07 37.0625 106.381 36.7395 106.381 36.3413V29.1896C106.381 28.6534 105.957 28.3262 105.471 28.3262Z" fill="#898989"/>
<path d="M113.719 27.9568C114.827 27.9568 115.724 27.0711 115.724 25.9784C115.724 24.8858 114.827 24 113.719 24C112.612 24 111.715 24.8858 111.715 25.9784C111.715 27.0711 112.612 27.9568 113.719 27.9568Z" fill="#898989"/>
<path d="M116.117 29.9648C116.117 29.9648 117.992 33.483 118.604 34.6695C118.748 34.9493 119.027 35.2486 119.312 35.2584C119.495 35.2648 119.679 35.1888 119.819 35.0489C120.098 34.77 120.017 34.3809 119.819 34.0384C119.018 32.6603 117.454 29.8815 116.665 28.4806C116.58 28.3301 116.439 28.2051 116.131 28.2051C115.987 28.2051 112.484 28.2051 111.256 28.2051C111.064 28.2051 110.885 28.2885 110.795 28.4461C110.001 29.843 108.398 32.6828 107.618 34.0332C107.42 34.3748 107.338 34.7671 107.618 35.0465C107.757 35.1859 107.94 35.2546 108.123 35.2571C108.364 35.2605 108.617 35.0766 108.774 34.7778C109.468 33.451 111.309 29.9647 111.309 29.9647V32.3629L108.221 37.563C108.117 37.739 108.115 37.9573 108.216 38.1353C108.317 38.3132 108.506 38.4232 108.711 38.4232H111.309V46.8082C111.309 47.4004 111.788 47.8806 112.38 47.8806C112.972 47.8806 113.473 47.4007 113.473 46.8082V38.4232H113.954V46.8082C113.954 47.4004 114.454 47.8806 115.046 47.8806C115.639 47.8806 116.117 47.4007 116.117 46.8082V38.4232H118.724C118.929 38.4232 119.118 38.313 119.219 38.1347C119.32 37.9564 119.318 37.7377 119.213 37.5617L116.137 32.4125H116.117V29.9648H116.117Z" fill="#898989"/>
<path d="M77.5043 1.50173C77.5031 1.22559 77.726 1.00077 78.0022 0.999572L140.159 0.730464C140.435 0.729269 140.66 0.952155 140.661 1.22829L140.941 65.9929C140.952 68.4781 138.946 70.5016 136.461 70.5123L82.3042 70.7468C79.8189 70.7575 77.7955 68.7516 77.7847 66.2663L77.5043 1.50173Z" stroke="#D9D9D9"/>
<path d="M169.564 27.9925C170.681 27.9925 171.586 27.0988 171.586 25.9963C171.586 24.8938 170.681 24 169.564 24C168.447 24 167.541 24.8938 167.541 25.9963C167.541 27.0988 168.447 27.9925 169.564 27.9925Z" fill="#898989"/>
<path d="M172.471 28.3262H166.632C166.133 28.3262 165.808 28.6911 165.808 29.1896V30.9484V36.341C165.808 36.7395 166.091 37.0622 166.489 37.0622C166.805 37.0622 167.01 36.932 167.13 36.6993V46.7992C167.13 47.3968 167.614 47.8811 168.212 47.8811C168.809 47.8811 169.294 47.3968 169.294 46.7992V38.6644H169.895V46.7994C169.895 47.397 170.379 47.8813 170.977 47.8813C171.574 47.8813 172.059 47.397 172.059 46.7994V36.6996C172.179 36.9161 172.404 37.0625 172.672 37.0625C173.07 37.0625 173.381 36.7395 173.381 36.3413V29.1896C173.381 28.6534 172.957 28.3262 172.471 28.3262Z" fill="#898989"/>
<path d="M180.719 27.9568C181.827 27.9568 182.724 27.0711 182.724 25.9784C182.724 24.8858 181.827 24 180.719 24C179.612 24 178.715 24.8858 178.715 25.9784C178.715 27.0711 179.612 27.9568 180.719 27.9568Z" fill="#898989"/>
<path d="M183.117 29.9648C183.117 29.9648 184.992 33.483 185.604 34.6695C185.748 34.9493 186.027 35.2486 186.312 35.2584C186.495 35.2648 186.679 35.1888 186.819 35.0489C187.098 34.77 187.017 34.3809 186.819 34.0384C186.018 32.6603 184.454 29.8815 183.665 28.4806C183.58 28.3301 183.439 28.2051 183.131 28.2051C182.987 28.2051 179.484 28.2051 178.256 28.2051C178.064 28.2051 177.885 28.2885 177.795 28.4461C177.001 29.843 175.398 32.6828 174.618 34.0332C174.42 34.3748 174.338 34.7671 174.618 35.0465C174.757 35.1859 174.94 35.2546 175.123 35.2571C175.364 35.2605 175.617 35.0766 175.774 34.7778C176.468 33.451 178.309 29.9647 178.309 29.9647V32.3629L175.221 37.563C175.117 37.739 175.115 37.9573 175.216 38.1353C175.317 38.3132 175.506 38.4232 175.711 38.4232H178.309V46.8082C178.309 47.4004 178.788 47.8806 179.38 47.8806C179.972 47.8806 180.473 47.4007 180.473 46.8082V38.4232H180.954V46.8082C180.954 47.4004 181.454 47.8806 182.046 47.8806C182.639 47.8806 183.117 47.4007 183.117 46.8082V38.4232H185.724C185.929 38.4232 186.118 38.313 186.219 38.1347C186.32 37.9564 186.318 37.7377 186.213 37.5617L183.137 32.4125H183.117V29.9648H183.117Z" fill="#898989"/>
<path d="M144.504 1.50173C144.503 1.22559 144.726 1.00077 145.002 0.999572L207.159 0.730464C207.435 0.729269 207.66 0.952155 207.661 1.22829L207.941 65.9929C207.952 68.4781 205.946 70.5016 203.461 70.5123L149.304 70.7468C146.819 70.7575 144.795 68.7516 144.785 66.2663L144.504 1.50173Z" stroke="#D9D9D9"/>
</svg>
