<svg width="45" height="86" viewBox="0 0 45 86" fill="none" xmlns="http://www.w3.org/2000/svg">
<path d="M40.5858 18H9V41.5C9 39.8333 9.6 36.5 12 36.5H33.5C34.6667 36.5 37.2 37.2 38 40C38.8 42.8 38.3333 44.8333 38 45.5C39.6667 45.8333 43.2 47.3 44 50.5C44.6784 53.2134 44.446 66.1846 44.1564 75.1472C44.0668 77.9201 42.7837 80.5135 40.6525 82.2896C38.9358 83.7202 36.7871 84.5227 34.5528 84.5571C24.5883 84.7107 9.13298 84.8555 7 84.5C1.86639 83.6444 1 76.7228 1 71.5184V5.3171C1 4.78165 1.13974 4.25546 1.4054 3.79056C2.39146 2.06495 4.22655 1 6.21402 1H40.5858C41.4913 1 42.3597 1.35971 43 2C43.6403 2.64029 44 3.50871 44 4.41421V14.5858C44 15.4913 43.6403 16.3597 43 17C42.3597 17.6403 41.4913 18 40.5858 18Z" fill="#D9D9D9" stroke="#D9D9D9"/>
<path d="M13.1576 37H33.1652C33.7167 37 34.2631 37.1052 34.7751 37.31L34.9155 37.3662C35.9273 37.7709 36.7291 38.5727 37.1338 39.5845C37.3757 40.1893 37.5 40.8346 37.5 41.486V71.7149C37.5 72.8973 37.3094 74.0718 36.9355 75.1935L36 78H10.5L9.32843 73.3137C9.1103 72.4412 9 71.5452 9 70.6458V42.2976C9 41.1154 9.27523 39.9495 9.80389 38.8922L9.87214 38.7557C10.2706 37.9587 10.9975 37.3756 11.862 37.1595C12.2857 37.0536 12.7209 37 13.1576 37Z" fill="#B3B3B3"/>
<path d="M36 78L36.9355 75.1935C37.3094 74.0718 37.5 72.8972 37.5 71.7149V41.486C37.5 40.8346 37.3757 40.1893 37.1338 39.5845V39.5845C36.7291 38.5727 35.9273 37.7709 34.9155 37.3662L34.7751 37.31C34.2631 37.1052 33.7167 37 33.1652 37H13.1576C12.7209 37 12.2857 37.0536 11.862 37.1595V37.1595C10.9975 37.3756 10.2706 37.9587 9.87214 38.7557L9.80389 38.8922C9.27523 39.9495 9 41.1154 9 42.2976V70.6458C9 71.5452 9.1103 72.4412 9.32843 73.3137L10.5 78M36 78H10.5M36 78V75C36 72.2386 33.7614 70 31 70H15.5C12.7386 70 10.5 72.2386 10.5 75V78" stroke="#D9D9D9"/>
</svg>
