<svg width="305" height="418" viewBox="0 0 305 418" fill="none" xmlns="http://www.w3.org/2000/svg">
<path fill-rule="evenodd" clip-rule="evenodd" d="M136.444 277.773C135.193 275.583 134.18 273.263 133.418 270.859H80.0527C81.5129 283.387 85.4578 295.493 91.674 306.368C99.6852 320.382 111.165 331.818 124.874 339.442C138.583 347.066 154.001 350.588 169.466 349.629C184.93 348.671 199.853 343.267 212.625 334.001C225.397 324.735 235.533 311.958 241.94 297.05C247.805 283.403 250.341 268.443 249.346 253.535L196.598 253C196.777 253.936 196.92 254.882 197.026 255.835C197.719 262.098 196.782 268.443 194.315 274.184C191.847 279.926 187.944 284.846 183.025 288.415C178.106 291.983 172.359 294.064 166.403 294.434C160.448 294.803 154.51 293.446 149.23 290.51C143.951 287.574 139.53 283.17 136.444 277.773Z" fill="#D9D9D9"/>
<mask id="path-2-inside-1_1334_30" fill="white">
<path fill-rule="evenodd" clip-rule="evenodd" d="M91.9671 95.9741L76.9446 87.0273L91.8995 78.1208L91.778 46.0276L23 46.126L23.222 104.77L92 104.671L91.9671 95.9741Z"/>
</mask>
<path d="M76.9446 87.0273L76.433 87.8865L74.9903 87.0273L76.433 86.1682L76.9446 87.0273ZM91.9671 95.9741L92.4788 95.115L92.9649 95.4045L92.9671 95.9703L91.9671 95.9741ZM91.8995 78.1208L92.8995 78.117L92.9017 78.6879L92.4112 78.98L91.8995 78.1208ZM91.778 46.0276L91.7766 45.0276L92.7742 45.0261L92.778 46.0238L91.778 46.0276ZM23 46.126L22 46.1298L21.9962 45.1274L22.9986 45.126L23 46.126ZM23.222 104.77L23.2234 105.77L22.2258 105.771L22.222 104.773L23.222 104.77ZM92 104.671L93 104.667L93.0038 105.67L92.0014 105.671L92 104.671ZM77.4563 86.1682L92.4788 95.115L91.4554 96.8333L76.433 87.8865L77.4563 86.1682ZM92.4112 78.98L77.4563 87.8865L76.433 86.1682L91.3878 77.2616L92.4112 78.98ZM90.8995 78.1246L90.778 46.0314L92.778 46.0238L92.8995 78.117L90.8995 78.1246ZM91.7794 47.0276L23.0014 47.126L22.9986 45.126L91.7766 45.0276L91.7794 47.0276ZM24 46.1222L24.222 104.766L22.222 104.773L22 46.1298L24 46.1222ZM23.2206 103.77L91.9986 103.671L92.0014 105.671L23.2234 105.77L23.2206 103.77ZM91 104.675L90.9671 95.9779L92.9671 95.9703L93 104.667L91 104.675Z" fill="#D9D9D9" mask="url(#path-2-inside-1_1334_30)"/>
<mask id="path-4-inside-2_1334_30" fill="white">
<path fill-rule="evenodd" clip-rule="evenodd" d="M214.086 95.948L229.11 87L214.153 78.0923L214.275 46.0002L283.053 46.0986L282.831 104.742L214.053 104.644L214.086 95.948Z"/>
</mask>
<path d="M229.11 87L229.622 87.8592L231.064 87L229.622 86.1408L229.11 87ZM214.086 95.948L213.574 95.0888L213.088 95.3783L213.086 95.9442L214.086 95.948ZM214.153 78.0923L213.153 78.0885L213.151 78.6594L213.642 78.9515L214.153 78.0923ZM214.275 46.0002L214.276 45.0002L213.279 44.9988L213.275 45.9964L214.275 46.0002ZM283.053 46.0986L284.053 46.1024L284.057 45.1001L283.054 45.0986L283.053 46.0986ZM282.831 104.742L282.829 105.742L283.827 105.744L283.831 104.746L282.831 104.742ZM214.053 104.644L213.053 104.64L213.049 105.642L214.051 105.644L214.053 104.644ZM228.598 86.1408L213.574 95.0888L214.597 96.8071L229.622 87.8592L228.598 86.1408ZM213.642 78.9515L228.598 87.8592L229.622 86.1408L214.665 77.2331L213.642 78.9515ZM215.153 78.0961L215.275 46.004L213.275 45.9964L213.153 78.0885L215.153 78.0961ZM214.273 47.0002L283.051 47.0986L283.054 45.0986L214.276 45.0002L214.273 47.0002ZM282.053 46.0949L281.831 104.738L283.831 104.746L284.053 46.1024L282.053 46.0949ZM282.832 103.742L214.054 103.644L214.051 105.644L282.829 105.742L282.832 103.742ZM215.053 104.648L215.086 95.9517L213.086 95.9442L213.053 104.64L215.053 104.648Z" fill="#D9D9D9" mask="url(#path-4-inside-2_1334_30)"/>
<path d="M47.8879 67.0472C49.005 67.0472 49.9106 66.1535 49.9106 65.051C49.9106 63.9484 49.005 63.0547 47.8879 63.0547C46.7708 63.0547 45.8652 63.9484 45.8652 65.051C45.8652 66.1535 46.7708 67.0472 47.8879 67.0472Z" fill="#898989"/>
<path d="M50.7959 67.3809H44.9572C44.4586 67.3809 44.1328 67.7458 44.1328 68.2443V70.0031V75.3957C44.1328 75.7942 44.4158 76.1169 44.8141 76.1169C45.1299 76.1169 45.3349 75.9867 45.455 75.754V85.8539C45.455 86.4515 45.9396 86.9358 46.5371 86.9358C47.1346 86.9358 47.6189 86.4515 47.6189 85.8539V77.7191H48.22V85.8541C48.22 86.4517 48.7044 86.936 49.302 86.936C49.8994 86.936 50.3837 86.4517 50.3837 85.8541V75.7543C50.5039 75.9708 50.7292 76.1171 50.997 76.1171C51.3955 76.1171 51.7063 75.7942 51.7063 75.3959V68.2443C51.7063 67.7081 51.2824 67.3809 50.7959 67.3809Z" fill="#898989"/>
<path d="M59.0456 67.0115C60.1527 67.0115 61.0502 66.1258 61.0502 65.0331C61.0502 63.9405 60.1527 63.0547 59.0456 63.0547C57.9385 63.0547 57.041 63.9405 57.041 65.0331C57.041 66.1258 57.9385 67.0115 59.0456 67.0115Z" fill="#898989"/>
<path d="M61.4434 69.0195C61.4434 69.0195 63.3178 72.5377 63.93 73.7242C64.0743 74.004 64.3535 74.3032 64.6378 74.3131C64.821 74.3195 65.0054 74.2434 65.1449 74.1036C65.4239 73.8247 65.3436 73.4356 65.1447 73.093C64.3443 71.715 62.7799 68.9362 61.9909 67.5352C61.9061 67.3848 61.7651 67.2598 61.4567 67.2598C61.3127 67.2598 57.8105 67.2598 56.5821 67.2598C56.3899 67.2598 56.2108 67.3432 56.1213 67.5008C55.3276 68.8977 53.7244 71.7374 52.9437 73.0879C52.7462 73.4295 52.6646 73.8218 52.9437 74.1012C53.0832 74.2405 53.2662 74.3093 53.4488 74.3118C53.6901 74.3152 53.9434 74.1313 54.0998 73.8324C54.7943 72.5057 56.6349 69.0194 56.6349 69.0194V71.4176L53.5476 76.6177C53.4432 76.7937 53.4411 77.012 53.5424 77.19C53.6437 77.3679 53.8325 77.4779 54.0372 77.4779H56.6351V85.8628C56.6351 86.455 57.1137 86.9352 57.7059 86.9352C58.2982 86.9352 58.7989 86.4554 58.7989 85.8628V77.4779H59.2797V85.8628C59.2797 86.455 59.7803 86.9352 60.3726 86.9352C60.9647 86.9352 61.4432 86.4554 61.4432 85.8628V77.4779H64.0502C64.2551 77.4779 64.4443 77.3677 64.5452 77.1894C64.6462 77.0111 64.6439 76.7924 64.5389 76.6163L61.4636 71.4671H61.4429V69.0195H61.4434Z" fill="#898989"/>
<path d="M248.941 67.0199C250.058 67.0199 250.963 66.1261 250.963 65.0236C250.963 63.9211 250.058 63.0273 248.941 63.0273C247.824 63.0273 246.918 63.9211 246.918 65.0236C246.918 66.1261 247.824 67.0199 248.941 67.0199Z" fill="#898989"/>
<path d="M251.849 67.3535H246.01C245.511 67.3535 245.186 67.7185 245.186 68.217V69.9757V75.3684C245.186 75.7668 245.469 76.0896 245.867 76.0896C246.183 76.0896 246.388 75.9594 246.508 75.7267V85.8265C246.508 86.4241 246.992 86.9084 247.59 86.9084C248.187 86.9084 248.672 86.4241 248.672 85.8265V77.6917H249.273V85.8267C249.273 86.4244 249.757 86.9087 250.355 86.9087C250.952 86.9087 251.436 86.4244 251.436 85.8267V75.7269C251.557 75.9434 251.782 76.0898 252.05 76.0898C252.448 76.0898 252.759 75.7668 252.759 75.3686V68.217C252.759 67.6807 252.335 67.3535 251.849 67.3535Z" fill="#898989"/>
<path d="M260.098 66.9842C261.205 66.9842 262.103 66.0984 262.103 65.0058C262.103 63.9131 261.205 63.0273 260.098 63.0273C258.991 63.0273 258.094 63.9131 258.094 65.0058C258.094 66.0984 258.991 66.9842 260.098 66.9842Z" fill="#898989"/>
<path d="M262.496 68.9921C262.496 68.9921 264.371 72.5104 264.983 73.6968C265.127 73.9767 265.406 74.2759 265.691 74.2858C265.874 74.2922 266.058 74.2161 266.198 74.0762C266.477 73.7974 266.396 73.4082 266.197 73.0657C265.397 71.6877 263.833 68.9088 263.044 67.5079C262.959 67.3574 262.818 67.2324 262.509 67.2324C262.365 67.2324 258.863 67.2324 257.635 67.2324C257.443 67.2324 257.264 67.3159 257.174 67.4734C256.38 68.8704 254.777 71.7101 253.996 73.0605C253.799 73.4022 253.717 73.7945 253.996 74.0738C254.136 74.2132 254.319 74.2819 254.502 74.2845C254.743 74.2878 254.996 74.104 255.152 73.8051C255.847 72.4783 257.688 68.992 257.688 68.992V71.3902L254.6 76.5903C254.496 76.7663 254.494 76.9847 254.595 77.1626C254.696 77.3406 254.885 77.4505 255.09 77.4505H257.688V85.8355C257.688 86.4277 258.166 86.9079 258.759 86.9079C259.351 86.9079 259.852 86.4281 259.852 85.8355V77.4505H260.332V85.8355C260.332 86.4277 260.833 86.9079 261.425 86.9079C262.017 86.9079 262.496 86.4281 262.496 85.8355V77.4505H265.103C265.308 77.4505 265.497 77.3403 265.598 77.162C265.699 76.9837 265.697 76.765 265.592 76.589L262.516 71.4398H262.496V68.9921H262.496Z" fill="#898989"/>
<path d="M97.0022 118.015L208.702 117.532C208.978 117.53 209.203 117.753 209.204 118.029L209.481 182.049C209.492 184.535 207.486 186.558 205.001 186.569L101.301 187.018C98.8157 187.028 96.7923 185.022 96.7815 182.537L96.5043 118.517C96.5031 118.241 96.726 118.016 97.0022 118.015Z" stroke="#D9D9D9"/>
<path d="M157.172 149.949V154.621C156.979 154.835 156.682 155.064 156.281 155.309C155.885 155.548 155.385 155.754 154.781 155.926C154.177 156.098 153.466 156.184 152.648 156.184C151.893 156.184 151.208 156.064 150.594 155.824C149.979 155.579 149.451 155.223 149.008 154.754C148.57 154.28 148.232 153.702 147.992 153.02C147.758 152.332 147.641 151.546 147.641 150.66V150.027C147.641 149.142 147.76 148.355 148 147.668C148.24 146.98 148.576 146.402 149.008 145.934C149.445 145.46 149.958 145.1 150.547 144.855C151.141 144.611 151.792 144.488 152.5 144.488C153.547 144.488 154.398 144.655 155.055 144.988C155.711 145.316 156.208 145.772 156.547 146.355C156.885 146.934 157.091 147.603 157.164 148.363H154.531C154.479 147.988 154.38 147.671 154.234 147.41C154.094 147.145 153.891 146.944 153.625 146.809C153.359 146.668 153.016 146.598 152.594 146.598C152.266 146.598 151.966 146.668 151.695 146.809C151.43 146.949 151.203 147.163 151.016 147.449C150.828 147.73 150.682 148.085 150.578 148.512C150.479 148.939 150.43 149.439 150.43 150.012V150.66C150.43 151.228 150.477 151.725 150.57 152.152C150.669 152.579 150.815 152.936 151.008 153.223C151.206 153.504 151.456 153.717 151.758 153.863C152.065 154.004 152.427 154.074 152.844 154.074C153.135 154.074 153.385 154.051 153.594 154.004C153.802 153.952 153.974 153.889 154.109 153.816C154.25 153.738 154.357 153.665 154.43 153.598V151.832H152.523V149.949H157.172Z" fill="#898989"/>
<rect x="137.5" y="136.527" width="30" height="28" rx="2.5" stroke="#898989"/>
<path d="M24.0022 117.795L84.853 117.532C85.1291 117.531 85.354 117.754 85.3552 118.03L85.8169 224.69C85.8277 227.175 83.8217 229.199 81.3365 229.209L28.4855 229.438C26.0003 229.449 23.9769 227.443 23.9661 224.958L23.5043 118.298C23.5031 118.021 23.726 117.797 24.0022 117.795Z" stroke="#D9D9D9"/>
<path d="M59.1719 172.95V177.622C58.9792 177.836 58.6823 178.065 58.2812 178.31C57.8854 178.549 57.3854 178.755 56.7812 178.927C56.1771 179.099 55.4661 179.185 54.6484 179.185C53.8932 179.185 53.2083 179.065 52.5937 178.825C51.9792 178.58 51.4505 178.224 51.0078 177.755C50.5703 177.281 50.2318 176.703 49.9922 176.021C49.7578 175.333 49.6406 174.547 49.6406 173.661V173.028C49.6406 172.143 49.7604 171.356 50 170.669C50.2396 169.981 50.5755 169.403 51.0078 168.935C51.4453 168.461 51.9583 168.101 52.5469 167.856C53.1406 167.612 53.7917 167.489 54.5 167.489C55.5469 167.489 56.3984 167.656 57.0547 167.989C57.7109 168.317 58.2083 168.773 58.5469 169.356C58.8854 169.935 59.0911 170.604 59.1641 171.364H56.5312C56.4792 170.989 56.3802 170.672 56.2344 170.411C56.0937 170.146 55.8906 169.945 55.625 169.81C55.3594 169.669 55.0156 169.599 54.5937 169.599C54.2656 169.599 53.9661 169.669 53.6953 169.81C53.4297 169.95 53.2031 170.164 53.0156 170.45C52.8281 170.731 52.6823 171.086 52.5781 171.513C52.4792 171.94 52.4297 172.44 52.4297 173.013V173.661C52.4297 174.229 52.4766 174.726 52.5703 175.153C52.6693 175.58 52.8151 175.937 53.0078 176.224C53.2057 176.505 53.4557 176.718 53.7578 176.864C54.0651 177.005 54.4271 177.075 54.8437 177.075C55.1354 177.075 55.3854 177.052 55.5937 177.005C55.8021 176.953 55.974 176.89 56.1094 176.817C56.25 176.739 56.3568 176.666 56.4297 176.599V174.833H54.5234V172.95H59.1719Z" fill="#898989"/>
<rect x="39.5" y="159.528" width="30" height="28" rx="2.5" stroke="#898989"/>
<path d="M221.002 117.795L281.853 117.532C282.129 117.531 282.354 117.754 282.355 118.03L282.817 224.69C282.828 227.175 280.822 229.199 278.336 229.209L225.486 229.438C223 229.449 220.977 227.443 220.966 224.958L220.504 118.298C220.503 118.021 220.726 117.797 221.002 117.795Z" stroke="#D9D9D9"/>
<path d="M256.172 172.95V177.622C255.979 177.836 255.682 178.065 255.281 178.31C254.885 178.549 254.385 178.755 253.781 178.927C253.177 179.099 252.466 179.185 251.648 179.185C250.893 179.185 250.208 179.065 249.594 178.825C248.979 178.58 248.451 178.224 248.008 177.755C247.57 177.281 247.232 176.703 246.992 176.021C246.758 175.333 246.641 174.547 246.641 173.661V173.028C246.641 172.143 246.76 171.356 247 170.669C247.24 169.981 247.576 169.403 248.008 168.935C248.445 168.461 248.958 168.101 249.547 167.856C250.141 167.612 250.792 167.489 251.5 167.489C252.547 167.489 253.398 167.656 254.055 167.989C254.711 168.317 255.208 168.773 255.547 169.356C255.885 169.935 256.091 170.604 256.164 171.364H253.531C253.479 170.989 253.38 170.672 253.234 170.411C253.094 170.146 252.891 169.945 252.625 169.81C252.359 169.669 252.016 169.599 251.594 169.599C251.266 169.599 250.966 169.669 250.695 169.81C250.43 169.95 250.203 170.164 250.016 170.45C249.828 170.731 249.682 171.086 249.578 171.513C249.479 171.94 249.43 172.44 249.43 173.013V173.661C249.43 174.229 249.477 174.726 249.57 175.153C249.669 175.58 249.815 175.937 250.008 176.224C250.206 176.505 250.456 176.718 250.758 176.864C251.065 177.005 251.427 177.075 251.844 177.075C252.135 177.075 252.385 177.052 252.594 177.005C252.802 176.953 252.974 176.89 253.109 176.817C253.25 176.739 253.357 176.666 253.43 176.599V174.833H251.523V172.95H256.172Z" fill="#898989"/>
<rect x="236.5" y="159.528" width="30" height="28" rx="2.5" stroke="#898989"/>
<rect x="147" y="210.17" width="32.9841" height="3.71788" transform="rotate(-0.248061 147 210.17)" fill="#D9D9D9"/>
<rect x="147" y="217.273" width="32.9841" height="3.71788" transform="rotate(-0.248061 147 217.273)" fill="#D9D9D9"/>
<rect x="147" y="224.379" width="32.9841" height="3.71788" transform="rotate(-0.248061 147 224.379)" fill="#D9D9D9"/>
<rect x="147" y="231.482" width="32.9841" height="3.71788" transform="rotate(-0.248061 147 231.482)" fill="#D9D9D9"/>
<rect x="147" y="238.588" width="32.9841" height="3.71788" transform="rotate(-0.248061 147 238.588)" fill="#D9D9D9"/>
<rect x="147" y="245.691" width="32.9841" height="3.71788" transform="rotate(-0.248061 147 245.691)" fill="#D9D9D9"/>
<rect x="147" y="252.795" width="32.9841" height="3.71788" transform="rotate(-0.248061 147 252.795)" fill="#D9D9D9"/>
<rect x="147" y="259.9" width="32.9841" height="3.71788" transform="rotate(-0.248061 147 259.9)" fill="#D9D9D9"/>
<rect x="147" y="267.004" width="32.9841" height="3.71788" transform="rotate(-0.248061 147 267.004)" fill="#D9D9D9"/>
<rect x="147" y="274.109" width="32.9841" height="3.71788" transform="rotate(-0.248061 147 274.109)" fill="#D9D9D9"/>
<rect x="147" y="281.213" width="32.9841" height="3.71788" transform="rotate(-0.248061 147 281.213)" fill="#D9D9D9"/>
<path d="M1 1V326.916C2 329.749 4.7 335.925 7.5 337.964C10.3 340.004 97.3333 391.505 140.5 417H169.5C212 391.788 297.5 340.684 299.5 337.964C302 334.565 304 331.165 304 326.916C304 323.517 302.667 108.222 302 1" stroke="#D9D9D9" stroke-width="2"/>
</svg>
