<svg width="42" height="56" viewBox="0 0 42 56" fill="none" xmlns="http://www.w3.org/2000/svg">
<path fill-rule="evenodd" clip-rule="evenodd" d="M32.9747 7.0965C32.5061 4.94396 30.7635 3.27079 28.5617 3.19801C25.6475 3.10168 23.5715 5.78616 23.9367 8.67904L25.0989 17.8851C25.8468 23.8093 19.3326 27.9074 14.3161 24.6687L5.61753 19.0528C4.33891 18.2273 2.67706 19.2148 2.75594 20.7347C2.80727 21.7239 2.8398 22.714 2.90675 24.7519C3.01152 27.9409 3.20058 33.6957 3.67791 46.0277C3.87425 51.1003 8.22989 55.0059 13.2939 54.6518L32.4976 53.309C37.9708 52.9263 41.8309 47.7774 40.6639 42.4164L32.9747 7.0965Z" fill="#D9D9D9"/>
<path d="M7.34462 5.39141L24.0837 1.5496C24.5831 1.43499 25.1009 1.42543 25.6041 1.52154C26.5951 1.71077 27.4657 2.2968 28.014 3.1437L28.0517 3.20193C28.3662 3.68766 28.5933 4.22465 28.7227 4.78864L35.1646 32.8564C35.4065 33.9104 35.4917 34.9943 35.4173 36.0731L35.2228 38.896L13.7778 43.8178L11.7794 39.6726C11.423 38.9333 11.1505 38.1564 10.9669 37.3564L4.91586 10.9916C4.68074 9.96713 4.66779 8.9042 4.87789 7.87432L4.94617 7.53961C5.09686 6.80096 5.56774 6.16734 6.23154 5.81001C6.58216 5.62127 6.95653 5.48048 7.34462 5.39141Z" fill="#B3B3B3"/>
<path d="M35.2228 38.896L35.4173 36.0731C35.4917 34.9943 35.4065 33.9104 35.1646 32.8564L28.7227 4.78864C28.5933 4.22466 28.3662 3.68766 28.0517 3.20193L28.014 3.1437C27.4657 2.2968 26.5951 1.71077 25.6041 1.52153V1.52153C25.1009 1.42543 24.5831 1.43499 24.0837 1.5496L7.34462 5.39141C6.95653 5.48048 6.58216 5.62127 6.23154 5.81001V5.81001C5.56774 6.16734 5.09686 6.80096 4.94617 7.53961L4.87789 7.87432C4.66779 8.9042 4.68074 9.96713 4.91586 10.9916L10.9669 37.3564C11.1505 38.1564 11.423 38.9333 11.7794 39.6726L13.7778 43.8178M35.2228 38.896L13.7778 43.8178M35.2228 38.896L34.6438 36.3729C34.026 33.6815 31.3434 32.0004 28.652 32.6181L16.9535 35.303C14.2621 35.9208 12.581 38.6034 13.1987 41.2948L13.7778 43.8178" stroke="#D9D9D9"/>
</svg>
