<svg width="97" height="25" viewBox="0 0 97 25" fill="none" xmlns="http://www.w3.org/2000/svg">
<path opacity="0.1" fill-rule="evenodd" clip-rule="evenodd" d="M1 17.2984C1 17.2984 4.78424 16.7443 9.08671 18.0753C17.2697 20.6069 17.7365 15.971 20.7709 13.7357C23.547 11.6906 25.8461 12.9384 28.9371 15.4393C31.2168 17.2839 34.5393 20.3803 37.98 19.8818C41.1252 19.4261 43.3548 15.7946 47.7144 14.871C51.1696 14.139 53.9776 16.15 57.9563 15.4393C63.3537 14.4753 65.7647 8.79999 69.6222 8.79999C74.3833 8.79999 77.7354 4 82.0667 4C86.3723 4 86.9567 6.82251 91.6667 8.79999C95.2674 10.3118 97 8.79999 97 8.79999V25H1V17.2984Z" fill="#F3F5F5"/>
<path d="M1 14.3542C1 14.3542 4.76752 13.7983 9.05097 15.1338C17.1978 17.6738 17.6626 13.0224 20.6835 10.7797C23.4474 8.72778 25.7363 9.97972 28.8136 12.489C31.0833 14.3397 34.391 17.4464 37.8166 16.9462C40.9479 16.4891 43.1677 12.8454 47.508 11.9188C50.9479 11.1844 53.7434 13.202 57.7046 12.489C63.0782 11.5218 65.4785 5.82759 69.319 5.82759C74.059 5.82759 77.3963 1 81.7084 1C85.995 1 86.2229 3.84353 90.912 5.82759C94.4969 7.34442 96 5.82759 96 5.82759" stroke="#F3F5F5" stroke-width="2" stroke-linecap="round" stroke-linejoin="round"/>
</svg>
