<svg width="57" height="47" viewBox="0 0 57 47" fill="none" xmlns="http://www.w3.org/2000/svg">
<g filter="url(#filter0_d_179_6)">
<path d="M4.7825 37.8022H52.217V41H4.7825V37.8022ZM48.2333 6.63969C45.922 5.98863 43.4649 6.0348 41.315 6.7696L41.2266 6.79958L34.7933 9.89148L16.019 2.3438C15.1995 2.01081 14.3039 1.91727 13.4343 2.07384C12.5647 2.23042 11.7561 2.6308 11.1006 3.2294L8.58714 5.50765C8.32199 5.74804 8.11377 6.04572 7.97794 6.37861C7.84211 6.7115 7.78215 7.07104 7.80251 7.43057C7.82287 7.79009 7.92304 8.14036 8.09556 8.45539C8.26809 8.77042 8.50856 9.04211 8.79912 9.25032L20.4371 17.5905L15.973 19.9552L12.4376 16.6887C11.7617 16.0653 10.9221 15.6527 10.0198 15.5002C9.11754 15.3478 8.1909 15.462 7.35128 15.8293L5.4287 16.6722C5.1282 16.8039 4.85793 16.9971 4.63491 17.2396C4.4119 17.4821 4.24096 17.7687 4.13288 18.0813C4.0248 18.3939 3.98191 18.7258 4.00693 19.056C4.03194 19.3862 4.12431 19.7076 4.27822 19.9999L11.4745 33.6734L50.6655 14.1392C53.0121 13.0223 53.2982 11.2367 52.7821 9.93615C52.2102 8.49433 50.5519 7.29284 48.2333 6.63969V6.63969ZM49.3104 11.2499L49.2957 11.2569L12.826 29.4345L7.47224 19.2614L8.60869 18.7631C8.88857 18.6406 9.19746 18.6025 9.49823 18.6534C9.799 18.7042 10.0789 18.8418 10.3042 19.0496L15.4761 23.8282L26.4778 18.0004L11.4354 7.22029L13.2113 5.61058C13.4298 5.41107 13.6994 5.27763 13.9892 5.22544C14.2791 5.17325 14.5776 5.20441 14.8508 5.31538L34.906 13.378L42.4115 9.77096C43.9389 9.2704 45.7579 9.25481 47.418 9.72969C48.7851 10.1208 49.5112 10.689 49.7573 10.987C49.6183 11.0908 49.4685 11.179 49.3106 11.2502L49.3104 11.2499Z" fill="url(#paint0_linear_179_6)" shape-rendering="crispEdges"/>
</g>
<defs>
<filter id="filter0_d_179_6" x="0" y="0" width="57" height="47" filterUnits="userSpaceOnUse" color-interpolation-filters="sRGB">
<feFlood flood-opacity="0" result="BackgroundImageFix"/>
<feColorMatrix in="SourceAlpha" type="matrix" values="0 0 0 0 0 0 0 0 0 0 0 0 0 0 0 0 0 0 127 0" result="hardAlpha"/>
<feOffset dy="2"/>
<feGaussianBlur stdDeviation="2"/>
<feComposite in2="hardAlpha" operator="out"/>
<feColorMatrix type="matrix" values="0 0 0 0 0 0 0 0 0 0 0 0 0 0 0 0 0 0 0.25 0"/>
<feBlend mode="normal" in2="BackgroundImageFix" result="effect1_dropShadow_179_6"/>
<feBlend mode="normal" in="SourceGraphic" in2="effect1_dropShadow_179_6" result="shape"/>
</filter>
<linearGradient id="paint0_linear_179_6" x1="49" y1="9" x2="49" y2="88.5" gradientUnits="userSpaceOnUse">
<stop stop-color="white"/>
<stop offset="1" stop-color="white" stop-opacity="0"/>
</linearGradient>
</defs>
</svg>
