<svg width="58" height="47" viewBox="0 0 58 47" fill="none" xmlns="http://www.w3.org/2000/svg">
<g filter="url(#filter0_d_179_7)">
<path d="M6.27273 41C5.62879 41 5.08939 40.7504 4.65455 40.2512C4.21818 39.7537 4 39.1367 4 38.4V4.6C4 3.86333 4.21818 3.2454 4.65455 2.7462C5.08939 2.24873 5.62879 2 6.27273 2C6.91667 2 7.45682 2.24873 7.89318 2.7462C8.32803 3.2454 8.54545 3.86333 8.54545 4.6V28H26.7273V12.4C26.7273 10.97 27.1727 9.7454 28.0636 8.7262C28.953 7.70873 30.0227 7.2 31.2727 7.2H44.9091C47.4091 7.2 49.5492 8.21833 51.3295 10.255C53.1098 12.2917 54 14.74 54 17.6V38.4C54 39.1367 53.7818 39.7537 53.3455 40.2512C52.9106 40.7504 52.3712 41 51.7273 41C51.0833 41 50.5439 40.7504 50.1091 40.2512C49.6727 39.7537 49.4545 39.1367 49.4545 38.4V33.2H8.54545V38.4C8.54545 39.1367 8.32803 39.7537 7.89318 40.2512C7.45682 40.7504 6.91667 41 6.27273 41ZM17.6364 25.4C15.7424 25.4 14.1326 24.6417 12.8068 23.125C11.4811 21.6083 10.8182 19.7667 10.8182 17.6C10.8182 15.4333 11.4811 13.5917 12.8068 12.075C14.1326 10.5583 15.7424 9.8 17.6364 9.8C19.5303 9.8 21.1402 10.5583 22.4659 12.075C23.7917 13.5917 24.4545 15.4333 24.4545 17.6C24.4545 19.7667 23.7917 21.6083 22.4659 23.125C21.1402 24.6417 19.5303 25.4 17.6364 25.4ZM31.2727 28H49.4545V17.6C49.4545 16.17 49.0098 14.9454 48.1205 13.9262C47.2295 12.9087 46.1591 12.4 44.9091 12.4H31.2727V28ZM17.6364 20.2C18.2803 20.2 18.8205 19.9504 19.2568 19.4512C19.6917 18.9537 19.9091 18.3367 19.9091 17.6C19.9091 16.8633 19.6917 16.2454 19.2568 15.7462C18.8205 15.2487 18.2803 15 17.6364 15C16.9924 15 16.4523 15.2487 16.0159 15.7462C15.5811 16.2454 15.3636 16.8633 15.3636 17.6C15.3636 18.3367 15.5811 18.9537 16.0159 19.4512C16.4523 19.9504 16.9924 20.2 17.6364 20.2ZM31.2727 12.4V28V12.4Z" fill="url(#paint0_linear_179_7)" shape-rendering="crispEdges"/>
</g>
<defs>
<filter id="filter0_d_179_7" x="0" y="0" width="58" height="47" filterUnits="userSpaceOnUse" color-interpolation-filters="sRGB">
<feFlood flood-opacity="0" result="BackgroundImageFix"/>
<feColorMatrix in="SourceAlpha" type="matrix" values="0 0 0 0 0 0 0 0 0 0 0 0 0 0 0 0 0 0 127 0" result="hardAlpha"/>
<feOffset dy="2"/>
<feGaussianBlur stdDeviation="2"/>
<feComposite in2="hardAlpha" operator="out"/>
<feColorMatrix type="matrix" values="0 0 0 0 0 0 0 0 0 0 0 0 0 0 0 0 0 0 0.25 0"/>
<feBlend mode="normal" in2="BackgroundImageFix" result="effect1_dropShadow_179_7"/>
<feBlend mode="normal" in="SourceGraphic" in2="effect1_dropShadow_179_7" result="shape"/>
</filter>
<linearGradient id="paint0_linear_179_7" x1="46.8571" y1="5.98864" x2="47.2971" y2="81.7728" gradientUnits="userSpaceOnUse">
<stop stop-color="white"/>
<stop offset="1" stop-color="white" stop-opacity="0"/>
</linearGradient>
</defs>
</svg>
