<svg width="24" height="24" viewBox="0 0 24 24" fill="none" xmlns="http://www.w3.org/2000/svg">
<path d="M15.8944 3.38037L4.36839 14.9076L4.22799 15.0612C4.0047 15.327 3.84175 15.6382 3.75039 15.9732L2.42319 20.8392L2.40519 20.9352C2.39505 21.0323 2.40877 21.1304 2.44515 21.2211C2.48154 21.3117 2.5395 21.392 2.61399 21.4552C2.68848 21.5183 2.77726 21.5623 2.87262 21.5834C2.96798 21.6044 3.06704 21.6019 3.16119 21.576L8.02599 20.2488L8.22399 20.1852C8.54919 20.0652 8.84559 19.8768 9.09159 19.6308L20.6188 8.10357L20.7748 7.93557C21.3427 7.28263 21.635 6.43474 21.5901 5.57054C21.5451 4.70635 21.1665 3.89333 20.534 3.30278C19.9014 2.71224 19.0644 2.39029 18.1991 2.40476C17.3339 2.41924 16.508 2.76901 15.8956 3.38037M5.21559 15.756L14.8624 6.11037L17.8876 9.13557L8.24199 18.7812L8.12439 18.8844L7.99599 18.9708C7.906 19.023 7.80959 19.0634 7.70919 19.0908L3.85479 20.142L4.90719 16.2888L4.95759 16.1412C5.01773 15.9972 5.10537 15.8664 5.21559 15.756ZM19.7692 4.22877L19.9012 4.37277C20.602 5.21277 20.5576 6.46557 19.7692 7.25517L18.736 8.28717L15.7108 5.26197L16.7428 4.22997L16.8868 4.09797C17.2971 3.7564 17.8203 3.58056 18.3536 3.60498C18.8869 3.6294 19.3918 3.85233 19.7692 4.22997M13.978 3.59997H3.00039C2.84126 3.59997 2.68865 3.66319 2.57613 3.77571C2.4636 3.88823 2.40039 4.04084 2.40039 4.19997C2.40039 4.3591 2.4636 4.51171 2.57613 4.62424C2.68865 4.73676 2.84126 4.79997 3.00039 4.79997H12.778L13.978 3.59997ZM10.378 7.19997H3.00039C2.84126 7.19997 2.68865 7.26319 2.57613 7.37571C2.4636 7.48823 2.40039 7.64084 2.40039 7.79997C2.40039 7.9591 2.4636 8.11171 2.57613 8.22424C2.68865 8.33676 2.84126 8.39997 3.00039 8.39997H9.17799L10.378 7.19997ZM5.57799 12L6.77799 10.8H3.00039C2.84126 10.8 2.68865 10.8632 2.57613 10.9757C2.4636 11.0882 2.40039 11.2408 2.40039 11.4C2.40039 11.5591 2.4636 11.7117 2.57613 11.8242C2.68865 11.9368 2.84126 12 3.00039 12H5.57799Z" fill="black"/>
</svg>
