<svg width="24" height="24" viewBox="0 0 24 24" fill="none" xmlns="http://www.w3.org/2000/svg">
<path d="M21.75 6.75V12M21.75 6.75C21.75 6 21 5.25 20.25 5.25H3.75C3 5.25 2.25 6 2.25 6.75M21.75 6.75L12.8535 12.909C12.6027 13.0825 12.305 13.1755 12 13.1755C11.695 13.1755 11.3973 13.0825 11.1465 12.909L2.25 6.75M2.25 6.75V17.25C2.25 18 3 18.75 3.75 18.75H12M15.75 19.5L20.25 15M21.75 17.25C21.75 18.2446 21.3549 19.1984 20.6517 19.9017C19.9484 20.6049 18.9946 21 18 21C17.0054 21 16.0516 20.6049 15.3483 19.9017C14.6451 19.1984 14.25 18.2446 14.25 17.25C14.25 16.2554 14.6451 15.3016 15.3483 14.5983C16.0516 13.8951 17.0054 13.5 18 13.5C18.9946 13.5 19.9484 13.8951 20.6517 14.5983C21.3549 15.3016 21.75 16.2554 21.75 17.25Z" stroke="black" stroke-width="1.5" stroke-linecap="round" stroke-linejoin="round"/>
</svg>
