<svg width="24" height="24" viewBox="0 0 24 24" fill="none" xmlns="http://www.w3.org/2000/svg">
<path d="M6.528 7.75C6.528 7.94891 6.44898 8.13968 6.30833 8.28033C6.16768 8.42098 5.97691 8.5 5.778 8.5C5.57909 8.5 5.38832 8.42098 5.24767 8.28033C5.10702 8.13968 5.028 7.94891 5.028 7.75C5.028 7.55109 5.10702 7.36032 5.24767 7.21967C5.38832 7.07902 5.57909 7 5.778 7C5.97691 7 6.16768 7.07902 6.30833 7.21967C6.44898 7.36032 6.528 7.55109 6.528 7.75ZM5.781 15C5.58209 15 5.39132 15.079 5.25067 15.2197C5.11002 15.3603 5.031 15.5511 5.031 15.75C5.031 15.9489 5.11002 16.1397 5.25067 16.2803C5.39132 16.421 5.58209 16.5 5.781 16.5H10.781C10.9799 16.5 11.1707 16.421 11.3113 16.2803C11.452 16.1397 11.531 15.9489 11.531 15.75C11.531 15.5511 11.452 15.3603 11.3113 15.2197C11.1707 15.079 10.9799 15 10.781 15H5.781ZM5.031 11.75C5.031 11.5511 5.11002 11.3603 5.25067 11.2197C5.39132 11.079 5.58209 11 5.781 11H10.781C10.8795 11 10.977 11.0194 11.068 11.0571C11.159 11.0948 11.2417 11.15 11.3113 11.2197C11.381 11.2893 11.4362 11.372 11.4739 11.463C11.5116 11.554 11.531 11.6515 11.531 11.75C11.531 11.8485 11.5116 11.946 11.4739 12.037C11.4362 12.128 11.381 12.2107 11.3113 12.2803C11.2417 12.35 11.159 12.4052 11.068 12.4429C10.977 12.4806 10.8795 12.5 10.781 12.5H5.781C5.58209 12.5 5.39132 12.421 5.25067 12.2803C5.11002 12.1397 5.031 11.9489 5.031 11.75ZM15 21C15.4569 20.9969 15.8987 20.8363 16.251 20.5454C16.6033 20.2545 16.8445 19.851 16.934 19.403L17.414 17H20.25C20.7141 17 21.1592 16.8156 21.4874 16.4874C21.8156 16.1592 22 15.7141 22 15.25V9.261C22 8.66325 21.7633 8.08981 21.3417 7.66611C20.92 7.2424 20.3477 7.00291 19.75 7V6.996H14.5V5.25C14.5 4.65326 14.2629 4.08097 13.841 3.65901C13.419 3.23705 12.8467 3 12.25 3H4.25C3.65326 3 3.08097 3.23705 2.65901 3.65901C2.23705 4.08097 2 4.65326 2 5.25V17.75C2 18.612 2.34241 19.4386 2.9519 20.0481C3.5614 20.6576 4.38805 21 5.25 21H14.986H15ZM3.5 5.25C3.5 5.05109 3.57902 4.86032 3.71967 4.71967C3.86032 4.57902 4.05109 4.5 4.25 4.5H12.25C12.4489 4.5 12.6397 4.57902 12.7803 4.71967C12.921 4.86032 13 5.05109 13 5.25V19.014C13 19.181 13.02 19.344 13.06 19.5H5.25C4.78587 19.5 4.34075 19.3156 4.01256 18.9874C3.68437 18.6592 3.5 18.2141 3.5 17.75V5.25ZM14.5 8.496H17.61C17.5728 8.60102 17.5434 8.70865 17.522 8.818L15.463 19.109C15.4398 19.2277 15.3732 19.3335 15.2762 19.4058C15.1792 19.478 15.0587 19.5115 14.9383 19.4996C14.8179 19.4877 14.7063 19.4314 14.6252 19.3416C14.5442 19.2518 14.4995 19.135 14.5 19.014V8.496ZM18.993 9.112C19.0303 8.927 19.135 8.76245 19.2868 8.6503C19.4385 8.53815 19.6266 8.4864 19.8144 8.50509C20.0022 8.52378 20.1763 8.61159 20.303 8.75146C20.4297 8.89132 20.4999 9.07328 20.5 9.262V15.25C20.5 15.3163 20.4737 15.3799 20.4268 15.4268C20.3799 15.4737 20.3163 15.5 20.25 15.5H17.715L18.993 9.112Z" fill="black"/>
</svg>
