<svg width="24" height="24" viewBox="0 0 24 24" fill="none" xmlns="http://www.w3.org/2000/svg">
<path d="M20.587 11.3326L4.08705 3.08263C3.95772 3.01795 3.81246 2.99204 3.66876 3.00801C3.52505 3.02397 3.38902 3.08114 3.27705 3.17263C3.17012 3.26225 3.0903 3.37992 3.04658 3.51241C3.00286 3.6449 2.99696 3.78697 3.02955 3.92263L5.24955 12.0001L2.99955 20.0551C2.96897 20.1684 2.9654 20.2873 2.98913 20.4022C3.01285 20.5171 3.06322 20.6249 3.13617 20.7168C3.20912 20.8087 3.30262 20.8822 3.40915 20.9315C3.51568 20.9807 3.63227 21.0042 3.74955 21.0001C3.86695 20.9994 3.98256 20.9712 4.08705 20.9176L20.587 12.6676C20.7099 12.6047 20.813 12.5091 20.885 12.3913C20.957 12.2735 20.9951 12.1382 20.9951 12.0001C20.9951 11.8621 20.957 11.7267 20.885 11.609C20.813 11.4912 20.7099 11.3956 20.587 11.3326ZM4.91205 18.8326L6.56955 12.7501H13.4995V11.2501H6.56955L4.91205 5.16763L18.5695 12.0001L4.91205 18.8326Z" fill="black"/>
</svg>
