<svg width="58" height="62" viewBox="0 0 58 62" fill="none" xmlns="http://www.w3.org/2000/svg">
<rect x="30.6285" y="-29.9578" width="37.192" height="90.8929" transform="rotate(42.8732 30.6285 -29.9578)" fill="#B3B3B3"/>
<mask id="mask0_5454_16178" style="mask-type:alpha" maskUnits="userSpaceOnUse" x="0" y="28" width="14" height="14">
<rect x="1.13575" y="28" width="12" height="12" transform="rotate(5.43093 1.13575 28)" fill="#D9D9D9"/>
</mask>
<g mask="url(#mask0_5454_16178)">
<path d="M5.07693 38.9835L4.06267 36.5767L1.89012 35.127L2.85645 34.3399L4.63124 34.8226L6.02119 33.674L2.23619 31.619L3.38322 30.6482L8.09367 31.9499L9.78341 30.5536C9.99236 30.3809 10.2379 30.308 10.5199 30.3348C10.802 30.3616 11.0294 30.4795 11.202 30.6884C11.3747 30.8974 11.4478 31.1408 11.4214 31.4187C11.395 31.6966 11.2773 31.9219 11.0683 32.0946L9.36496 33.5022L9.75684 38.3611L8.59855 39.3183L7.28122 35.2127L5.89127 36.3613L6.04445 38.1839L5.07693 38.9835Z" fill="white"/>
</g>
<path d="M10.875 22.6371L17.1688 28.3965L16.1759 29.4815L9.88215 23.7221L10.875 22.6371ZM15.9782 22.5892L16.8384 23.3764L14.2356 26.2207L13.3754 25.4335L15.9782 22.5892ZM13.553 19.7107L14.4175 20.5018L11.4864 23.7049L10.6219 22.9137L13.553 19.7107ZM15.0455 17.3854L21.685 23.4613L20.7277 24.5074L14.0882 18.4315L15.0455 17.3854ZM20.3822 20.2937L20.2828 20.2027C19.9456 19.8941 19.6778 19.559 19.4793 19.1973C19.2779 18.833 19.1549 18.461 19.1105 18.0815C19.0657 17.6964 19.1069 17.3158 19.234 16.9396C19.3609 16.558 19.5799 16.1971 19.8911 15.8571C20.2049 15.5142 20.5449 15.2641 20.9112 15.1068C21.2773 14.9441 21.6541 14.8679 22.0416 14.8784C22.4263 14.8862 22.809 14.9743 23.1897 15.1427C23.5675 15.3084 23.925 15.5456 24.2622 15.8541L24.3616 15.9451C24.6988 16.2536 24.9666 16.5888 25.1651 16.9504C25.3636 17.3121 25.4852 17.6855 25.53 18.0706C25.5718 18.4531 25.5306 18.8337 25.4064 19.2125C25.2793 19.5886 25.0601 19.9467 24.749 20.2867C24.4352 20.6296 24.0952 20.8825 23.7292 21.0452C23.3629 21.2025 22.9874 21.2772 22.6028 21.2694C22.2152 21.2589 21.8325 21.1708 21.4547 21.0051C21.0769 20.8393 20.7194 20.6022 20.3822 20.2937ZM21.2361 19.1609L21.3355 19.2519C21.5459 19.4444 21.7645 19.6048 21.9914 19.7329C22.2182 19.8611 22.4445 19.9437 22.6701 19.9807C22.8957 20.0177 23.1147 20.0011 23.3273 19.9309C23.5398 19.8606 23.7371 19.7261 23.919 19.5272C24.0957 19.3341 24.2083 19.1301 24.2568 18.915C24.308 18.6971 24.3052 18.4774 24.2484 18.256C24.1916 18.0346 24.0893 17.8165 23.9415 17.6019C23.7964 17.3844 23.6186 17.1794 23.4083 16.9868L23.3089 16.8959C23.1014 16.706 22.8843 16.5497 22.6577 16.4271C22.4308 16.2989 22.2018 16.2164 21.9707 16.1796C21.7422 16.14 21.5217 16.1553 21.3092 16.2256C21.0964 16.2903 20.9003 16.4206 20.721 16.6166C20.5417 16.8125 20.4279 17.0208 20.3796 17.2414C20.3311 17.4564 20.3367 17.676 20.3964 17.9C20.4561 18.1241 20.5598 18.3435 20.7075 18.5581C20.8524 18.7701 21.0286 18.971 21.2361 19.1609ZM27.6944 14.8115L25.0436 10.4002L25.6528 9.73447L26.576 10.9128L29.1669 15.2853L28.621 15.8819L27.6944 14.8115ZM23.4732 12.1162L27.9015 14.6198L28.9849 15.4842L28.3758 16.1499L22.5397 13.1364L23.4732 12.1162ZM30.1921 12.0299L27.326 7.906L28.2556 6.89018L31.7776 12.4324L31.1685 13.0981L30.1921 12.0299ZM25.7556 9.62208L30.3291 11.8455L31.5324 12.7004L30.9865 13.2969L26.3857 11.1121L25.1346 10.3007L25.7556 9.62208ZM30.9698 5.92914L34.6483 9.2954L33.695 10.3372L29.018 6.05713L29.9159 5.0759L30.9698 5.92914ZM31.9668 7.18304L31.6539 7.51625C31.3252 7.2101 31.0633 6.88577 30.8684 6.54328C30.6762 6.1979 30.5545 5.85354 30.5033 5.5102C30.4548 5.16398 30.4814 4.82826 30.5831 4.50303C30.6819 4.17516 30.8592 3.87146 31.115 3.59193C31.3207 3.36716 31.5383 3.193 31.7679 3.06947C31.9972 2.94041 32.2403 2.87434 32.4973 2.87124C32.7569 2.86526 33.0293 2.92922 33.3145 3.06312C33.5968 3.19437 33.8979 3.40636 34.2178 3.69908L37.2393 6.46409L36.282 7.51016L33.2562 4.7412C33.0314 4.53551 32.8239 4.40646 32.6335 4.35407C32.443 4.29617 32.2636 4.30412 32.0954 4.37793C31.9271 4.44622 31.7598 4.57114 31.5936 4.75269C31.4301 4.93136 31.3212 5.12558 31.267 5.33535C31.2127 5.54512 31.2055 5.75833 31.2455 5.97498C31.2882 6.18874 31.3708 6.39936 31.4934 6.60682C31.6159 6.81428 31.7737 7.00635 31.9668 7.18304Z" fill="white"/>
</svg>
