<svg width="28" height="34" viewBox="0 0 28 34" fill="none" xmlns="http://www.w3.org/2000/svg">
<g clip-path="url(#clip0_101_2)">
<path d="M14 33.1458C21.7327 33.1458 28 29.0026 28 21.752C28 18.6445 26.8333 13.4655 22.1667 9.32227C22.75 12.4297 19.25 13.4655 19.25 13.4655C21 8.28646 16.3333 1.03581 9.33333 0C10.1663 4.14323 10.5 8.28646 4.66667 12.4297C1.75 14.5013 0 18.0831 0 21.752C0 29.0026 6.26733 33.1458 14 33.1458ZM14 31.0742C10.1337 31.0742 7 29.0026 7 25.3773C7 23.8236 7.58333 21.234 9.91667 19.1624C9.625 20.7161 11.6667 21.752 11.6667 21.752C10.7917 19.1624 12.8333 15.0192 16.3333 14.5013C15.9157 16.5729 15.75 18.6445 18.6667 20.7161C20.125 21.752 21 23.5418 21 25.3773C21 29.0026 17.8663 31.0742 14 31.0742Z" fill="#660033"/>
</g>
<defs>
<clipPath id="clip0_101_2">
<rect width="28" height="34" fill="white"/>
</clipPath>
</defs>
</svg>
