<svg width="31" height="31" viewBox="0 0 31 31" fill="none" xmlns="http://www.w3.org/2000/svg">
<path d="M23.25 10.3334C23.25 8.27795 22.4335 6.3067 20.9801 4.8533C19.5267 3.39989 17.5554 2.58337 15.5 2.58337C13.4446 2.58337 11.4733 3.39989 10.0199 4.8533C8.56652 6.3067 7.75 8.27795 7.75 10.3334C7.75 19.375 3.875 21.9584 3.875 21.9584H27.125C27.125 21.9584 23.25 19.375 23.25 10.3334Z" fill="#C4C4C4"/>
<path d="M17.7346 27.125C17.5075 27.5165 17.1815 27.8414 16.7894 28.0673C16.3972 28.2932 15.9526 28.4121 15.5 28.4121C15.0474 28.4121 14.6028 28.2932 14.2106 28.0673C13.8185 27.8414 13.4925 27.5165 13.2654 27.125" stroke="#C4C4C4" stroke-width="2" stroke-linecap="round" stroke-linejoin="round"/>
<circle cx="22.2548" cy="5.45927" r="3.22917" fill="#1CB1BC"/>
</svg>
