<svg width="15" height="15" viewBox="0 0 15 15" fill="none" xmlns="http://www.w3.org/2000/svg">
<path d="M14.0625 1.40328L10.3092 1.4033V0.46886C10.3092 0.209815 10.0995 0 9.84047 0C9.58148 0 9.37172 0.209815 9.37172 0.46886V1.40306H5.62172V0.46886C5.62172 0.209815 5.41195 0 5.15297 0C4.89398 0 4.68422 0.209815 4.68422 0.46886V1.40306H0.9375C0.419766 1.40306 0 1.82293 0 2.34078V14.0623C0 14.5801 0.419766 15 0.9375 15H14.0625C14.5802 15 15 14.5801 15 14.0623V2.34078C15 1.82315 14.5802 1.40328 14.0625 1.40328ZM14.0625 14.0623H0.9375V2.34078H4.68422V2.81316C4.68422 3.07219 4.89398 3.28202 5.15297 3.28202C5.41195 3.28202 5.62172 3.07219 5.62172 2.81316V2.34102H9.37172V2.81339C9.37172 3.07244 9.58148 3.28225 9.84047 3.28225C10.0995 3.28225 10.3092 3.07244 10.3092 2.81339V2.34102H14.0625V14.0623ZM10.7812 7.49846H11.7188C11.9775 7.49846 12.1875 7.28841 12.1875 7.0296V6.09188C12.1875 5.83307 11.9775 5.62302 11.7188 5.62302H10.7812C10.5225 5.62302 10.3125 5.83307 10.3125 6.09188V7.0296C10.3125 7.28841 10.5225 7.49846 10.7812 7.49846ZM10.7812 11.2491H11.7188C11.9775 11.2491 12.1875 11.0393 12.1875 10.7802V9.84253C12.1875 9.58372 11.9775 9.37367 11.7188 9.37367H10.7812C10.5225 9.37367 10.3125 9.58372 10.3125 9.84253V10.7802C10.3125 11.0395 10.5225 11.2491 10.7812 11.2491ZM7.96875 9.37367H7.03125C6.7725 9.37367 6.5625 9.58372 6.5625 9.84253V10.7802C6.5625 11.0393 6.7725 11.2491 7.03125 11.2491H7.96875C8.2275 11.2491 8.4375 11.0393 8.4375 10.7802V9.84253C8.4375 9.58395 8.2275 9.37367 7.96875 9.37367ZM7.96875 5.62302H7.03125C6.7725 5.62302 6.5625 5.83307 6.5625 6.09188V7.0296C6.5625 7.28841 6.7725 7.49846 7.03125 7.49846H7.96875C8.2275 7.49846 8.4375 7.28841 8.4375 7.0296V6.09188C8.4375 5.83284 8.2275 5.62302 7.96875 5.62302ZM4.21875 5.62302H3.28125C3.0225 5.62302 2.8125 5.83307 2.8125 6.09188V7.0296C2.8125 7.28841 3.0225 7.49846 3.28125 7.49846H4.21875C4.4775 7.49846 4.6875 7.28841 4.6875 7.0296V6.09188C4.6875 5.83284 4.4775 5.62302 4.21875 5.62302ZM4.21875 9.37367H3.28125C3.0225 9.37367 2.8125 9.58372 2.8125 9.84253V10.7802C2.8125 11.0393 3.0225 11.2491 3.28125 11.2491H4.21875C4.4775 11.2491 4.6875 11.0393 4.6875 10.7802V9.84253C4.6875 9.58395 4.4775 9.37367 4.21875 9.37367Z" fill="#354A4A"/>
</svg>
