<svg width="49" height="39" viewBox="0 0 49 39" fill="none" xmlns="http://www.w3.org/2000/svg">
<path d="M0.782503 35.8022H48.217V39H0.782503V35.8022ZM44.2333 4.63969C41.922 3.98863 39.4649 4.0348 37.315 4.7696L37.2266 4.79958L30.7933 7.89148L12.019 0.343797C11.1995 0.0108065 10.3039 -0.0827295 9.43431 0.0738429C8.56473 0.230415 7.75612 0.630802 7.10058 1.2294L4.58714 3.50765C4.32199 3.74804 4.11377 4.04572 3.97794 4.37861C3.84211 4.7115 3.78215 5.07104 3.80251 5.43057C3.82287 5.79009 3.92304 6.14036 4.09556 6.45539C4.26809 6.77042 4.50856 7.04211 4.79912 7.25032L16.4371 15.5905L11.973 17.9552L8.43764 14.6887C7.76168 14.0653 6.92212 13.6527 6.01983 13.5002C5.11754 13.3478 4.1909 13.462 3.35128 13.8293L1.4287 14.6722C1.1282 14.8039 0.857934 14.9971 0.634915 15.2396C0.411895 15.4821 0.240961 15.7687 0.13288 16.0813C0.0247995 16.3939 -0.0180851 16.7258 0.00692799 17.056C0.0319411 17.3862 0.12431 17.7076 0.278215 17.9999L7.47452 31.6734L46.6655 12.1392C49.0121 11.0223 49.2982 9.23667 48.7821 7.93615C48.2102 6.49433 46.5519 5.29284 44.2333 4.63969V4.63969ZM45.3104 9.24986L45.2957 9.25686L8.82601 27.4345L3.47224 17.2614L4.60869 16.7631C4.88857 16.6406 5.19746 16.6025 5.49823 16.6534C5.799 16.7042 6.07886 16.8418 6.30417 17.0496L11.4761 21.8282L22.4778 16.0004L7.43539 5.22029L9.21131 3.61058C9.42983 3.41107 9.69937 3.27763 9.98921 3.22544C10.2791 3.17325 10.5776 3.20441 10.8508 3.31538L30.906 11.378L38.4115 7.77096C39.9389 7.2704 41.7579 7.25481 43.418 7.72969C44.7851 8.12083 45.5112 8.68904 45.7573 8.98704C45.6183 9.0908 45.4685 9.17902 45.3106 9.25016L45.3104 9.24986Z" fill="white"/>
</svg>
