<svg width="56" height="44" viewBox="0 0 56 44" fill="none" xmlns="http://www.w3.org/2000/svg">
<path d="M2.54545 44C1.82424 44 1.22012 43.7184 0.733091 43.1552C0.244364 42.594 0 41.8978 0 41.0667V2.93333C0 2.10222 0.244364 1.40507 0.733091 0.841867C1.22012 0.280623 1.82424 0 2.54545 0C3.26667 0 3.87164 0.280623 4.36036 0.841867C4.84739 1.40507 5.09091 2.10222 5.09091 2.93333V29.3333H25.4545V11.7333C25.4545 10.12 25.9535 8.7384 26.9513 7.58853C27.9474 6.44062 29.1455 5.86667 30.5455 5.86667H45.8182C48.6182 5.86667 51.0152 7.01556 53.0091 9.31333C55.003 11.6111 56 14.3733 56 17.6V41.0667C56 41.8978 55.7556 42.594 55.2669 43.1552C54.7799 43.7184 54.1758 44 53.4545 44C52.7333 44 52.1292 43.7184 51.6422 43.1552C51.1535 42.594 50.9091 41.8978 50.9091 41.0667V35.2H5.09091V41.0667C5.09091 41.8978 4.84739 42.594 4.36036 43.1552C3.87164 43.7184 3.26667 44 2.54545 44ZM15.2727 26.4C13.1515 26.4 11.3485 25.5444 9.86364 23.8333C8.37879 22.1222 7.63636 20.0444 7.63636 17.6C7.63636 15.1556 8.37879 13.0778 9.86364 11.3667C11.3485 9.65556 13.1515 8.8 15.2727 8.8C17.3939 8.8 19.197 9.65556 20.6818 11.3667C22.1667 13.0778 22.9091 15.1556 22.9091 17.6C22.9091 20.0444 22.1667 22.1222 20.6818 23.8333C19.197 25.5444 17.3939 26.4 15.2727 26.4ZM30.5455 29.3333H50.9091V17.6C50.9091 15.9867 50.411 14.6051 49.4149 13.4552C48.4171 12.3073 47.2182 11.7333 45.8182 11.7333H30.5455V29.3333ZM15.2727 20.5333C15.9939 20.5333 16.5989 20.2517 17.0876 19.6885C17.5747 19.1273 17.8182 18.4311 17.8182 17.6C17.8182 16.7689 17.5747 16.0717 17.0876 15.5085C16.5989 14.9473 15.9939 14.6667 15.2727 14.6667C14.5515 14.6667 13.9465 14.9473 13.4578 15.5085C12.9708 16.0717 12.7273 16.7689 12.7273 17.6C12.7273 18.4311 12.9708 19.1273 13.4578 19.6885C13.9465 20.2517 14.5515 20.5333 15.2727 20.5333ZM30.5455 11.7333V29.3333V11.7333Z" fill="white"/>
</svg>
