<svg width="35" height="35" viewBox="0 0 35 35" fill="none" xmlns="http://www.w3.org/2000/svg">
<path d="M28.4375 17.5C28.4375 17.5 35 10.9375 35 6.5625C35 2.93945 32.0605 0 28.4375 0C24.8145 0 21.875 2.93945 21.875 6.5625C21.875 8.57227 23.2559 11.04 24.7529 13.125H21.875C18.252 13.125 15.3125 16.0645 15.3125 19.6875C15.3125 23.3105 18.252 26.25 21.875 26.25H28.4375C29.6475 26.25 30.625 27.2275 30.625 28.4375C30.625 29.6475 29.6475 30.625 28.4375 30.625H12.8926C12.4688 31.2813 12.0313 31.9102 11.5938 32.4844C10.8623 33.4551 10.1377 34.3232 9.54297 35H28.4375C32.0605 35 35 32.0605 35 28.4375C35 24.8145 32.0605 21.875 28.4375 21.875H21.875C20.665 21.875 19.6875 20.8975 19.6875 19.6875C19.6875 18.4775 20.665 17.5 21.875 17.5H28.4375ZM28.4375 8.75C27.2275 8.75 26.25 7.77246 26.25 6.5625C26.25 5.35254 27.2275 4.375 28.4375 4.375C29.6475 4.375 30.625 5.35254 30.625 6.5625C30.625 7.77246 29.6475 8.75 28.4375 8.75ZM10.2471 30.625C11.7441 28.54 13.125 26.0723 13.125 24.0625C13.125 20.4395 10.1855 17.5 6.5625 17.5C2.93945 17.5 0 20.4395 0 24.0625C0 28.4375 6.5625 35 6.5625 35C6.5625 35 6.80176 34.7607 7.19141 34.3437C7.21875 34.3164 7.23926 34.2891 7.2666 34.2617C7.49219 34.0225 7.75195 33.7285 8.0459 33.3867C8.05957 33.373 8.07324 33.3594 8.08691 33.3457C8.72949 32.6074 9.50195 31.6641 10.2471 30.625V30.625ZM6.5625 26.25C5.35254 26.25 4.375 25.2725 4.375 24.0625C4.375 22.8525 5.35254 21.875 6.5625 21.875C7.77246 21.875 8.75 22.8525 8.75 24.0625C8.75 25.2725 7.77246 26.25 6.5625 26.25Z" fill="white"/>
</svg>
