<svg width="41" height="46" viewBox="0 0 41 46" fill="none" xmlns="http://www.w3.org/2000/svg">
<g clip-path="url(#clip0_12_639)">
<path d="M20.5 0L0 6.57143V26.2857C0 37.1748 9.17695 46 20.5 46C31.823 46 41 37.1748 41 26.2857V6.57143L20.5 0ZM37.1562 26.2857C37.1562 35.1315 29.6983 42.3036 20.5 42.3036C11.3017 42.3036 3.84375 35.1315 3.84375 26.2857V9.34375L20.5 3.69643L37.1562 9.34375V26.2857Z" fill="white"/>
<path d="M9.3673 30.5241H31.6325V32H9.3673V30.5241ZM29.7626 16.1414C28.6777 15.8409 27.5244 15.8622 26.5152 16.2014L26.4737 16.2152L23.454 17.6422L14.6416 14.1587C14.2569 14.005 13.8365 13.9618 13.4283 14.0341C13.0202 14.1063 12.6406 14.2911 12.3329 14.5674L11.1531 15.6189C11.0287 15.7299 10.931 15.8673 10.8672 16.0209C10.8034 16.1745 10.7753 16.3405 10.7849 16.5064C10.7944 16.6723 10.8414 16.834 10.9224 16.9794C11.0034 17.1248 11.1163 17.2502 11.2526 17.3463L16.7154 21.1956L14.62 22.287L12.9605 20.7794C12.6432 20.4917 12.2492 20.3012 11.8256 20.2309C11.4021 20.1605 10.9672 20.2132 10.573 20.3827L9.67061 20.7718C9.52957 20.8326 9.4027 20.9217 9.29802 21.0336C9.19334 21.1456 9.1131 21.2779 9.06237 21.4221C9.01164 21.5664 8.99151 21.7196 9.00325 21.872C9.01499 22.0244 9.05835 22.1727 9.13059 22.3077L12.5084 28.6185L30.9042 19.6027C32.0057 19.0872 32.14 18.2631 31.8977 17.6628C31.6293 16.9974 30.8509 16.4429 29.7626 16.1414ZM30.2682 18.2692L30.2613 18.2724L13.1428 26.6621L10.6298 21.9668L11.1633 21.7368C11.2946 21.6803 11.4396 21.6627 11.5808 21.6862C11.722 21.7096 11.8533 21.7731 11.9591 21.869L14.3867 24.0746L19.5508 21.3848L12.4901 16.4094L13.3237 15.6664C13.4262 15.5743 13.5528 15.5128 13.6888 15.4887C13.8249 15.4646 13.965 15.479 14.0932 15.5302L23.5069 19.2514L27.0299 17.5866C27.7468 17.3556 28.6006 17.3484 29.3799 17.5675C30.0216 17.7481 30.3624 18.0103 30.4779 18.1479C30.4126 18.1958 30.3423 18.2363 30.2682 18.2692Z" fill="white"/>
</g>
<defs>
<clipPath id="clip0_12_639">
<rect width="41" height="46" fill="white"/>
</clipPath>
</defs>
</svg>
