<svg width="18" height="15" viewBox="0 0 18 15" fill="none" xmlns="http://www.w3.org/2000/svg">
<path d="M5.2275 0.949622C5.16785 0.780651 5.16905 0.591702 5.23082 0.423726C5.29259 0.25575 5.40996 0.12228 5.5575 0.0522436C5.63028 0.0175709 5.70841 -0.00019024 5.7873 1.5366e-06C5.86618 0.000193313 5.94424 0.0183343 6.01689 0.0533605C6.08955 0.0883867 6.15533 0.139593 6.21038 0.203975C6.26544 0.268357 6.30865 0.344619 6.3375 0.428288L6.915 2.00084C6.9751 2.16874 6.97498 2.35681 6.91467 2.52462C6.85436 2.69243 6.73868 2.82657 6.5925 2.89821C6.51849 2.9317 6.43963 2.9491 6.36 2.94949C6.24198 2.94774 6.12689 2.90732 6.02848 2.83306C5.93007 2.75881 5.85249 2.65385 5.805 2.53072L5.2275 0.949622ZM15.375 7.20563C15.4546 7.20523 15.5335 7.18784 15.6075 7.15435L16.9875 6.49627C17.0609 6.4634 17.1278 6.41416 17.1843 6.35142C17.2408 6.28868 17.2858 6.21372 17.3165 6.13093C17.3473 6.04814 17.3632 5.95919 17.3633 5.8693C17.3635 5.77941 17.3479 5.69038 17.3175 5.60744C17.256 5.43932 17.1389 5.30557 16.9915 5.23518C16.8441 5.16479 16.6783 5.16343 16.53 5.2314L15.1425 5.88948C15.0136 5.9498 14.9071 6.05939 14.8414 6.19941C14.7757 6.33944 14.7547 6.50118 14.7822 6.65686C14.8097 6.81254 14.8839 6.95246 14.9921 7.05259C15.1003 7.15273 15.2356 7.20684 15.375 7.20563ZM11.4075 2.89821C11.4815 2.9317 11.5604 2.9491 11.64 2.94949C11.758 2.94774 11.8731 2.90732 11.9715 2.83306C12.0699 2.75881 12.1475 2.65385 12.195 2.53072L12.7725 0.949622C12.8321 0.780651 12.831 0.591702 12.7692 0.423726C12.7074 0.25575 12.59 0.12228 12.4425 0.0522436C12.3697 0.0175709 12.2916 -0.00019024 12.2127 1.5366e-06C12.1338 0.000193313 12.0558 0.0183343 11.9831 0.0533605C11.9105 0.0883867 11.8447 0.139593 11.7896 0.203975C11.7346 0.268357 11.6913 0.344619 11.6625 0.428288L11.085 2.00084C11.0249 2.16874 11.025 2.35681 11.0853 2.52462C11.1456 2.69243 11.2613 2.82657 11.4075 2.89821ZM1.0125 6.49627L2.3925 7.15435C2.46651 7.18784 2.54537 7.20523 2.625 7.20563C2.76436 7.20684 2.89973 7.15273 3.0079 7.05259C3.11606 6.95246 3.19026 6.81254 3.21776 6.65686C3.24526 6.50118 3.22435 6.33944 3.15861 6.19941C3.09287 6.05939 2.98641 5.9498 2.8575 5.88948L1.47 5.2314C1.32172 5.16343 1.15591 5.16479 1.0085 5.23518C0.861088 5.30557 0.743961 5.43932 0.6825 5.60744C0.652073 5.69038 0.636486 5.77941 0.636655 5.8693C0.636823 5.95919 0.652743 6.04814 0.68348 6.13093C0.714218 6.21372 0.759154 6.28868 0.815653 6.35142C0.872152 6.41416 0.939076 6.4634 1.0125 6.49627ZM17.4 10.214H14.0625C14.0864 9.98708 14.099 9.7588 14.1 9.53027C14.1 7.98894 13.5627 6.51074 12.6062 5.42085C11.6498 4.33097 10.3526 3.71867 9 3.71867C7.6474 3.71867 6.35019 4.33097 5.39376 5.42085C4.43732 6.51074 3.9 7.98894 3.9 9.53027C3.90105 9.7588 3.91357 9.98708 3.9375 10.214H0.6C0.44087 10.214 0.288258 10.286 0.175736 10.4142C0.0632141 10.5425 0 10.7164 0 10.8977C0 11.079 0.0632141 11.2529 0.175736 11.3812C0.288258 11.5094 0.44087 11.5814 0.6 11.5814H17.4C17.5591 11.5814 17.7117 11.5094 17.8243 11.3812C17.9368 11.2529 18 11.079 18 10.8977C18 10.7164 17.9368 10.5425 17.8243 10.4142C17.7117 10.286 17.5591 10.214 17.4 10.214ZM15 13.6326H3C2.84087 13.6326 2.68826 13.7046 2.57574 13.8328C2.46321 13.961 2.4 14.135 2.4 14.3163C2.4 14.4976 2.46321 14.6715 2.57574 14.7997C2.68826 14.928 2.84087 15 3 15H15C15.1591 15 15.3117 14.928 15.4243 14.7997C15.5368 14.6715 15.6 14.4976 15.6 14.3163C15.6 14.135 15.5368 13.961 15.4243 13.8328C15.3117 13.7046 15.1591 13.6326 15 13.6326Z" fill="white"/>
</svg>
