<svg width="33" height="26" viewBox="0 0 33 26" fill="none" xmlns="http://www.w3.org/2000/svg">
<path d="M0.526992 23.8681H32.4727V26H0.526992V23.8681ZM29.7898 3.09312C28.2332 2.65908 26.5784 2.68986 25.1305 3.17973L25.071 3.19972L20.7384 5.26099L8.09446 0.229198C7.5425 0.00720435 6.93935 -0.055153 6.35372 0.0492286C5.76809 0.15361 5.22351 0.420535 4.78202 0.819598L3.0893 2.33843C2.91073 2.49869 2.7705 2.69715 2.67902 2.91907C2.58754 3.141 2.54716 3.3807 2.56088 3.62038C2.57459 3.86006 2.64204 4.09357 2.75824 4.30359C2.87443 4.51361 3.03638 4.69474 3.23206 4.83354L11.0699 10.3936L8.06344 11.9701L5.68249 9.79245C5.22726 9.3769 4.66184 9.10177 4.05417 9.00014C3.4465 8.8985 2.82244 8.97467 2.25698 9.2195L0.962185 9.78146C0.759811 9.86924 0.577792 9.99803 0.427596 10.1597C0.277399 10.3214 0.16228 10.5125 0.0894908 10.7209C0.0167017 10.9293 -0.0121798 11.1505 0.00466579 11.3707C0.0215114 11.5908 0.0837189 11.8051 0.187369 12L5.03386 21.1156L31.4278 8.0928C33.0082 7.34817 33.2008 6.15778 32.8533 5.29077C32.4681 4.32955 31.3513 3.52856 29.7898 3.09312ZM30.5152 6.16657L30.5053 6.17124L5.94405 18.2897L2.33844 11.5076L3.10381 11.1754C3.2923 11.0938 3.50033 11.0684 3.70289 11.1022C3.90545 11.1361 4.09393 11.2278 4.24567 11.3664L7.72881 14.5522L15.1381 10.6669L5.0075 3.48019L6.20354 2.40705C6.35071 2.27405 6.53223 2.18508 6.72743 2.15029C6.92263 2.1155 7.12367 2.13628 7.30766 2.21026L20.8142 7.58535L25.869 5.18064C26.8976 4.84693 28.1227 4.83654 29.2407 5.15313C30.1614 5.41388 30.6504 5.79269 30.8161 5.99136C30.7225 6.06053 30.6216 6.11935 30.5153 6.16677L30.5152 6.16657Z" fill="#1CB1BC"/>
</svg>
