<svg width="20" height="18" viewBox="0 0 20 18" fill="none" xmlns="http://www.w3.org/2000/svg">
<path d="M17.7778 4.5H14.4444V2.25C14.4439 1.65345 14.2095 1.0815 13.7929 0.659668C13.3763 0.23784 12.8114 0.000595661 12.2222 0H7.77778C7.18859 0.000595661 6.6237 0.23784 6.20708 0.659668C5.79046 1.0815 5.55614 1.65345 5.55556 2.25V4.5H2.22222C1.63303 4.5006 1.06814 4.73784 0.651524 5.15967C0.234904 5.58149 0.000588307 6.15345 0 6.75V15.75C0.000588307 16.3466 0.234904 16.9185 0.651524 17.3403C1.06814 17.7622 1.63303 17.9994 2.22222 18H17.7778C18.367 17.9994 18.9319 17.7622 19.3485 17.3403C19.7651 16.9185 19.9994 16.3466 20 15.75V6.75C19.9994 6.15345 19.7651 5.58149 19.3485 5.15967C18.9319 4.73784 18.367 4.5006 17.7778 4.5ZM7.77778 2.25H12.2222V4.5H7.77778V2.25ZM17.7778 15.75H2.22222V6.75H17.7778V15.75Z" fill="#1CB1BC"/>
</svg>
