<svg width="17" height="16" viewBox="0 0 17 16" fill="none" xmlns="http://www.w3.org/2000/svg">
<path d="M16.2584 9.81818H0.18503C0.0834024 9.81818 0.000252384 9.9 0.000252384 10V11.3636C0.000252384 11.4636 0.0834024 11.5455 0.18503 11.5455H14.1635L10.8305 15.7045C10.7358 15.8227 10.8213 16 10.9761 16H12.6506C12.7638 16 12.87 15.95 12.9416 15.8614L16.8404 10.9955C17.2215 10.5182 16.8774 9.81818 16.2584 9.81818ZM16.815 4.45455H2.83659L6.16952 0.295455C6.26422 0.177273 6.17876 0 6.02401 0H4.34946C4.23628 0 4.13004 0.0500001 4.05843 0.138637L0.159623 5.00455C-0.221481 5.48182 0.122668 6.18182 0.739363 6.18182H16.815C16.9167 6.18182 16.9998 6.1 16.9998 6V4.63636C16.9998 4.53636 16.9167 4.45455 16.815 4.45455Z" fill="white"/>
</svg>
