<svg width="10" height="14" viewBox="0 0 10 14" fill="none" xmlns="http://www.w3.org/2000/svg">
<path d="M8.57143 2.8H7.14286V0.7C7.14286 0.315 6.82143 0 6.42857 0L3.57143 0C3.17857 0 2.85714 0.315 2.85714 0.7V2.8H1.42857C0.642857 2.8 0 3.43 0 4.2L0 11.9C0 12.67 0.642857 13.3 1.42857 13.3C1.42857 13.685 1.75 14 2.14286 14C2.53571 14 2.85714 13.685 2.85714 13.3H7.14286C7.14286 13.685 7.46429 14 7.85714 14C8.25 14 8.57143 13.685 8.57143 13.3C9.35714 13.3 10 12.67 10 11.9V4.2C10 3.43 9.35714 2.8 8.57143 2.8ZM2.67857 11.2C2.38571 11.2 2.14286 10.962 2.14286 10.675L2.14286 5.425C2.14286 5.138 2.38571 4.9 2.67857 4.9C2.97143 4.9 3.21429 5.138 3.21429 5.425L3.21429 10.675C3.21429 10.962 2.97143 11.2 2.67857 11.2ZM5 11.2C4.70714 11.2 4.46429 10.962 4.46429 10.675V5.425C4.46429 5.138 4.70714 4.9 5 4.9C5.29286 4.9 5.53571 5.138 5.53571 5.425V10.675C5.53571 10.962 5.29286 11.2 5 11.2ZM6.07143 2.8L3.92857 2.8V1.05H6.07143V2.8ZM7.32143 11.2C7.02857 11.2 6.78571 10.962 6.78571 10.675V5.425C6.78571 5.138 7.02857 4.9 7.32143 4.9C7.61429 4.9 7.85714 5.138 7.85714 5.425V10.675C7.85714 10.962 7.61429 11.2 7.32143 11.2Z" fill="#1CB1BC"/>
</svg>
