<svg width="22" height="22" viewBox="0 0 22 22" fill="none" xmlns="http://www.w3.org/2000/svg">
<path d="M0 2.75C0 1.2332 1.40938 0 3.14286 0H18.8571C20.5906 0 22 1.2332 22 2.75V19.25C22 20.7668 20.5906 22 18.8571 22H3.14286C1.40938 22 0 20.7668 0 19.25V2.75ZM8.98661 11.9797C7.61652 11.4125 6.60982 10.2867 6.34955 8.9375H8.26964C8.34821 10.2437 8.64777 11.2492 8.98661 11.9797ZM11.0147 12.375H10.9853C10.8674 12.2246 10.7054 11.9926 10.5384 11.666C10.2438 11.0816 9.92946 10.1922 9.84107 8.9375H12.154C12.0656 10.1922 11.7562 11.0816 11.4567 11.666C11.2897 11.9926 11.1277 12.2246 11.0098 12.375H11.0147ZM13.0134 11.9797C13.3473 11.2449 13.6469 10.2437 13.7304 8.9375H15.6504C15.3902 10.2867 14.3835 11.4125 13.0134 11.9797V11.9797ZM13.7304 7.5625C13.6518 6.25625 13.3522 5.25078 13.0134 4.52031C14.3835 5.0875 15.3902 6.21328 15.6504 7.5625H13.7304V7.5625ZM10.9853 4.125H11.0147C11.1326 4.27539 11.2946 4.50742 11.4616 4.83398C11.7562 5.41836 12.0705 6.30781 12.1589 7.5625H9.84598C9.93437 6.30781 10.2437 5.41836 10.5433 4.83398C10.7103 4.50742 10.8723 4.27539 10.9902 4.125H10.9853ZM8.98661 4.52031C8.65268 5.25508 8.35312 6.25625 8.26964 7.5625H6.34955C6.60982 6.21328 7.61652 5.0875 8.98661 4.52031ZM17.2857 8.25C17.2857 5.21211 14.4719 2.75 11 2.75C7.52812 2.75 4.71429 5.21211 4.71429 8.25C4.71429 11.2879 7.52812 13.75 11 13.75C14.4719 13.75 17.2857 11.2879 17.2857 8.25ZM5.5 16.5C5.06786 16.5 4.71429 16.8094 4.71429 17.1875C4.71429 17.5656 5.06786 17.875 5.5 17.875H16.5C16.9321 17.875 17.2857 17.5656 17.2857 17.1875C17.2857 16.8094 16.9321 16.5 16.5 16.5H5.5Z" fill="black"/>
</svg>
