<svg width="18" height="18" viewBox="0 0 18 18" fill="none" xmlns="http://www.w3.org/2000/svg">
<path d="M10.5218 0.398749L9.41213 1.50843C9.49137 1.58768 9.55423 1.68176 9.59712 1.78531C9.64001 1.88885 9.66208 1.99983 9.66208 2.1119C9.66208 2.22398 9.64001 2.33496 9.59712 2.4385C9.55423 2.54204 9.49137 2.63613 9.41213 2.71538C9.33288 2.79462 9.2388 2.85749 9.13526 2.90038C9.03173 2.94327 8.92075 2.96534 8.80868 2.96534C8.58235 2.96534 8.36528 2.87543 8.20524 2.71538L0.401123 10.5198L0.398731 10.5222C0.143413 10.7778 0 11.1243 0 11.4856C0 11.8469 0.143413 12.1934 0.398731 12.449L0.40192 12.4522L5.54833 17.5989L5.55072 17.6013C5.80632 17.8566 6.15281 18 6.51408 18C6.87535 18 7.22185 17.8566 7.47744 17.6013L7.48063 17.5981L15.2847 9.7936C15.1484 9.62897 15.0778 9.41966 15.0866 9.20606C15.0954 8.99245 15.1831 8.78969 15.3326 8.63688C15.4837 8.48533 15.6863 8.39613 15.9001 8.38697C16.1139 8.37782 16.3233 8.44938 16.4868 8.58746L16.4892 8.58985L17.5989 7.48016L17.6013 7.47777C17.8566 7.22217 18 6.87566 18 6.51437C18 6.15308 17.8566 5.80658 17.6013 5.55097L17.5981 5.54778L12.4517 0.401141L12.4493 0.398749C12.1937 0.14342 11.8472 0 11.4859 0C11.1246 0 10.7782 0.14342 10.5226 0.398749L10.521 0.400344L10.5218 0.398749ZM4.81097 9.78244L6.3415 8.25184C6.35367 8.23785 6.36859 8.22652 6.38533 8.21853C6.40206 8.21054 6.42026 8.20607 6.43879 8.2054C6.45732 8.20472 6.47579 8.20786 6.49306 8.21462C6.51033 8.22137 6.52603 8.2316 6.53919 8.24467C6.55226 8.25782 6.56249 8.27353 6.56924 8.2908C6.57599 8.30807 6.57913 8.32654 6.57846 8.34507C6.57779 8.3636 6.57332 8.3818 6.56533 8.39854C6.55734 8.41527 6.546 8.43019 6.53202 8.44237L5.00149 9.97297L4.99591 9.97855C4.98405 9.99048 4.96996 9.99995 4.95443 10.0064C4.9389 10.0129 4.92225 10.0162 4.90543 10.0162C4.88861 10.0162 4.87196 10.0129 4.85643 10.0064C4.8409 9.99995 4.82681 9.99048 4.81495 9.97855L4.80937 9.97217C4.78417 9.94666 4.7701 9.9122 4.77024 9.87634C4.77039 9.84048 4.78475 9.80614 4.81017 9.78085L4.81097 9.78244ZM6.96328 8.62492C6.97545 8.61094 6.99037 8.5996 7.0071 8.59161C7.02384 8.58362 7.04204 8.57915 7.06057 8.57848C7.0791 8.57781 7.09757 8.58095 7.11484 8.5877C7.13211 8.59446 7.14781 8.60468 7.16097 8.61775C7.17404 8.63091 7.18426 8.64661 7.19102 8.66388C7.19777 8.68115 7.20091 8.69962 7.20024 8.71816C7.19956 8.73669 7.1951 8.75488 7.18711 8.77162C7.17912 8.78836 7.16778 8.80327 7.1538 8.81545L6.3399 9.62938C6.32773 9.64337 6.31281 9.65471 6.29607 9.66269C6.27934 9.67068 6.26114 9.67515 6.24261 9.67582C6.22408 9.6765 6.20561 9.67336 6.18834 9.6666C6.17107 9.65985 6.15537 9.64962 6.14221 9.63655C6.12914 9.62339 6.11892 9.60769 6.11216 9.59042C6.10541 9.57315 6.10227 9.55468 6.10294 9.53615C6.10362 9.51762 6.10808 9.49942 6.11607 9.48268C6.12406 9.46595 6.1354 9.45103 6.14938 9.43885L6.96328 8.62492ZM5.59297 14.9315C5.67189 15.0104 5.67189 15.1395 5.59297 15.2185C5.51405 15.2974 5.38492 15.2974 5.306 15.2185L2.78062 12.693C2.7017 12.614 2.7017 12.4849 2.78062 12.406C2.85954 12.3271 2.98868 12.3271 3.0676 12.406L5.59297 14.9315ZM5.6408 13.8888C5.71972 13.9677 5.71972 14.0968 5.6408 14.1757C5.56188 14.2547 5.43274 14.2547 5.35383 14.1757L3.8233 12.6451C3.74438 12.5662 3.74438 12.4371 3.8233 12.3582C3.90221 12.2792 4.03135 12.2792 4.11027 12.3582L5.6408 13.8888ZM9.67598 11.5944L8.14944 13.1211C8.13726 13.135 8.12234 13.1464 8.10561 13.1544C8.08887 13.1624 8.07068 13.1668 8.05215 13.1675C8.03362 13.1682 8.01514 13.165 7.99787 13.1583C7.9806 13.1515 7.9649 13.1413 7.95174 13.1282C7.93868 13.1151 7.92845 13.0994 7.9217 13.0821C7.91494 13.0648 7.91181 13.0464 7.91248 13.0278C7.91315 13.0093 7.91762 12.9911 7.92561 12.9744C7.9336 12.9576 7.94493 12.9427 7.95892 12.9305L9.48945 11.3999L9.49503 11.3944C9.50688 11.3824 9.52098 11.373 9.53651 11.3665C9.55204 11.36 9.56869 11.3567 9.58551 11.3567C9.60233 11.3567 9.61898 11.36 9.63451 11.3665C9.65003 11.373 9.66413 11.3824 9.67598 11.3944L9.68156 11.4007C9.7044 11.4272 9.71696 11.461 9.71696 11.496C9.71696 11.531 9.7044 11.5648 9.68156 11.5913L9.67598 11.5944ZM8.45554 11.7627C8.42971 11.7856 8.39608 11.7978 8.36154 11.7968C8.32699 11.7958 8.29414 11.7816 8.2697 11.7572C8.24526 11.7327 8.23108 11.6999 8.23007 11.6653C8.22905 11.6308 8.24127 11.5972 8.26423 11.5713L9.07812 10.7574C9.10395 10.7344 9.13758 10.7222 9.17213 10.7232C9.20668 10.7243 9.23953 10.7384 9.26397 10.7629C9.2884 10.7873 9.30258 10.8202 9.3036 10.8547C9.30462 10.8893 9.29239 10.9229 9.26944 10.9487L8.45554 11.7627ZM10.914 7.85086L10.0435 8.72138L10.5409 10.8642C10.5463 10.8983 10.544 10.9331 10.5341 10.9661C10.5241 10.9991 10.5068 11.0294 10.4835 11.0548L10.1391 11.3991L10.1351 11.4031C10.1136 11.4248 10.0871 11.441 10.058 11.4503C10.0288 11.4596 9.99788 11.4617 9.96774 11.4565H9.96694C9.93548 11.4538 9.90541 11.4423 9.88008 11.4234C9.85474 11.4046 9.83514 11.3791 9.82346 11.3497L9.82425 11.3505L9.00319 9.78324L8.31445 10.472L8.38141 10.979C8.38666 11.0093 8.38455 11.0404 8.37526 11.0696C8.36596 11.0989 8.34975 11.1255 8.328 11.1472L8.32401 11.1512L8.06574 11.4095L8.06175 11.4135C8.04018 11.4352 8.01371 11.4513 7.98458 11.4606C7.95544 11.4699 7.92449 11.4721 7.89435 11.4669H7.89355C7.86209 11.4641 7.83202 11.4527 7.80668 11.4338C7.78135 11.4149 7.76175 11.3894 7.75006 11.3601L7.75086 11.3609L7.3491 10.6338L6.6205 10.2305C6.56884 10.1968 6.53116 10.1455 6.51448 10.0862L6.51528 10.0878C6.51002 10.0575 6.51213 10.0264 6.52143 9.99713C6.53073 9.96785 6.54694 9.94125 6.56869 9.91956L6.57267 9.91557L6.83095 9.65728L6.83493 9.6533C6.8565 9.63161 6.88297 9.61543 6.91211 9.60614C6.94125 9.59684 6.9722 9.5947 7.00234 9.59988H7.00313L7.51012 9.66685L8.19886 8.97808L6.61094 8.13625C6.58341 8.12227 6.55959 8.10196 6.54143 8.077C6.52327 8.05203 6.51128 8.02311 6.50646 7.99262C6.50164 7.96212 6.50411 7.93092 6.51368 7.90156C6.52325 7.87221 6.53964 7.84554 6.56151 7.82375L6.5655 7.81977L6.90907 7.47618C6.93449 7.45293 6.96481 7.4357 6.99779 7.42577C7.03077 7.41583 7.06556 7.41344 7.09959 7.41878H7.10039L9.24313 7.91622L10.1136 7.0457C10.2206 6.93996 10.365 6.88066 10.5154 6.88066C10.6658 6.88066 10.8102 6.93996 10.9171 7.0457C11.0204 7.1543 11.0778 7.29863 11.0772 7.44852C11.0766 7.59841 11.0181 7.74227 10.914 7.85006V7.85086ZM14.5872 7.48734C14.6662 7.56626 14.6662 7.6954 14.5872 7.77433C14.5083 7.85325 14.3792 7.85325 14.3003 7.77433L14.2046 7.67866C14.1257 7.59974 14.1257 7.4706 14.2046 7.39167C14.2835 7.31275 14.4127 7.31275 14.4916 7.39167L14.5872 7.48734ZM13.9176 6.8177C13.9965 6.89662 13.9965 7.02577 13.9176 7.10469C13.8387 7.18361 13.7096 7.18361 13.6307 7.10469L13.535 7.00903C13.4561 6.9301 13.4561 6.80096 13.535 6.72204C13.6139 6.64312 13.7431 6.64312 13.822 6.72204L13.9176 6.8177ZM13.248 6.14806C13.3269 6.22698 13.3269 6.35613 13.248 6.43505C13.1691 6.51397 13.04 6.51397 12.961 6.43505L12.8646 6.33859C12.7857 6.25967 12.7857 6.13053 12.8646 6.0516C12.9435 5.97268 13.0726 5.97268 13.1516 6.0516L13.248 6.14806ZM12.5792 5.47843C12.6581 5.55735 12.6581 5.68649 12.5792 5.76541C12.5003 5.84434 12.3712 5.84434 12.2922 5.76541L12.1958 5.66895C12.1169 5.59003 12.1169 5.46089 12.1958 5.38197C12.2747 5.30305 12.4038 5.30305 12.4828 5.38197L12.5792 5.47843ZM11.9096 4.80879C11.9885 4.88771 11.9885 5.01685 11.9096 5.09578C11.8307 5.1747 11.7015 5.1747 11.6226 5.09578L11.5262 4.99932C11.4473 4.9204 11.4473 4.79125 11.5262 4.71233C11.6051 4.63341 11.7342 4.63341 11.8131 4.71233L11.9096 4.80879ZM11.24 4.13915C11.3189 4.21807 11.3189 4.34722 11.24 4.42614C11.1611 4.50506 11.0319 4.50506 10.953 4.42614L10.8566 4.32968C10.7776 4.25076 10.7776 4.12161 10.8566 4.04269C10.9355 3.96377 11.0646 3.96377 11.1435 4.04269L11.24 4.13915ZM10.5704 3.46951C10.6493 3.54844 10.6493 3.67758 10.5704 3.7565C10.4915 3.83542 10.3623 3.83542 10.2834 3.7565L10.187 3.66004C10.108 3.58112 10.108 3.45198 10.187 3.37305C10.2659 3.29413 10.395 3.29413 10.4739 3.37305L10.5704 3.46951ZM11.24 2.68588L11.8905 2.03537L11.6601 1.80499L11.8131 1.65193L12.4541 2.29287L12.301 2.44593L12.0714 2.21634L11.4209 2.86684L11.24 2.68588ZM11.8809 3.32682L12.6844 2.52325L12.8654 2.70421L12.0619 3.50778L11.8809 3.32682ZM16.3458 6.18473L16.1927 6.33779L15.9631 6.1082L15.3134 6.75791L15.1325 6.57695L15.783 5.92645L15.5534 5.69686L15.7064 5.5438L16.3458 6.18473ZM15.504 5.3437L15.3605 5.4872L15.0081 5.13484L14.8359 5.30703L15.1524 5.62351L15.0089 5.76701L14.6925 5.45052L14.5011 5.64185L14.8631 6.00377L14.7196 6.14727L14.1767 5.60438L14.9802 4.80082L15.5159 5.33653L15.504 5.3437ZM14.2604 4.09929L13.8985 4.46122L14.5179 4.35758L14.7188 4.55847L14.1353 4.64457L13.9535 5.4003L13.7534 5.20021L13.8873 4.68363L13.6466 4.71392L13.4457 4.91481L13.2648 4.73385L14.0683 3.93029L14.2492 4.11125L14.2604 4.09929ZM13.6769 3.86014L13.4473 3.78361C13.4614 3.73387 13.462 3.68126 13.449 3.63122C13.4359 3.58118 13.4098 3.53554 13.3732 3.49901L13.3716 3.49742C13.2568 3.38262 13.075 3.37226 12.9029 3.54525C12.7307 3.71824 12.7402 3.8992 12.855 4.01399L12.8566 4.01559C12.893 4.0519 12.9384 4.0779 12.9881 4.09093C13.0378 4.10396 13.0901 4.10354 13.1396 4.08973L13.1412 4.08893L13.2177 4.31852C13.1279 4.33959 13.0342 4.3374 12.9455 4.31215C12.8568 4.2869 12.776 4.23943 12.7107 4.17423L12.6908 4.1535L12.6916 4.1543L12.6797 4.14314C12.6295 4.09301 12.5897 4.03349 12.5625 3.96797C12.5353 3.90245 12.5214 3.83221 12.5214 3.76129C12.5214 3.69036 12.5353 3.62012 12.5625 3.5546C12.5897 3.48908 12.6295 3.42956 12.6797 3.37943L12.7115 3.34994L12.7099 3.35153C12.7574 3.29451 12.8162 3.248 12.8826 3.21496C12.949 3.18192 13.0216 3.16307 13.0957 3.15962C13.1697 3.15617 13.2437 3.1682 13.3129 3.19492C13.3821 3.22165 13.445 3.2625 13.4975 3.31486L13.5151 3.3332L13.5143 3.3324C13.5907 3.39391 13.6471 3.47682 13.6762 3.57054C13.7053 3.66426 13.7059 3.76453 13.6777 3.85854L13.6769 3.86093V3.86014Z" fill="#1CB1BC"/>
</svg>
