<svg width="18" height="14" viewBox="0 0 18 14" fill="none" xmlns="http://www.w3.org/2000/svg">
<path d="M4.15602 12.8447C4.15602 13.0021 4.09347 13.1531 3.98212 13.2645C3.87077 13.3758 3.71975 13.4384 3.56227 13.4384C3.4048 13.4384 3.25378 13.3758 3.14243 13.2645C3.03108 13.1531 2.96852 13.0021 2.96852 12.8447V2.40297L1.60765 3.76503C1.55244 3.82023 1.48691 3.86402 1.41478 3.8939C1.34265 3.92378 1.26534 3.93915 1.18727 3.93915C1.1092 3.93915 1.0319 3.92378 0.959768 3.8939C0.88764 3.86402 0.822103 3.82023 0.766898 3.76503C0.711694 3.70982 0.667903 3.64429 0.638027 3.57216C0.608151 3.50003 0.592773 3.42272 0.592773 3.34465C0.592773 3.26658 0.608151 3.18928 0.638027 3.11715C0.667903 3.04502 0.711694 2.97948 0.766898 2.92428L3.1419 0.550465L3.15021 0.542153C3.26184 0.433738 3.4117 0.373688 3.5673 0.375022C3.7229 0.376355 3.87171 0.438965 3.98146 0.549278L6.35646 2.92428C6.41167 2.9794 6.45547 3.04486 6.48538 3.11692C6.51528 3.18898 6.53071 3.26622 6.53076 3.34423C6.53082 3.42225 6.5155 3.49951 6.4857 3.57161C6.45589 3.64371 6.41218 3.70923 6.35705 3.76443C6.30193 3.81964 6.23647 3.86344 6.16441 3.89335C6.09236 3.92326 6.01512 3.93868 5.9371 3.93873C5.85908 3.93879 5.78182 3.92348 5.70972 3.89367C5.63763 3.86387 5.5721 3.82015 5.5169 3.76503L4.15602 2.40297V12.8447ZM8.31227 2.15715C8.31227 1.99968 8.37483 1.84866 8.48618 1.73731C8.59753 1.62596 8.74855 1.5634 8.90602 1.5634H17.2185C17.376 1.5634 17.527 1.62596 17.6384 1.73731C17.7497 1.84866 17.8123 1.99968 17.8123 2.15715C17.8123 2.31463 17.7497 2.46565 17.6384 2.577C17.527 2.68835 17.376 2.7509 17.2185 2.7509H8.90602C8.74855 2.7509 8.59753 2.68835 8.48618 2.577C8.37483 2.46565 8.31227 2.31463 8.31227 2.15715ZM8.90602 5.1259C8.74855 5.1259 8.59753 5.18846 8.48618 5.29981C8.37483 5.41116 8.31227 5.56218 8.31227 5.71965C8.31227 5.87712 8.37483 6.02815 8.48618 6.1395C8.59753 6.25085 8.74855 6.3134 8.90602 6.3134H14.8435C15.001 6.3134 15.152 6.25085 15.2634 6.1395C15.3747 6.02815 15.4373 5.87712 15.4373 5.71965C15.4373 5.56218 15.3747 5.41116 15.2634 5.29981C15.152 5.18846 15.001 5.1259 14.8435 5.1259H8.90602ZM8.90602 8.6884C8.74855 8.6884 8.59753 8.75096 8.48618 8.86231C8.37483 8.97366 8.31227 9.12468 8.31227 9.28215C8.31227 9.43962 8.37483 9.59065 8.48618 9.702C8.59753 9.81335 8.74855 9.8759 8.90602 9.8759H12.4685C12.626 9.8759 12.777 9.81335 12.8884 9.702C12.9997 9.59065 13.0623 9.43962 13.0623 9.28215C13.0623 9.12468 12.9997 8.97366 12.8884 8.86231C12.777 8.75096 12.626 8.6884 12.4685 8.6884H8.90602ZM8.90602 12.2509C8.74855 12.2509 8.59753 12.3135 8.48618 12.4248C8.37483 12.5362 8.31227 12.6872 8.31227 12.8447C8.31227 13.0021 8.37483 13.1531 8.48618 13.2645C8.59753 13.3758 8.74855 13.4384 8.90602 13.4384H10.0935C10.251 13.4384 10.402 13.3758 10.5134 13.2645C10.6247 13.1531 10.6873 13.0021 10.6873 12.8447C10.6873 12.6872 10.6247 12.5362 10.5134 12.4248C10.402 12.3135 10.251 12.2509 10.0935 12.2509H8.90602Z" fill="black"/>
</svg>
