<svg width="23" height="18" viewBox="0 0 23 18" fill="none" xmlns="http://www.w3.org/2000/svg">
<path d="M0.367297 16.5241H22.6325V18H0.367297V16.5241ZM20.7626 2.14139C19.6777 1.8409 18.5244 1.86221 17.5152 2.20135L17.4737 2.21519L14.454 3.64222L5.64159 0.158676C5.25689 0.00498763 4.83652 -0.0381829 4.42835 0.0340814C4.02018 0.106346 3.64063 0.291139 3.33292 0.567414L2.15315 1.61892C2.02869 1.72986 1.93095 1.86726 1.8672 2.0209C1.80344 2.17454 1.77529 2.34048 1.78485 2.50642C1.79441 2.67235 1.84142 2.83401 1.92241 2.97941C2.00339 3.12481 2.11626 3.25021 2.25265 3.3463L7.71536 7.1956L5.61997 8.287L3.96052 6.77939C3.64324 6.4917 3.24916 6.30123 2.82563 6.23086C2.40211 6.1605 1.96716 6.21324 1.57305 6.38273L0.670614 6.77178C0.529565 6.83255 0.402704 6.92172 0.298021 7.03365C0.193339 7.14558 0.113104 7.27785 0.0623724 7.42214C0.0116406 7.56643 -0.00848894 7.7196 0.00325191 7.872C0.0149928 8.02441 0.0583496 8.17274 0.130591 8.30766L3.50845 14.6185L21.9042 5.60271C23.0057 5.0872 23.14 4.26308 22.8977 3.66284C22.6293 2.99738 21.8509 2.44285 20.7626 2.14139ZM21.2682 4.26917L21.2613 4.2724L4.14282 12.6621L1.62982 7.96681L2.16326 7.7368C2.29463 7.68029 2.43962 7.66271 2.5808 7.68617C2.72198 7.70963 2.85334 7.77313 2.9591 7.86903L5.38675 10.0746L10.5508 7.38479L3.49008 2.40937L4.32368 1.66642C4.42625 1.57434 4.55276 1.51275 4.68881 1.48866C4.82487 1.46458 4.96499 1.47896 5.09322 1.53018L14.5069 5.25139L18.0299 3.5866C18.7468 3.35557 19.6006 3.34838 20.3799 3.56755C21.0216 3.74807 21.3624 4.01033 21.4779 4.14786C21.4126 4.19576 21.3424 4.23647 21.2683 4.26931L21.2682 4.26917Z" fill="#1CB1BC"/>
</svg>
