<svg width="21" height="18" viewBox="0 0 21 18" fill="none" xmlns="http://www.w3.org/2000/svg">
<path d="M19.0995 0H2.1C0.945 0 0.0105 1.0125 0.0105 2.25V6.75C1.1655 6.75 2.1 7.7625 2.1 9C2.1 10.2375 1.1655 11.25 0 11.25V15.75C0 16.9875 0.945 18 2.1 18H18.9C20.055 18 21 16.9875 21 15.75V2.25C21 1.0125 20.1495 0 19.0995 0ZM16.5165 10.4625L7.602 13.005C7.49107 13.0369 7.37343 13.0288 7.26719 12.9821C7.16095 12.9353 7.07199 12.8525 7.014 12.7463L5.838 10.5525C5.649 10.215 5.8275 9.77625 6.174 9.675C6.342 9.63 6.531 9.66375 6.6675 9.7875L7.77 10.71L10.2795 9.99L8.295 6.3C8.23251 6.18307 8.19572 6.05242 8.18742 5.91798C8.17912 5.78354 8.19954 5.64883 8.24712 5.52411C8.29469 5.39938 8.36818 5.28792 8.46199 5.19819C8.5558 5.10845 8.66746 5.04281 8.7885 5.00625C8.92352 4.96816 9.06527 4.96672 9.20093 5.00208C9.3366 5.03744 9.4619 5.10847 9.5655 5.20875L13.44 9.07875L16.002 8.3475C16.2609 8.27414 16.5364 8.31338 16.7685 8.45666C17.0006 8.59995 17.1704 8.83568 17.241 9.1125C17.3077 9.39428 17.2694 9.69281 17.1341 9.94483C16.9989 10.1968 16.7773 10.3825 16.5165 10.4625Z" fill="#1CB1BC"/>
</svg>
