<svg width="21" height="23" viewBox="0 0 21 23" fill="none" xmlns="http://www.w3.org/2000/svg">
<path d="M2.33333 23H18.6666C19.2855 23 19.879 22.7577 20.3166 22.3264C20.7541 21.8951 21 21.3101 21 20.7001V10.3505C21.0009 10.1992 20.9714 10.0491 20.9134 9.90903C20.8553 9.76892 20.7698 9.64148 20.6616 9.53403L11.3283 0.334398C11.1097 0.120218 10.814 0 10.5058 0C10.1976 0 9.90191 0.120218 9.68332 0.334398L0.35 9.53403C0.239764 9.64054 0.152065 9.76754 0.0919861 9.90769C0.0319067 10.0478 0.000640791 10.1984 0 10.3505V20.7001C0 21.3101 0.245832 21.8951 0.683417 22.3264C1.121 22.7577 1.71449 23 2.33333 23ZM8.16666 20.7001V14.9503H12.8333V20.7001H8.16666ZM2.33333 10.822L10.5 2.7723L18.6666 10.822V20.7001H15.1667V14.9503C15.1667 14.3403 14.9208 13.7554 14.4832 13.324C14.0457 12.8927 13.4522 12.6504 12.8333 12.6504H8.16666C7.54782 12.6504 6.95433 12.8927 6.51675 13.324C6.07916 13.7554 5.83333 14.3403 5.83333 14.9503V20.7001H2.33333V10.822Z" fill="#252525"/>
</svg>
