<svg width="22" height="17" viewBox="0 0 22 17" fill="none" xmlns="http://www.w3.org/2000/svg">
<path d="M1 17C0.716667 17 0.479333 16.8912 0.288 16.6736C0.096 16.4568 0 16.1878 0 15.8667V1.13333C0 0.812222 0.096 0.542867 0.288 0.325267C0.479333 0.108422 0.716667 0 1 0C1.28333 0 1.521 0.108422 1.713 0.325267C1.90433 0.542867 2 0.812222 2 1.13333V11.3333H10V4.53333C10 3.91 10.196 3.3762 10.588 2.93193C10.9793 2.48842 11.45 2.26667 12 2.26667H18C19.1 2.26667 20.0417 2.71056 20.825 3.59833C21.6083 4.48611 22 5.55333 22 6.8V15.8667C22 16.1878 21.904 16.4568 21.712 16.6736C21.5207 16.8912 21.2833 17 21 17C20.7167 17 20.4793 16.8912 20.288 16.6736C20.096 16.4568 20 16.1878 20 15.8667V13.6H2V15.8667C2 16.1878 1.90433 16.4568 1.713 16.6736C1.521 16.8912 1.28333 17 1 17ZM6 10.2C5.16667 10.2 4.45833 9.86944 3.875 9.20833C3.29167 8.54722 3 7.74444 3 6.8C3 5.85556 3.29167 5.05278 3.875 4.39167C4.45833 3.73056 5.16667 3.4 6 3.4C6.83333 3.4 7.54167 3.73056 8.125 4.39167C8.70833 5.05278 9 5.85556 9 6.8C9 7.74444 8.70833 8.54722 8.125 9.20833C7.54167 9.86944 6.83333 10.2 6 10.2ZM12 11.3333H20V6.8C20 6.17667 19.8043 5.64287 19.413 5.1986C19.021 4.75509 18.55 4.53333 18 4.53333H12V11.3333ZM6 7.93333C6.28333 7.93333 6.521 7.82453 6.713 7.60693C6.90433 7.39009 7 7.12111 7 6.8C7 6.47889 6.90433 6.20953 6.713 5.99193C6.521 5.77509 6.28333 5.66667 6 5.66667C5.71667 5.66667 5.479 5.77509 5.287 5.99193C5.09567 6.20953 5 6.47889 5 6.8C5 7.12111 5.09567 7.39009 5.287 7.60693C5.479 7.82453 5.71667 7.93333 6 7.93333ZM12 4.53333V11.3333V4.53333Z" fill="white"/>
</svg>
