<svg width="22" height="22" viewBox="0 0 22 22" fill="none" xmlns="http://www.w3.org/2000/svg">
<g clip-path="url(#clip0_778_552)">
<path d="M19.7303 4.45297H15.3652V2.27043C15.3652 1.07003 14.383 0.0878906 13.1826 0.0878906H8.81756C7.61716 0.0878906 6.63502 1.07003 6.63502 2.27043V4.45297H2.26994C1.06955 4.45297 0.0874023 5.43511 0.0874023 6.63551V19.7307C0.0874023 20.9311 1.06955 21.9133 2.26994 21.9133H19.7303C20.9307 21.9133 21.9128 20.9311 21.9128 19.7307V6.63551C21.9128 5.43511 20.9307 4.45297 19.7303 4.45297ZM8.81756 2.27043H13.1826V4.45297H8.81756V2.27043ZM19.7303 19.7307H2.26994V6.63551H19.7303V19.7307Z" fill="black"/>
<path d="M12.0911 8.81738H9.90858V12.0912H6.63477V14.2737H9.90858V17.5475H12.0911V14.2737H15.3649V12.0912H12.0911V8.81738Z" fill="black"/>
</g>
<defs>
<clipPath id="clip0_778_552">
<rect width="22" height="22" fill="white"/>
</clipPath>
</defs>
</svg>
