<svg width="19" height="19" viewBox="0 0 19 19" fill="none" xmlns="http://www.w3.org/2000/svg">
<path d="M9.75 18.5C8.01942 18.5 6.32769 17.9868 4.88876 17.0254C3.44983 16.0639 2.32832 14.6973 1.66606 13.0985C1.00379 11.4996 0.830512 9.7403 1.16813 8.04296C1.50575 6.34563 2.33911 4.78653 3.56282 3.56282C4.78653 2.33911 6.34563 1.50575 8.04296 1.16813C9.7403 0.830512 11.4996 1.00379 13.0985 1.66606C14.6973 2.32832 16.0639 3.44983 17.0254 4.88876C17.9868 6.32769 18.5 8.01942 18.5 9.75C18.5 12.0706 17.5781 14.2962 15.9372 15.9372C14.2962 17.5781 12.0706 18.5 9.75 18.5ZM9.75 2.25C8.26664 2.25 6.8166 2.68987 5.58323 3.51398C4.34986 4.33809 3.38856 5.50943 2.82091 6.87988C2.25325 8.25032 2.10473 9.75832 2.39411 11.2132C2.6835 12.668 3.39781 14.0044 4.4467 15.0533C5.4956 16.1022 6.83197 16.8165 8.28683 17.1059C9.74168 17.3953 11.2497 17.2468 12.6201 16.6791C13.9906 16.1114 15.1619 15.1501 15.986 13.9168C16.8101 12.6834 17.25 11.2334 17.25 9.75C17.25 7.76088 16.4598 5.85323 15.0533 4.4467C13.6468 3.04018 11.7391 2.25 9.75 2.25Z" fill="#1CB1BC"/>
<path d="M10.125 13.75V8.75H7.625V10H8.875V13.75H7V15H12V13.75H10.125ZM9.5 5C9.31458 5 9.13332 5.05498 8.97915 5.158C8.82498 5.26101 8.70482 5.40743 8.63386 5.57873C8.56291 5.75004 8.54434 5.93854 8.58051 6.1204C8.61669 6.30225 8.70598 6.4693 8.83709 6.60041C8.9682 6.73152 9.13525 6.82081 9.3171 6.85699C9.49896 6.89316 9.68746 6.87459 9.85877 6.80364C10.0301 6.73268 10.1765 6.61252 10.2795 6.45835C10.3825 6.30418 10.4375 6.12292 10.4375 5.9375C10.4375 5.68886 10.3387 5.4504 10.1629 5.27459C9.9871 5.09877 9.74864 5 9.5 5Z" fill="#1CB1BC"/>
</svg>
