<svg width="14" height="18" viewBox="0 0 14 18" fill="none" xmlns="http://www.w3.org/2000/svg">
<path d="M7.0002 4.5C6.53871 4.5 6.08759 4.63196 5.70387 4.87919C5.32016 5.12643 5.02109 5.47783 4.84449 5.88896C4.66788 6.3001 4.62167 6.7525 4.71171 7.18895C4.80174 7.62541 5.02397 8.02632 5.35029 8.34099C5.67661 8.65566 6.09237 8.86995 6.54499 8.95677C6.99762 9.04358 7.46677 8.99902 7.89313 8.82873C8.31949 8.65843 8.68391 8.37004 8.9403 8.00003C9.19669 7.63002 9.33354 7.19501 9.33354 6.75C9.33283 6.15347 9.08677 5.58157 8.64934 5.15976C8.21191 4.73795 7.61883 4.50068 7.0002 4.5ZM7.0002 7.875C6.76946 7.875 6.5439 7.80902 6.35204 7.6854C6.16018 7.56179 6.01065 7.38609 5.92234 7.18052C5.83404 6.97495 5.81094 6.74875 5.85595 6.53052C5.90097 6.31229 6.01208 6.11184 6.17525 5.9545C6.33841 5.79717 6.54629 5.69002 6.7726 5.64662C6.99891 5.60321 7.23349 5.62549 7.44667 5.71064C7.65985 5.79578 7.84206 5.93998 7.97025 6.12498C8.09845 6.30999 8.16687 6.5275 8.16687 6.75C8.16651 7.04826 8.04348 7.33421 7.82477 7.54511C7.60605 7.75602 7.30951 7.87465 7.0002 7.875Z" fill="#1CB1BC"/>
<path d="M11.9497 1.95907C10.7258 0.789612 9.09205 0.094904 7.36377 0.00902943C5.63549 -0.0768451 3.93518 0.452202 2.59102 1.49406C1.24685 2.53592 0.354117 4.01674 0.0851078 5.65071C-0.183902 7.28469 0.189886 8.95598 1.13433 10.342L6.0008 17.4825C6.1091 17.6414 6.25717 17.7719 6.4316 17.8623C6.60603 17.9527 6.8013 18 6.9997 18C7.1981 18 7.39337 17.9527 7.5678 17.8623C7.74223 17.7719 7.8903 17.6414 7.9986 17.4825L12.8652 10.342C13.7416 9.05627 14.1288 7.52167 13.9622 5.99544C13.7955 4.46922 13.0849 3.04414 11.9497 1.95907V1.95907ZM11.7861 9.67009L6.99972 16.6927L2.21334 9.67009C0.748254 7.52044 1.06248 4.64368 2.9605 2.82953C3.49093 2.32254 4.12065 1.92037 4.8137 1.64599C5.50676 1.37161 6.24957 1.23039 6.99972 1.23039C7.74988 1.23039 8.49269 1.37161 9.18574 1.64599C9.87879 1.92037 10.5085 2.32254 11.0389 2.82953C12.937 4.64368 13.2511 7.52044 11.7861 9.67009Z" fill="#1CB1BC"/>
</svg>
