<svg width="24" height="18" viewBox="0 0 24 18" fill="none" xmlns="http://www.w3.org/2000/svg">
<path d="M22.2857 0H1.71429C1.25963 0 0.823593 0.189642 0.502103 0.527208C0.180612 0.864773 0 1.32261 0 1.8V16.2C0 16.6774 0.180612 17.1352 0.502103 17.4728C0.823593 17.8104 1.25963 18 1.71429 18H22.2857C22.7404 18 23.1764 17.8104 23.4979 17.4728C23.8194 17.1352 24 16.6774 24 16.2V1.8C24 1.32261 23.8194 0.864773 23.4979 0.527208C23.1764 0.189642 22.7404 0 22.2857 0ZM20.4 1.8L12 7.902L3.6 1.8H20.4ZM1.71429 16.2V2.619L11.5114 9.738C11.6549 9.84251 11.8254 9.89852 12 9.89852C12.1746 9.89852 12.3451 9.84251 12.4886 9.738L22.2857 2.619V16.2H1.71429Z" fill="#1CB1BC"/>
</svg>
