<svg width="23" height="31" viewBox="0 0 23 31" fill="none" xmlns="http://www.w3.org/2000/svg">
<path fill-rule="evenodd" clip-rule="evenodd" d="M2.56582e-07 30.0306V3.87491C2.56582e-07 2.84722 0.403868 1.86162 1.12276 1.13494C1.84165 0.408248 2.81667 0 3.83333 0L19.1667 0C20.1833 0 21.1584 0.408248 21.8772 1.13494C22.5961 1.86162 23 2.84722 23 3.87491V30.0306C23.0001 30.1988 22.9569 30.3641 22.8746 30.5104C22.7923 30.6566 22.6738 30.7786 22.5306 30.8644C22.3875 30.9503 22.2247 30.9969 22.0583 30.9999C21.8919 31.0028 21.7277 30.9619 21.5817 30.8811L11.5 25.3206L1.41833 30.8811C1.27234 30.9619 1.10806 31.0028 0.941668 30.9999C0.775275 30.9969 0.612503 30.9503 0.469376 30.8644C0.326248 30.7786 0.207699 30.6566 0.125397 30.5104C0.0430953 30.3641 -0.000121505 30.1988 2.56582e-07 30.0306ZM16.9702 11.3419C17.1501 11.16 17.2512 10.9133 17.2512 10.656C17.2512 10.3988 17.1501 10.152 16.9702 9.97015C16.7902 9.78825 16.5462 9.68605 16.2917 9.68605C16.0372 9.68605 15.7931 9.78825 15.6132 9.97015L10.5417 15.0986L8.34517 12.8763C8.25606 12.7863 8.15029 12.7148 8.03387 12.6661C7.91745 12.6173 7.79268 12.5922 7.66667 12.5922C7.54066 12.5922 7.41588 12.6173 7.29947 12.6661C7.18305 12.7148 7.07727 12.7863 6.98817 12.8763C6.89907 12.9664 6.82839 13.0733 6.78016 13.191C6.73194 13.3087 6.70712 13.4348 6.70712 13.5622C6.70712 13.6896 6.73194 13.8157 6.78016 13.9334C6.82839 14.0511 6.89907 14.158 6.98817 14.248L9.86317 17.1542C9.95219 17.2444 10.0579 17.316 10.1744 17.3649C10.2908 17.4137 10.4156 17.4388 10.5417 17.4388C10.6677 17.4388 10.7925 17.4137 10.909 17.3649C11.0254 17.316 11.1311 17.2444 11.2202 17.1542L16.9702 11.3419Z" fill="#1CB1BC"/>
</svg>
