<svg width="34" height="33" viewBox="0 0 34 33" fill="none" xmlns="http://www.w3.org/2000/svg">
<path d="M22.973 19.7083C22.973 19.3437 23.1182 18.9939 23.3767 18.7361C23.6352 18.4782 23.9858 18.3333 24.3514 18.3333H28.027C28.3926 18.3333 28.7432 18.4782 29.0017 18.7361C29.2602 18.9939 29.4054 19.3437 29.4054 19.7083C29.4054 20.073 29.2602 20.4227 29.0017 20.6806C28.7432 20.9385 28.3926 21.0833 28.027 21.0833H24.3514C23.9858 21.0833 23.6352 20.9385 23.3767 20.6806C23.1182 20.4227 22.973 20.073 22.973 19.7083ZM0 3.66667H0.0257296C0.138744 2.65831 0.620344 1.72688 1.37846 1.05045C2.13657 0.374013 3.11801 3.06544e-05 4.13514 0H25.2703C25.8133 0 26.351 0.106696 26.8527 0.313997C27.3544 0.521298 27.8103 0.825143 28.1943 1.20818C28.5782 1.59123 28.8828 2.04596 29.0906 2.54643C29.2984 3.0469 29.4054 3.5833 29.4054 4.125V5.6595C30.7136 5.96935 31.8789 6.71034 32.7126 7.76264C33.5464 8.81494 34 10.117 34 11.4583V27.0417C34 28.6219 33.3707 30.1374 32.2506 31.2548C31.1304 32.3722 29.6112 33 28.027 33H5.97297C4.38884 33 2.86959 32.3722 1.74944 31.2548C0.629293 30.1374 0 28.6219 0 27.0417V3.66667ZM28.027 8.25H2.75676V27.0417C2.75676 28.8127 4.19762 30.25 5.97297 30.25H28.027C28.88 30.25 29.6981 29.912 30.3012 29.3103C30.9044 28.7086 31.2432 27.8926 31.2432 27.0417V11.4583C31.2432 10.6074 30.9044 9.79138 30.3012 9.1897C29.6981 8.58802 28.88 8.25 28.027 8.25ZM26.6486 5.5V4.125C26.6486 3.76033 26.5034 3.41059 26.2449 3.15273C25.9864 2.89487 25.6358 2.75 25.2703 2.75H4.13514C3.76957 2.75 3.41897 2.89487 3.16047 3.15273C2.90198 3.41059 2.75676 3.76033 2.75676 4.125C2.75676 4.48967 2.90198 4.83941 3.16047 5.09727C3.41897 5.35513 3.76957 5.5 4.13514 5.5H26.6486Z" fill="#1CB1BC"/>
</svg>
