<svg width="17" height="18" viewBox="0 0 17 18" fill="none" xmlns="http://www.w3.org/2000/svg">
<path d="M9.91609 1.80481C9.34476 0.742267 7.81853 0.742267 7.24821 1.80481L5.37675 5.27946C5.34712 5.34066 5.30539 5.39525 5.25406 5.43992C5.20273 5.4846 5.14287 5.51845 5.07808 5.53943C5.01329 5.56042 4.94491 5.56809 4.87707 5.56201C4.80922 5.55592 4.74332 5.53619 4.68332 5.50402C4.62332 5.47184 4.57047 5.42788 4.52795 5.37478C4.48543 5.32168 4.45413 5.26054 4.43592 5.19505C4.41771 5.12956 4.41298 5.06107 4.42201 4.99371C4.43104 4.92634 4.45365 4.8615 4.48846 4.80308L6.35891 1.32641C7.31079 -0.442137 9.85351 -0.442137 10.8054 1.32641L12.8323 5.09515L13.1301 3.3125C13.1555 3.18406 13.2301 3.07054 13.338 2.99602C13.4458 2.92149 13.5786 2.89183 13.708 2.91331C13.8375 2.93479 13.9534 3.00573 14.0314 3.11109C14.1093 3.21644 14.143 3.34793 14.1254 3.47768L13.6207 6.49912C13.6086 6.57085 13.5812 6.63913 13.5402 6.69927C13.4992 6.75941 13.4456 6.80998 13.3832 6.8475C13.3208 6.88501 13.2509 6.90859 13.1785 6.9166C13.106 6.92461 13.0327 6.91688 12.9635 6.89392L9.93527 5.88677C9.81308 5.84092 9.71346 5.74962 9.6573 5.63204C9.60115 5.51446 9.59284 5.37975 9.63412 5.25618C9.6754 5.13262 9.76306 5.02982 9.87869 4.96937C9.99432 4.90892 10.1289 4.89553 10.2542 4.932L11.8915 5.47586L9.91609 1.80279V1.80481ZM13.977 8.25759C13.9165 8.28771 13.8628 8.32962 13.8189 8.38085C13.775 8.43208 13.7419 8.49157 13.7214 8.55581C13.701 8.62006 13.6937 8.68773 13.7 8.75484C13.7062 8.82195 13.726 8.88711 13.7579 8.94648L15.807 12.7535C15.931 12.9837 15.993 13.2421 15.987 13.5033C15.981 13.7646 15.9071 14.0198 15.7727 14.2441C15.6382 14.4684 15.4477 14.654 15.2199 14.7829C14.992 14.9117 14.7345 14.9794 14.4726 14.9793H10.3037L11.4615 13.8241C11.5563 13.7297 11.6096 13.6015 11.6097 13.4679C11.6098 13.3343 11.5567 13.2061 11.462 13.1115C11.3674 13.017 11.239 12.9638 11.105 12.9637C10.9711 12.9636 10.8426 13.0166 10.7479 13.111L8.72902 15.1253C8.68202 15.1721 8.64473 15.2277 8.61928 15.2889C8.59384 15.35 8.58074 15.4156 8.58074 15.4819C8.58074 15.5481 8.59384 15.6137 8.61928 15.6749C8.64473 15.736 8.68202 15.7916 8.72902 15.8384L10.7479 17.8527C10.8426 17.9471 10.9711 18.0001 11.105 18C11.239 17.9999 11.3674 17.9467 11.462 17.8522C11.5567 17.7576 11.6098 17.6294 11.6097 17.4958C11.6096 17.3622 11.5563 17.234 11.4615 17.1396L10.3047 15.9864H14.4736C16.3814 15.9864 17.5988 13.955 16.6963 12.2771L14.6472 8.4701C14.5852 8.35465 14.4804 8.26787 14.3553 8.22819C14.2302 8.18852 14.0944 8.19906 13.977 8.25759ZM2.68968 14.9783H6.05709C6.19095 14.9783 6.31932 15.0313 6.41398 15.1258C6.50863 15.2202 6.5618 15.3483 6.5618 15.4819C6.5618 15.6154 6.50863 15.7435 6.41398 15.8379C6.31932 15.9324 6.19095 15.9854 6.05709 15.9854H2.68968C0.781883 15.9854 -0.436483 13.954 0.465935 12.2761L2.63012 8.25457L0.66479 8.90922C0.601825 8.93011 0.535351 8.93843 0.469164 8.9337C0.402976 8.92896 0.338372 8.91127 0.279039 8.88162C0.219706 8.85197 0.166806 8.81096 0.123361 8.76091C0.079915 8.71087 0.0467739 8.65277 0.0258297 8.58995C0.00488542 8.52713 -0.00345182 8.4608 0.001294 8.39476C0.00603981 8.32873 0.0237758 8.26427 0.0534891 8.20507C0.0832025 8.14587 0.124311 8.09309 0.174469 8.04974C0.224626 8.00639 0.282849 7.97333 0.345815 7.95243L3.37406 6.94528C3.50096 6.90318 3.63942 6.91305 3.75903 6.97272C3.87865 7.03239 3.96963 7.13699 4.01202 7.26354L5.02143 10.285C5.05954 10.4104 5.04712 10.5457 4.98681 10.6622C4.92651 10.7787 4.82307 10.8671 4.69848 10.9086C4.57389 10.9502 4.43796 10.9417 4.31958 10.8848C4.20119 10.828 4.10969 10.7273 4.06451 10.6042L3.46895 8.82361L1.35523 12.7525C1.23125 12.9827 1.16925 13.2411 1.17527 13.5023C1.1813 13.7636 1.25515 14.0188 1.38961 14.2431C1.52407 14.4674 1.71454 14.653 1.94241 14.7819C2.17028 14.9107 2.42776 14.9784 2.68968 14.9783Z" fill="#1CB1BC"/>
</svg>
