<svg width="22" height="23" viewBox="0 0 22 23" fill="none" xmlns="http://www.w3.org/2000/svg">
<path d="M12.8326 2.30614C12.0932 0.948452 10.1181 0.948452 9.38003 2.30614L6.95814 6.74598C6.91981 6.82418 6.8658 6.89392 6.79937 6.95101C6.73294 7.0081 6.65547 7.05136 6.57163 7.07817C6.48778 7.10498 6.39929 7.11479 6.3115 7.10701C6.2237 7.09923 6.13841 7.07403 6.06076 7.03291C5.98312 6.9918 5.91472 6.93562 5.8597 6.86777C5.80468 6.79992 5.76416 6.72181 5.7406 6.63812C5.71704 6.55444 5.71092 6.46692 5.72261 6.38085C5.73429 6.29477 5.76354 6.21191 5.8086 6.13727L8.22918 1.69486C9.46102 -0.564953 12.7516 -0.564953 13.9834 1.69486L16.6065 6.51047L16.9919 4.23264C17.0248 4.06852 17.1213 3.92346 17.2609 3.82824C17.4005 3.73302 17.5723 3.69511 17.7398 3.72256C17.9073 3.75001 18.0574 3.84066 18.1582 3.97528C18.259 4.1099 18.3027 4.27792 18.2799 4.4437L17.6267 8.30443C17.6112 8.39608 17.5757 8.48334 17.5226 8.56018C17.4696 8.63703 17.4002 8.70164 17.3194 8.74958C17.2386 8.79751 17.1482 8.82764 17.0545 8.83788C16.9607 8.84812 16.8658 8.83823 16.7763 8.80889L12.8574 7.52199C12.6993 7.4634 12.5704 7.34674 12.4977 7.1965C12.425 7.04626 12.4143 6.87412 12.4677 6.71623C12.5211 6.55835 12.6345 6.42699 12.7842 6.34975C12.9338 6.27251 13.108 6.2554 13.2702 6.302L15.389 6.99693L12.8326 2.30357V2.30614ZM18.0878 10.5514C18.0096 10.5899 17.9401 10.6434 17.8833 10.7089C17.8265 10.7743 17.7836 10.8503 17.7571 10.9324C17.7307 11.0145 17.7213 11.101 17.7294 11.1867C17.7375 11.2725 17.763 11.3558 17.8044 11.4316L20.4562 16.2961C20.6166 16.5903 20.6969 16.9204 20.6891 17.2542C20.6813 17.5881 20.5857 17.9142 20.4117 18.2008C20.2377 18.4874 19.9912 18.7246 19.6963 18.8892C19.4014 19.0539 19.0682 19.1404 18.7292 19.1402H13.3342L14.8325 17.6641C14.9552 17.5435 15.0242 17.3798 15.0243 17.209C15.0244 17.0383 14.9557 16.8745 14.8332 16.7536C14.7107 16.6328 14.5445 16.5649 14.3712 16.5647C14.1979 16.5646 14.0316 16.6323 13.909 16.753L11.2964 19.3268C11.2356 19.3866 11.1873 19.4576 11.1544 19.5358C11.1214 19.6139 11.1045 19.6977 11.1045 19.7824C11.1045 19.867 11.1214 19.9508 11.1544 20.029C11.1873 20.1072 11.2356 20.1782 11.2964 20.2379L13.909 22.8118C14.0316 22.9324 14.1979 23.0001 14.3712 23C14.5445 22.9999 14.7107 22.9319 14.8332 22.8111C14.9557 22.6903 15.0244 22.5265 15.0243 22.3557C15.0242 22.185 14.9552 22.0213 14.8325 21.9006L13.3355 20.4271H18.7306C21.1995 20.4271 22.7749 17.8314 21.607 15.6874L18.9552 10.8229C18.8749 10.6754 18.7394 10.5645 18.5775 10.5138C18.4155 10.4631 18.2399 10.4766 18.0878 10.5514ZM3.48076 19.1389H7.83859C8.01182 19.1389 8.17795 19.2067 8.30044 19.3274C8.42293 19.448 8.49174 19.6117 8.49174 19.7824C8.49174 19.953 8.42293 20.1167 8.30044 20.2374C8.17795 20.358 8.01182 20.4258 7.83859 20.4258H3.48076C1.01185 20.4258 -0.56486 17.8301 0.602975 15.6861L3.40369 10.5475L0.860317 11.384C0.778832 11.4107 0.692807 11.4213 0.607153 11.4153C0.521499 11.4092 0.437893 11.3866 0.361109 11.3487C0.284325 11.3109 0.215867 11.2584 0.159643 11.1945C0.103419 11.1306 0.0605309 11.0563 0.0334266 10.976C0.0063223 10.8958 -0.00446706 10.811 0.00167458 10.7266C0.00781622 10.6423 0.0307686 10.5599 0.0692212 10.4843C0.107674 10.4086 0.160874 10.3412 0.225783 10.2858C0.290692 10.2304 0.36604 10.1881 0.447525 10.1614L4.36644 8.87453C4.53066 8.82073 4.70984 8.83334 4.86463 8.90958C5.01943 8.98583 5.13717 9.11948 5.19202 9.28119L6.49832 13.1419C6.54764 13.3022 6.53157 13.4751 6.45353 13.6239C6.37548 13.7727 6.24162 13.8857 6.08038 13.9388C5.91915 13.9919 5.74324 13.981 5.59004 13.9084C5.43684 13.8357 5.31842 13.7071 5.25995 13.5499L4.48923 11.2746L1.75383 16.2948C1.59339 16.589 1.51315 16.9191 1.52094 17.253C1.52874 17.5868 1.62431 17.9129 1.79832 18.1995C1.97233 18.4861 2.21882 18.7233 2.51371 18.8879C2.8086 19.0526 3.1418 19.1391 3.48076 19.1389Z" fill="#1CB1BC"/>
</svg>
