<svg width="21" height="18" viewBox="0 0 21 18" fill="none" xmlns="http://www.w3.org/2000/svg">
<path d="M6.3 14.625H8.4V13.5H9.45C10.0275 13.5 10.5 12.9937 10.5 12.375V9C10.5 8.38125 10.0275 7.875 9.45 7.875H6.3V6.75H10.5V4.5H8.4V3.375H6.3V4.5H5.25C4.6725 4.5 4.2 5.00625 4.2 5.625V9C4.2 9.61875 4.6725 10.125 5.25 10.125H8.4V11.25H4.2V13.5H6.3V14.625ZM18.9 0H2.1C0.9345 0 0.0105 1.00125 0.0105 2.25L0 15.75C0 16.9988 0.9345 18 2.1 18H18.9C20.0655 18 21 16.9988 21 15.75V2.25C21 1.00125 20.0655 0 18.9 0ZM18.9 15.75H2.1V2.25H18.9V15.75ZM12.6 6.75L14.7 4.5L16.8 6.75M16.8 11.5312L14.7 13.7812L12.6 11.5312" fill="#1CB1BC"/>
</svg>
