<svg width="9" height="11" viewBox="0 0 9 11" fill="none" xmlns="http://www.w3.org/2000/svg">
<path d="M8.90819 5.33348L0.240068 0.021119C0.204836 -0.000414128 0.164423 -0.00548072 0.126082 0.0059192C0.038002 0.032519 -0.0169186 0.141451 0.0048424 0.250384L0.898078 4.71155C0.911549 4.77868 0.951963 4.83315 1.00585 4.85468L2.53637 5.49688L1.00688 6.13907C0.952999 6.16187 0.912586 6.21507 0.900151 6.28221L0.0048424 10.7497C-0.00448373 10.7966 -0.000338736 10.846 0.0172773 10.8878C0.0576905 10.9878 0.157169 11.0284 0.240068 10.979L8.90819 5.69701C8.94031 5.67801 8.96622 5.64508 8.9828 5.60708C9.02321 5.50574 8.99005 5.38415 8.90819 5.33348ZM1.02657 9.48051L1.5478 6.87627L4.60677 5.59314C4.6306 5.58301 4.65029 5.56021 4.65858 5.52981C4.67309 5.47661 4.65029 5.41961 4.60677 5.40061L1.5478 4.11875L1.02864 1.52464L7.53621 5.51334L1.02657 9.48051Z" fill="#252525"/>
</svg>
