<svg width="18" height="18" viewBox="0 0 18 18" fill="none" xmlns="http://www.w3.org/2000/svg">
<path d="M14.625 9C14.625 9 18 5.625 18 3.375C18 1.51172 16.4883 0 14.625 0C12.7617 0 11.25 1.51172 11.25 3.375C11.25 4.40859 11.9602 5.67773 12.7301 6.75H11.25C9.38672 6.75 7.875 8.26172 7.875 10.125C7.875 11.9883 9.38672 13.5 11.25 13.5H14.625C15.2473 13.5 15.75 14.0027 15.75 14.625C15.75 15.2473 15.2473 15.75 14.625 15.75H6.63047C6.4125 16.0875 6.1875 16.4109 5.9625 16.7063C5.58633 17.2055 5.21367 17.652 4.90781 18H14.625C16.4883 18 18 16.4883 18 14.625C18 12.7617 16.4883 11.25 14.625 11.25H11.25C10.6277 11.25 10.125 10.7473 10.125 10.125C10.125 9.50273 10.6277 9 11.25 9H14.625ZM14.625 4.5C14.0027 4.5 13.5 3.99727 13.5 3.375C13.5 2.75273 14.0027 2.25 14.625 2.25C15.2473 2.25 15.75 2.75273 15.75 3.375C15.75 3.99727 15.2473 4.5 14.625 4.5ZM5.26992 15.75C6.03984 14.6777 6.75 13.4086 6.75 12.375C6.75 10.5117 5.23828 9 3.375 9C1.51172 9 0 10.5117 0 12.375C0 14.625 3.375 18 3.375 18C3.375 18 3.49805 17.877 3.69844 17.6625C3.7125 17.6484 3.72305 17.6344 3.73711 17.6203C3.85313 17.4973 3.98672 17.3461 4.13789 17.1703C4.14492 17.1633 4.15195 17.1562 4.15898 17.1492C4.48945 16.7695 4.88672 16.2844 5.26992 15.75ZM3.375 13.5C2.75273 13.5 2.25 12.9973 2.25 12.375C2.25 11.7527 2.75273 11.25 3.375 11.25C3.99727 11.25 4.5 11.7527 4.5 12.375C4.5 12.9973 3.99727 13.5 3.375 13.5Z" fill="white"/>
</svg>
