<svg width="11" height="13" viewBox="0 0 11 13" fill="none" xmlns="http://www.w3.org/2000/svg">
<path d="M2.0625 13C1.68438 13 1.36079 12.8587 1.09175 12.5761C0.82225 12.2929 0.6875 11.9528 0.6875 11.5556V2.16667C0.492708 2.16667 0.329313 2.09757 0.197313 1.95939C0.065771 1.82072 0 1.64907 0 1.44444C0 1.23981 0.065771 1.06817 0.197313 0.9295C0.329313 0.791315 0.492708 0.722222 0.6875 0.722222H3.4375C3.4375 0.517593 3.5035 0.345944 3.6355 0.207278C3.76704 0.0690925 3.93021 0 4.125 0H6.875C7.06979 0 7.23319 0.0690925 7.36519 0.207278C7.49673 0.345944 7.5625 0.517593 7.5625 0.722222H10.3125C10.5073 0.722222 10.6705 0.791315 10.802 0.9295C10.934 1.06817 11 1.23981 11 1.44444C11 1.64907 10.934 1.82072 10.802 1.95939C10.6705 2.09757 10.5073 2.16667 10.3125 2.16667V11.5556C10.3125 11.9528 10.178 12.2929 9.90894 12.5761C9.63944 12.8587 9.31563 13 8.9375 13H2.0625ZM2.0625 2.16667V11.5556H8.9375V2.16667H2.0625ZM3.4375 9.38889C3.4375 9.59352 3.5035 9.76493 3.6355 9.90311C3.76704 10.0418 3.93021 10.1111 4.125 10.1111C4.31979 10.1111 4.48319 10.0418 4.61519 9.90311C4.74673 9.76493 4.8125 9.59352 4.8125 9.38889V4.33333C4.8125 4.1287 4.74673 3.95706 4.61519 3.81839C4.48319 3.6802 4.31979 3.61111 4.125 3.61111C3.93021 3.61111 3.76704 3.6802 3.6355 3.81839C3.5035 3.95706 3.4375 4.1287 3.4375 4.33333V9.38889ZM6.1875 9.38889C6.1875 9.59352 6.2535 9.76493 6.3855 9.90311C6.51704 10.0418 6.68021 10.1111 6.875 10.1111C7.06979 10.1111 7.23319 10.0418 7.36519 9.90311C7.49673 9.76493 7.5625 9.59352 7.5625 9.38889V4.33333C7.5625 4.1287 7.49673 3.95706 7.36519 3.81839C7.23319 3.6802 7.06979 3.61111 6.875 3.61111C6.68021 3.61111 6.51704 3.6802 6.3855 3.81839C6.2535 3.95706 6.1875 4.1287 6.1875 4.33333V9.38889ZM2.0625 2.16667V11.5556V2.16667Z" fill="#C12033"/>
</svg>
