<svg width="19" height="21" viewBox="0 0 19 21" fill="none" xmlns="http://www.w3.org/2000/svg">
<path d="M9.5 0L0 3V12C0 16.9711 4.25273 21 9.5 21C14.7473 21 19 16.9711 19 12V3L9.5 0ZM17.2188 12C17.2188 16.0383 13.7626 19.3125 9.5 19.3125C5.23737 19.3125 1.78125 16.0383 1.78125 12V4.26562L9.5 1.6875L17.2188 4.26562V12Z" fill="#898989"/>
<path d="M4.34209 13.9342H14.6601V14.608H4.34209V13.9342ZM13.7935 7.36822C13.2908 7.23104 12.7563 7.24077 12.2887 7.39559L12.2695 7.40191L10.8701 8.05338L6.78627 6.46306C6.608 6.3929 6.41319 6.37319 6.22404 6.40618C6.03489 6.43917 5.859 6.52354 5.7164 6.64966L5.16968 7.1297C5.112 7.18035 5.06671 7.24307 5.03716 7.31321C5.00761 7.38335 4.99457 7.45911 4.999 7.53486C5.00343 7.61061 5.02522 7.68441 5.06275 7.75079C5.10028 7.81717 5.15258 7.87441 5.21578 7.91828L7.74729 9.67557L6.77625 10.1738L6.00724 9.48556C5.86021 9.35423 5.67758 9.26727 5.48132 9.23515C5.28505 9.20303 5.08349 9.2271 4.90085 9.30448L4.48265 9.48209C4.41728 9.50983 4.35849 9.55054 4.30998 9.60164C4.26147 9.65274 4.22429 9.71312 4.20078 9.77899C4.17727 9.84486 4.16794 9.91479 4.17338 9.98437C4.17882 10.0539 4.19892 10.1217 4.23239 10.1833L5.79774 13.0643L14.3226 8.94838C14.833 8.71304 14.8953 8.33681 14.783 8.06279C14.6586 7.759 14.2979 7.50584 13.7935 7.36822ZM14.0279 8.33959L14.0247 8.34107L6.09172 12.1711L4.92716 10.0276L5.17436 9.92264C5.23524 9.89685 5.30243 9.88882 5.36786 9.89953C5.43328 9.91024 5.49416 9.93923 5.54317 9.98301L6.66817 10.9899L9.06128 9.76194L5.78923 7.49055L6.17553 7.15138C6.22306 7.10935 6.28169 7.08123 6.34474 7.07023C6.40779 7.05924 6.47272 7.0658 6.53215 7.08918L10.8946 8.788L12.5272 8.02799C12.8594 7.92252 13.2551 7.91923 13.6162 8.01929C13.9136 8.1017 14.0715 8.22143 14.1251 8.28422C14.0948 8.30608 14.0622 8.3246 14.0279 8.33959Z" fill="#898989"/>
</svg>
