<svg width="23" height="25" viewBox="0 0 23 25" fill="none" xmlns="http://www.w3.org/2000/svg">
<g clip-path="url(#clip0_1_11)">
<path d="M11.5 0L0 3.57143V14.2857C0 20.2037 5.14805 25 11.5 25C17.852 25 23 20.2037 23 14.2857V3.57143L11.5 0ZM20.8437 14.2857C20.8437 19.0932 16.66 22.9911 11.5 22.9911C6.33997 22.9911 2.15625 19.0932 2.15625 14.2857V5.07813L11.5 2.00893L20.8437 5.07813V14.2857Z" fill="white"/>
<path d="M5.25487 16.5899H17.7451V17.392H5.25487V16.5899ZM16.6961 8.77318C16.0875 8.60987 15.4405 8.62145 14.8744 8.80576L14.8512 8.81328L13.1572 9.58884L8.21362 7.69561C7.99782 7.61209 7.762 7.58862 7.53302 7.6279C7.30405 7.66717 7.09113 7.7676 6.91852 7.91775L6.25669 8.48922C6.18687 8.54952 6.13205 8.62419 6.09628 8.70769C6.06051 8.79119 6.04473 8.88138 6.05009 8.97156C6.05545 9.06174 6.08182 9.1496 6.12725 9.22862C6.17268 9.30764 6.236 9.37579 6.31251 9.42802L9.37696 11.52L8.2015 12.1132L7.27059 11.2938C7.0926 11.1375 6.87153 11.034 6.63394 10.9957C6.39635 10.9575 6.15236 10.9861 5.93127 11.0783L5.42503 11.2897C5.3459 11.3227 5.27474 11.3712 5.21601 11.432C5.15729 11.4928 5.11228 11.5647 5.08382 11.6431C5.05536 11.7216 5.04407 11.8048 5.05065 11.8876C5.05724 11.9705 5.08156 12.0511 5.12209 12.1244L7.01698 15.5542L17.3366 10.6543C17.9545 10.3742 18.0298 9.92627 17.8939 9.60005C17.7433 9.23839 17.3067 8.93701 16.6961 8.77318ZM16.9798 9.92957L16.9759 9.93133L7.37285 14.4909L5.96312 11.9392L6.26236 11.8142C6.33606 11.7834 6.4174 11.7739 6.4966 11.7866C6.57579 11.7994 6.64948 11.8339 6.70881 11.886L8.07066 13.0847L10.9676 11.6228L7.00668 8.91881L7.47431 8.51504C7.53185 8.465 7.60282 8.43152 7.67914 8.41843C7.75546 8.40534 7.83406 8.41316 7.906 8.44099L13.1868 10.4634L15.1632 9.55861C15.5653 9.43305 16.0443 9.42914 16.4814 9.54826C16.8414 9.64637 17.0326 9.7889 17.0974 9.86365C17.0608 9.88968 17.0213 9.91173 16.9798 9.92957Z" fill="white"/>
</g>
<defs>
<clipPath id="clip0_1_11">
<rect width="23" height="25" fill="white"/>
</clipPath>
</defs>
</svg>
