<svg width="16" height="16" viewBox="0 0 16 16" fill="none" xmlns="http://www.w3.org/2000/svg">
<path d="M6.23471 2.52181C6.93334 2.52181 7.4997 1.98527 7.4997 1.32341C7.4997 0.661545 6.93334 0.125 6.23471 0.125C5.53608 0.125 4.96973 0.661545 4.96973 1.32341C4.96973 1.98527 5.53608 2.52181 6.23471 2.52181Z" fill="#1CB1BC"/>
<path d="M15.0747 11.6728L13.2956 12.0941L12.584 8.94791C12.5405 8.75951 12.4305 8.59078 12.2722 8.46953C12.1139 8.34829 11.9167 8.28178 11.7131 8.28096H8.42133L8.18153 6.31221H12.25V5.18721H8.04453L7.89112 3.92771C7.87771 3.81763 7.84155 3.71114 7.7847 3.6143C7.72785 3.51747 7.65143 3.43219 7.55979 3.36334C7.46815 3.29449 7.3631 3.24341 7.25062 3.21302C7.13815 3.18263 7.02045 3.17352 6.90427 3.18623L5.42969 3.34742L6.16776 9.40596H11.4733L12.392 13.4678L15.3629 12.7642L15.0747 11.6728Z" fill="#1CB1BC"/>
<path d="M6.3125 14.7499C5.28004 14.7497 4.27972 14.4097 3.48267 13.788C2.68561 13.1663 2.14135 12.3015 1.943 11.3416C1.74464 10.3817 1.90452 9.38635 2.39529 8.5258C2.88605 7.66525 3.67719 6.99299 4.63337 6.62402L4.49314 5.47266C2.27288 6.19136 0.671875 8.18739 0.671875 10.5311C0.671875 13.4777 3.20225 15.8749 6.3125 15.8749C7.28317 15.8744 8.2373 15.6367 9.08268 15.1848C9.92805 14.7329 10.6361 14.0821 11.1384 13.2952L10.7656 11.6561C10.1719 13.3436 8.48711 14.7499 6.3125 14.7499Z" fill="#1CB1BC"/>
</svg>
