<svg width="24" height="19" viewBox="0 0 24 19" fill="none" xmlns="http://www.w3.org/2000/svg">
<path d="M0.383267 17.4421H23.6165V19H0.383267V17.4421ZM21.6653 2.26036C20.5332 1.94318 19.3298 1.96567 18.2767 2.32365L18.2334 2.33826L15.0824 3.84457L5.88688 0.167491C5.48545 0.00526472 5.0468 -0.0403041 4.62089 0.0359748C4.19497 0.112254 3.79892 0.307314 3.47783 0.598937L2.24676 1.70886C2.11689 1.82597 2.01491 1.97099 1.94838 2.13317C1.88185 2.29534 1.85248 2.47051 1.86245 2.64566C1.87243 2.82081 1.92149 2.99146 2.00599 3.14493C2.09049 3.29841 2.20827 3.43077 2.35059 3.53221L8.05081 7.59535L5.86432 8.74739L4.13272 7.15602C3.80164 6.85235 3.39043 6.6513 2.94849 6.57702C2.50655 6.50275 2.05269 6.55842 1.64144 6.73733L0.699771 7.14799C0.55259 7.21214 0.420212 7.30626 0.310979 7.42441C0.201745 7.54256 0.118022 7.68218 0.0650842 7.83448C0.0121467 7.98678 -0.00885802 8.14847 0.0033933 8.30934C0.0156446 8.47021 0.0608865 8.62678 0.136269 8.7692L3.66099 15.4306L22.8566 5.91397C24.0059 5.36982 24.1461 4.49992 23.8933 3.86633C23.6131 3.1639 22.8009 2.57856 21.6653 2.26036V2.26036ZM22.1929 4.50634L22.1857 4.50975L4.32294 13.3655L1.70069 8.40942L2.25732 8.16662C2.3944 8.10698 2.54569 8.08842 2.69301 8.11318C2.84033 8.13794 2.9774 8.20497 3.08776 8.3062L5.62095 10.6343L11.0096 7.79506L3.64182 2.54322L4.51166 1.759C4.61869 1.66181 4.75071 1.59679 4.89268 1.57137C5.03464 1.54594 5.18085 1.56112 5.31466 1.61519L15.1376 5.54314L18.8138 3.78585C19.5619 3.54199 20.4528 3.5344 21.266 3.76575C21.9356 3.9563 22.2912 4.23312 22.4117 4.3783C22.3436 4.42885 22.2703 4.47183 22.193 4.50649L22.1929 4.50634Z" fill="#1CB1BC"/>
</svg>
