<svg width="26" height="20" viewBox="0 0 26 20" fill="none" xmlns="http://www.w3.org/2000/svg">
<path d="M1.18182 20C0.84697 20 0.566485 19.872 0.340364 19.616C0.113455 19.3609 0 19.0444 0 18.6667V1.33333C0 0.955556 0.113455 0.638667 0.340364 0.382667C0.566485 0.127556 0.84697 0 1.18182 0C1.51667 0 1.79755 0.127556 2.02445 0.382667C2.25058 0.638667 2.36364 0.955556 2.36364 1.33333V13.3333H11.8182V5.33333C11.8182 4.6 12.0498 3.972 12.5131 3.44933C12.9756 2.92756 13.5318 2.66667 14.1818 2.66667H21.2727C22.5727 2.66667 23.6856 3.18889 24.6114 4.23333C25.5371 5.27778 26 6.53333 26 8V18.6667C26 19.0444 25.8865 19.3609 25.6596 19.616C25.4335 19.872 25.153 20 24.8182 20C24.4833 20 24.2028 19.872 23.9767 19.616C23.7498 19.3609 23.6364 19.0444 23.6364 18.6667V16H2.36364V18.6667C2.36364 19.0444 2.25058 19.3609 2.02445 19.616C1.79755 19.872 1.51667 20 1.18182 20ZM7.09091 12C6.10606 12 5.26894 11.6111 4.57955 10.8333C3.89015 10.0556 3.54545 9.11111 3.54545 8C3.54545 6.88889 3.89015 5.94444 4.57955 5.16667C5.26894 4.38889 6.10606 4 7.09091 4C8.07576 4 8.91288 4.38889 9.60227 5.16667C10.2917 5.94444 10.6364 6.88889 10.6364 8C10.6364 9.11111 10.2917 10.0556 9.60227 10.8333C8.91288 11.6111 8.07576 12 7.09091 12ZM14.1818 13.3333H23.6364V8C23.6364 7.26667 23.4051 6.63867 22.9426 6.116C22.4794 5.59422 21.9227 5.33333 21.2727 5.33333H14.1818V13.3333ZM7.09091 9.33333C7.42576 9.33333 7.70664 9.20533 7.93355 8.94933C8.15967 8.69422 8.27273 8.37778 8.27273 8C8.27273 7.62222 8.15967 7.30533 7.93355 7.04933C7.70664 6.79422 7.42576 6.66667 7.09091 6.66667C6.75606 6.66667 6.47518 6.79422 6.24827 7.04933C6.02215 7.30533 5.90909 7.62222 5.90909 8C5.90909 8.37778 6.02215 8.69422 6.24827 8.94933C6.47518 9.20533 6.75606 9.33333 7.09091 9.33333Z" fill="#1CB1BC"/>
</svg>
