<svg width="21" height="21" viewBox="0 0 21 21" fill="none" xmlns="http://www.w3.org/2000/svg">
<path d="M17.0625 10.5C17.0625 10.5 21 6.5625 21 3.9375C21 1.76367 19.2363 0 17.0625 0C14.8887 0 13.125 1.76367 13.125 3.9375C13.125 5.14336 13.9535 6.62402 14.8518 7.875H13.125C10.9512 7.875 9.1875 9.63867 9.1875 11.8125C9.1875 13.9863 10.9512 15.75 13.125 15.75H17.0625C17.7885 15.75 18.375 16.3365 18.375 17.0625C18.375 17.7885 17.7885 18.375 17.0625 18.375H7.73555C7.48125 18.7688 7.21875 19.1461 6.95625 19.4906C6.51738 20.073 6.08262 20.5939 5.72578 21H17.0625C19.2363 21 21 19.2363 21 17.0625C21 14.8887 19.2363 13.125 17.0625 13.125H13.125C12.399 13.125 11.8125 12.5385 11.8125 11.8125C11.8125 11.0865 12.399 10.5 13.125 10.5H17.0625ZM17.0625 5.25C16.3365 5.25 15.75 4.66348 15.75 3.9375C15.75 3.21152 16.3365 2.625 17.0625 2.625C17.7885 2.625 18.375 3.21152 18.375 3.9375C18.375 4.66348 17.7885 5.25 17.0625 5.25ZM6.14824 18.375C7.04648 17.124 7.875 15.6434 7.875 14.4375C7.875 12.2637 6.11133 10.5 3.9375 10.5C1.76367 10.5 0 12.2637 0 14.4375C0 17.0625 3.9375 21 3.9375 21C3.9375 21 4.08105 20.8564 4.31484 20.6062C4.33125 20.5898 4.34355 20.5734 4.35996 20.557C4.49531 20.4135 4.65117 20.2371 4.82754 20.032C4.83574 20.0238 4.84395 20.0156 4.85215 20.0074C5.2377 19.5645 5.70117 18.9984 6.14824 18.375V18.375ZM3.9375 15.75C3.21152 15.75 2.625 15.1635 2.625 14.4375C2.625 13.7115 3.21152 13.125 3.9375 13.125C4.66348 13.125 5.25 13.7115 5.25 14.4375C5.25 15.1635 4.66348 15.75 3.9375 15.75Z" fill="#1CB1BC"/>
</svg>
