<svg width="19" height="21" viewBox="0 0 19 21" fill="none" xmlns="http://www.w3.org/2000/svg">
<path d="M9.5 0L0 3V12C0 16.9711 4.25273 21 9.5 21C14.7473 21 19 16.9711 19 12V3L9.5 0ZM17.2187 12C17.2187 16.0383 13.7626 19.3125 9.5 19.3125C5.23737 19.3125 1.78125 16.0383 1.78125 12V4.26562L9.5 1.6875L17.2187 4.26562V12Z" fill="#1CB1BC"/>
<path d="M4.34087 13.935H14.6589V14.6087H4.34087V13.935ZM13.7923 7.36895C13.2896 7.23177 12.7551 7.2415 12.2874 7.39632L12.2682 7.40264L10.8689 8.05411L6.78505 6.4638C6.60677 6.39363 6.41197 6.37393 6.22282 6.40692C6.03367 6.43991 5.85777 6.52427 5.71518 6.65039L5.16846 7.13043C5.11078 7.18108 5.06549 7.2438 5.03594 7.31394C5.00639 7.38408 4.99335 7.45984 4.99778 7.53559C5.00221 7.61134 5.024 7.68515 5.06153 7.75152C5.09905 7.8179 5.15136 7.87515 5.21456 7.91902L7.74606 9.6763L6.77503 10.1746L6.00602 9.4863C5.85899 9.35496 5.67636 9.26801 5.48009 9.23588C5.28383 9.20376 5.08226 9.22783 4.89963 9.30521L4.48143 9.48282C4.41606 9.51057 4.35727 9.55127 4.30876 9.60237C4.26025 9.65347 4.22307 9.71386 4.19956 9.77973C4.17605 9.8456 4.16672 9.91552 4.17216 9.9851C4.1776 10.0547 4.19769 10.1224 4.23117 10.184L5.79652 13.065L14.3214 8.94912C14.8318 8.71377 14.8941 8.33755 14.7818 8.06352C14.6574 7.75973 14.2967 7.50657 13.7923 7.36895ZM14.0266 8.34032L14.0234 8.3418L6.0905 12.1719L4.92594 10.0284L5.17314 9.92338C5.23402 9.89758 5.30121 9.88955 5.36664 9.90026C5.43206 9.91097 5.49294 9.93996 5.54195 9.98374L6.66695 10.9906L9.06006 9.76268L5.78801 7.49129L6.17431 7.15212C6.22184 7.11008 6.28047 7.08196 6.34352 7.07096C6.40657 7.05997 6.4715 7.06653 6.53093 7.08992L10.8934 8.78873L12.526 8.02872C12.8582 7.92325 13.2539 7.91996 13.615 8.02002C13.9124 8.10243 14.0703 8.22216 14.1238 8.28495C14.0936 8.30681 14.061 8.32534 14.0266 8.34032Z" fill="#1CB1BC"/>
</svg>
