<svg width="227" height="157" viewBox="0 0 227 157" fill="none" xmlns="http://www.w3.org/2000/svg">
<rect width="227" height="157" fill="white"/>
<path d="M61.9072 108.047V118H60.1914L55.7275 110.87V118H54.0117V108.047H55.7275L60.2051 115.19V108.047H61.9072ZM63.4727 114.384V114.227C63.4727 113.693 63.5501 113.199 63.7051 112.743C63.86 112.283 64.0833 111.884 64.375 111.547C64.6712 111.205 65.0312 110.941 65.4551 110.754C65.8835 110.562 66.3665 110.467 66.9043 110.467C67.4466 110.467 67.9297 110.562 68.3535 110.754C68.7819 110.941 69.1442 111.205 69.4404 111.547C69.7367 111.884 69.9622 112.283 70.1172 112.743C70.2721 113.199 70.3496 113.693 70.3496 114.227V114.384C70.3496 114.917 70.2721 115.411 70.1172 115.867C69.9622 116.323 69.7367 116.722 69.4404 117.063C69.1442 117.401 68.7842 117.665 68.3604 117.856C67.9365 118.043 67.4557 118.137 66.918 118.137C66.3757 118.137 65.8903 118.043 65.4619 117.856C65.0381 117.665 64.6781 117.401 64.3818 117.063C64.0856 116.722 63.86 116.323 63.7051 115.867C63.5501 115.411 63.4727 114.917 63.4727 114.384ZM65.1201 114.227V114.384C65.1201 114.716 65.1543 115.031 65.2227 115.327C65.291 115.623 65.3981 115.883 65.5439 116.106C65.6898 116.33 65.8766 116.505 66.1045 116.633C66.3324 116.76 66.6035 116.824 66.918 116.824C67.2233 116.824 67.4876 116.76 67.7109 116.633C67.9388 116.505 68.1257 116.33 68.2715 116.106C68.4173 115.883 68.5244 115.623 68.5928 115.327C68.6657 115.031 68.7021 114.716 68.7021 114.384V114.227C68.7021 113.898 68.6657 113.589 68.5928 113.297C68.5244 113.001 68.415 112.739 68.2646 112.511C68.1188 112.283 67.932 112.105 67.7041 111.978C67.4808 111.845 67.2142 111.779 66.9043 111.779C66.5944 111.779 66.3255 111.845 66.0977 111.978C65.8743 112.105 65.6898 112.283 65.5439 112.511C65.3981 112.739 65.291 113.001 65.2227 113.297C65.1543 113.589 65.1201 113.898 65.1201 114.227ZM76.9805 110.604V118H75.3262V110.604H76.9805ZM75.2168 108.662C75.2168 108.411 75.2988 108.204 75.4629 108.04C75.6315 107.871 75.8639 107.787 76.1602 107.787C76.4518 107.787 76.682 107.871 76.8506 108.04C77.0192 108.204 77.1035 108.411 77.1035 108.662C77.1035 108.908 77.0192 109.113 76.8506 109.277C76.682 109.441 76.4518 109.523 76.1602 109.523C75.8639 109.523 75.6315 109.441 75.4629 109.277C75.2988 109.113 75.2168 108.908 75.2168 108.662ZM80.4326 112.107V118H78.7852V110.604H80.3369L80.4326 112.107ZM80.166 114.028L79.6055 114.021C79.6055 113.511 79.6693 113.039 79.7969 112.606C79.9245 112.174 80.1113 111.798 80.3574 111.479C80.6035 111.155 80.9089 110.907 81.2734 110.733C81.6426 110.556 82.0687 110.467 82.5518 110.467C82.889 110.467 83.1966 110.517 83.4746 110.617C83.7572 110.713 84.001 110.866 84.2061 111.075C84.4157 111.285 84.5752 111.554 84.6846 111.882C84.7985 112.21 84.8555 112.606 84.8555 113.071V118H83.208V113.215C83.208 112.855 83.1533 112.572 83.0439 112.367C82.9391 112.162 82.7865 112.016 82.5859 111.93C82.39 111.839 82.1553 111.793 81.8818 111.793C81.5719 111.793 81.3076 111.852 81.0889 111.971C80.8747 112.089 80.6992 112.251 80.5625 112.456C80.4258 112.661 80.3255 112.898 80.2617 113.167C80.1979 113.436 80.166 113.723 80.166 114.028ZM84.7529 113.591L83.9805 113.762C83.9805 113.315 84.042 112.894 84.165 112.497C84.2926 112.096 84.4772 111.745 84.7188 111.444C84.9648 111.139 85.2679 110.9 85.6279 110.727C85.988 110.553 86.4004 110.467 86.8652 110.467C87.2435 110.467 87.5807 110.519 87.877 110.624C88.1777 110.724 88.4329 110.884 88.6426 111.103C88.8522 111.321 89.0117 111.606 89.1211 111.957C89.2305 112.303 89.2852 112.723 89.2852 113.215V118H87.6309V113.208C87.6309 112.834 87.5762 112.545 87.4668 112.34C87.362 112.135 87.2116 111.993 87.0156 111.916C86.8197 111.834 86.585 111.793 86.3115 111.793C86.0563 111.793 85.8307 111.841 85.6348 111.937C85.4434 112.028 85.2816 112.158 85.1494 112.326C85.0173 112.49 84.917 112.679 84.8486 112.894C84.7848 113.108 84.7529 113.34 84.7529 113.591ZM95.1504 116.517V112.989C95.1504 112.725 95.1025 112.497 95.0068 112.306C94.9111 112.114 94.7653 111.966 94.5693 111.861C94.3779 111.757 94.1364 111.704 93.8447 111.704C93.5758 111.704 93.3434 111.75 93.1475 111.841C92.9515 111.932 92.7988 112.055 92.6895 112.21C92.5801 112.365 92.5254 112.54 92.5254 112.736H90.8848C90.8848 112.445 90.9554 112.162 91.0967 111.889C91.238 111.615 91.443 111.371 91.7119 111.157C91.9808 110.943 92.3021 110.774 92.6758 110.651C93.0495 110.528 93.4688 110.467 93.9336 110.467C94.4896 110.467 94.9818 110.56 95.4102 110.747C95.8431 110.934 96.1826 111.216 96.4287 111.595C96.6794 111.968 96.8047 112.438 96.8047 113.003V116.291C96.8047 116.628 96.8275 116.931 96.873 117.2C96.9232 117.465 96.9938 117.695 97.085 117.891V118H95.3965C95.319 117.822 95.2575 117.597 95.2119 117.323C95.1709 117.045 95.1504 116.776 95.1504 116.517ZM95.3896 113.502L95.4033 114.521H94.2207C93.9154 114.521 93.6465 114.55 93.4141 114.609C93.1816 114.664 92.988 114.746 92.833 114.855C92.6781 114.965 92.5618 115.097 92.4844 115.252C92.4069 115.407 92.3682 115.582 92.3682 115.778C92.3682 115.974 92.4137 116.154 92.5049 116.318C92.596 116.478 92.7282 116.603 92.9014 116.694C93.0791 116.785 93.2933 116.831 93.5439 116.831C93.8812 116.831 94.1751 116.763 94.4258 116.626C94.681 116.485 94.8815 116.314 95.0273 116.113C95.1732 115.908 95.2507 115.715 95.2598 115.532L95.793 116.264C95.7383 116.451 95.6449 116.651 95.5127 116.865C95.3805 117.079 95.2074 117.285 94.9932 117.48C94.7835 117.672 94.5306 117.829 94.2344 117.952C93.9427 118.075 93.6055 118.137 93.2227 118.137C92.7396 118.137 92.3089 118.041 91.9307 117.85C91.5524 117.654 91.2562 117.392 91.042 117.063C90.8278 116.731 90.7207 116.355 90.7207 115.936C90.7207 115.544 90.7936 115.197 90.9395 114.896C91.0898 114.591 91.3086 114.336 91.5957 114.131C91.8874 113.926 92.2428 113.771 92.6621 113.666C93.0814 113.557 93.5599 113.502 94.0977 113.502H95.3896ZM103.265 110.604H104.762V117.795C104.762 118.46 104.62 119.025 104.338 119.49C104.055 119.955 103.661 120.308 103.155 120.55C102.649 120.796 102.064 120.919 101.398 120.919C101.116 120.919 100.801 120.878 100.455 120.796C100.113 120.714 99.7806 120.582 99.457 120.399C99.138 120.222 98.8714 119.987 98.6572 119.695L99.4297 118.725C99.694 119.039 99.9857 119.269 100.305 119.415C100.624 119.561 100.959 119.634 101.31 119.634C101.688 119.634 102.009 119.563 102.273 119.422C102.542 119.285 102.75 119.082 102.896 118.813C103.041 118.545 103.114 118.216 103.114 117.829V112.278L103.265 110.604ZM98.2402 114.384V114.24C98.2402 113.68 98.3086 113.169 98.4453 112.709C98.582 112.244 98.778 111.845 99.0332 111.513C99.2884 111.175 99.5983 110.918 99.9629 110.74C100.327 110.558 100.74 110.467 101.2 110.467C101.679 110.467 102.087 110.553 102.424 110.727C102.766 110.9 103.05 111.148 103.278 111.472C103.506 111.791 103.684 112.174 103.812 112.62C103.944 113.062 104.042 113.554 104.105 114.097V114.555C104.046 115.083 103.946 115.566 103.805 116.004C103.663 116.441 103.477 116.82 103.244 117.139C103.012 117.458 102.725 117.704 102.383 117.877C102.046 118.05 101.647 118.137 101.187 118.137C100.735 118.137 100.327 118.043 99.9629 117.856C99.6029 117.67 99.293 117.408 99.0332 117.07C98.778 116.733 98.582 116.337 98.4453 115.881C98.3086 115.421 98.2402 114.922 98.2402 114.384ZM99.8877 114.24V114.384C99.8877 114.721 99.9196 115.035 99.9834 115.327C100.052 115.619 100.154 115.876 100.291 116.1C100.432 116.318 100.61 116.492 100.824 116.619C101.043 116.742 101.3 116.804 101.597 116.804C101.984 116.804 102.301 116.722 102.547 116.558C102.798 116.394 102.989 116.173 103.121 115.895C103.258 115.612 103.354 115.298 103.408 114.951V113.714C103.381 113.445 103.324 113.194 103.237 112.962C103.155 112.729 103.044 112.527 102.902 112.354C102.761 112.176 102.583 112.039 102.369 111.943C102.155 111.843 101.902 111.793 101.61 111.793C101.314 111.793 101.057 111.857 100.838 111.984C100.619 112.112 100.439 112.287 100.298 112.511C100.161 112.734 100.059 112.994 99.9902 113.29C99.9219 113.586 99.8877 113.903 99.8877 114.24ZM109.731 118.137C109.185 118.137 108.69 118.048 108.248 117.87C107.811 117.688 107.437 117.435 107.127 117.111C106.822 116.788 106.587 116.407 106.423 115.97C106.259 115.532 106.177 115.061 106.177 114.555V114.281C106.177 113.702 106.261 113.178 106.43 112.709C106.598 112.24 106.833 111.839 107.134 111.506C107.435 111.169 107.79 110.911 108.2 110.733C108.61 110.556 109.055 110.467 109.533 110.467C110.062 110.467 110.524 110.556 110.921 110.733C111.317 110.911 111.646 111.162 111.905 111.485C112.17 111.804 112.366 112.185 112.493 112.627C112.625 113.069 112.691 113.557 112.691 114.09V114.794H106.977V113.611H111.064V113.481C111.055 113.185 110.996 112.907 110.887 112.647C110.782 112.388 110.62 112.178 110.401 112.019C110.183 111.859 109.891 111.779 109.526 111.779C109.253 111.779 109.009 111.839 108.795 111.957C108.585 112.071 108.41 112.237 108.269 112.456C108.127 112.675 108.018 112.939 107.94 113.249C107.868 113.554 107.831 113.898 107.831 114.281V114.555C107.831 114.878 107.874 115.179 107.961 115.457C108.052 115.73 108.184 115.97 108.357 116.175C108.531 116.38 108.74 116.542 108.986 116.66C109.232 116.774 109.513 116.831 109.827 116.831C110.224 116.831 110.577 116.751 110.887 116.592C111.197 116.432 111.465 116.207 111.693 115.915L112.562 116.756C112.402 116.988 112.195 117.212 111.939 117.426C111.684 117.635 111.372 117.806 111.003 117.938C110.638 118.071 110.215 118.137 109.731 118.137ZM121.633 116.517V112.989C121.633 112.725 121.585 112.497 121.489 112.306C121.394 112.114 121.248 111.966 121.052 111.861C120.86 111.757 120.619 111.704 120.327 111.704C120.058 111.704 119.826 111.75 119.63 111.841C119.434 111.932 119.281 112.055 119.172 112.21C119.062 112.365 119.008 112.54 119.008 112.736H117.367C117.367 112.445 117.438 112.162 117.579 111.889C117.72 111.615 117.925 111.371 118.194 111.157C118.463 110.943 118.785 110.774 119.158 110.651C119.532 110.528 119.951 110.467 120.416 110.467C120.972 110.467 121.464 110.56 121.893 110.747C122.326 110.934 122.665 111.216 122.911 111.595C123.162 111.968 123.287 112.438 123.287 113.003V116.291C123.287 116.628 123.31 116.931 123.355 117.2C123.406 117.465 123.476 117.695 123.567 117.891V118H121.879C121.801 117.822 121.74 117.597 121.694 117.323C121.653 117.045 121.633 116.776 121.633 116.517ZM121.872 113.502L121.886 114.521H120.703C120.398 114.521 120.129 114.55 119.896 114.609C119.664 114.664 119.47 114.746 119.315 114.855C119.16 114.965 119.044 115.097 118.967 115.252C118.889 115.407 118.851 115.582 118.851 115.778C118.851 115.974 118.896 116.154 118.987 116.318C119.078 116.478 119.211 116.603 119.384 116.694C119.562 116.785 119.776 116.831 120.026 116.831C120.364 116.831 120.658 116.763 120.908 116.626C121.163 116.485 121.364 116.314 121.51 116.113C121.656 115.908 121.733 115.715 121.742 115.532L122.275 116.264C122.221 116.451 122.127 116.651 121.995 116.865C121.863 117.079 121.69 117.285 121.476 117.48C121.266 117.672 121.013 117.829 120.717 117.952C120.425 118.075 120.088 118.137 119.705 118.137C119.222 118.137 118.791 118.041 118.413 117.85C118.035 117.654 117.739 117.392 117.524 117.063C117.31 116.731 117.203 116.355 117.203 115.936C117.203 115.544 117.276 115.197 117.422 114.896C117.572 114.591 117.791 114.336 118.078 114.131C118.37 113.926 118.725 113.771 119.145 113.666C119.564 113.557 120.042 113.502 120.58 113.502H121.872ZM127.307 116.694L129.118 110.604H130.827L128.257 118H127.19L127.307 116.694ZM125.919 110.604L127.765 116.722L127.854 118H126.787L124.203 110.604H125.919ZM135.906 116.517V112.989C135.906 112.725 135.858 112.497 135.763 112.306C135.667 112.114 135.521 111.966 135.325 111.861C135.134 111.757 134.892 111.704 134.601 111.704C134.332 111.704 134.099 111.75 133.903 111.841C133.707 111.932 133.555 112.055 133.445 112.21C133.336 112.365 133.281 112.54 133.281 112.736H131.641C131.641 112.445 131.711 112.162 131.853 111.889C131.994 111.615 132.199 111.371 132.468 111.157C132.737 110.943 133.058 110.774 133.432 110.651C133.805 110.528 134.225 110.467 134.689 110.467C135.245 110.467 135.738 110.56 136.166 110.747C136.599 110.934 136.938 111.216 137.185 111.595C137.435 111.968 137.561 112.438 137.561 113.003V116.291C137.561 116.628 137.583 116.931 137.629 117.2C137.679 117.465 137.75 117.695 137.841 117.891V118H136.152C136.075 117.822 136.013 117.597 135.968 117.323C135.927 117.045 135.906 116.776 135.906 116.517ZM136.146 113.502L136.159 114.521H134.977C134.671 114.521 134.402 114.55 134.17 114.609C133.938 114.664 133.744 114.746 133.589 114.855C133.434 114.965 133.318 115.097 133.24 115.252C133.163 115.407 133.124 115.582 133.124 115.778C133.124 115.974 133.17 116.154 133.261 116.318C133.352 116.478 133.484 116.603 133.657 116.694C133.835 116.785 134.049 116.831 134.3 116.831C134.637 116.831 134.931 116.763 135.182 116.626C135.437 116.485 135.637 116.314 135.783 116.113C135.929 115.908 136.007 115.715 136.016 115.532L136.549 116.264C136.494 116.451 136.401 116.651 136.269 116.865C136.136 117.079 135.963 117.285 135.749 117.48C135.539 117.672 135.286 117.829 134.99 117.952C134.699 118.075 134.361 118.137 133.979 118.137C133.495 118.137 133.065 118.041 132.687 117.85C132.308 117.654 132.012 117.392 131.798 117.063C131.584 116.731 131.477 116.355 131.477 115.936C131.477 115.544 131.549 115.197 131.695 114.896C131.846 114.591 132.064 114.336 132.352 114.131C132.643 113.926 132.999 113.771 133.418 113.666C133.837 113.557 134.316 113.502 134.854 113.502H136.146ZM141.047 110.604V118H139.393V110.604H141.047ZM139.283 108.662C139.283 108.411 139.365 108.204 139.529 108.04C139.698 107.871 139.93 107.787 140.227 107.787C140.518 107.787 140.748 107.871 140.917 108.04C141.086 108.204 141.17 108.411 141.17 108.662C141.17 108.908 141.086 109.113 140.917 109.277C140.748 109.441 140.518 109.523 140.227 109.523C139.93 109.523 139.698 109.441 139.529 109.277C139.365 109.113 139.283 108.908 139.283 108.662ZM144.615 107.5V118H142.961V107.5H144.615ZM150.59 116.517V112.989C150.59 112.725 150.542 112.497 150.446 112.306C150.351 112.114 150.205 111.966 150.009 111.861C149.817 111.757 149.576 111.704 149.284 111.704C149.015 111.704 148.783 111.75 148.587 111.841C148.391 111.932 148.238 112.055 148.129 112.21C148.02 112.365 147.965 112.54 147.965 112.736H146.324C146.324 112.445 146.395 112.162 146.536 111.889C146.677 111.615 146.882 111.371 147.151 111.157C147.42 110.943 147.742 110.774 148.115 110.651C148.489 110.528 148.908 110.467 149.373 110.467C149.929 110.467 150.421 110.56 150.85 110.747C151.283 110.934 151.622 111.216 151.868 111.595C152.119 111.968 152.244 112.438 152.244 113.003V116.291C152.244 116.628 152.267 116.931 152.312 117.2C152.363 117.465 152.433 117.695 152.524 117.891V118H150.836C150.758 117.822 150.697 117.597 150.651 117.323C150.61 117.045 150.59 116.776 150.59 116.517ZM150.829 113.502L150.843 114.521H149.66C149.355 114.521 149.086 114.55 148.854 114.609C148.621 114.664 148.427 114.746 148.272 114.855C148.118 114.965 148.001 115.097 147.924 115.252C147.846 115.407 147.808 115.582 147.808 115.778C147.808 115.974 147.853 116.154 147.944 116.318C148.035 116.478 148.168 116.603 148.341 116.694C148.519 116.785 148.733 116.831 148.983 116.831C149.321 116.831 149.615 116.763 149.865 116.626C150.12 116.485 150.321 116.314 150.467 116.113C150.613 115.908 150.69 115.715 150.699 115.532L151.232 116.264C151.178 116.451 151.084 116.651 150.952 116.865C150.82 117.079 150.647 117.285 150.433 117.48C150.223 117.672 149.97 117.829 149.674 117.952C149.382 118.075 149.045 118.137 148.662 118.137C148.179 118.137 147.748 118.041 147.37 117.85C146.992 117.654 146.696 117.392 146.481 117.063C146.267 116.731 146.16 116.355 146.16 115.936C146.16 115.544 146.233 115.197 146.379 114.896C146.529 114.591 146.748 114.336 147.035 114.131C147.327 113.926 147.682 113.771 148.102 113.666C148.521 113.557 148.999 113.502 149.537 113.502H150.829ZM153.974 107.5H155.621V116.421L155.464 118H153.974V107.5ZM160.447 114.233V114.377C160.447 114.924 160.386 115.427 160.263 115.888C160.144 116.343 159.962 116.74 159.716 117.077C159.474 117.414 159.174 117.676 158.813 117.863C158.458 118.046 158.046 118.137 157.576 118.137C157.116 118.137 156.715 118.05 156.373 117.877C156.031 117.704 155.744 117.458 155.512 117.139C155.284 116.82 155.099 116.439 154.958 115.997C154.817 115.555 154.716 115.067 154.657 114.534V114.076C154.716 113.538 154.817 113.051 154.958 112.613C155.099 112.171 155.284 111.791 155.512 111.472C155.744 111.148 156.029 110.9 156.366 110.727C156.708 110.553 157.107 110.467 157.562 110.467C158.036 110.467 158.453 110.558 158.813 110.74C159.178 110.923 159.481 111.182 159.723 111.52C159.964 111.852 160.144 112.249 160.263 112.709C160.386 113.169 160.447 113.677 160.447 114.233ZM158.8 114.377V114.233C158.8 113.901 158.772 113.589 158.718 113.297C158.663 113.001 158.572 112.741 158.444 112.518C158.321 112.294 158.153 112.119 157.938 111.991C157.729 111.859 157.467 111.793 157.152 111.793C156.861 111.793 156.61 111.843 156.4 111.943C156.191 112.044 156.015 112.18 155.874 112.354C155.733 112.527 155.621 112.727 155.539 112.955C155.462 113.183 155.409 113.429 155.382 113.693V114.931C155.423 115.272 155.509 115.587 155.642 115.874C155.778 116.157 155.97 116.384 156.216 116.558C156.462 116.726 156.779 116.811 157.166 116.811C157.471 116.811 157.729 116.749 157.938 116.626C158.148 116.503 158.314 116.332 158.438 116.113C158.565 115.89 158.656 115.63 158.711 115.334C158.77 115.038 158.8 114.719 158.8 114.377ZM163.605 107.5V118H161.951V107.5H163.605ZM168.671 118.137C168.124 118.137 167.63 118.048 167.188 117.87C166.75 117.688 166.376 117.435 166.066 117.111C165.761 116.788 165.526 116.407 165.362 115.97C165.198 115.532 165.116 115.061 165.116 114.555V114.281C165.116 113.702 165.201 113.178 165.369 112.709C165.538 112.24 165.772 111.839 166.073 111.506C166.374 111.169 166.729 110.911 167.14 110.733C167.55 110.556 167.994 110.467 168.473 110.467C169.001 110.467 169.464 110.556 169.86 110.733C170.257 110.911 170.585 111.162 170.845 111.485C171.109 111.804 171.305 112.185 171.433 112.627C171.565 113.069 171.631 113.557 171.631 114.09V114.794H165.916V113.611H170.004V113.481C169.995 113.185 169.936 112.907 169.826 112.647C169.721 112.388 169.56 112.178 169.341 112.019C169.122 111.859 168.83 111.779 168.466 111.779C168.192 111.779 167.949 111.839 167.734 111.957C167.525 112.071 167.349 112.237 167.208 112.456C167.067 112.675 166.957 112.939 166.88 113.249C166.807 113.554 166.771 113.898 166.771 114.281V114.555C166.771 114.878 166.814 115.179 166.9 115.457C166.992 115.73 167.124 115.97 167.297 116.175C167.47 116.38 167.68 116.542 167.926 116.66C168.172 116.774 168.452 116.831 168.767 116.831C169.163 116.831 169.516 116.751 169.826 116.592C170.136 116.432 170.405 116.207 170.633 115.915L171.501 116.756C171.341 116.988 171.134 117.212 170.879 117.426C170.624 117.635 170.312 117.806 169.942 117.938C169.578 118.071 169.154 118.137 168.671 118.137Z" fill="#898989"/>
<path d="M95.7266 61.4375C97.2931 61.4375 98.7953 60.8152 99.903 59.7076C101.011 58.6 101.633 57.0977 101.633 55.5312C101.633 53.9648 101.011 52.4625 99.903 51.3549C98.7953 50.2473 97.2931 49.625 95.7266 49.625C94.1602 49.625 92.6579 50.2473 91.5503 51.3549C90.4426 52.4625 89.8204 53.9648 89.8204 55.5312C89.8204 57.0977 90.4426 58.6 91.5503 59.7076C92.6579 60.8152 94.1602 61.4375 95.7266 61.4375V61.4375Z" fill="#898989"/>
<path d="M133.133 77.1875C133.133 79.2761 132.303 81.2791 130.826 82.756C129.349 84.2328 127.346 85.0625 125.258 85.0625H85.8829C83.7943 85.0625 81.7913 84.2328 80.3144 82.756C78.8376 81.2791 78.0079 79.2761 78.0079 77.1875V45.6875C78.0079 43.6003 78.8365 41.5984 80.3116 40.1218C81.7868 38.6452 83.7878 37.8146 85.875 37.8125C85.875 35.7239 86.7047 33.7209 88.1815 32.244C89.6584 30.7672 91.6614 29.9375 93.75 29.9375H133.125C135.214 29.9375 137.217 30.7672 138.693 32.244C140.17 33.7209 141 35.7239 141 37.8125V69.3125C141 71.3997 140.171 73.4016 138.696 74.8782C137.221 76.3548 135.22 77.1854 133.133 77.1875ZM133.125 33.875H93.75C92.7057 33.875 91.7042 34.2898 90.9658 35.0283C90.2273 35.7667 89.8125 36.7682 89.8125 37.8125H125.258C127.346 37.8125 129.349 38.6422 130.826 40.119C132.303 41.5959 133.133 43.5989 133.133 45.6875V73.25C134.176 73.2479 135.175 72.8322 135.912 72.094C136.649 71.3558 137.062 70.3554 137.062 69.3125V37.8125C137.062 36.7682 136.648 35.7667 135.909 35.0283C135.171 34.2898 134.169 33.875 133.125 33.875V33.875ZM85.8829 41.75C84.8386 41.75 83.8371 42.1648 83.0986 42.9033C82.3602 43.6417 81.9454 44.6432 81.9454 45.6875V77.1875L92.364 67.9186C92.6858 67.598 93.1086 67.3985 93.5608 67.354C94.0129 67.3095 94.4665 67.4227 94.8446 67.6745L105.318 74.6557L119.926 60.0476C120.218 59.7553 120.595 59.5623 121.003 59.4959C121.41 59.4294 121.829 59.493 122.198 59.6774L129.195 67.3438V45.6875C129.195 44.6432 128.781 43.6417 128.042 42.9033C127.304 42.1648 126.302 41.75 125.258 41.75H85.8829V41.75Z" fill="#898989"/>
</svg>
